999
DXF file generated by netDxf https://github.com/haplokuon/netDxf, Copyright(C) Daniel Carvajal, Licensed under MIT
0
SECTION
2
HEADER
9
$ACADVER
1
AC1015
9
$DWGCODEPAGE
3
ANSI_1252
9
$HANDSEED
5
67
9
$ANGBASE
50
0.0
9
$ANGDIR
70
0
9
$ATTMODE
70
1
9
$AUNITS
70
0
9
$AUPREC
70
0
9
$CECOLOR
62
256
9
$CELTSCALE
40
1.0
9
$CELTYPE
6
ByLayer
9
$CELWEIGHT
370
-1
9
$CLAYER
8
0
9
$CMLJUST
70
0
9
$CMLSCALE
40
20.0
9
$CMLSTYLE
2
Standard
9
$DIMSTYLE
2
Standard
9
$TEXTSIZE
40
2.5
9
$TEXTSTYLE
7
Standard
9
$LUNITS
70
2
9
$LUPREC
70
4
9
$MIRRTEXT
70
0
9
$EXTNAMES
290
1
9
$INSBASE
10
0.0
20
0.0
30
0.0
9
$INSUNITS
70
0
9
$LTSCALE
40
1.0
9
$LWDISPLAY
290
0
9
$PDMODE
70
0
9
$PDSIZE
40
0.0
9
$PLINEGEN
70
0
9
$PSLTSCALE
70
1
9
$SPLINESEGS
70
8
9
$SURFU
70
6
9
$SURFV
70
6
9
$TDCREATE
40
2461246.7243516
9
$TDUCREATE
40
2461246.49518493
9
$TDUPDATE
40
2461246.7243516
9
$TDUUPDATE
40
2461246.49518493
9
$TDINDWG
40
0.0
9
$UCSORG
10
0.0
20
0.0
30
0.0
9
$UCSXDIR
10
1.0
20
0.0
30
0.0
9
$UCSYDIR
10
0.0
20
1.0
30
0.0
9
$DIMADEC
70
0
9
$DIMALT
70
0
9
$DIMALTD
70
2
9
$DIMALTF
40
25.4
9
$DIMALTRND
40
0.0
9
$DIMALTTD
70
2
9
$DIMALTTZ
70
0
9
$DIMALTU
70
2
9
$DIMALTZ
70
0
9
$DIMAPOST
1

9
$DIMATFIT
70
3
9
$DIMAUNIT
70
0
9
$DIMASZ
40
0.18
9
$DIMAZIN
70
0
9
$DIMSAH
70
0
9
$DIMBLK
1

9
$DIMLDRBLK
1

9
$DIMCEN
40
0.09
9
$DIMCLRD
70
0
9
$DIMCLRE
70
0
9
$DIMCLRT
70
0
9
$DIMDEC
70
4
9
$DIMDLE
40
0.0
9
$DIMDLI
40
0.38
9
$DIMDSEP
70
46
9
$DIMEXE
40
0.18
9
$DIMEXO
40
0.0625
9
$DIMFXLON
70
0
9
$DIMFXL
40
1.0
9
$DIMGAP
40
0.09
9
$DIMJUST
70
0
9
$DIMLFAC
40
1.0
9
$DIMLUNIT
70
2
9
$DIMLWD
70
-2
9
$DIMLWE
70
-2
9
$DIMPOST
1

9
$DIMRND
40
0.0
9
$DIMSCALE
40
1.0
9
$DIMSD1
70
0
9
$DIMSD2
70
0
9
$DIMSE1
70
0
9
$DIMSE2
70
0
9
$DIMSOXD
70
0
9
$DIMTAD
70
0
9
$DIMTDEC
70
4
9
$DIMTFAC
40
1.0
9
$DIMTIH
70
0
9
$DIMTIX
70
0
9
$DIMTM
40
0.0
9
$DIMTMOVE
70
0
9
$DIMTOFL
70
0
9
$DIMTOH
70
0
9
$DIMTOL
70
0
9
$DIMLIM
70
0
9
$DIMTOLJ
70
1
9
$DIMTP
40
0.0
9
$DIMTXT
40
0.18
9
$DIMTXTDIRECTION
70
0
9
$DIMTZIN
70
0
9
$DIMZIN
70
0
9
$DIMFRAC
70
0
9
$DIMLTYPE
6
ByBlock
9
$DIMLTEX1
6
ByBlock
9
$DIMLTEX2
6
ByBlock
0
ENDSEC
0
SECTION
2
CLASSES
0
CLASS
1
RASTERVARIABLES
2
AcDbRasterVariables
3
ISM
90
0
280
0
281
0
0
ENDSEC
0
SECTION
2
TABLES
0
TABLE
2
APPID
5
4
330
0
100
AcDbSymbolTable
70
5
0
APPID
5
19
330
4
100
AcDbSymbolTableRecord
100
AcDbRegAppTableRecord
2
ACAD
70
0
0
APPID
5
61
330
4
100
AcDbSymbolTableRecord
100
AcDbRegAppTableRecord
2
AcCmTransparency
70
0
0
APPID
5
62
330
4
100
AcDbSymbolTableRecord
100
AcDbRegAppTableRecord
2
AcAecLayerStandard
70
0
0
APPID
5
63
330
4
100
AcDbSymbolTableRecord
100
AcDbRegAppTableRecord
2
GradientColor1ACI
70
0
0
APPID
5
64
330
4
100
AcDbSymbolTableRecord
100
AcDbRegAppTableRecord
2
GradientColor2ACI
70
0
0
ENDTAB
0
TABLE
2
VPORT
5
1
330
0
100
AcDbSymbolTable
70
1
0
VPORT
5
2
330
1
100
AcDbSymbolTableRecord
100
AcDbViewportTableRecord
2
*Active
70
0
10
0.0
20
0.0
11
1.0
21
1.0
12
0.0
22
0.0
13
0.0
23
0.0
14
0.5
24
0.5
15
10.0
25
10.0
16
0.0
26
0.0
36
1.0
17
0.0
27
0.0
37
0.0
40
10.0
41
1.0
75
0
76
1
0
ENDTAB
0
TABLE
2
LTYPE
5
7
330
0
100
AcDbSymbolTable
70
5
0
LTYPE
5
15
330
7
100
AcDbSymbolTableRecord
100
AcDbLinetypeTableRecord
2
Continuous
70
0
3
Solid line
72
65
73
0
40
0.0
0
LTYPE
5
16
330
7
100
AcDbSymbolTableRecord
100
AcDbLinetypeTableRecord
2
ByLayer
70
0
3

72
65
73
0
40
0.0
0
LTYPE
5
17
330
7
100
AcDbSymbolTableRecord
100
AcDbLinetypeTableRecord
2
ByBlock
70
0
3

72
65
73
0
40
0.0
0
LTYPE
5
22
330
7
100
AcDbSymbolTableRecord
100
AcDbLinetypeTableRecord
2
DASHED
70
0
3
Dashed
72
65
73
2
40
8.0
49
6.0
74
0
49
-2.0
74
0
0
LTYPE
5
23
330
7
100
AcDbSymbolTableRecord
100
AcDbLinetypeTableRecord
2
CENTER
70
0
3
Center
72
65
73
4
40
20.0
49
12.0
74
0
49
-3.0
74
0
49
2.0
74
0
49
-3.0
74
0
0
ENDTAB
0
TABLE
2
LAYER
5
5
102
{ACAD_XDICTIONARY
360
6
102
}
330
0
100
AcDbSymbolTable
70
13
0
LAYER
5
14
330
5
100
AcDbSymbolTableRecord
100
AcDbLayerTableRecord
2
0
70
0
62
7
6
Continuous
290
1
370
-3
390
0
0
LAYER
5
24
330
5
100
AcDbSymbolTableRecord
100
AcDbLayerTableRecord
2
CASING
70
0
62
8
6
Continuous
290
1
370
-3
390
0
0
LAYER
5
25
330
5
100
AcDbSymbolTableRecord
100
AcDbLayerTableRecord
2
HUB
70
0
62
9
6
Continuous
290
1
370
-3
390
0
0
LAYER
5
26
330
5
100
AcDbSymbolTableRecord
100
AcDbLayerTableRecord
2
BLADES
70
0
62
5
6
Continuous
290
1
370
-3
390
0
0
LAYER
5
27
330
5
100
AcDbSymbolTableRecord
100
AcDbLayerTableRecord
2
CENTERLINE
70
0
62
1
6
Continuous
290
1
370
-3
390
0
0
LAYER
5
28
330
5
100
AcDbSymbolTableRecord
100
AcDbLayerTableRecord
2
TIP_DIAMETER
70
0
62
2
6
Continuous
290
1
370
-3
390
0
0
LAYER
5
29
330
5
100
AcDbSymbolTableRecord
100
AcDbLayerTableRecord
2
TIP_CLEARANCE
70
0
62
2
6
Continuous
290
1
370
-3
390
0
0
LAYER
5
2A
330
5
100
AcDbSymbolTableRecord
100
AcDbLayerTableRecord
2
BLADE_SURFACE
70
0
62
5
6
Continuous
290
1
370
-3
390
0
0
LAYER
5
2B
330
5
100
AcDbSymbolTableRecord
100
AcDbLayerTableRecord
2
CAMBER_LINE
70
0
62
4
6
Continuous
290
1
370
-3
390
0
0
LAYER
5
2C
330
5
100
AcDbSymbolTableRecord
100
AcDbLayerTableRecord
2
STATION_TICKS
70
0
62
9
6
Continuous
290
1
370
-3
390
0
0
LAYER
5
2D
330
5
100
AcDbSymbolTableRecord
100
AcDbLayerTableRecord
2
DIMENSIONS
70
0
62
7
6
Continuous
290
1
370
-3
390
0
0
LAYER
5
2E
330
5
100
AcDbSymbolTableRecord
100
AcDbLayerTableRecord
2
ANNOTATION
70
0
62
3
6
Continuous
290
1
370
-3
390
0
0
LAYER
5
2F
330
5
100
AcDbSymbolTableRecord
100
AcDbLayerTableRecord
2
TITLE_BLOCK
70
0
62
5
6
Continuous
290
1
370
-3
390
0
0
ENDTAB
0
TABLE
2
STYLE
5
8
330
0
100
AcDbSymbolTable
70
1
0
STYLE
5
18
330
8
100
AcDbSymbolTableRecord
100
AcDbTextStyleTableRecord
2
Standard
3
simplex.shx
70
0
71
0
40
0.0
41
1.0
42
0.0
50
0.0
0
ENDTAB
0
TABLE
2
DIMSTYLE
5
A
330
0
100
AcDbSymbolTable
70
1
100
AcDbDimStyleTable
0
DIMSTYLE
105
1A
330
A
100
AcDbSymbolTableRecord
100
AcDbDimStyleTableRecord
2
Standard
3

4

40
1.0
41
0.18
42
0.0625
43
0.38
44
0.18
45
0.0
46
0.0
47
0.0
48
0.0
49
1.0
70
0
71
0
72
0
73
0
74
0
75
0
76
0
77
0
78
0
79
0
140
0.18
141
0.09
143
25.4
144
1.0
146
1.0
147
0.09
148
0.0
170
0
171
2
172
0
174
0
175
0
176
0
177
0
178
0
179
0
271
4
272
4
273
2
274
2
275
0
276
0
277
2
278
46
279
0
280
0
281
0
282
0
283
1
284
0
285
0
286
0
289
3
290
0
294
0
340
18
173
0
345
17
346
17
347
17
371
-2
372
-2
0
ENDTAB
0
TABLE
2
VIEW
5
3
330
0
100
AcDbSymbolTable
70
0
0
ENDTAB
0
TABLE
2
UCS
5
C
330
0
100
AcDbSymbolTable
70
0
0
ENDTAB
0
TABLE
2
BLOCK_RECORD
5
D
330
0
100
AcDbSymbolTable
70
2
0
BLOCK_RECORD
5
1C
330
D
100
AcDbSymbolTableRecord
100
AcDbBlockTableRecord
2
*Model_Space
340
20
0
BLOCK_RECORD
5
5B
330
D
100
AcDbSymbolTableRecord
100
AcDbBlockTableRecord
2
*Paper_Space
340
60
0
ENDTAB
0
ENDSEC
0
SECTION
2
BLOCKS
0
BLOCK
5
1E
330
1C
100
AcDbEntity
67
0
8
0
100
AcDbBlockBegin
2
*Model_Space
70
0
10
0.0
20
0.0
30
0.0
3
*Model_Space
4

0
ENDBLK
5
1D
330
1C
100
AcDbEntity
8
0
100
AcDbBlockEnd
0
BLOCK
5
5D
330
5B
100
AcDbEntity
67
1
8
0
100
AcDbBlockBegin
2
*Paper_Space
70
0
10
0.0
20
0.0
30
0.0
3
*Paper_Space
4

0
ENDBLK
5
5C
330
5B
100
AcDbEntity
8
0
100
AcDbBlockEnd
0
ENDSEC
0
SECTION
2
ENTITIES
0
SPLINE
5
30
330
1C
100
AcDbEntity
67
0
8
BLADE_SURFACE
62
256
6
ByLayer
370
-1
48
1.0
60
0
100
AcDbSpline
70
36
71
3
42
0.0000001
43
0.0000001
44
0.0000000001
40
0.0
40
0.0
40
0.0
40
0.0
40
0.0123456790123457
40
0.0123456790123457
40
0.0123456790123457
40
0.0123456790123457
40
0.0246913580246914
40
0.0246913580246914
40
0.0246913580246914
40
0.0246913580246914
40
0.037037037037037
40
0.037037037037037
40
0.037037037037037
40
0.037037037037037
40
0.0493827160493827
40
0.0493827160493827
40
0.0493827160493827
40
0.0493827160493827
40
0.0617283950617284
40
0.0617283950617284
40
0.0617283950617284
40
0.0617283950617284
40
0.0740740740740741
40
0.0740740740740741
40
0.0740740740740741
40
0.0740740740740741
40
0.0864197530864197
40
0.0864197530864197
40
0.0864197530864197
40
0.0864197530864197
40
0.0987654320987654
40
0.0987654320987654
40
0.0987654320987654
40
0.0987654320987654
40
0.111111111111111
40
0.111111111111111
40
0.111111111111111
40
0.111111111111111
40
0.123456790123457
40
0.123456790123457
40
0.123456790123457
40
0.123456790123457
40
0.135802469135802
40
0.135802469135802
40
0.135802469135802
40
0.135802469135802
40
0.148148148148148
40
0.148148148148148
40
0.148148148148148
40
0.148148148148148
40
0.160493827160494
40
0.160493827160494
40
0.160493827160494
40
0.160493827160494
40
0.172839506172839
40
0.172839506172839
40
0.172839506172839
40
0.172839506172839
40
0.185185185185185
40
0.185185185185185
40
0.185185185185185
40
0.185185185185185
40
0.197530864197531
40
0.197530864197531
40
0.197530864197531
40
0.197530864197531
40
0.209876543209877
40
0.209876543209877
40
0.209876543209877
40
0.209876543209877
40
0.222222222222222
40
0.222222222222222
40
0.222222222222222
40
0.222222222222222
40
0.234567901234568
40
0.234567901234568
40
0.234567901234568
40
0.234567901234568
40
0.246913580246914
40
0.246913580246914
40
0.246913580246914
40
0.246913580246914
40
0.259259259259259
40
0.259259259259259
40
0.259259259259259
40
0.259259259259259
40
0.271604938271605
40
0.271604938271605
40
0.271604938271605
40
0.271604938271605
40
0.283950617283951
40
0.283950617283951
40
0.283950617283951
40
0.283950617283951
40
0.296296296296296
40
0.296296296296296
40
0.296296296296296
40
0.296296296296296
40
0.308641975308642
40
0.308641975308642
40
0.308641975308642
40
0.308641975308642
40
0.320987654320988
40
0.320987654320988
40
0.320987654320988
40
0.320987654320988
40
0.333333333333333
40
0.333333333333333
40
0.333333333333333
40
0.333333333333333
40
0.345679012345679
40
0.345679012345679
40
0.345679012345679
40
0.345679012345679
40
0.358024691358025
40
0.358024691358025
40
0.358024691358025
40
0.358024691358025
40
0.37037037037037
40
0.37037037037037
40
0.37037037037037
40
0.37037037037037
40
0.382716049382716
40
0.382716049382716
40
0.382716049382716
40
0.382716049382716
40
0.395061728395062
40
0.395061728395062
40
0.395061728395062
40
0.395061728395062
40
0.407407407407407
40
0.407407407407407
40
0.407407407407407
40
0.407407407407407
40
0.419753086419753
40
0.419753086419753
40
0.419753086419753
40
0.419753086419753
40
0.432098765432099
40
0.432098765432099
40
0.432098765432099
40
0.432098765432099
40
0.444444444444444
40
0.444444444444444
40
0.444444444444444
40
0.444444444444444
40
0.45679012345679
40
0.45679012345679
40
0.45679012345679
40
0.45679012345679
40
0.469135802469136
40
0.469135802469136
40
0.469135802469136
40
0.469135802469136
40
0.481481481481481
40
0.481481481481481
40
0.481481481481481
40
0.481481481481481
40
0.493827160493827
40
0.493827160493827
40
0.493827160493827
40
0.493827160493827
40
0.506172839506173
40
0.506172839506173
40
0.506172839506173
40
0.506172839506173
40
0.518518518518518
40
0.518518518518518
40
0.518518518518518
40
0.518518518518518
40
0.530864197530864
40
0.530864197530864
40
0.530864197530864
40
0.530864197530864
40
0.54320987654321
40
0.54320987654321
40
0.54320987654321
40
0.54320987654321
40
0.555555555555556
40
0.555555555555556
40
0.555555555555556
40
0.555555555555556
40
0.567901234567901
40
0.567901234567901
40
0.567901234567901
40
0.567901234567901
40
0.580246913580247
40
0.580246913580247
40
0.580246913580247
40
0.580246913580247
40
0.592592592592593
40
0.592592592592593
40
0.592592592592593
40
0.592592592592593
40
0.604938271604938
40
0.604938271604938
40
0.604938271604938
40
0.604938271604938
40
0.617283950617284
40
0.617283950617284
40
0.617283950617284
40
0.617283950617284
40
0.62962962962963
40
0.62962962962963
40
0.62962962962963
40
0.62962962962963
40
0.641975308641975
40
0.641975308641975
40
0.641975308641975
40
0.641975308641975
40
0.654320987654321
40
0.654320987654321
40
0.654320987654321
40
0.654320987654321
40
0.666666666666667
40
0.666666666666667
40
0.666666666666667
40
0.666666666666667
40
0.679012345679012
40
0.679012345679012
40
0.679012345679012
40
0.679012345679012
40
0.691358024691358
40
0.691358024691358
40
0.691358024691358
40
0.691358024691358
40
0.703703703703704
40
0.703703703703704
40
0.703703703703704
40
0.703703703703704
40
0.716049382716049
40
0.716049382716049
40
0.716049382716049
40
0.716049382716049
40
0.728395061728395
40
0.728395061728395
40
0.728395061728395
40
0.728395061728395
40
0.740740740740741
40
0.740740740740741
40
0.740740740740741
40
0.740740740740741
40
0.753086419753086
40
0.753086419753086
40
0.753086419753086
40
0.753086419753086
40
0.765432098765432
40
0.765432098765432
40
0.765432098765432
40
0.765432098765432
40
0.777777777777778
40
0.777777777777778
40
0.777777777777778
40
0.777777777777778
40
0.790123456790123
40
0.790123456790123
40
0.790123456790123
40
0.790123456790123
40
0.802469135802469
40
0.802469135802469
40
0.802469135802469
40
0.802469135802469
40
0.814814814814815
40
0.814814814814815
40
0.814814814814815
40
0.814814814814815
40
0.82716049382716
40
0.82716049382716
40
0.82716049382716
40
0.82716049382716
40
0.839506172839506
40
0.839506172839506
40
0.839506172839506
40
0.839506172839506
40
0.851851851851852
40
0.851851851851852
40
0.851851851851852
40
0.851851851851852
40
0.864197530864197
40
0.864197530864197
40
0.864197530864197
40
0.864197530864197
40
0.876543209876543
40
0.876543209876543
40
0.876543209876543
40
0.876543209876543
40
0.888888888888889
40
0.888888888888889
40
0.888888888888889
40
0.888888888888889
40
0.901234567901235
40
0.901234567901235
40
0.901234567901235
40
0.901234567901235
40
0.91358024691358
40
0.91358024691358
40
0.91358024691358
40
0.91358024691358
40
0.925925925925926
40
0.925925925925926
40
0.925925925925926
40
0.925925925925926
40
0.938271604938272
40
0.938271604938272
40
0.938271604938272
40
0.938271604938272
40
0.950617283950617
40
0.950617283950617
40
0.950617283950617
40
0.950617283950617
40
0.962962962962963
40
0.962962962962963
40
0.962962962962963
40
0.962962962962963
40
0.975308641975309
40
0.975308641975309
40
0.975308641975309
40
0.975308641975309
40
1.0
40
1.0
40
1.0
40
1.0
10
0.0
20
0.0
30
0.0
41
1.0
10
-0.0275418909784958
20
0.207013331061486
30
0.0
41
1.0
10
-0.0550837819569917
20
0.414026662122971
30
0.0
41
1.0
10
-0.052818839563196
20
0.624685437650695
30
0.0
41
1.0
10
-0.052818839563196
20
0.624685437650695
30
0.0
41
1.0
10
-0.0505538971694004
20
0.835344213178418
30
0.0
41
1.0
10
-0.0184821214033132
20
1.04964843317238
30
0.0
41
1.0
10
0.0355061487986
20
1.26651179064035
30
0.0
41
1.0
10
0.0355061487986
20
1.26651179064035
30
0.0
41
1.0
10
0.0894944190005132
20
1.48337514810833
30
0.0
41
1.0
10
0.165399183638253
20
1.70279764305032
30
0.0
41
1.0
10
0.265385037008894
20
1.92489296747429
30
0.0
41
1.0
10
0.265385037008894
20
1.92489296747429
30
0.0
41
1.0
10
0.365370890379535
20
2.14698829189827
30
0.0
41
1.0
10
0.489437832483078
20
2.37175644580423
30
0.0
41
1.0
10
0.637009516129049
20
2.59892304480783
30
0.0
41
1.0
10
0.637009516129049
20
2.59892304480783
30
0.0
41
1.0
10
0.784581199775019
20
2.82608964381143
30
0.0
41
1.0
10
0.955657624963418
20
3.05565468791267
30
0.0
41
1.0
10
1.15034928306988
20
3.28738327915358
30
0.0
41
1.0
10
1.15034928306988
20
3.28738327915358
30
0.0
41
1.0
10
1.34504094117634
20
3.51911187039448
30
0.0
41
1.0
10
1.56334783220086
20
3.75300400877505
30
0.0
41
1.0
10
1.80514784444852
20
3.98875243746779
30
0.0
41
1.0
10
1.80514784444852
20
3.98875243746779
30
0.0
41
1.0
10
2.04694785669618
20
4.22450086616054
30
0.0
41
1.0
10
2.31224099016697
20
4.46210558516546
30
0.0
41
1.0
10
2.60091784369597
20
4.70122031338465
30
0.0
41
1.0
10
2.60091784369597
20
4.70122031338465
30
0.0
41
1.0
10
2.88959469722498
20
4.94033504160385
30
0.0
41
1.0
10
3.2016552708122
20
5.18095977903732
30
0.0
41
1.0
10
3.5369360453574
20
5.42270425774138
30
0.0
41
1.0
10
3.5369360453574
20
5.42270425774138
30
0.0
41
1.0
10
3.87221681990259
20
5.66444873644543
30
0.0
41
1.0
10
4.23071779540576
20
5.90731295642008
30
0.0
41
1.0
10
4.61223813455016
20
6.15086851630188
30
0.0
41
1.0
10
4.61223813455016
20
6.15086851630188
30
0.0
41
1.0
10
4.99375847369457
20
6.39442407618368
30
0.0
41
1.0
10
5.39829817648023
20
6.63867097597263
30
0.0
41
1.0
10
5.82561350906437
20
6.88314613470687
30
0.0
41
1.0
10
5.82561350906437
20
6.88314613470687
30
0.0
41
1.0
10
6.25292884164851
20
7.1276212934411
30
0.0
41
1.0
10
6.70301980403115
20
7.37232471112061
30
0.0
41
1.0
10
7.17560025603858
20
7.61676316109472
30
0.0
41
1.0
10
7.17560025603858
20
7.61676316109472
30
0.0
41
1.0
10
7.64818070804601
20
7.86120161106883
30
0.0
41
1.0
10
8.14325064967823
20
8.10537509333755
30
0.0
41
1.0
10
8.66048051409079
20
8.34876485095947
30
0.0
41
1.0
10
8.66048051409079
20
8.34876485095947
30
0.0
41
1.0
10
9.17771037850335
20
8.5921546085814
30
0.0
41
1.0
10
9.71710016569623
20
8.83476064155654
30
0.0
41
1.0
10
10.2782764249472
20
9.07604355701208
30
0.0
41
1.0
10
10.2782764249472
20
9.07604355701208
30
0.0
41
1.0
10
10.8394526841981
20
9.31732647246762
30
0.0
41
1.0
10
11.4224154155071
20
9.55728627040357
30
0.0
41
1.0
10
12.0267468758691
20
9.79536796942081
30
0.0
41
1.0
10
12.0267468758691
20
9.79536796942081
30
0.0
41
1.0
10
12.6310783362311
20
10.033449668438
30
0.0
41
1.0
10
13.256778525646
20
10.2696532685366
30
0.0
41
1.0
10
13.9033852255704
20
10.5034133591082
30
0.0
41
1.0
10
13.9033852255704
20
10.5034133591082
30
0.0
41
1.0
10
14.5499919254947
20
10.7371734496798
30
0.0
41
1.0
10
15.2175051359284
20
10.9684900307245
30
0.0
41
1.0
10
15.9054181920503
20
11.1967924690036
30
0.0
41
1.0
10
15.9054181920503
20
11.1967924690036
30
0.0
41
1.0
10
16.5933312481721
20
11.4250949072828
30
0.0
41
1.0
10
17.3016441499821
20
11.6503832027964
30
0.0
41
1.0
10
18.0298060612119
20
11.8720866954598
30
0.0
41
1.0
10
18.0298060612119
20
11.8720866954598
30
0.0
41
1.0
10
18.7579679724417
20
12.0937901881232
30
0.0
41
1.0
10
19.5059788930912
20
12.3119088779364
30
0.0
41
1.0
10
20.2732443508114
20
12.5258772045305
30
0.0
41
1.0
10
20.2732443508114
20
12.5258772045305
30
0.0
41
1.0
10
21.0405098085317
20
12.7398455311245
30
0.0
41
1.0
10
21.8270298033225
20
12.9496634944994
30
0.0
41
1.0
10
22.6321670358635
20
13.154775635505
30
0.0
41
1.0
10
22.6321670358635
20
13.154775635505
30
0.0
41
1.0
10
23.4373042684045
20
13.3598877765105
30
0.0
41
1.0
10
24.2610587386956
20
13.5602940951467
30
0.0
41
1.0
10
25.1027514099002
20
13.7554540569271
30
0.0
41
1.0
10
25.1027514099002
20
13.7554540569271
30
0.0
41
1.0
10
25.9444440811048
20
13.9506140187075
30
0.0
41
1.0
10
26.8040749532229
20
14.1405276236321
30
0.0
41
1.0
10
27.6809246223521
20
14.3246738581524
30
0.0
41
1.0
10
27.6809246223521
20
14.3246738581524
30
0.0
41
1.0
10
28.5577742914814
20
14.5088200926728
30
0.0
41
1.0
10
29.4518427576217
20
14.6871989567889
30
0.0
41
1.0
10
30.3623718967673
20
14.8593132820584
30
0.0
41
1.0
10
30.3623718967673
20
14.8593132820584
30
0.0
41
1.0
10
31.272901035913
20
15.0314276073279
30
0.0
41
1.0
10
32.199890848064
20
15.1972773937508
30
0.0
41
1.0
10
33.1425463986483
20
15.3563933314815
30
0.0
41
1.0
10
33.1425463986483
20
15.3563933314815
30
0.0
41
1.0
10
34.0852019492325
20
15.5155092692122
30
0.0
41
1.0
10
35.0435232382501
20
15.6678913582507
30
0.0
41
1.0
10
36.016680686427
20
15.8131018128572
30
0.0
41
1.0
10
36.016680686427
20
15.8131018128572
30
0.0
41
1.0
10
36.9898381346038
20
15.9583122674636
30
0.0
41
1.0
10
37.9778317419399
20
16.096351087638
30
0.0
41
1.0
10
38.9797996455593
20
16.2268153148449
30
0.0
41
1.0
10
38.9797996455593
20
16.2268153148449
30
0.0
41
1.0
10
39.9817675491787
20
16.3572795420518
30
0.0
41
1.0
10
40.9977097490814
20
16.4801691762912
30
0.0
41
1.0
10
42.0267347749094
20
16.5951189567853
30
0.0
41
1.0
10
42.0267347749094
20
16.5951189567853
30
0.0
41
1.0
10
43.0557598007374
20
16.7100687372794
30
0.0
41
1.0
10
44.0978676524907
20
16.8170786640282
30
0.0
41
1.0
10
45.1521396674326
20
16.9158237809379
30
0.0
41
1.0
10
45.1521396674326
20
16.9158237809379
30
0.0
41
1.0
10
46.2064116823746
20
17.0145688978477
30
0.0
41
1.0
10
47.2728478605053
20
17.1050492049184
30
0.0
41
1.0
10
48.3505065044625
20
17.1869817027762
30
0.0
41
1.0
10
48.3505065044625
20
17.1869817027762
30
0.0
41
1.0
10
49.4281651484197
20
17.268914200634
30
0.0
41
1.0
10
50.5170462582033
20
17.3422988892789
30
0.0
41
1.0
10
51.6161833653273
20
17.4068979743203
30
0.0
41
1.0
10
51.6161833653273
20
17.4068979743203
30
0.0
41
1.0
10
52.7153204724512
20
17.4714970593617
30
0.0
41
1.0
10
53.8247135769154
20
17.5273105407997
30
0.0
41
1.0
10
54.9433921420577
20
17.5741411556605
30
0.0
41
1.0
10
54.9433921420577
20
17.5741411556605
30
0.0
41
1.0
10
56.0620707071999
20
17.6209717705213
30
0.0
41
1.0
10
57.1900347330201
20
17.6588195188051
30
0.0
41
1.0
10
58.3262468428978
20
17.6875506285535
30
0.0
41
1.0
10
58.3262468428978
20
17.6875506285535
30
0.0
41
1.0
10
59.4624589527755
20
17.7162817383019
30
0.0
41
1.0
10
60.6069191467107
20
17.7358962095149
30
0.0
41
1.0
10
61.7587720682939
20
17.7462417223601
30
0.0
41
1.0
10
61.7587720682939
20
17.7462417223601
30
0.0
41
1.0
10
62.910624989877
20
17.7565872352054
30
0.0
41
1.0
10
64.0698706391083
20
17.7576637896827
30
0.0
41
1.0
10
65.2349214488785
20
17.7496085557752
30
0.0
41
1.0
10
65.2349214488785
20
17.7496085557752
30
0.0
41
1.0
10
66.3999722586487
20
17.7415533218676
30
0.0
41
1.0
10
67.5708282289579
20
17.7243662995751
30
0.0
41
1.0
10
68.748595846369
20
17.6973247269864
30
0.0
41
1.0
10
68.748595846369
20
17.6973247269864
30
0.0
41
1.0
10
69.92636346378
20
17.6702831543976
30
0.0
41
1.0
10
71.111042728293
20
17.6333870315125
30
0.0
41
1.0
10
72.2865655538306
20
17.5894986205014
30
0.0
41
1.0
10
72.2865655538306
20
17.5894986205014
30
0.0
41
1.0
10
73.4620883793683
20
17.5456102094903
30
0.0
41
1.0
10
74.6284547659307
20
17.4947295103532
30
0.0
41
1.0
10
75.8018675638701
20
17.4382115500032
30
0.0
41
1.0
10
75.8018675638701
20
17.4382115500032
30
0.0
41
1.0
10
76.9752803618095
20
17.3816935896531
30
0.0
41
1.0
10
78.1557395711259
20
17.3195383680902
30
0.0
41
1.0
10
79.3376969125642
20
17.2515855682722
30
0.0
41
1.0
10
79.3376969125642
20
17.2515855682722
30
0.0
41
1.0
10
80.5196542540025
20
17.1836327684542
30
0.0
41
1.0
10
81.7031097275627
20
17.1098823903811
30
0.0
41
1.0
10
82.8883423970977
20
17.0306073619514
30
0.0
41
1.0
10
82.8883423970977
20
17.0306073619514
30
0.0
41
1.0
10
84.0735750666327
20
16.9513323335217
30
0.0
41
1.0
10
85.2605849321425
20
16.8665326547353
30
0.0
41
1.0
10
86.4480909919176
20
16.7763905338926
30
0.0
41
1.0
10
86.4480909919176
20
16.7763905338926
30
0.0
41
1.0
10
87.6355970516928
20
16.6862484130499
30
0.0
41
1.0
10
88.8235993057332
20
16.590763850151
30
0.0
41
1.0
10
90.0112382768229
20
16.4901669014753
30
0.0
41
1.0
10
90.0112382768229
20
16.4901669014753
30
0.0
41
1.0
10
91.1988772479126
20
16.3895699527996
30
0.0
41
1.0
10
92.3861529360516
20
16.2838606183472
30
0.0
41
1.0
10
93.5720984817399
20
16.173277887937
30
0.0
41
1.0
10
93.5720984817399
20
16.173277887937
30
0.0
41
1.0
10
94.7580440274282
20
16.0626951575268
30
0.0
41
1.0
10
95.9426594306658
20
15.9472390311589
30
0.0
41
1.0
10
97.1250141488392
20
15.8271661413277
30
0.0
41
1.0
10
97.1250141488392
20
15.8271661413277
30
0.0
41
1.0
10
98.3073688670126
20
15.7070932514965
30
0.0
41
1.0
10
99.4874629001219
20
15.582403598202
30
0.0
41
1.0
10
100.66436542073
20
15.4533674915013
30
0.0
41
1.0
10
100.66436542073
20
15.4533674915013
30
0.0
41
1.0
10
101.841267941338
20
15.3243313848007
30
0.0
41
1.0
10
103.014978949445
20
15.1909488246938
30
0.0
41
1.0
10
104.184578969975
20
15.0535033295302
30
0.0
41
1.0
10
104.184578969975
20
15.0535033295302
30
0.0
41
1.0
10
105.354178990505
20
14.9160578343665
30
0.0
41
1.0
10
106.519668023457
20
14.774549404146
30
0.0
41
1.0
10
107.680136589938
20
14.6292734668693
30
0.0
41
1.0
10
107.680136589938
20
14.6292734668693
30
0.0
41
1.0
10
108.840605156418
20
14.4839975295926
30
0.0
41
1.0
10
109.996053256427
20
14.3349540852596
30
0.0
41
1.0
10
111.145583469956
20
14.1824495042932
30
0.0
41
1.0
10
111.145583469956
20
14.1824495042932
30
0.0
41
1.0
10
112.295113683485
20
14.0299449233267
30
0.0
41
1.0
10
113.438726010534
20
13.8739792057268
30
0.0
41
1.0
10
114.575536179009
20
13.7148687138741
30
0.0
41
1.0
10
114.575536179009
20
13.7148687138741
30
0.0
41
1.0
10
115.712346347483
20
13.5557582220213
30
0.0
41
1.0
10
116.842354357383
20
13.3935029559157
30
0.0
41
1.0
10
117.964690381553
20
13.228428411823
30
0.0
41
1.0
10
117.964690381553
20
13.228428411823
30
0.0
41
1.0
10
119.087026405723
20
13.0633538677304
30
0.0
41
1.0
10
120.201690444164
20
12.8954600456506
30
0.0
41
1.0
10
121.307828307104
20
12.725080776575
30
0.0
41
1.0
10
121.307828307104
20
12.725080776575
30
0.0
41
1.0
10
122.413966170044
20
12.5547015074994
30
0.0
41
1.0
10
123.511577857483
20
12.381836791428
30
0.0
41
1.0
10
124.599825991769
20
12.2068280457078
30
0.0
41
1.0
10
124.599825991769
20
12.2068280457078
30
0.0
41
1.0
10
125.688074126056
20
12.0318192999875
30
0.0
41
1.0
10
126.766958707189
20
11.8546665246185
30
0.0
41
1.0
10
127.835660305438
20
11.6757180076811
30
0.0
41
1.0
10
127.835660305438
20
11.6757180076811
30
0.0
41
1.0
10
128.904361903687
20
11.4967694907436
30
0.0
41
1.0
10
129.962880519051
20
11.3160252322378
30
0.0
41
1.0
10
131.010415773118
20
11.1338396904195
30
0.0
41
1.0
10
131.010415773118
20
11.1338396904195
30
0.0
41
1.0
10
132.057951027184
20
10.9516541486012
30
0.0
41
1.0
10
133.094502919953
20
10.7680273234705
30
0.0
41
1.0
10
134.119291193196
20
10.5833191387691
30
0.0
41
1.0
10
134.119291193196
20
10.5833191387691
30
0.0
41
1.0
10
135.144079466439
20
10.3986109540676
30
0.0
41
1.0
10
136.157104120156
20
10.2128214097954
30
0.0
41
1.0
10
137.157606049626
20
10.0263151670533
30
0.0
41
1.0
10
137.157606049626
20
10.0263151670533
30
0.0
41
1.0
10
138.158107979096
20
9.83980892431117
30
0.0
41
1.0
10
139.14608718432
20
9.65258598309908
30
0.0
41
1.0
10
140.120806709448
20
9.46501497142891
30
0.0
41
1.0
10
140.120806709448
20
9.46501497142891
30
0.0
41
1.0
10
141.095526234576
20
9.27744395975873
30
0.0
41
1.0
10
142.05698607961
20
9.08952487763047
30
0.0
41
1.0
10
143.004472392
20
8.90162948946824
30
0.0
41
1.0
10
143.004472392
20
8.90162948946824
30
0.0
41
1.0
10
143.95195870439
20
8.71373410130601
30
0.0
41
1.0
10
144.885471484138
20
8.52586240710979
30
0.0
41
1.0
10
145.804320891923
20
8.33838840122297
30
0.0
41
1.0
10
145.804320891923
20
8.33838840122297
30
0.0
41
1.0
10
146.723170299709
20
8.15091439533615
30
0.0
41
1.0
10
147.627356335531
20
7.96383807775872
30
0.0
41
1.0
10
148.516214034835
20
7.77753467669382
30
0.0
41
1.0
10
148.516214034835
20
7.77753467669382
30
0.0
41
1.0
10
149.405071734139
20
7.59123127562892
30
0.0
41
1.0
10
150.278601096923
20
7.40570079107654
30
0.0
41
1.0
10
151.136162842524
20
7.22131858877768
30
0.0
41
1.0
10
151.136162842524
20
7.22131858877768
30
0.0
41
1.0
10
151.993724588125
20
7.03693638647882
30
0.0
41
1.0
10
152.835318716542
20
6.85370246643348
30
0.0
41
1.0
10
153.660332383833
20
6.67199112793361
30
0.0
41
1.0
10
153.660332383833
20
6.67199112793361
30
0.0
41
1.0
10
154.485346051124
20
6.49027978943373
30
0.0
41
1.0
10
155.293779257289
20
6.31009103247933
30
0.0
41
1.0
10
156.085046288084
20
6.13179677447066
30
0.0
41
1.0
10
156.085046288084
20
6.13179677447066
30
0.0
41
1.0
10
156.876313318879
20
5.95350251646199
30
0.0
41
1.0
10
157.650414174303
20
5.77710275739904
30
0.0
41
1.0
10
158.406790899949
20
5.60296560592311
30
0.0
41
1.0
10
158.406790899949
20
5.60296560592311
30
0.0
41
1.0
10
159.163167625595
20
5.42882845444717
30
0.0
41
1.0
10
159.901820221462
20
5.25695391055824
30
0.0
41
1.0
10
160.622219058033
20
5.08770473980718
30
0.0
41
1.0
10
160.622219058033
20
5.08770473980718
30
0.0
41
1.0
10
161.342617894605
20
4.91845556905613
30
0.0
41
1.0
10
162.04476297188
20
4.75183177144296
30
0.0
41
1.0
10
162.728153483949
20
4.58818913548905
30
0.0
41
1.0
10
162.728153483949
20
4.58818913548905
30
0.0
41
1.0
10
163.411543996018
20
4.42454649953513
30
0.0
41
1.0
10
164.07617994288
20
4.26388502524047
30
0.0
41
1.0
10
164.721589774153
20
4.10655180226932
30
0.0
41
1.0
10
164.721589774153
20
4.10655180226932
30
0.0
41
1.0
10
165.366999605426
20
3.94921857929816
30
0.0
41
1.0
10
165.993183321108
20
3.7952136076505
30
0.0
41
1.0
10
166.599698993067
20
3.64487348344834
30
0.0
41
1.0
10
166.599698993067
20
3.64487348344834
30
0.0
41
1.0
10
167.206214665026
20
3.49453335924617
30
0.0
41
1.0
10
167.79306229326
20
3.34785808248949
30
0.0
41
1.0
10
168.359829872719
20
3.20517190745092
30
0.0
41
1.0
10
168.359829872719
20
3.20517190745092
30
0.0
41
1.0
10
168.926597452177
20
3.06248573241235
30
0.0
41
1.0
10
169.473284982859
20
2.92378865909187
30
0.0
41
1.0
10
169.999510631085
20
2.78939071647227
30
0.0
41
1.0
10
169.999510631085
20
2.78939071647227
30
0.0
41
1.0
10
170.525736279311
20
2.65499277385267
30
0.0
41
1.0
10
171.031500045081
20
2.52489396193395
30
0.0
41
1.0
10
171.516450428135
20
2.39938820003164
30
0.0
41
1.0
10
171.516450428135
20
2.39938820003164
30
0.0
41
1.0
10
172.001400811189
20
2.27388243812933
30
0.0
41
1.0
10
172.465537811527
20
2.15296972624344
30
0.0
41
1.0
10
172.908540485025
20
2.03692597482776
30
0.0
41
1.0
10
172.908540485025
20
2.03692597482776
30
0.0
41
1.0
10
173.351543158524
20
1.92088222341209
30
0.0
41
1.0
10
173.773411505184
20
1.80970743246664
30
0.0
41
1.0
10
174.173854897681
20
1.70365776300284
30
0.0
41
1.0
10
174.173854897681
20
1.70365776300284
30
0.0
41
1.0
10
174.574298290178
20
1.59760809353904
30
0.0
41
1.0
10
174.953316728513
20
1.49668354555689
30
0.0
41
1.0
10
175.310651180836
20
1.40111842804991
30
0.0
41
1.0
10
175.310651180836
20
1.40111842804991
30
0.0
41
1.0
10
175.66798563316
20
1.30555331054293
30
0.0
41
1.0
10
176.003636099472
20
1.21534762351112
30
0.0
41
1.0
10
176.317370582359
20
1.13071343094757
30
0.0
41
1.0
10
176.317370582359
20
1.13071343094757
30
0.0
41
1.0
10
176.631105065245
20
1.04607923838402
30
0.0
41
1.0
10
176.922923564705
20
0.967016540288727
30
0.0
41
1.0
10
177.192638210081
20
0.893708868577195
30
0.0
41
1.0
10
177.192638210081
20
0.893708868577195
30
0.0
41
1.0
10
177.462352855458
20
0.820401196865662
30
0.0
41
1.0
10
177.709963646751
20
0.752848551537884
30
0.0
41
1.0
10
177.935263014362
20
0.691222252073765
30
0.0
41
1.0
10
177.935263014362
20
0.691222252073765
30
0.0
41
1.0
10
178.160562381973
20
0.629595952609646
30
0.0
41
1.0
10
178.363550325902
20
0.573895999009185
30
0.0
41
1.0
10
178.544237669095
20
0.524214174579734
30
0.0
41
1.0
10
178.544237669095
20
0.524214174579734
30
0.0
41
1.0
10
178.724925012287
20
0.474532350150283
30
0.0
41
1.0
10
178.883311754744
20
0.43086865489184
30
0.0
41
1.0
10
179.018738391908
20
0.393481006104484
30
0.0
41
1.0
10
179.018738391908
20
0.393481006104484
30
0.0
41
1.0
10
179.154165029072
20
0.356093357317128
30
0.0
41
1.0
10
179.266631560944
20
0.324981755000859
30
0.0
41
1.0
10
179.358124740843
20
0.299648738121641
30
0.0
41
1.0
10
179.358124740843
20
0.299648738121641
30
0.0
41
1.0
10
179.449617920742
20
0.274315721242422
30
0.0
41
1.0
10
179.520137748667
20
0.254761289800255
30
0.0
41
1.0
10
179.561939420064
20
0.243168082521636
30
0.0
41
1.0
10
179.561939420064
20
0.243168082521636
30
0.0
41
1.0
10
179.603741091462
20
0.231574875243017
30
0.0
41
1.0
10
179.616824606332
20
0.227942892127945
30
0.0
41
1.0
10
179.629908121202
20
0.224310909012874
30
0.0
41
1.0
11
0.0
21
0.0
31
0.0
11
-0.052818839563196
21
0.624685437650695
31
0.0
11
0.0355061487986
21
1.26651179064035
31
0.0
11
0.265385037008894
21
1.92489296747429
31
0.0
11
0.637009516129049
21
2.59892304480783
31
0.0
11
1.15034928306988
21
3.28738327915358
31
0.0
11
1.80514784444852
21
3.98875243746779
31
0.0
11
2.60091784369597
21
4.70122031338465
31
0.0
11
3.5369360453574
21
5.42270425774138
31
0.0
11
4.61223813455016
21
6.15086851630188
31
0.0
11
5.82561350906437
21
6.88314613470687
31
0.0
11
7.17560025603858
21
7.61676316109472
31
0.0
11
8.66048051409079
21
8.34876485095947
31
0.0
11
10.2782764249472
21
9.07604355701208
31
0.0
11
12.0267468758691
21
9.79536796942081
31
0.0
11
13.9033852255704
21
10.5034133591082
31
0.0
11
15.9054181920503
21
11.1967924690036
31
0.0
11
18.0298060612119
21
11.8720866954598
31
0.0
11
20.2732443508114
21
12.5258772045305
31
0.0
11
22.6321670358635
21
13.154775635505
31
0.0
11
25.1027514099002
21
13.7554540569271
31
0.0
11
27.6809246223521
21
14.3246738581524
31
0.0
11
30.3623718967673
21
14.8593132820584
31
0.0
11
33.1425463986483
21
15.3563933314815
31
0.0
11
36.016680686427
21
15.8131018128572
31
0.0
11
38.9797996455593
21
16.2268153148449
31
0.0
11
42.0267347749094
21
16.5951189567853
31
0.0
11
45.1521396674326
21
16.9158237809379
31
0.0
11
48.3505065044625
21
17.1869817027762
31
0.0
11
51.6161833653273
21
17.4068979743203
31
0.0
11
54.9433921420577
21
17.5741411556605
31
0.0
11
58.3262468428978
21
17.6875506285535
31
0.0
11
61.7587720682939
21
17.7462417223601
31
0.0
11
65.2349214488785
21
17.7496085557752
31
0.0
11
68.748595846369
21
17.6973247269864
31
0.0
11
72.2865655538306
21
17.5894986205014
31
0.0
11
75.8018675638701
21
17.4382115500032
31
0.0
11
79.3376969125642
21
17.2515855682722
31
0.0
11
82.8883423970977
21
17.0306073619514
31
0.0
11
86.4480909919176
21
16.7763905338926
31
0.0
11
90.0112382768229
21
16.4901669014753
31
0.0
11
93.5720984817399
21
16.173277887937
31
0.0
11
97.1250141488392
21
15.8271661413277
31
0.0
11
100.66436542073
21
15.4533674915013
31
0.0
11
104.184578969975
21
15.0535033295302
31
0.0
11
107.680136589938
21
14.6292734668693
31
0.0
11
111.145583469956
21
14.1824495042932
31
0.0
11
114.575536179009
21
13.7148687138741
31
0.0
11
117.964690381553
21
13.228428411823
31
0.0
11
121.307828307104
21
12.725080776575
31
0.0
11
124.599825991769
21
12.2068280457078
31
0.0
11
127.835660305438
21
11.6757180076811
31
0.0
11
131.010415773118
21
11.1338396904195
31
0.0
11
134.119291193196
21
10.5833191387691
31
0.0
11
137.157606049626
21
10.0263151670533
31
0.0
11
140.120806709448
21
9.46501497142891
31
0.0
11
143.004472392
21
8.90162948946824
31
0.0
11
145.804320891923
21
8.33838840122297
31
0.0
11
148.516214034835
21
7.77753467669382
31
0.0
11
151.136162842524
21
7.22131858877768
31
0.0
11
153.660332383833
21
6.67199112793361
31
0.0
11
156.085046288084
21
6.13179677447066
31
0.0
11
158.406790899949
21
5.60296560592311
31
0.0
11
160.622219058033
21
5.08770473980718
31
0.0
11
162.728153483949
21
4.58818913548905
31
0.0
11
164.721589774153
21
4.10655180226932
31
0.0
11
166.599698993067
21
3.64487348344834
31
0.0
11
168.359829872719
21
3.20517190745092
31
0.0
11
169.999510631085
21
2.78939071647227
31
0.0
11
171.516450428135
21
2.39938820003164
31
0.0
11
172.908540485025
21
2.03692597482776
31
0.0
11
174.173854897681
21
1.70365776300284
31
0.0
11
175.310651180836
21
1.40111842804991
31
0.0
11
176.317370582359
21
1.13071343094757
31
0.0
11
177.192638210081
21
0.893708868577195
31
0.0
11
177.935263014362
21
0.691222252073765
31
0.0
11
178.544237669095
21
0.524214174579734
31
0.0
11
179.018738391908
21
0.393481006104484
31
0.0
11
179.358124740843
21
0.299648738121641
31
0.0
11
179.561939420064
21
0.243168082521636
31
0.0
11
179.629908121202
21
0.224310909012874
31
0.0
0
SPLINE
5
31
330
1C
100
AcDbEntity
67
0
8
BLADE_SURFACE
62
256
6
ByLayer
370
-1
48
1.0
60
0
100
AcDbSpline
70
36
71
3
42
0.0000001
43
0.0000001
44
0.0000000001
40
0.0
40
0.0
40
0.0
40
0.0
40
0.0123456790123457
40
0.0123456790123457
40
0.0123456790123457
40
0.0123456790123457
40
0.0246913580246914
40
0.0246913580246914
40
0.0246913580246914
40
0.0246913580246914
40
0.037037037037037
40
0.037037037037037
40
0.037037037037037
40
0.037037037037037
40
0.0493827160493827
40
0.0493827160493827
40
0.0493827160493827
40
0.0493827160493827
40
0.0617283950617284
40
0.0617283950617284
40
0.0617283950617284
40
0.0617283950617284
40
0.0740740740740741
40
0.0740740740740741
40
0.0740740740740741
40
0.0740740740740741
40
0.0864197530864197
40
0.0864197530864197
40
0.0864197530864197
40
0.0864197530864197
40
0.0987654320987654
40
0.0987654320987654
40
0.0987654320987654
40
0.0987654320987654
40
0.111111111111111
40
0.111111111111111
40
0.111111111111111
40
0.111111111111111
40
0.123456790123457
40
0.123456790123457
40
0.123456790123457
40
0.123456790123457
40
0.135802469135802
40
0.135802469135802
40
0.135802469135802
40
0.135802469135802
40
0.148148148148148
40
0.148148148148148
40
0.148148148148148
40
0.148148148148148
40
0.160493827160494
40
0.160493827160494
40
0.160493827160494
40
0.160493827160494
40
0.172839506172839
40
0.172839506172839
40
0.172839506172839
40
0.172839506172839
40
0.185185185185185
40
0.185185185185185
40
0.185185185185185
40
0.185185185185185
40
0.197530864197531
40
0.197530864197531
40
0.197530864197531
40
0.197530864197531
40
0.209876543209877
40
0.209876543209877
40
0.209876543209877
40
0.209876543209877
40
0.222222222222222
40
0.222222222222222
40
0.222222222222222
40
0.222222222222222
40
0.234567901234568
40
0.234567901234568
40
0.234567901234568
40
0.234567901234568
40
0.246913580246914
40
0.246913580246914
40
0.246913580246914
40
0.246913580246914
40
0.259259259259259
40
0.259259259259259
40
0.259259259259259
40
0.259259259259259
40
0.271604938271605
40
0.271604938271605
40
0.271604938271605
40
0.271604938271605
40
0.283950617283951
40
0.283950617283951
40
0.283950617283951
40
0.283950617283951
40
0.296296296296296
40
0.296296296296296
40
0.296296296296296
40
0.296296296296296
40
0.308641975308642
40
0.308641975308642
40
0.308641975308642
40
0.308641975308642
40
0.320987654320988
40
0.320987654320988
40
0.320987654320988
40
0.320987654320988
40
0.333333333333333
40
0.333333333333333
40
0.333333333333333
40
0.333333333333333
40
0.345679012345679
40
0.345679012345679
40
0.345679012345679
40
0.345679012345679
40
0.358024691358025
40
0.358024691358025
40
0.358024691358025
40
0.358024691358025
40
0.37037037037037
40
0.37037037037037
40
0.37037037037037
40
0.37037037037037
40
0.382716049382716
40
0.382716049382716
40
0.382716049382716
40
0.382716049382716
40
0.395061728395062
40
0.395061728395062
40
0.395061728395062
40
0.395061728395062
40
0.407407407407407
40
0.407407407407407
40
0.407407407407407
40
0.407407407407407
40
0.419753086419753
40
0.419753086419753
40
0.419753086419753
40
0.419753086419753
40
0.432098765432099
40
0.432098765432099
40
0.432098765432099
40
0.432098765432099
40
0.444444444444444
40
0.444444444444444
40
0.444444444444444
40
0.444444444444444
40
0.45679012345679
40
0.45679012345679
40
0.45679012345679
40
0.45679012345679
40
0.469135802469136
40
0.469135802469136
40
0.469135802469136
40
0.469135802469136
40
0.481481481481481
40
0.481481481481481
40
0.481481481481481
40
0.481481481481481
40
0.493827160493827
40
0.493827160493827
40
0.493827160493827
40
0.493827160493827
40
0.506172839506173
40
0.506172839506173
40
0.506172839506173
40
0.506172839506173
40
0.518518518518518
40
0.518518518518518
40
0.518518518518518
40
0.518518518518518
40
0.530864197530864
40
0.530864197530864
40
0.530864197530864
40
0.530864197530864
40
0.54320987654321
40
0.54320987654321
40
0.54320987654321
40
0.54320987654321
40
0.555555555555556
40
0.555555555555556
40
0.555555555555556
40
0.555555555555556
40
0.567901234567901
40
0.567901234567901
40
0.567901234567901
40
0.567901234567901
40
0.580246913580247
40
0.580246913580247
40
0.580246913580247
40
0.580246913580247
40
0.592592592592593
40
0.592592592592593
40
0.592592592592593
40
0.592592592592593
40
0.604938271604938
40
0.604938271604938
40
0.604938271604938
40
0.604938271604938
40
0.617283950617284
40
0.617283950617284
40
0.617283950617284
40
0.617283950617284
40
0.62962962962963
40
0.62962962962963
40
0.62962962962963
40
0.62962962962963
40
0.641975308641975
40
0.641975308641975
40
0.641975308641975
40
0.641975308641975
40
0.654320987654321
40
0.654320987654321
40
0.654320987654321
40
0.654320987654321
40
0.666666666666667
40
0.666666666666667
40
0.666666666666667
40
0.666666666666667
40
0.679012345679012
40
0.679012345679012
40
0.679012345679012
40
0.679012345679012
40
0.691358024691358
40
0.691358024691358
40
0.691358024691358
40
0.691358024691358
40
0.703703703703704
40
0.703703703703704
40
0.703703703703704
40
0.703703703703704
40
0.716049382716049
40
0.716049382716049
40
0.716049382716049
40
0.716049382716049
40
0.728395061728395
40
0.728395061728395
40
0.728395061728395
40
0.728395061728395
40
0.740740740740741
40
0.740740740740741
40
0.740740740740741
40
0.740740740740741
40
0.753086419753086
40
0.753086419753086
40
0.753086419753086
40
0.753086419753086
40
0.765432098765432
40
0.765432098765432
40
0.765432098765432
40
0.765432098765432
40
0.777777777777778
40
0.777777777777778
40
0.777777777777778
40
0.777777777777778
40
0.790123456790123
40
0.790123456790123
40
0.790123456790123
40
0.790123456790123
40
0.802469135802469
40
0.802469135802469
40
0.802469135802469
40
0.802469135802469
40
0.814814814814815
40
0.814814814814815
40
0.814814814814815
40
0.814814814814815
40
0.82716049382716
40
0.82716049382716
40
0.82716049382716
40
0.82716049382716
40
0.839506172839506
40
0.839506172839506
40
0.839506172839506
40
0.839506172839506
40
0.851851851851852
40
0.851851851851852
40
0.851851851851852
40
0.851851851851852
40
0.864197530864197
40
0.864197530864197
40
0.864197530864197
40
0.864197530864197
40
0.876543209876543
40
0.876543209876543
40
0.876543209876543
40
0.876543209876543
40
0.888888888888889
40
0.888888888888889
40
0.888888888888889
40
0.888888888888889
40
0.901234567901235
40
0.901234567901235
40
0.901234567901235
40
0.901234567901235
40
0.91358024691358
40
0.91358024691358
40
0.91358024691358
40
0.91358024691358
40
0.925925925925926
40
0.925925925925926
40
0.925925925925926
40
0.925925925925926
40
0.938271604938272
40
0.938271604938272
40
0.938271604938272
40
0.938271604938272
40
0.950617283950617
40
0.950617283950617
40
0.950617283950617
40
0.950617283950617
40
0.962962962962963
40
0.962962962962963
40
0.962962962962963
40
0.962962962962963
40
0.975308641975309
40
0.975308641975309
40
0.975308641975309
40
0.975308641975309
40
1.0
40
1.0
40
1.0
40
1.0
10
0.0
20
0.0
30
0.0
41
1.0
10
0.0541963600744471
20
-0.201679867878798
30
0.0
41
1.0
10
0.108392720148894
20
-0.403359735757595
30
0.0
41
1.0
10
0.191283930729363
20
-0.597005763363363
30
0.0
41
1.0
10
0.191283930729363
20
-0.597005763363363
30
0.0
41
1.0
10
0.274175141309832
20
-0.790651790969131
30
0.0
41
1.0
10
0.385761202396322
20
-0.976263978301868
30
0.0
41
1.0
10
0.518140712731618
20
-1.15599575689728
30
0.0
41
1.0
10
0.518140712731618
20
-1.15599575689728
30
0.0
41
1.0
10
0.650520223066913
20
-1.3357275354927
30
0.0
41
1.0
10
0.803693182651015
20
-1.50957890535079
30
0.0
41
1.0
10
0.979520093886344
20
-1.67699058048297
30
0.0
41
1.0
10
0.979520093886344
20
-1.67699058048297
30
0.0
41
1.0
10
1.15534700512167
20
-1.84440225561515
30
0.0
41
1.0
10
1.35382786800823
20
-2.00537423602142
30
0.0
41
1.0
10
1.57416451298421
20
-2.16009114167659
30
0.0
41
1.0
10
1.57416451298421
20
-2.16009114167659
30
0.0
41
1.0
10
1.79450115796018
20
-2.31480804733177
30
0.0
41
1.0
10
2.03669358502558
20
-2.46326987823584
30
0.0
41
1.0
10
2.30061435650994
20
-2.60547921357176
30
0.0
41
1.0
10
2.30061435650994
20
-2.60547921357176
30
0.0
41
1.0
10
2.56453512799429
20
-2.74768854890768
30
0.0
41
1.0
10
2.85018424389761
20
-2.88364538867546
30
0.0
41
1.0
10
3.15721445212877
20
-3.01341878631108
30
0.0
41
1.0
10
3.15721445212877
20
-3.01341878631108
30
0.0
41
1.0
10
3.46424466035993
20
-3.14319218394671
30
0.0
41
1.0
10
3.79265596091892
20
-3.26678213945019
30
0.0
41
1.0
10
4.14212168922897
20
-3.38425813490558
30
0.0
41
1.0
10
4.14212168922897
20
-3.38425813490558
30
0.0
41
1.0
10
4.49158741753903
20
-3.50173413036098
30
0.0
41
1.0
10
4.86210757360016
20
-3.61309616576828
30
0.0
41
1.0
10
5.25331362803303
20
-3.71843250326968
30
0.0
41
1.0
10
5.25331362803303
20
-3.71843250326968
30
0.0
41
1.0
10
5.64451968246589
20
-3.82376884077109
30
0.0
41
1.0
10
6.05641163527049
20
-3.92307948036659
30
0.0
41
1.0
10
6.48859793377168
20
-4.01646728357832
30
0.0
41
1.0
10
6.48859793377168
20
-4.01646728357832
30
0.0
41
1.0
10
6.92078423227287
20
-4.10985508679004
30
0.0
41
1.0
10
7.37326487647064
20
-4.19732005361799
30
0.0
41
1.0
10
7.84562245190853
20
-4.27898155157451
30
0.0
41
1.0
10
7.84562245190853
20
-4.27898155157451
30
0.0
41
1.0
10
8.31798002734643
20
-4.36064304953103
30
0.0
41
1.0
10
8.81021453402445
20
-4.43650107861613
30
0.0
41
1.0
10
9.32188572497681
20
-4.5066918026518
30
0.0
41
1.0
10
9.32188572497681
20
-4.5066918026518
30
0.0
41
1.0
10
9.83355691592916
20
-4.57688252668748
30
0.0
41
1.0
10
10.3646647911558
20
-4.64140594567373
30
0.0
41
1.0
10
10.9147477416783
20
-4.70041572073094
30
0.0
41
1.0
10
10.9147477416783
20
-4.70041572073094
30
0.0
41
1.0
10
11.4648306922008
20
-4.75942549578816
30
0.0
41
1.0
10
12.0338887180191
20
-4.81292162691634
30
0.0
41
1.0
10
12.6214407047784
20
-4.86107580243489
30
0.0
41
1.0
10
12.6214407047784
20
-4.86107580243489
30
0.0
41
1.0
10
13.2089926915378
20
-4.90922997795344
30
0.0
41
1.0
10
13.8150386392382
20
-4.95204219786235
30
0.0
41
1.0
10
14.4390796061359
20
-4.98970265309748
30
0.0
41
1.0
10
14.4390796061359
20
-4.98970265309748
30
0.0
41
1.0
10
15.0631205730336
20
-5.02736310833261
30
0.0
41
1.0
10
15.7051565591287
20
-5.05987179889396
30
0.0
41
1.0
10
16.3646724048925
20
-5.08743776892944
30
0.0
41
1.0
10
16.3646724048925
20
-5.08743776892944
30
0.0
41
1.0
10
17.0241882506563
20
-5.11500373896493
30
0.0
41
1.0
10
17.7011839560889
20
-5.13762698847454
30
0.0
41
1.0
10
18.3951296182092
20
-5.15553562137539
30
0.0
41
1.0
10
18.3951296182092
20
-5.15553562137539
30
0.0
41
1.0
10
19.0890752803294
20
-5.17344425427624
30
0.0
41
1.0
10
19.7999708991373
20
-5.18663827056832
30
0.0
41
1.0
10
20.5272731526063
20
-5.19536486543324
30
0.0
41
1.0
10
20.5272731526063
20
-5.19536486543324
30
0.0
41
1.0
10
21.2545754060753
20
-5.20409146029816
30
0.0
41
1.0
10
21.9982842942054
20
-5.20835063373591
30
0.0
41
1.0
10
22.757844227423
20
-5.2084085035188
30
0.0
41
1.0
10
22.757844227423
20
-5.2084085035188
30
0.0
41
1.0
10
23.5174041606406
20
-5.20846637330169
30
0.0
41
1.0
10
24.2928151389458
20
-5.20432293942971
30
0.0
41
1.0
10
25.0835102694874
20
-5.19626285031758
30
0.0
41
1.0
10
25.0835102694874
20
-5.19626285031758
30
0.0
41
1.0
10
25.8742054000289
20
-5.18820276120545
30
0.0
41
1.0
10
26.6801846828068
20
-5.17622601685315
30
0.0
41
1.0
10
27.5008706889959
20
-5.16063516187195
30
0.0
41
1.0
10
27.5008706889959
20
-5.16063516187195
30
0.0
41
1.0
10
28.321556695185
20
-5.14504430689075
30
0.0
41
1.0
10
29.1569494247853
20
-5.12583934128064
30
0.0
41
1.0
10
30.0064614799315
20
-5.10333981372156
30
0.0
41
1.0
10
30.0064614799315
20
-5.10333981372156
30
0.0
41
1.0
10
30.8559735350777
20
-5.08084028616249
30
0.0
41
1.0
10
31.7196049157697
20
-5.05504619665444
30
0.0
41
1.0
10
32.5967586231317
20
-5.02629293797675
30
0.0
41
1.0
10
32.5967586231317
20
-5.02629293797675
30
0.0
41
1.0
10
33.4739123304936
20
-4.99753967929905
30
0.0
41
1.0
10
34.3645883645255
20
-4.9658272514517
30
0.0
41
1.0
10
35.2681803053055
20
-4.93150545739663
30
0.0
41
1.0
10
35.2681803053055
20
-4.93150545739663
30
0.0
41
1.0
10
36.1717722460856
20
-4.89718366334156
30
0.0
41
1.0
10
37.0882800936137
20
-4.86025250307877
30
0.0
41
1.0
10
38.0170880018449
20
-4.82107448541198
30
0.0
41
1.0
10
38.0170880018449
20
-4.82107448541198
30
0.0
41
1.0
10
38.945895910076
20
-4.7818964677452
30
0.0
41
1.0
10
39.8870038790102
20
-4.74047159267442
30
0.0
41
1.0
10
40.8397865041201
20
-4.6971730940307
30
0.0
41
1.0
10
40.8397865041201
20
-4.6971730940307
30
0.0
41
1.0
10
41.79256912923
20
-4.65387459538698
30
0.0
41
1.0
10
42.7570264105156
20
-4.60870247317032
30
0.0
41
1.0
10
43.7325230021061
20
-4.56203848605965
30
0.0
41
1.0
10
43.7325230021061
20
-4.56203848605965
30
0.0
41
1.0
10
44.7080195936966
20
-4.51537449894899
30
0.0
41
1.0
10
45.694555495592
20
-4.46721864694431
30
0.0
41
1.0
10
46.6914853597142
20
-4.41795864335875
30
0.0
41
1.0
10
46.6914853597142
20
-4.41795864335875
30
0.0
41
1.0
10
47.6884152238365
20
-4.36869863977318
30
0.0
41
1.0
10
48.6957390501856
20
-4.31833448460672
30
0.0
41
1.0
10
49.7127997423149
20
-4.26725755813205
30
0.0
41
1.0
10
49.7127997423149
20
-4.26725755813205
30
0.0
41
1.0
10
50.7298604344443
20
-4.21618063165739
30
0.0
41
1.0
10
51.7566579923538
20
-4.16439093387452
30
0.0
41
1.0
10
52.7925277729506
20
-4.11227918872789
30
0.0
41
1.0
10
52.7925277729506
20
-4.11227918872789
30
0.0
41
1.0
10
53.8283975535475
20
-4.06016744358126
30
0.0
41
1.0
10
54.8733395568318
20
-4.00773365107085
30
0.0
41
1.0
10
55.9266634051722
20
-3.95537031420301
30
0.0
41
1.0
10
55.9266634051722
20
-3.95537031420301
30
0.0
41
1.0
10
56.9799872535127
20
-3.90300697733517
30
0.0
41
1.0
10
58.0416929469093
20
-3.85071409610989
30
0.0
41
1.0
10
59.1111297059844
20
-3.79886249213723
30
0.0
41
1.0
10
59.1111297059844
20
-3.79886249213723
30
0.0
41
1.0
10
60.1805664650596
20
-3.74701088816457
30
0.0
41
1.0
10
61.2577342898131
20
-3.69560056144453
30
0.0
41
1.0
10
62.3417757419656
20
-3.64505335101432
30
0.0
41
1.0
10
62.3417757419656
20
-3.64505335101432
30
0.0
41
1.0
10
63.425817194118
20
-3.59450614058412
30
0.0
41
1.0
10
64.5167322736693
20
-3.54482204644375
30
0.0
41
1.0
10
65.6143737553541
20
-3.49618747111213
30
0.0
41
1.0
10
65.6143737553541
20
-3.49618747111213
30
0.0
41
1.0
10
66.712015237039
20
-3.44755289578052
30
0.0
41
1.0
10
67.8163831208573
20
-3.39996783925765
30
0.0
41
1.0
10
68.9246168051104
20
-3.35443712554592
30
0.0
41
1.0
10
68.9246168051104
20
-3.35443712554592
30
0.0
41
1.0
10
70.0328504893635
20
-3.30890641183418
30
0.0
41
1.0
10
71.1449499740515
20
-3.26543004093357
30
0.0
41
1.0
10
72.2752126120727
20
-3.22173913421521
30
0.0
41
1.0
10
72.2752126120727
20
-3.22173913421521
30
0.0
41
1.0
10
73.4054752500939
20
-3.17804822749684
30
0.0
41
1.0
10
74.5539010414484
20
-3.13414278496073
30
0.0
41
1.0
10
75.7025025149044
20
-3.0891489315701
30
0.0
41
1.0
10
75.7025025149044
20
-3.0891489315701
30
0.0
41
1.0
10
76.8511039883604
20
-3.04415507817947
30
0.0
41
1.0
10
77.9998811439179
20
-2.99807281393433
30
0.0
41
1.0
10
79.1525865040081
20
-2.95143526354541
30
0.0
41
1.0
10
79.1525865040081
20
-2.95143526354541
30
0.0
41
1.0
10
80.3052918640983
20
-2.90479771315649
30
0.0
41
1.0
10
81.461925428721
20
-2.85760487662379
30
0.0
41
1.0
10
82.6204040101814
20
-2.81000100514409
30
0.0
41
1.0
10
82.6204040101814
20
-2.81000100514409
30
0.0
41
1.0
10
83.7788825916418
20
-2.76239713366438
30
0.0
41
1.0
10
84.9392061899398
20
-2.71438222723767
30
0.0
41
1.0
10
86.1008460977536
20
-2.66619043759447
30
0.0
41
1.0
10
86.1008460977536
20
-2.66619043759447
30
0.0
41
1.0
10
87.2624860055674
20
-2.61799864795127
30
0.0
41
1.0
10
88.4254422228969
20
-2.56962997509158
30
0.0
41
1.0
10
89.5887617231771
20
-2.52127801258643
30
0.0
41
1.0
10
89.5887617231771
20
-2.52127801258643
30
0.0
41
1.0
10
90.7520812234573
20
-2.47292605008128
30
0.0
41
1.0
10
91.9157640066881
20
-2.42459079793067
30
0.0
41
1.0
10
93.0789644285887
20
-2.37645836543124
30
0.0
41
1.0
10
93.0789644285887
20
-2.37645836543124
30
0.0
41
1.0
10
94.2421648504894
20
-2.3283259329318
30
0.0
41
1.0
10
95.4048829110598
20
-2.28039632008353
30
0.0
41
1.0
10
96.5662394438818
20
-2.23283772197465
30
0.0
41
1.0
10
96.5662394438818
20
-2.23283772197465
30
0.0
41
1.0
10
97.7275959767038
20
-2.18527912386577
30
0.0
41
1.0
10
98.8875909817773
20
-2.13809154049628
30
0.0
41
1.0
10
100.045351162698
20
-2.09142681270464
30
0.0
41
1.0
10
100.045351162698
20
-2.09142681270464
30
0.0
41
1.0
10
101.203111343618
20
-2.04476208491301
30
0.0
41
1.0
10
102.358636700385
20
-1.99862021269922
30
0.0
41
1.0
10
103.511050951251
20
-1.95313537426271
30
0.0
41
1.0
10
103.511050951251
20
-1.95313537426271
30
0.0
41
1.0
10
104.663465202116
20
-1.9076505358262
30
0.0
41
1.0
10
105.81276834708
20
-1.86282273116695
30
0.0
41
1.0
10
106.958085244159
20
-1.8187682843207
30
0.0
41
1.0
10
106.958085244159
20
-1.8187682843207
30
0.0
41
1.0
10
108.103402141237
20
-1.77471383747445
30
0.0
41
1.0
10
109.24473279043
20
-1.7314327484412
30
0.0
41
1.0
10
110.381203878565
20
-1.68902334136499
30
0.0
41
1.0
10
110.381203878565
20
-1.68902334136499
30
0.0
41
1.0
10
111.5176749667
20
-1.64661393428877
30
0.0
41
1.0
10
112.649286493778
20
-1.6050762091696
30
0.0
41
1.0
10
113.775168616759
20
-1.56449066716905
30
0.0
41
1.0
10
113.775168616759
20
-1.56449066716905
30
0.0
41
1.0
10
114.901050739739
20
-1.52390512516849
30
0.0
41
1.0
10
116.021203458622
20
-1.48427176628655
30
0.0
41
1.0
10
117.134761808188
20
-1.4456536774356
30
0.0
41
1.0
10
117.134761808188
20
-1.4456536774356
30
0.0
41
1.0
10
118.248320157753
20
-1.40703558858464
30
0.0
41
1.0
10
119.355284138001
20
-1.36943276976468
30
0.0
41
1.0
10
120.454795144013
20
-1.33289153599527
30
0.0
41
1.0
10
120.454795144013
20
-1.33289153599527
30
0.0
41
1.0
10
121.554306150026
20
-1.29635030222587
30
0.0
41
1.0
10
122.646364181804
20
-1.26087065350702
30
0.0
41
1.0
10
123.730118461001
20
-1.22648298073867
30
0.0
41
1.0
10
123.730118461001
20
-1.22648298073867
30
0.0
41
1.0
10
124.813872740197
20
-1.19209530797031
30
0.0
41
1.0
10
125.889323266812
20
-1.15879961115244
30
0.0
41
1.0
10
126.955628556284
20
-1.12661138571652
30
0.0
41
1.0
10
126.955628556284
20
-1.12661138571652
30
0.0
41
1.0
10
128.021933845756
20
-1.0944231602806
30
0.0
41
1.0
10
129.079093898085
20
-1.06334240622662
30
0.0
41
1.0
10
130.126277980105
20
-1.03337090405419
30
0.0
41
1.0
10
130.126277980105
20
-1.03337090405419
30
0.0
41
1.0
10
131.173462062125
20
-1.00339940188177
30
0.0
41
1.0
10
132.210670173836
20
-0.974537151590891
30
0.0
41
1.0
10
133.237083779657
20
-0.946773520860678
30
0.0
41
1.0
10
133.237083779657
20
-0.946773520860678
30
0.0
41
1.0
10
134.263497385478
20
-0.919009890130465
30
0.0
41
1.0
10
135.27911648541
20
-0.892344878960913
30
0.0
41
1.0
10
136.283136173358
20
-0.866756834418994
30
0.0
41
1.0
10
136.283136173358
20
-0.866756834418994
30
0.0
41
1.0
10
137.287155861307
20
-0.841168789877075
30
0.0
41
1.0
10
138.279576137271
20
-0.816657711962789
30
0.0
41
1.0
10
139.259607140872
20
-0.793192377747971
30
0.0
41
1.0
10
139.259607140872
20
-0.793192377747971
30
0.0
41
1.0
10
140.239638144473
20
-0.769727043533152
30
0.0
41
1.0
10
141.207279875711
20
-0.7473074530178
30
0.0
41
1.0
10
142.161758919728
20
-0.725894291124957
30
0.0
41
1.0
10
142.161758919728
20
-0.725894291124957
30
0.0
41
1.0
10
143.116237963746
20
-0.704481129232113
30
0.0
41
1.0
10
144.057554320544
20
-0.684074395961779
30
0.0
41
1.0
10
144.984952404123
20
-0.664628159231755
30
0.0
41
1.0
10
144.984952404123
20
-0.664628159231755
30
0.0
41
1.0
10
145.912350487702
20
-0.645181922501731
30
0.0
41
1.0
10
146.825830298062
20
-0.626696182312017
30
0.0
41
1.0
10
147.724655445266
20
-0.609119833995356
30
0.0
41
1.0
10
147.724655445266
20
-0.609119833995356
30
0.0
41
1.0
10
148.62348059247
20
-0.591543485678695
30
0.0
41
1.0
10
149.507651076518
20
-0.574876529235086
30
0.0
41
1.0
10
150.376451055192
20
-0.559064075595791
30
0.0
41
1.0
10
150.376451055192
20
-0.559064075595791
30
0.0
41
1.0
10
151.245251033867
20
-0.543251621956496
30
0.0
41
1.0
10
152.098680507168
20
-0.528293671121516
30
0.0
41
1.0
10
152.936045517271
20
-0.514132859069249
30
0.0
41
1.0
10
152.936045517271
20
-0.514132859069249
30
0.0
41
1.0
10
153.773410527374
20
-0.499972047016983
30
0.0
41
1.0
10
154.594711074277
20
-0.486608373747429
30
0.0
41
1.0
10
155.399276406565
20
-0.473983211927331
30
0.0
41
1.0
10
155.399276406565
20
-0.473983211927331
30
0.0
41
1.0
10
156.203841738853
20
-0.461358050107233
30
0.0
41
1.0
10
156.991671856524
20
-0.449471399736591
30
0.0
41
1.0
10
157.762120521816
20
-0.43826446866305
30
0.0
41
1.0
10
157.762120521816
20
-0.43826446866305
30
0.0
41
1.0
10
158.532569187108
20
-0.427057537589509
30
0.0
41
1.0
10
159.285636400021
20
-0.416530325813069
30
0.0
41
1.0
10
160.020701728148
20
-0.406624850292352
30
0.0
41
1.0
10
160.020701728148
20
-0.406624850292352
30
0.0
41
1.0
10
160.755767056276
20
-0.396719374771634
30
0.0
41
1.0
10
161.472830499619
20
-0.387435635506638
30
0.0
41
1.0
10
162.171298705792
20
-0.37871730053163
30
0.0
41
1.0
10
162.171298705792
20
-0.37871730053163
30
0.0
41
1.0
10
162.869766911965
20
-0.369998965556622
30
0.0
41
1.0
10
163.549639880968
20
-0.361846034871602
30
0.0
41
1.0
10
164.210352595384
20
-0.354204534169303
30
0.0
41
1.0
10
164.210352595384
20
-0.354204534169303
30
0.0
41
1.0
10
164.871065309799
20
-0.346563033467005
30
0.0
41
1.0
10
165.512617769627
20
-0.339432962747427
30
0.0
41
1.0
10
166.134474524928
20
-0.332763276993295
30
0.0
41
1.0
10
166.134474524928
20
-0.332763276993295
30
0.0
41
1.0
10
166.756331280229
20
-0.326093591239164
30
0.0
41
1.0
10
167.358492331004
20
-0.31988429045048
30
0.0
41
1.0
10
167.940452997556
20
-0.314087699651027
30
0.0
41
1.0
10
167.940452997556
20
-0.314087699651027
30
0.0
41
1.0
10
168.522413664107
20
-0.308291108851575
30
0.0
41
1.0
10
169.084173946437
20
-0.302907228041354
30
0.0
41
1.0
10
169.625261113146
20
-0.297892069447629
30
0.0
41
1.0
10
169.625261113146
20
-0.297892069447629
30
0.0
41
1.0
10
170.166348279855
20
-0.292876910853903
30
0.0
41
1.0
10
170.686762330944
20
-0.288230474476673
30
0.0
41
1.0
10
171.18606359085
20
-0.28391266378966
30
0.0
41
1.0
10
171.18606359085
20
-0.28391266378966
30
0.0
41
1.0
10
171.685364850756
20
-0.279594853102647
30
0.0
41
1.0
10
172.163553319478
20
-0.275605668105853
30
0.0
41
1.0
10
172.620223554002
20
-0.271909006281253
30
0.0
41
1.0
10
172.620223554002
20
-0.271909006281253
30
0.0
41
1.0
10
173.076893788525
20
-0.268212344456652
30
0.0
41
1.0
10
173.512045788848
20
-0.264808205804247
30
0.0
41
1.0
10
173.925309033997
20
-0.261664500978063
30
0.0
41
1.0
10
173.925309033997
20
-0.261664500978063
30
0.0
41
1.0
10
174.338572279145
20
-0.258520796151879
30
0.0
41
1.0
10
174.729946769119
20
-0.255637525151917
30
0.0
41
1.0
10
175.099099145773
20
-0.252986551689585
30
0.0
41
1.0
10
175.099099145773
20
-0.252986551689585
30
0.0
41
1.0
10
175.468251522428
20
-0.250335578227252
30
0.0
41
1.0
10
175.815181785764
20
-0.24791690230255
30
0.0
41
1.0
10
176.139589884717
20
-0.245706261271314
30
0.0
41
1.0
10
176.139589884717
20
-0.245706261271314
30
0.0
41
1.0
10
176.463997983669
20
-0.243495620240079
30
0.0
41
1.0
10
176.765883918239
20
-0.24149301410231
30
0.0
41
1.0
10
177.044999493342
20
-0.239677810437444
30
0.0
41
1.0
10
177.044999493342
20
-0.239677810437444
30
0.0
41
1.0
10
177.324115068444
20
-0.237862606772578
30
0.0
41
1.0
10
177.580460284079
20
-0.236234805580614
30
0.0
41
1.0
10
177.813773346058
20
-0.234777616722745
30
0.0
41
1.0
10
177.813773346058
20
-0.234777616722745
30
0.0
41
1.0
10
178.047086408038
20
-0.233320427864876
30
0.0
41
1.0
10
178.257367316363
20
-0.232033851341102
30
0.0
41
1.0
10
178.444588301792
20
-0.23090337189415
30
0.0
41
1.0
10
178.444588301792
20
-0.23090337189415
30
0.0
41
1.0
10
178.631809287221
20
-0.229772892447199
30
0.0
41
1.0
10
178.795970349755
20
-0.228798510077071
30
0.0
41
1.0
10
178.936356477197
20
-0.227973050513001
30
0.0
41
1.0
10
178.936356477197
20
-0.227973050513001
30
0.0
41
1.0
10
179.076742604639
20
-0.227147590948932
30
0.0
41
1.0
10
179.193353796988
20
-0.226471054190921
30
0.0
41
1.0
10
179.288228397627
20
-0.225923973723383
30
0.0
41
1.0
10
179.288228397627
20
-0.225923973723383
30
0.0
41
1.0
10
179.383102998265
20
-0.225376893255845
30
0.0
41
1.0
10
179.456241007193
20
-0.224959269078779
30
0.0
41
1.0
10
179.49959548877
20
-0.224712001008773
30
0.0
41
1.0
10
179.49959548877
20
-0.224712001008773
30
0.0
41
1.0
10
179.542949970347
20
-0.224464732938767
30
0.0
41
1.0
10
179.556520924572
20
-0.22438782097582
30
0.0
41
1.0
10
179.570091878798
20
-0.224310909012874
30
0.0
41
1.0
11
0.0
21
0.0
31
0.0
11
0.191283930729363
21
-0.597005763363363
31
0.0
11
0.518140712731618
21
-1.15599575689728
31
0.0
11
0.979520093886344
21
-1.67699058048297
31
0.0
11
1.57416451298421
21
-2.16009114167659
31
0.0
11
2.30061435650994
21
-2.60547921357176
31
0.0
11
3.15721445212877
21
-3.01341878631108
31
0.0
11
4.14212168922897
21
-3.38425813490558
31
0.0
11
5.25331362803303
21
-3.71843250326968
31
0.0
11
6.48859793377168
21
-4.01646728357832
31
0.0
11
7.84562245190853
21
-4.27898155157451
31
0.0
11
9.32188572497681
21
-4.5066918026518
31
0.0
11
10.9147477416783
21
-4.70041572073094
31
0.0
11
12.6214407047784
21
-4.86107580243489
31
0.0
11
14.4390796061359
21
-4.98970265309748
31
0.0
11
16.3646724048925
21
-5.08743776892944
31
0.0
11
18.3951296182092
21
-5.15553562137539
31
0.0
11
20.5272731526063
21
-5.19536486543324
31
0.0
11
22.757844227423
21
-5.2084085035188
31
0.0
11
25.0835102694874
21
-5.19626285031758
31
0.0
11
27.5008706889959
21
-5.16063516187195
31
0.0
11
30.0064614799315
21
-5.10333981372156
31
0.0
11
32.5967586231317
21
-5.02629293797675
31
0.0
11
35.2681803053055
21
-4.93150545739663
31
0.0
11
38.0170880018449
21
-4.82107448541198
31
0.0
11
40.8397865041201
21
-4.6971730940307
31
0.0
11
43.7325230021061
21
-4.56203848605965
31
0.0
11
46.6914853597142
21
-4.41795864335875
31
0.0
11
49.7127997423149
21
-4.26725755813205
31
0.0
11
52.7925277729506
21
-4.11227918872789
31
0.0
11
55.9266634051722
21
-3.95537031420301
31
0.0
11
59.1111297059844
21
-3.79886249213723
31
0.0
11
62.3417757419656
21
-3.64505335101432
31
0.0
11
65.6143737553541
21
-3.49618747111213
31
0.0
11
68.9246168051104
21
-3.35443712554592
31
0.0
11
72.2752126120727
21
-3.22173913421521
31
0.0
11
75.7025025149044
21
-3.0891489315701
31
0.0
11
79.1525865040081
21
-2.95143526354541
31
0.0
11
82.6204040101814
21
-2.81000100514409
31
0.0
11
86.1008460977536
21
-2.66619043759447
31
0.0
11
89.5887617231771
21
-2.52127801258643
31
0.0
11
93.0789644285887
21
-2.37645836543124
31
0.0
11
96.5662394438818
21
-2.23283772197465
31
0.0
11
100.045351162698
21
-2.09142681270464
31
0.0
11
103.511050951251
21
-1.95313537426271
31
0.0
11
106.958085244159
21
-1.8187682843207
31
0.0
11
110.381203878565
21
-1.68902334136499
31
0.0
11
113.775168616759
21
-1.56449066716905
31
0.0
11
117.134761808188
21
-1.4456536774356
31
0.0
11
120.454795144013
21
-1.33289153599527
31
0.0
11
123.730118461001
21
-1.22648298073867
31
0.0
11
126.955628556284
21
-1.12661138571652
31
0.0
11
130.126277980105
21
-1.03337090405419
31
0.0
11
133.237083779657
21
-0.946773520860678
31
0.0
11
136.283136173358
21
-0.866756834418994
31
0.0
11
139.259607140872
21
-0.793192377747971
31
0.0
11
142.161758919728
21
-0.725894291124957
31
0.0
11
144.984952404123
21
-0.664628159231755
31
0.0
11
147.724655445266
21
-0.609119833995356
31
0.0
11
150.376451055192
21
-0.559064075595791
31
0.0
11
152.936045517271
21
-0.514132859069249
31
0.0
11
155.399276406565
21
-0.473983211927331
31
0.0
11
157.762120521816
21
-0.43826446866305
31
0.0
11
160.020701728148
21
-0.406624850292352
31
0.0
11
162.171298705792
21
-0.37871730053163
31
0.0
11
164.210352595384
21
-0.354204534169303
31
0.0
11
166.134474524928
21
-0.332763276993295
31
0.0
11
167.940452997556
21
-0.314087699651027
31
0.0
11
169.625261113146
21
-0.297892069447629
31
0.0
11
171.18606359085
21
-0.28391266378966
31
0.0
11
172.620223554002
21
-0.271909006281253
31
0.0
11
173.925309033997
21
-0.261664500978063
31
0.0
11
175.099099145773
21
-0.252986551689585
31
0.0
11
176.139589884717
21
-0.245706261271314
31
0.0
11
177.044999493342
21
-0.239677810437444
31
0.0
11
177.813773346058
21
-0.234777616722745
31
0.0
11
178.444588301792
21
-0.23090337189415
31
0.0
11
178.936356477197
21
-0.227973050513001
31
0.0
11
179.288228397627
21
-0.225923973723383
31
0.0
11
179.49959548877
21
-0.224712001008773
31
0.0
11
179.570091878798
21
-0.224310909012874
31
0.0
0
LWPOLYLINE
5
32
330
1C
100
AcDbEntity
67
0
8
CAMBER_LINE
62
256
6
DASHED
370
-1
48
1.0
60
0
100
AcDbPolyline
90
81
70
0
38
0.0
39
0.0
10
0.0
20
0.0
40
0.0
41
0.0
42
0.0
10
0.0692325455830835
20
0.0138398371436658
40
0.0
41
0.0
42
0.0
10
0.276823430765109
20
0.0552580168715343
40
0.0
41
0.0
42
0.0
10
0.622452565447619
20
0.123951193495659
40
0.0
41
0.0
42
0.0
10
1.10558701455663
20
0.219415951565618
40
0.0
41
0.0
42
0.0
10
1.72548181978991
20
0.340952032790908
40
0.0
41
0.0
42
0.0
10
2.48118114828865
20
0.487666825578354
40
0.0
41
0.0
42
0.0
10
3.37151976646247
20
0.658481089239534
40
0.0
41
0.0
42
0.0
10
4.39512483669521
20
0.852135877235848
40
0.0
41
0.0
42
0.0
10
5.55041803416092
20
1.06720061636178
40
0.0
41
0.0
42
0.0
10
6.83561798048645
20
1.30208229156618
40
0.0
41
0.0
42
0.0
10
8.24874299050769
20
1.55503567922146
40
0.0
41
0.0
42
0.0
10
9.78761412788456
20
1.82417456511427
40
0.0
41
0.0
42
0.0
10
11.4498585648628
20
2.10748387728859
40
0.0
41
0.0
42
0.0
10
13.2329132410025
20
2.40283265816167
40
0.0
41
0.0
42
0.0
10
15.1340288152314
20
2.70798779508936
40
0.0
41
0.0
42
0.0
10
17.1502739051297
20
3.02062842381412
40
0.0
41
0.0
42
0.0
10
19.2785396069091
20
3.33836091501327
40
0.0
41
0.0
42
0.0
10
21.5155442891172
20
3.65873435050584
40
0.0
41
0.0
42
0.0
10
23.8578386526754
20
3.9792563925937
40
0.0
41
0.0
42
0.0
10
26.301811049448
20
4.2974094475276
40
0.0
41
0.0
42
0.0
10
28.8436930511418
20
4.61066702221544
40
0.0
41
0.0
42
0.0
10
31.4795652599495
20
4.91651017204082
40
0.0
41
0.0
42
0.0
10
34.2053633519769
20
5.21244393704242
40
0.0
41
0.0
42
0.0
10
37.0168843441359
20
5.4960136637226
40
0.0
41
0.0
42
0.0
10
39.9097930748397
20
5.76482111040708
40
0.0
41
0.0
42
0.0
10
42.8796288885078
20
6.01654023536282
40
0.0
41
0.0
42
0.0
10
45.9218125135734
20
6.24893256878959
40
0.0
41
0.0
42
0.0
10
49.0316531233887
20
6.45986207232207
40
0.0
41
0.0
42
0.0
10
52.204355569139
20
6.64730939279621
40
0.0
41
0.0
42
0.0
10
55.4350277736149
20
6.80938542072875
40
0.0
41
0.0
42
0.0
10
58.7186882744411
20
6.94434406820812
40
0.0
41
0.0
42
0.0
10
62.0502739051297
20
7.0505941856729
40
0.0
41
0.0
42
0.0
10
65.4246476021163
20
7.12671054233152
40
0.0
41
0.0
42
0.0
10
68.8366063257397
20
7.17144380072023
40
0.0
41
0.0
42
0.0
10
72.2808890829517
20
7.18387974314311
40
0.0
41
0.0
42
0.0
10
75.7521850393873
20
7.17453130921653
40
0.0
41
0.0
42
0.0
10
79.2451417082862
20
7.1500751523634
40
0.0
41
0.0
42
0.0
10
82.7543732036395
20
7.11030317840366
40
0.0
41
0.0
42
0.0
10
86.2744685448356
20
7.05510004814907
40
0.0
41
0.0
42
0.0
10
89.8
20
6.98444444444444
40
0.0
41
0.0
42
0.0
10
93.3255314551643
20
6.89840976125287
40
0.0
41
0.0
42
0.0
10
96.8456267963605
20
6.79716420967653
40
0.0
41
0.0
42
0.0
10
100.354858291714
20
6.68097033939834
40
0.0
41
0.0
42
0.0
10
103.847814960613
20
6.55018397763374
40
0.0
41
0.0
42
0.0
10
107.319110917048
20
6.4052525912743
40
0.0
41
0.0
42
0.0
10
110.76339367426
20
6.24671308146409
40
0.0
41
0.0
42
0.0
10
114.175352397884
20
6.07518902335251
40
0.0
41
0.0
42
0.0
10
117.54972609487
20
5.89138736719372
40
0.0
41
0.0
42
0.0
10
120.881311725559
20
5.69609462028988
40
0.0
41
0.0
42
0.0
10
124.164972226385
20
5.49017253248455
40
0.0
41
0.0
42
0.0
10
127.395644430861
20
5.27455331098227
40
0.0
41
0.0
42
0.0
10
130.568346876611
20
5.05023439318264
40
0.0
41
0.0
42
0.0
10
133.678187486427
20
4.81827280895419
40
0.0
41
0.0
42
0.0
10
136.720371111492
20
4.57977916631715
40
0.0
41
0.0
42
0.0
10
139.69020692516
20
4.33591129684047
40
0.0
41
0.0
42
0.0
10
142.583115655864
20
4.08786759917164
40
0.0
41
0.0
42
0.0
10
145.394636648023
20
3.83688012099561
40
0.0
41
0.0
42
0.0
10
148.12043474005
20
3.58420742134923
40
0.0
41
0.0
42
0.0
10
150.756306948858
20
3.33112725659094
40
0.0
41
0.0
42
0.0
10
153.298188950552
20
3.07892913443218
40
0.0
41
0.0
42
0.0
10
155.742161347325
20
2.82890678127166
40
0.0
41
0.0
42
0.0
10
158.084455710883
20
2.58235056863003
40
0.0
41
0.0
42
0.0
10
160.321460393091
20
2.34053994475742
40
0.0
41
0.0
42
0.0
10
162.44972609487
20
2.10473591747871
40
0.0
41
0.0
42
0.0
10
164.465971184769
20
1.87617363405001
40
0.0
41
0.0
42
0.0
10
166.367086758997
20
1.65605510322752
40
0.0
41
0.0
42
0.0
10
168.150141435137
20
1.44554210389995
40
0.0
41
0.0
42
0.0
10
169.812385872115
20
1.24574932351232
40
0.0
41
0.0
42
0.0
10
171.351257009492
20
1.05773776812099
40
0.0
41
0.0
42
0.0
10
172.764382019514
20
0.882508484273256
40
0.0
41
0.0
42
0.0
10
174.049581965839
20
0.720996631012387
40
0.0
41
0.0
42
0.0
10
175.204875163305
20
0.574065938180163
40
0.0
41
0.0
42
0.0
10
176.228480233538
20
0.442503584838126
40
0.0
41
0.0
42
0.0
10
177.118818851711
20
0.327015529069875
40
0.0
41
0.0
42
0.0
10
177.87451818021
20
0.22822231767551
40
0.0
41
0.0
42
0.0
10
178.494412985443
20
0.146655401342792
40
0.0
41
0.0
42
0.0
10
178.977547434552
20
0.0827539777957416
40
0.0
41
0.0
42
0.0
10
179.323176569235
20
0.0368623821991288
40
0.0
41
0.0
42
0.0
10
179.530767454417
20
0.0092280407564317
40
0.0
41
0.0
42
0.0
10
179.6
20
0.0
40
0.0
41
0.0
42
0.0
210
0.0
220
0.0
230
1.0
0
LINE
5
33
330
1C
100
AcDbEntity
67
0
8
STATION_TICKS
62
256
6
ByLayer
370
-1
48
1.0
60
0
100
AcDbLine
10
17.96
20
-8.14094216313803
30
0.0
11
17.96
21
14.8498969480461
31
0.0
39
0.0
210
0.0
220
0.0
230
1.0
0
TEXT
5
34
330
1C
100
AcDbEntity
67
0
8
ANNOTATION
62
256
6
ByLayer
370
-1
48
1.0
60
0
100
AcDbText
1
10%
10
17.96
20
-13.140942163138
30
0.0
40
3.0
41
1.0
50
0.0
51
0.0
7
Standard
11
17.96
21
-13.140942163138
31
0.0
210
0.0
220
0.0
230
1.0
71
0
72
0
100
AcDbText
73
0
0
LINE
5
35
330
1C
100
AcDbEntity
67
0
8
STATION_TICKS
62
256
6
ByLayer
370
-1
48
1.0
60
0
100
AcDbLine
10
35.92
20
-7.90532011747788
30
0.0
11
35.92
21
18.7977389643837
31
0.0
39
0.0
210
0.0
220
0.0
230
1.0
0
TEXT
5
36
330
1C
100
AcDbEntity
67
0
8
ANNOTATION
62
256
6
ByLayer
370
-1
48
1.0
60
0
100
AcDbText
1
20%
10
35.92
20
-12.9053201174779
30
0.0
40
3.0
41
1.0
50
0.0
51
0.0
7
Standard
11
35.92
21
-12.9053201174779
31
0.0
210
0.0
220
0.0
230
1.0
71
0
72
0
100
AcDbText
73
0
0
LINE
5
37
330
1C
100
AcDbEntity
67
0
8
STATION_TICKS
62
256
6
ByLayer
370
-1
48
1.0
60
0
100
AcDbLine
10
53.88
20
-7.05783545583409
30
0.0
11
53.88
21
20.5206894197448
31
0.0
39
0.0
210
0.0
220
0.0
230
1.0
0
TEXT
5
38
330
1C
100
AcDbEntity
67
0
8
ANNOTATION
62
256
6
ByLayer
370
-1
48
1.0
60
0
100
AcDbText
1
30%
10
53.88
20
-12.0578354558341
30
0.0
40
3.0
41
1.0
50
0.0
51
0.0
7
Standard
11
53.88
21
-12.0578354558341
31
0.0
210
0.0
220
0.0
230
1.0
71
0
72
0
100
AcDbText
73
0
0
LINE
5
39
330
1C
100
AcDbEntity
67
0
8
STATION_TICKS
62
256
6
ByLayer
370
-1
48
1.0
60
0
100
AcDbLine
10
71.84
20
-6.23897542375051
30
0.0
11
71.84
21
20.6031085236262
31
0.0
39
0.0
210
0.0
220
0.0
230
1.0
0
TEXT
5
3A
330
1C
100
AcDbEntity
67
0
8
ANNOTATION
62
256
6
ByLayer
370
-1
48
1.0
60
0
100
AcDbText
1
40%
10
71.84
20
-11.2389754237505
30
0.0
40
3.0
41
1.0
50
0.0
51
0.0
7
Standard
11
71.84
21
-11.2389754237505
31
0.0
210
0.0
220
0.0
230
1.0
71
0
72
0
100
AcDbText
73
0
0
LINE
5
3B
330
1C
100
AcDbEntity
67
0
8
STATION_TICKS
62
256
6
ByLayer
370
-1
48
1.0
60
0
100
AcDbLine
10
89.8
20
-5.51251306244008
30
0.0
11
89.8
21
19.5071354357827
31
0.0
39
0.0
210
0.0
220
0.0
230
1.0
0
TEXT
5
3C
330
1C
100
AcDbEntity
67
0
8
ANNOTATION
62
256
6
ByLayer
370
-1
48
1.0
60
0
100
AcDbText
1
50%
10
89.8
20
-10.5125130624401
30
0.0
40
3.0
41
1.0
50
0.0
51
0.0
7
Standard
11
89.8
21
-10.5125130624401
31
0.0
210
0.0
220
0.0
230
1.0
71
0
72
0
100
AcDbText
73
0
0
LINE
5
3D
330
1C
100
AcDbEntity
67
0
8
STATION_TICKS
62
256
6
ByLayer
370
-1
48
1.0
60
0
100
AcDbLine
10
107.76
20
-4.78837366603294
30
0.0
11
107.76
21
17.6189761267044
31
0.0
39
0.0
210
0.0
220
0.0
230
1.0
0
TEXT
5
3E
330
1C
100
AcDbEntity
67
0
8
ANNOTATION
62
256
6
ByLayer
370
-1
48
1.0
60
0
100
AcDbText
1
60%
10
107.76
20
-9.78837366603294
30
0.0
40
3.0
41
1.0
50
0.0
51
0.0
7
Standard
11
107.76
21
-9.78837366603294
31
0.0
210
0.0
220
0.0
230
1.0
71
0
72
0
100
AcDbText
73
0
0
LINE
5
3F
330
1C
100
AcDbEntity
67
0
8
STATION_TICKS
62
256
6
ByLayer
370
-1
48
1.0
60
0
100
AcDbLine
10
125.72
20
-4.164870200954
30
0.0
11
125.72
21
15.0229695404803
31
0.0
39
0.0
210
0.0
220
0.0
230
1.0
0
TEXT
5
40
330
1C
100
AcDbEntity
67
0
8
ANNOTATION
62
256
6
ByLayer
370
-1
48
1.0
60
0
100
AcDbText
1
70%
10
125.72
20
-9.164870200954
30
0.0
40
3.0
41
1.0
50
0.0
51
0.0
7
Standard
11
125.72
21
-9.164870200954
31
0.0
210
0.0
220
0.0
230
1.0
71
0
72
0
100
AcDbText
73
0
0
LINE
5
41
330
1C
100
AcDbEntity
67
0
8
STATION_TICKS
62
256
6
ByLayer
370
-1
48
1.0
60
0
100
AcDbLine
10
143.68
20
-3.69294693601882
30
0.0
11
143.68
21
11.7657346704965
31
0.0
39
0.0
210
0.0
220
0.0
230
1.0
0
TEXT
5
42
330
1C
100
AcDbEntity
67
0
8
ANNOTATION
62
256
6
ByLayer
370
-1
48
1.0
60
0
100
AcDbText
1
80%
10
143.68
20
-8.69294693601882
30
0.0
40
3.0
41
1.0
50
0.0
51
0.0
7
Standard
11
143.68
21
-8.69294693601882
31
0.0
210
0.0
220
0.0
230
1.0
71
0
72
0
100
AcDbText
73
0
0
LINE
5
43
330
1C
100
AcDbEntity
67
0
8
STATION_TICKS
62
256
6
ByLayer
370
-1
48
1.0
60
0
100
AcDbLine
10
161.64
20
-3.38561177924038
30
0.0
11
161.64
21
7.84629291995644
31
0.0
39
0.0
210
0.0
220
0.0
230
1.0
0
TEXT
5
44
330
1C
100
AcDbEntity
67
0
8
ANNOTATION
62
256
6
ByLayer
370
-1
48
1.0
60
0
100
AcDbText
1
90%
10
161.64
20
-8.38561177924038
30
0.0
40
3.0
41
1.0
50
0.0
51
0.0
7
Standard
11
161.64
21
-8.38561177924038
31
0.0
210
0.0
220
0.0
230
1.0
71
0
72
0
100
AcDbText
73
0
0
LINE
5
45
330
1C
100
AcDbEntity
67
0
8
DIMENSIONS
62
256
6
ByLayer
370
-1
48
1.0
60
0
100
AcDbLine
10
54.9576
20
17.574617471028
30
0.0
11
54.9576
21
-4.00388597086606
31
0.0
39
0.0
210
0.0
220
0.0
230
1.0
0
LINE
5
46
330
1C
100
AcDbEntity
67
0
8
DIMENSIONS
62
256
6
ByLayer
370
-1
48
1.0
60
0
100
AcDbLine
10
54.9576
20
6.78536575008099
30
0.0
11
69.9576
21
6.78536575008099
31
0.0
39
0.0
210
0.0
220
0.0
230
1.0
0
TEXT
5
47
330
1C
100
AcDbEntity
67
0
8
DIMENSIONS
62
256
6
ByLayer
370
-1
48
1.0
60
0
100
AcDbText
1
t=21.53mm (12.0%c)
10
72.9576
20
8.78536575008099
30
0.0
40
3.0
41
1.0
50
0.0
51
0.0
7
Standard
11
72.9576
21
8.78536575008099
31
0.0
210
0.0
220
0.0
230
1.0
71
0
72
0
100
AcDbText
73
0
0
LINE
5
48
330
1C
100
AcDbEntity
67
0
8
DIMENSIONS
62
256
6
ByLayer
370
-1
48
1.0
60
0
100
AcDbLine
10
72.1992
20
0.0
30
0.0
11
72.1992
21
7.184
31
0.0
39
0.0
210
0.0
220
0.0
230
1.0
0
LINE
5
49
330
1C
100
AcDbEntity
67
0
8
DIMENSIONS
62
256
6
ByLayer
370
-1
48
1.0
60
0
100
AcDbLine
10
72.1992
20
3.592
30
0.0
11
57.1992
21
3.592
31
0.0
39
0.0
210
0.0
220
0.0
230
1.0
0
TEXT
5
4A
330
1C
100
AcDbEntity
67
0
8
DIMENSIONS
62
256
6
ByLayer
370
-1
48
1.0
60
0
100
AcDbText
1
f=7.18mm (4.0%c)
10
54.1992
20
5.592
30
0.0
40
3.0
41
1.0
50
0.0
51
0.0
7
Standard
11
54.1992
21
5.592
31
0.0
210
0.0
220
0.0
230
1.0
71
0
72
0
100
AcDbText
73
0
0
CIRCLE
5
4B
330
1C
100
AcDbEntity
67
0
8
DIMENSIONS
62
256
6
DASHED
370
-1
48
1.0
60
0
100
AcDbCircle
10
0.0
20
0.0
30
0.0
40
3.383
39
0.0
210
0.0
220
0.0
230
1.0
0
TEXT
5
4C
330
1C
100
AcDbEntity
67
0
8
ANNOTATION
62
256
6
ByLayer
370
-1
48
1.0
60
0
100
AcDbText
1
r_LE=3.383mm
10
5.0
20
25.574617471028
30
0.0
40
3.5
41
1.0
50
0.0
51
0.0
7
Standard
11
5.0
21
25.574617471028
31
0.0
210
0.0
220
0.0
230
1.0
71
0
72
0
100
AcDbText
73
0
0
LINE
5
4D
330
1C
100
AcDbEntity
67
0
8
CENTERLINE
62
256
6
ByLayer
370
-1
48
1.0
60
0
100
AcDbLine
10
0.0
20
0.0
30
0.0
11
179.6
21
0.0
31
0.0
39
0.0
210
0.0
220
0.0
230
1.0
0
TEXT
5
4E
330
1C
100
AcDbEntity
67
0
8
ANNOTATION
62
256
6
ByLayer
370
-1
48
1.0
60
0
100
AcDbText
1
LE
10
-4.0
20
7.0
30
0.0
40
5.0
41
1.0
50
0.0
51
0.0
7
Standard
11
-4.0
21
7.0
31
0.0
210
0.0
220
0.0
230
1.0
71
0
72
0
100
AcDbText
73
0
0
TEXT
5
4F
330
1C
100
AcDbEntity
67
0
8
ANNOTATION
62
256
6
ByLayer
370
-1
48
1.0
60
0
100
AcDbText
1
TE
10
182.6
20
7.0
30
0.0
40
5.0
41
1.0
50
0.0
51
0.0
7
Standard
11
182.6
21
7.0
31
0.0
210
0.0
220
0.0
230
1.0
71
0
72
0
100
AcDbText
73
0
0
LINE
5
50
330
1C
100
AcDbEntity
67
0
8
DIMENSIONS
62
256
6
ByLayer
370
-1
48
1.0
60
0
100
AcDbLine
10
0.0
20
-32.328
30
0.0
11
179.6
21
-32.328
31
0.0
39
0.0
210
0.0
220
0.0
230
1.0
0
LINE
5
51
330
1C
100
AcDbEntity
67
0
8
DIMENSIONS
62
256
6
ByLayer
370
-1
48
1.0
60
0
100
AcDbLine
10
0.0
20
-38.328
30
0.0
11
0.0
21
-26.328
31
0.0
39
0.0
210
0.0
220
0.0
230
1.0
0
LINE
5
52
330
1C
100
AcDbEntity
67
0
8
DIMENSIONS
62
256
6
ByLayer
370
-1
48
1.0
60
0
100
AcDbLine
10
179.6
20
-38.328
30
0.0
11
179.6
21
-26.328
31
0.0
39
0.0
210
0.0
220
0.0
230
1.0
0
TEXT
5
53
330
1C
100
AcDbEntity
67
0
8
DIMENSIONS
62
256
6
ByLayer
370
-1
48
1.0
60
0
100
AcDbText
1
Chord=179.6mm
10
71.6
20
-43.328
30
0.0
40
5.0
41
1.0
50
0.0
51
0.0
7
Standard
11
71.6
21
-43.328
31
0.0
210
0.0
220
0.0
230
1.0
71
0
72
0
100
AcDbText
73
0
0
TEXT
5
54
330
1C
100
AcDbEntity
67
0
8
ANNOTATION
62
256
6
ByLayer
370
-1
48
1.0
60
0
100
AcDbText
1
Blade Angle B=27.7deg
10
184.6
20
-8.0
30
0.0
40
5.0
41
1.0
50
0.0
51
0.0
7
Standard
11
184.6
21
-8.0
31
0.0
210
0.0
220
0.0
230
1.0
71
0
72
0
100
AcDbText
73
0
0
TEXT
5
55
330
1C
100
AcDbEntity
67
0
8
ANNOTATION
62
256
6
ByLayer
370
-1
48
1.0
60
0
100
AcDbText
1
Profile: NACA 4412
10
184.6
20
-20.0
30
0.0
40
5.0
41
1.0
50
0.0
51
0.0
7
Standard
11
184.6
21
-20.0
31
0.0
210
0.0
220
0.0
230
1.0
71
0
72
0
100
AcDbText
73
0
0
LINE
5
56
330
1C
100
AcDbEntity
67
0
8
ANNOTATION
62
256
6
ByLayer
370
-1
48
1.0
60
0
100
AcDbLine
10
-40.0
20
-8.0
30
0.0
11
-5.0
21
-8.0
31
0.0
39
0.0
210
0.0
220
0.0
230
1.0
0
TEXT
5
57
330
1C
100
AcDbEntity
67
0
8
ANNOTATION
62
256
6
ByLayer
370
-1
48
1.0
60
0
100
AcDbText
1
V_inf
10
-45.0
20
-4.0
30
0.0
40
4.5
41
1.0
50
0.0
51
0.0
7
Standard
11
-45.0
21
-4.0
31
0.0
210
0.0
220
0.0
230
1.0
71
0
72
0
100
AcDbText
73
0
0
TEXT
5
58
330
1C
100
AcDbEntity
67
0
8
TITLE_BLOCK
62
256
6
ByLayer
370
-1
48
1.0
60
0
100
AcDbText
1
DWG-003  BLADE AEROFOIL SECTION (NACA 4412)
10
0.0
20
-106.84
30
0.0
40
6.0
41
1.0
50
0.0
51
0.0
7
Standard
11
0.0
21
-106.84
31
0.0
210
0.0
220
0.0
230
1.0
71
0
72
0
100
AcDbText
73
0
0
TEXT
5
59
330
1C
100
AcDbEntity
67
0
8
ANNOTATION
62
256
6
ByLayer
370
-1
48
1.0
60
0
100
AcDbText
1
Chord=179.6mm  B=27.7deg  Span=191.7mm
10
0.0
20
-116.84
30
0.0
40
4.5
41
1.0
50
0.0
51
0.0
7
Standard
11
0.0
21
-116.84
31
0.0
210
0.0
220
0.0
230
1.0
71
0
72
0
100
AcDbText
73
0
0
TEXT
5
5A
330
1C
100
AcDbEntity
67
0
8
ANNOTATION
62
256
6
ByLayer
370
-1
48
1.0
60
0
100
AcDbText
1
AxialFlow Designer  |  For Engineering Reference Only
10
0.0
20
-126.84
30
0.0
40
3.5
41
1.0
50
0.0
51
0.0
7
Standard
11
0.0
21
-126.84
31
0.0
210
0.0
220
0.0
230
1.0
71
0
72
0
100
AcDbText
73
0
0
VIEWPORT
5
5F
330
5B
100
AcDbEntity
67
1
8
0
62
256
6
ByLayer
370
-1
48
1.0
60
0
100
AcDbViewport
10
0.0
20
0.0
30
0.0
40
297.0
41
210.0
68
1
69
1
12
50.0
22
100.0
13
0.0
23
0.0
14
10.0
24
10.0
15
10.0
25
10.0
16
0.0
26
0.0
36
1.0
17
0.0
27
0.0
37
0.0
42
50.0
43
0.0
44
0.0
45
250.0
50
0.0
51
0.0
72
1000
90
819232
110
0.0
120
0.0
130
0.0
111
1.0
121
0.0
131
0.0
112
0.0
122
1.0
132
0.0
0
ENDSEC
0
SECTION
2
OBJECTS
0
DICTIONARY
5
65
330
0
100
AcDbDictionary
280
1
281
1
3
ACAD_GROUP
350
12
3
ACAD_LAYOUT
350
5E
3
ACAD_DGNDEFINITIONS
350
F
3
ACAD_DWFDEFINITIONS
350
10
3
ACAD_PDFDEFINITIONS
350
11
3
ACAD_MLINESTYLE
350
B
3
ACAD_IMAGE_DICT
350
E
3
ACAD_IMAGE_VARS
350
21
0
DICTIONARY
5
12
330
65
100
AcDbDictionary
280
1
281
1
0
DICTIONARY
5
5E
330
65
100
AcDbDictionary
280
1
281
1
3
Model
350
20
3
Layout1
350
60
0
DICTIONARY
5
F
330
65
100
AcDbDictionary
280
1
281
1
0
DICTIONARY
5
10
330
65
100
AcDbDictionary
280
1
281
1
0
DICTIONARY
5
11
330
65
100
AcDbDictionary
280
1
281
1
0
DICTIONARY
5
B
330
65
100
AcDbDictionary
280
1
281
1
3
Standard
350
1B
0
DICTIONARY
5
E
330
65
100
AcDbDictionary
280
1
281
1
0
DICTIONARY
5
6
330
5
100
AcDbDictionary
280
1
281
1
3
ACAD_LAYERSTATES
360
66
0
DICTIONARY
5
66
330
6
100
AcDbDictionary
280
1
281
1
0
LAYOUT
5
20
330
5E
100
AcDbPlotSettings
1

2
none_device
4
ISO_A4_(210.00_x_297.00_MM)
6

40
7.5
41
20.0
42
7.5
43
20.0
44
210.0
45
297.0
46
0.0
47
0.0
48
0.0
49
0.0
140
0.0
141
0.0
142
1.0
143
1.0
70
11952
72
1
73
1
74
1
7

75
0
76
0
77
2
78
300
147
1.0
148
0.0
149
0.0
100
AcDbLayout
1
Model
71
0
10
-20.0
20
-7.5
11
277.0
21
202.5
12
0.0
22
0.0
32
0.0
14
25.7
24
19.5
34
0.0
15
231.3
25
175.5
35
0.0
146
0.0
13
0.0
23
0.0
33
0.0
16
1.0
26
0.0
36
0.0
17
0.0
27
1.0
37
0.0
76
0
330
1C
0
LAYOUT
5
60
330
5E
100
AcDbPlotSettings
1

2
none_device
4
ISO_A4_(210.00_x_297.00_MM)
6

40
7.5
41
20.0
42
7.5
43
20.0
44
210.0
45
297.0
46
0.0
47
0.0
48
0.0
49
0.0
140
0.0
141
0.0
142
1.0
143
1.0
70
688
72
1
73
1
74
1
7

75
0
76
0
77
2
78
300
147
1.0
148
0.0
149
0.0
100
AcDbLayout
1
Layout1
71
1
10
-20.0
20
-7.5
11
277.0
21
202.5
12
0.0
22
0.0
32
0.0
14
25.7
24
19.5
34
0.0
15
231.3
25
175.5
35
0.0
146
0.0
13
0.0
23
0.0
33
0.0
16
1.0
26
0.0
36
0.0
17
0.0
27
1.0
37
0.0
76
0
330
5B
0
MLINESTYLE
5
1B
330
B
100
AcDbMlineStyle
2
Standard
70
0
3

62
256
51
90.0
52
90.0
71
2
49
0.5
62
256
6
ByLayer
49
-0.5
62
256
6
ByLayer
0
RASTERVARIABLES
5
21
330
E
100
AcDbRasterVariables
90
0
70
1
71
1
72
0
0
ENDSEC
0
EOF
