999
DXF file generated by netDxf https://github.com/haplokuon/netDxf, Copyright(C) Daniel Carvajal, Licensed under MIT
0
SECTION
2
HEADER
9
$ACADVER
1
AC1015
9
$DWGCODEPAGE
3
ANSI_1252
9
$HANDSEED
5
67
9
$ANGBASE
50
0.0
9
$ANGDIR
70
0
9
$ATTMODE
70
1
9
$AUNITS
70
0
9
$AUPREC
70
0
9
$CECOLOR
62
256
9
$CELTSCALE
40
1.0
9
$CELTYPE
6
ByLayer
9
$CELWEIGHT
370
-1
9
$CLAYER
8
0
9
$CMLJUST
70
0
9
$CMLSCALE
40
20.0
9
$CMLSTYLE
2
Standard
9
$DIMSTYLE
2
Standard
9
$TEXTSIZE
40
2.5
9
$TEXTSTYLE
7
Standard
9
$LUNITS
70
2
9
$LUPREC
70
4
9
$MIRRTEXT
70
0
9
$EXTNAMES
290
1
9
$INSBASE
10
0.0
20
0.0
30
0.0
9
$INSUNITS
70
0
9
$LTSCALE
40
1.0
9
$LWDISPLAY
290
0
9
$PDMODE
70
0
9
$PDSIZE
40
0.0
9
$PLINEGEN
70
0
9
$PSLTSCALE
70
1
9
$SPLINESEGS
70
8
9
$SURFU
70
6
9
$SURFV
70
6
9
$TDCREATE
40
2461235.63415008
9
$TDUCREATE
40
2461235.40498341
9
$TDUPDATE
40
2461235.63415008
9
$TDUUPDATE
40
2461235.40498341
9
$TDINDWG
40
0.0
9
$UCSORG
10
0.0
20
0.0
30
0.0
9
$UCSXDIR
10
1.0
20
0.0
30
0.0
9
$UCSYDIR
10
0.0
20
1.0
30
0.0
9
$DIMADEC
70
0
9
$DIMALT
70
0
9
$DIMALTD
70
2
9
$DIMALTF
40
25.4
9
$DIMALTRND
40
0.0
9
$DIMALTTD
70
2
9
$DIMALTTZ
70
0
9
$DIMALTU
70
2
9
$DIMALTZ
70
0
9
$DIMAPOST
1

9
$DIMATFIT
70
3
9
$DIMAUNIT
70
0
9
$DIMASZ
40
0.18
9
$DIMAZIN
70
0
9
$DIMSAH
70
0
9
$DIMBLK
1

9
$DIMLDRBLK
1

9
$DIMCEN
40
0.09
9
$DIMCLRD
70
0
9
$DIMCLRE
70
0
9
$DIMCLRT
70
0
9
$DIMDEC
70
4
9
$DIMDLE
40
0.0
9
$DIMDLI
40
0.38
9
$DIMDSEP
70
46
9
$DIMEXE
40
0.18
9
$DIMEXO
40
0.0625
9
$DIMFXLON
70
0
9
$DIMFXL
40
1.0
9
$DIMGAP
40
0.09
9
$DIMJUST
70
0
9
$DIMLFAC
40
1.0
9
$DIMLUNIT
70
2
9
$DIMLWD
70
-2
9
$DIMLWE
70
-2
9
$DIMPOST
1

9
$DIMRND
40
0.0
9
$DIMSCALE
40
1.0
9
$DIMSD1
70
0
9
$DIMSD2
70
0
9
$DIMSE1
70
0
9
$DIMSE2
70
0
9
$DIMSOXD
70
0
9
$DIMTAD
70
0
9
$DIMTDEC
70
4
9
$DIMTFAC
40
1.0
9
$DIMTIH
70
0
9
$DIMTIX
70
0
9
$DIMTM
40
0.0
9
$DIMTMOVE
70
0
9
$DIMTOFL
70
0
9
$DIMTOH
70
0
9
$DIMTOL
70
0
9
$DIMLIM
70
0
9
$DIMTOLJ
70
1
9
$DIMTP
40
0.0
9
$DIMTXT
40
0.18
9
$DIMTXTDIRECTION
70
0
9
$DIMTZIN
70
0
9
$DIMZIN
70
0
9
$DIMFRAC
70
0
9
$DIMLTYPE
6
ByBlock
9
$DIMLTEX1
6
ByBlock
9
$DIMLTEX2
6
ByBlock
0
ENDSEC
0
SECTION
2
CLASSES
0
CLASS
1
RASTERVARIABLES
2
AcDbRasterVariables
3
ISM
90
0
280
0
281
0
0
ENDSEC
0
SECTION
2
TABLES
0
TABLE
2
APPID
5
4
330
0
100
AcDbSymbolTable
70
5
0
APPID
5
19
330
4
100
AcDbSymbolTableRecord
100
AcDbRegAppTableRecord
2
ACAD
70
0
0
APPID
5
61
330
4
100
AcDbSymbolTableRecord
100
AcDbRegAppTableRecord
2
AcCmTransparency
70
0
0
APPID
5
62
330
4
100
AcDbSymbolTableRecord
100
AcDbRegAppTableRecord
2
AcAecLayerStandard
70
0
0
APPID
5
63
330
4
100
AcDbSymbolTableRecord
100
AcDbRegAppTableRecord
2
GradientColor1ACI
70
0
0
APPID
5
64
330
4
100
AcDbSymbolTableRecord
100
AcDbRegAppTableRecord
2
GradientColor2ACI
70
0
0
ENDTAB
0
TABLE
2
VPORT
5
1
330
0
100
AcDbSymbolTable
70
1
0
VPORT
5
2
330
1
100
AcDbSymbolTableRecord
100
AcDbViewportTableRecord
2
*Active
70
0
10
0.0
20
0.0
11
1.0
21
1.0
12
0.0
22
0.0
13
0.0
23
0.0
14
0.5
24
0.5
15
10.0
25
10.0
16
0.0
26
0.0
36
1.0
17
0.0
27
0.0
37
0.0
40
10.0
41
1.0
75
0
76
1
0
ENDTAB
0
TABLE
2
LTYPE
5
7
330
0
100
AcDbSymbolTable
70
5
0
LTYPE
5
15
330
7
100
AcDbSymbolTableRecord
100
AcDbLinetypeTableRecord
2
Continuous
70
0
3
Solid line
72
65
73
0
40
0.0
0
LTYPE
5
16
330
7
100
AcDbSymbolTableRecord
100
AcDbLinetypeTableRecord
2
ByLayer
70
0
3

72
65
73
0
40
0.0
0
LTYPE
5
17
330
7
100
AcDbSymbolTableRecord
100
AcDbLinetypeTableRecord
2
ByBlock
70
0
3

72
65
73
0
40
0.0
0
LTYPE
5
22
330
7
100
AcDbSymbolTableRecord
100
AcDbLinetypeTableRecord
2
DASHED
70
0
3
Dashed
72
65
73
2
40
8.0
49
6.0
74
0
49
-2.0
74
0
0
LTYPE
5
23
330
7
100
AcDbSymbolTableRecord
100
AcDbLinetypeTableRecord
2
CENTER
70
0
3
Center
72
65
73
4
40
20.0
49
12.0
74
0
49
-3.0
74
0
49
2.0
74
0
49
-3.0
74
0
0
ENDTAB
0
TABLE
2
LAYER
5
5
102
{ACAD_XDICTIONARY
360
6
102
}
330
0
100
AcDbSymbolTable
70
13
0
LAYER
5
14
330
5
100
AcDbSymbolTableRecord
100
AcDbLayerTableRecord
2
0
70
0
62
7
6
Continuous
290
1
370
-3
390
0
0
LAYER
5
24
330
5
100
AcDbSymbolTableRecord
100
AcDbLayerTableRecord
2
CASING
70
0
62
8
6
Continuous
290
1
370
-3
390
0
0
LAYER
5
25
330
5
100
AcDbSymbolTableRecord
100
AcDbLayerTableRecord
2
HUB
70
0
62
9
6
Continuous
290
1
370
-3
390
0
0
LAYER
5
26
330
5
100
AcDbSymbolTableRecord
100
AcDbLayerTableRecord
2
BLADES
70
0
62
5
6
Continuous
290
1
370
-3
390
0
0
LAYER
5
27
330
5
100
AcDbSymbolTableRecord
100
AcDbLayerTableRecord
2
CENTERLINE
70
0
62
1
6
Continuous
290
1
370
-3
390
0
0
LAYER
5
28
330
5
100
AcDbSymbolTableRecord
100
AcDbLayerTableRecord
2
TIP_DIAMETER
70
0
62
2
6
Continuous
290
1
370
-3
390
0
0
LAYER
5
29
330
5
100
AcDbSymbolTableRecord
100
AcDbLayerTableRecord
2
TIP_CLEARANCE
70
0
62
2
6
Continuous
290
1
370
-3
390
0
0
LAYER
5
2A
330
5
100
AcDbSymbolTableRecord
100
AcDbLayerTableRecord
2
BLADE_SURFACE
70
0
62
5
6
Continuous
290
1
370
-3
390
0
0
LAYER
5
2B
330
5
100
AcDbSymbolTableRecord
100
AcDbLayerTableRecord
2
CAMBER_LINE
70
0
62
4
6
Continuous
290
1
370
-3
390
0
0
LAYER
5
2C
330
5
100
AcDbSymbolTableRecord
100
AcDbLayerTableRecord
2
STATION_TICKS
70
0
62
9
6
Continuous
290
1
370
-3
390
0
0
LAYER
5
2D
330
5
100
AcDbSymbolTableRecord
100
AcDbLayerTableRecord
2
DIMENSIONS
70
0
62
7
6
Continuous
290
1
370
-3
390
0
0
LAYER
5
2E
330
5
100
AcDbSymbolTableRecord
100
AcDbLayerTableRecord
2
ANNOTATION
70
0
62
3
6
Continuous
290
1
370
-3
390
0
0
LAYER
5
2F
330
5
100
AcDbSymbolTableRecord
100
AcDbLayerTableRecord
2
TITLE_BLOCK
70
0
62
5
6
Continuous
290
1
370
-3
390
0
0
ENDTAB
0
TABLE
2
STYLE
5
8
330
0
100
AcDbSymbolTable
70
1
0
STYLE
5
18
330
8
100
AcDbSymbolTableRecord
100
AcDbTextStyleTableRecord
2
Standard
3
simplex.shx
70
0
71
0
40
0.0
41
1.0
42
0.0
50
0.0
0
ENDTAB
0
TABLE
2
DIMSTYLE
5
A
330
0
100
AcDbSymbolTable
70
1
100
AcDbDimStyleTable
0
DIMSTYLE
105
1A
330
A
100
AcDbSymbolTableRecord
100
AcDbDimStyleTableRecord
2
Standard
3

4

40
1.0
41
0.18
42
0.0625
43
0.38
44
0.18
45
0.0
46
0.0
47
0.0
48
0.0
49
1.0
70
0
71
0
72
0
73
0
74
0
75
0
76
0
77
0
78
0
79
0
140
0.18
141
0.09
143
25.4
144
1.0
146
1.0
147
0.09
148
0.0
170
0
171
2
172
0
174
0
175
0
176
0
177
0
178
0
179
0
271
4
272
4
273
2
274
2
275
0
276
0
277
2
278
46
279
0
280
0
281
0
282
0
283
1
284
0
285
0
286
0
289
3
290
0
294
0
340
18
173
0
345
17
346
17
347
17
371
-2
372
-2
0
ENDTAB
0
TABLE
2
VIEW
5
3
330
0
100
AcDbSymbolTable
70
0
0
ENDTAB
0
TABLE
2
UCS
5
C
330
0
100
AcDbSymbolTable
70
0
0
ENDTAB
0
TABLE
2
BLOCK_RECORD
5
D
330
0
100
AcDbSymbolTable
70
2
0
BLOCK_RECORD
5
1C
330
D
100
AcDbSymbolTableRecord
100
AcDbBlockTableRecord
2
*Model_Space
340
20
0
BLOCK_RECORD
5
5B
330
D
100
AcDbSymbolTableRecord
100
AcDbBlockTableRecord
2
*Paper_Space
340
60
0
ENDTAB
0
ENDSEC
0
SECTION
2
BLOCKS
0
BLOCK
5
1E
330
1C
100
AcDbEntity
67
0
8
0
100
AcDbBlockBegin
2
*Model_Space
70
0
10
0.0
20
0.0
30
0.0
3
*Model_Space
4

0
ENDBLK
5
1D
330
1C
100
AcDbEntity
8
0
100
AcDbBlockEnd
0
BLOCK
5
5D
330
5B
100
AcDbEntity
67
1
8
0
100
AcDbBlockBegin
2
*Paper_Space
70
0
10
0.0
20
0.0
30
0.0
3
*Paper_Space
4

0
ENDBLK
5
5C
330
5B
100
AcDbEntity
8
0
100
AcDbBlockEnd
0
ENDSEC
0
SECTION
2
ENTITIES
0
SPLINE
5
30
330
1C
100
AcDbEntity
67
0
8
BLADE_SURFACE
62
256
6
ByLayer
370
-1
48
1.0
60
0
100
AcDbSpline
70
36
71
3
42
0.0000001
43
0.0000001
44
0.0000000001
40
0.0
40
0.0
40
0.0
40
0.0
40
0.0123456790123457
40
0.0123456790123457
40
0.0123456790123457
40
0.0123456790123457
40
0.0246913580246914
40
0.0246913580246914
40
0.0246913580246914
40
0.0246913580246914
40
0.037037037037037
40
0.037037037037037
40
0.037037037037037
40
0.037037037037037
40
0.0493827160493827
40
0.0493827160493827
40
0.0493827160493827
40
0.0493827160493827
40
0.0617283950617284
40
0.0617283950617284
40
0.0617283950617284
40
0.0617283950617284
40
0.0740740740740741
40
0.0740740740740741
40
0.0740740740740741
40
0.0740740740740741
40
0.0864197530864197
40
0.0864197530864197
40
0.0864197530864197
40
0.0864197530864197
40
0.0987654320987654
40
0.0987654320987654
40
0.0987654320987654
40
0.0987654320987654
40
0.111111111111111
40
0.111111111111111
40
0.111111111111111
40
0.111111111111111
40
0.123456790123457
40
0.123456790123457
40
0.123456790123457
40
0.123456790123457
40
0.135802469135802
40
0.135802469135802
40
0.135802469135802
40
0.135802469135802
40
0.148148148148148
40
0.148148148148148
40
0.148148148148148
40
0.148148148148148
40
0.160493827160494
40
0.160493827160494
40
0.160493827160494
40
0.160493827160494
40
0.172839506172839
40
0.172839506172839
40
0.172839506172839
40
0.172839506172839
40
0.185185185185185
40
0.185185185185185
40
0.185185185185185
40
0.185185185185185
40
0.197530864197531
40
0.197530864197531
40
0.197530864197531
40
0.197530864197531
40
0.209876543209877
40
0.209876543209877
40
0.209876543209877
40
0.209876543209877
40
0.222222222222222
40
0.222222222222222
40
0.222222222222222
40
0.222222222222222
40
0.234567901234568
40
0.234567901234568
40
0.234567901234568
40
0.234567901234568
40
0.246913580246914
40
0.246913580246914
40
0.246913580246914
40
0.246913580246914
40
0.259259259259259
40
0.259259259259259
40
0.259259259259259
40
0.259259259259259
40
0.271604938271605
40
0.271604938271605
40
0.271604938271605
40
0.271604938271605
40
0.283950617283951
40
0.283950617283951
40
0.283950617283951
40
0.283950617283951
40
0.296296296296296
40
0.296296296296296
40
0.296296296296296
40
0.296296296296296
40
0.308641975308642
40
0.308641975308642
40
0.308641975308642
40
0.308641975308642
40
0.320987654320988
40
0.320987654320988
40
0.320987654320988
40
0.320987654320988
40
0.333333333333333
40
0.333333333333333
40
0.333333333333333
40
0.333333333333333
40
0.345679012345679
40
0.345679012345679
40
0.345679012345679
40
0.345679012345679
40
0.358024691358025
40
0.358024691358025
40
0.358024691358025
40
0.358024691358025
40
0.37037037037037
40
0.37037037037037
40
0.37037037037037
40
0.37037037037037
40
0.382716049382716
40
0.382716049382716
40
0.382716049382716
40
0.382716049382716
40
0.395061728395062
40
0.395061728395062
40
0.395061728395062
40
0.395061728395062
40
0.407407407407407
40
0.407407407407407
40
0.407407407407407
40
0.407407407407407
40
0.419753086419753
40
0.419753086419753
40
0.419753086419753
40
0.419753086419753
40
0.432098765432099
40
0.432098765432099
40
0.432098765432099
40
0.432098765432099
40
0.444444444444444
40
0.444444444444444
40
0.444444444444444
40
0.444444444444444
40
0.45679012345679
40
0.45679012345679
40
0.45679012345679
40
0.45679012345679
40
0.469135802469136
40
0.469135802469136
40
0.469135802469136
40
0.469135802469136
40
0.481481481481481
40
0.481481481481481
40
0.481481481481481
40
0.481481481481481
40
0.493827160493827
40
0.493827160493827
40
0.493827160493827
40
0.493827160493827
40
0.506172839506173
40
0.506172839506173
40
0.506172839506173
40
0.506172839506173
40
0.518518518518518
40
0.518518518518518
40
0.518518518518518
40
0.518518518518518
40
0.530864197530864
40
0.530864197530864
40
0.530864197530864
40
0.530864197530864
40
0.54320987654321
40
0.54320987654321
40
0.54320987654321
40
0.54320987654321
40
0.555555555555556
40
0.555555555555556
40
0.555555555555556
40
0.555555555555556
40
0.567901234567901
40
0.567901234567901
40
0.567901234567901
40
0.567901234567901
40
0.580246913580247
40
0.580246913580247
40
0.580246913580247
40
0.580246913580247
40
0.592592592592593
40
0.592592592592593
40
0.592592592592593
40
0.592592592592593
40
0.604938271604938
40
0.604938271604938
40
0.604938271604938
40
0.604938271604938
40
0.617283950617284
40
0.617283950617284
40
0.617283950617284
40
0.617283950617284
40
0.62962962962963
40
0.62962962962963
40
0.62962962962963
40
0.62962962962963
40
0.641975308641975
40
0.641975308641975
40
0.641975308641975
40
0.641975308641975
40
0.654320987654321
40
0.654320987654321
40
0.654320987654321
40
0.654320987654321
40
0.666666666666667
40
0.666666666666667
40
0.666666666666667
40
0.666666666666667
40
0.679012345679012
40
0.679012345679012
40
0.679012345679012
40
0.679012345679012
40
0.691358024691358
40
0.691358024691358
40
0.691358024691358
40
0.691358024691358
40
0.703703703703704
40
0.703703703703704
40
0.703703703703704
40
0.703703703703704
40
0.716049382716049
40
0.716049382716049
40
0.716049382716049
40
0.716049382716049
40
0.728395061728395
40
0.728395061728395
40
0.728395061728395
40
0.728395061728395
40
0.740740740740741
40
0.740740740740741
40
0.740740740740741
40
0.740740740740741
40
0.753086419753086
40
0.753086419753086
40
0.753086419753086
40
0.753086419753086
40
0.765432098765432
40
0.765432098765432
40
0.765432098765432
40
0.765432098765432
40
0.777777777777778
40
0.777777777777778
40
0.777777777777778
40
0.777777777777778
40
0.790123456790123
40
0.790123456790123
40
0.790123456790123
40
0.790123456790123
40
0.802469135802469
40
0.802469135802469
40
0.802469135802469
40
0.802469135802469
40
0.814814814814815
40
0.814814814814815
40
0.814814814814815
40
0.814814814814815
40
0.82716049382716
40
0.82716049382716
40
0.82716049382716
40
0.82716049382716
40
0.839506172839506
40
0.839506172839506
40
0.839506172839506
40
0.839506172839506
40
0.851851851851852
40
0.851851851851852
40
0.851851851851852
40
0.851851851851852
40
0.864197530864197
40
0.864197530864197
40
0.864197530864197
40
0.864197530864197
40
0.876543209876543
40
0.876543209876543
40
0.876543209876543
40
0.876543209876543
40
0.888888888888889
40
0.888888888888889
40
0.888888888888889
40
0.888888888888889
40
0.901234567901235
40
0.901234567901235
40
0.901234567901235
40
0.901234567901235
40
0.91358024691358
40
0.91358024691358
40
0.91358024691358
40
0.91358024691358
40
0.925925925925926
40
0.925925925925926
40
0.925925925925926
40
0.925925925925926
40
0.938271604938272
40
0.938271604938272
40
0.938271604938272
40
0.938271604938272
40
0.950617283950617
40
0.950617283950617
40
0.950617283950617
40
0.950617283950617
40
0.962962962962963
40
0.962962962962963
40
0.962962962962963
40
0.962962962962963
40
0.975308641975309
40
0.975308641975309
40
0.975308641975309
40
0.975308641975309
40
1.0
40
1.0
40
1.0
40
1.0
10
0.0
20
0.0
30
0.0
41
1.0
10
-0.0193682674308687
20
0.145577860317737
30
0.0
41
1.0
10
-0.0387365348617375
20
0.291155720635475
30
0.0
41
1.0
10
-0.0371437607841406
20
0.439297164673066
30
0.0
41
1.0
10
-0.0371437607841406
20
0.439297164673066
30
0.0
41
1.0
10
-0.0355509867065438
20
0.587438608710658
30
0.0
41
1.0
10
-0.0129971711204814
20
0.738143636468103
30
0.0
41
1.0
10
0.0249689676685032
20
0.890648324932497
30
0.0
41
1.0
10
0.0249689676685032
20
0.890648324932497
30
0.0
41
1.0
10
0.0629351064574879
20
1.04315301339689
30
0.0
41
1.0
10
0.116313568449395
20
1.19745736256823
30
0.0
41
1.0
10
0.186626559990107
20
1.35364132400893
30
0.0
41
1.0
10
0.186626559990107
20
1.35364132400893
30
0.0
41
1.0
10
0.25693955153082
20
1.50982528544962
30
0.0
41
1.0
10
0.344187072620338
20
1.66788885915966
30
0.0
41
1.0
10
0.447963818970484
20
1.82763908997344
30
0.0
41
1.0
10
0.447963818970484
20
1.82763908997344
30
0.0
41
1.0
10
0.551740565320629
20
1.98738932078722
30
0.0
41
1.0
10
0.672046536931401
20
2.14882620870474
30
0.0
41
1.0
10
0.808959434586446
20
2.31178456657626
30
0.0
41
1.0
10
0.808959434586446
20
2.31178456657626
30
0.0
41
1.0
10
0.94587233224149
20
2.47474292444779
30
0.0
41
1.0
10
1.09939215594081
20
2.63922275227332
30
0.0
41
1.0
10
1.2694330331506
20
2.80500797801883
30
0.0
41
1.0
10
1.2694330331506
20
2.80500797801883
30
0.0
41
1.0
10
1.4394739103604
20
2.97079320376434
30
0.0
41
1.0
10
1.62603584108067
20
3.13788382742983
30
0.0
41
1.0
10
1.829041891196
20
3.30603633396705
30
0.0
41
1.0
10
1.829041891196
20
3.30603633396705
30
0.0
41
1.0
10
2.03204794131133
20
3.47418884050426
30
0.0
41
1.0
10
2.25149811082172
20
3.64340322991322
30
0.0
41
1.0
10
2.48727740828864
20
3.81340505430254
30
0.0
41
1.0
10
2.48727740828864
20
3.81340505430254
30
0.0
41
1.0
10
2.72305670575555
20
3.98340687869186
30
0.0
41
1.0
10
2.97516513117899
20
4.15419613806156
30
0.0
41
1.0
10
3.24346144985348
20
4.32547156797844
30
0.0
41
1.0
10
3.24346144985348
20
4.32547156797844
30
0.0
41
1.0
10
3.51175776852798
20
4.49674699789531
30
0.0
41
1.0
10
3.79624198045352
20
4.66850859835937
30
0.0
41
1.0
10
4.09674268482645
20
4.84043071722426
30
0.0
41
1.0
10
4.09674268482645
20
4.84043071722426
30
0.0
41
1.0
10
4.39724338919937
20
5.01235283608915
30
0.0
41
1.0
10
4.71376058601968
20
5.18443547335486
30
0.0
41
1.0
10
5.04609305310508
20
5.35633177754044
30
0.0
41
1.0
10
5.04609305310508
20
5.35633177754044
30
0.0
41
1.0
10
5.37842552019049
20
5.52822808172602
30
0.0
41
1.0
10
5.72657325754099
20
5.69993805283147
30
0.0
41
1.0
10
6.09030450406273
20
5.87109688572484
30
0.0
41
1.0
10
6.09030450406273
20
5.87109688572484
30
0.0
41
1.0
10
6.45403575058448
20
6.04225571861821
30
0.0
41
1.0
10
6.83335050627747
20
6.2128634132995
30
0.0
41
1.0
10
7.22798614961486
20
6.38254065284313
30
0.0
41
1.0
10
7.22798614961486
20
6.38254065284313
30
0.0
41
1.0
10
7.62262179295225
20
6.55221789238675
30
0.0
41
1.0
10
8.03257832393403
20
6.72096467679271
30
0.0
41
1.0
10
8.45756197339793
20
6.88839072682543
30
0.0
41
1.0
10
8.45756197339793
20
6.88839072682543
30
0.0
41
1.0
10
8.88254562286184
20
7.05581677685815
30
0.0
41
1.0
10
9.32255639080787
20
7.22192209251763
30
0.0
41
1.0
10
9.77726923156758
20
7.38630906044188
30
0.0
41
1.0
10
9.77726923156758
20
7.38630906044188
30
0.0
41
1.0
10
10.2319820723273
20
7.55069602836612
30
0.0
41
1.0
10
10.7013969859007
20
7.71336464855513
30
0.0
41
1.0
10
11.1851576706901
20
7.87391363493964
30
0.0
41
1.0
10
11.1851576706901
20
7.87391363493964
30
0.0
41
1.0
10
11.6689183554796
20
8.03446262132414
30
0.0
41
1.0
10
12.1670248114852
20
8.19289197390413
30
0.0
41
1.0
10
12.6790896744491
20
8.34880038773147
30
0.0
41
1.0
10
12.6790896744491
20
8.34880038773147
30
0.0
41
1.0
10
13.191154537413
20
8.5047088015588
30
0.0
41
1.0
10
13.7171778073353
20
8.65809627663347
30
0.0
41
1.0
10
14.2567414337833
20
8.80856509427728
30
0.0
41
1.0
10
14.2567414337833
20
8.80856509427728
30
0.0
41
1.0
10
14.7963050602313
20
8.9590339119211
30
0.0
41
1.0
10
15.3494090432051
20
9.10658407213406
30
0.0
41
1.0
10
15.9156052150866
20
9.25082495971202
30
0.0
41
1.0
10
15.9156052150866
20
9.25082495971202
30
0.0
41
1.0
10
16.4818013869682
20
9.39506584728998
30
0.0
41
1.0
10
17.0610897477575
20
9.53599746223293
30
0.0
41
1.0
10
17.6529927787884
20
9.67323968479898
30
0.0
41
1.0
10
17.6529927787884
20
9.67323968479898
30
0.0
41
1.0
10
18.2448958098192
20
9.81048190736504
30
0.0
41
1.0
10
18.8494135110916
20
9.9440347375542
30
0.0
41
1.0
10
19.4660399766318
20
10.0735317833221
30
0.0
41
1.0
10
19.4660399766318
20
10.0735317833221
30
0.0
41
1.0
10
20.082666442172
20
10.20302882909
30
0.0
41
1.0
10
20.7114016719801
20
10.3284700904367
30
0.0
41
1.0
10
21.3517125309672
20
10.4495059438974
30
0.0
41
1.0
10
21.3517125309672
20
10.4495059438974
30
0.0
41
1.0
10
21.9920233899544
20
10.5705417973581
30
0.0
41
1.0
10
22.6439098781207
20
10.6871722429327
30
0.0
41
1.0
10
23.3068129741051
20
10.7990672481409
30
0.0
41
1.0
10
23.3068129741051
20
10.7990672481409
30
0.0
41
1.0
10
23.9697160700895
20
10.9109622533491
30
0.0
41
1.0
10
24.6436357738919
20
11.0181218181908
30
0.0
41
1.0
10
25.3279887009784
20
11.1202380788634
30
0.0
41
1.0
10
25.3279887009784
20
11.1202380788634
30
0.0
41
1.0
10
26.0123416280649
20
11.2223543395359
30
0.0
41
1.0
10
26.7071277784354
20
11.3194272960394
30
0.0
41
1.0
10
27.4117410647781
20
11.4111735760852
30
0.0
41
1.0
10
27.4117410647781
20
11.4111735760852
30
0.0
41
1.0
10
28.1163543511207
20
11.502919856131
30
0.0
41
1.0
10
28.8307947734353
20
11.5893394597192
30
0.0
41
1.0
10
29.5544354235582
20
11.6701755247326
30
0.0
41
1.0
10
29.5544354235582
20
11.6701755247326
30
0.0
41
1.0
10
30.2780760736812
20
11.751011589746
30
0.0
41
1.0
10
31.0109169516123
20
11.8262641161846
30
0.0
41
1.0
10
31.7523120267079
20
11.89570458537
30
0.0
41
1.0
10
31.7523120267079
20
11.89570458537
30
0.0
41
1.0
10
32.4937071018035
20
11.9651450545555
30
0.0
41
1.0
10
33.2436563740636
20
12.0287734664877
30
0.0
41
1.0
10
34.0014976142183
20
12.0863908076873
30
0.0
41
1.0
10
34.0014976142183
20
12.0863908076873
30
0.0
41
1.0
10
34.7593388543731
20
12.1440081488868
30
0.0
41
1.0
10
35.5250720624225
20
12.1956144193537
30
0.0
41
1.0
10
36.2980175893142
20
12.2410423950816
30
0.0
41
1.0
10
36.2980175893142
20
12.2410423950816
30
0.0
41
1.0
10
37.0709631162059
20
12.2864703708095
30
0.0
41
1.0
10
37.85112096194
20
12.3257200517984
30
0.0
41
1.0
10
38.6378086166029
20
12.3586527169261
30
0.0
41
1.0
10
38.6378086166029
20
12.3586527169261
30
0.0
41
1.0
10
39.4244962712658
20
12.3915853820537
30
0.0
41
1.0
10
40.2177137348577
20
12.41820103132
30
0.0
41
1.0
10
41.0167314936414
20
12.4384055923513
30
0.0
41
1.0
10
41.0167314936414
20
12.4384055923513
30
0.0
41
1.0
10
41.8157492524251
20
12.4586101533827
30
0.0
41
1.0
10
42.6205673064006
20
12.4724036261789
30
0.0
41
1.0
10
43.4305841437946
20
12.4796788949559
30
0.0
41
1.0
10
43.4305841437946
20
12.4796788949559
30
0.0
41
1.0
10
44.2406009811886
20
12.4869541637329
30
0.0
41
1.0
10
45.055816602001
20
12.4877112284907
30
0.0
41
1.0
10
45.8751145823684
20
12.4820465511938
30
0.0
41
1.0
10
45.8751145823684
20
12.4820465511938
30
0.0
41
1.0
10
46.6944125627357
20
12.4763818738969
30
0.0
41
1.0
10
47.517792902658
20
12.4642954545453
30
0.0
41
1.0
10
48.3460337160156
20
12.4452790257148
30
0.0
41
1.0
10
48.3460337160156
20
12.4452790257148
30
0.0
41
1.0
10
49.1742745293731
20
12.4262625968843
30
0.0
41
1.0
10
50.0073758161659
20
12.4003161585748
30
0.0
41
1.0
10
50.8340380258842
20
12.3694525376912
30
0.0
41
1.0
10
50.8340380258842
20
12.3694525376912
30
0.0
41
1.0
10
51.6607002356026
20
12.3385889168075
30
0.0
41
1.0
10
52.4809233682464
20
12.3028081133497
30
0.0
41
1.0
10
53.3061017445256
20
12.2630630220791
30
0.0
41
1.0
10
53.3061017445256
20
12.2630630220791
30
0.0
41
1.0
10
54.1312801208048
20
12.2233179308084
30
0.0
41
1.0
10
54.9614137407194
20
12.1796085517249
30
0.0
41
1.0
10
55.7926008911852
20
12.1318221451714
30
0.0
41
1.0
10
55.7926008911852
20
12.1318221451714
30
0.0
41
1.0
10
56.623788041651
20
12.0840357386179
30
0.0
41
1.0
10
57.456028722668
20
12.0321723045943
30
0.0
41
1.0
10
58.2895191801416
20
11.9764237740226
30
0.0
41
1.0
10
58.2895191801416
20
11.9764237740226
30
0.0
41
1.0
10
59.1230096376153
20
11.9206752434509
30
0.0
41
1.0
10
59.9577498715456
20
11.8610416163311
30
0.0
41
1.0
10
60.7928390438708
20
11.7976510268966
30
0.0
41
1.0
10
60.7928390438708
20
11.7976510268966
30
0.0
41
1.0
10
61.627928216196
20
11.7342604374622
30
0.0
41
1.0
10
62.4633663269159
20
11.6671128857131
30
0.0
41
1.0
10
63.2985489663849
20
11.5963701539885
30
0.0
41
1.0
10
63.2985489663849
20
11.5963701539885
30
0.0
41
1.0
10
64.1337316058539
20
11.5256274222639
30
0.0
41
1.0
10
64.9686587740719
20
11.4512895105637
30
0.0
41
1.0
10
65.8026505470142
20
11.3735244835548
30
0.0
41
1.0
10
65.8026505470142
20
11.3735244835548
30
0.0
41
1.0
10
66.6366423199565
20
11.2957594565459
30
0.0
41
1.0
10
67.469698697623
20
11.2145673142281
30
0.0
41
1.0
10
68.3011652950912
20
11.1301285281163
30
0.0
41
1.0
10
68.3011652950912
20
11.1301285281163
30
0.0
41
1.0
10
69.1326318925595
20
11.0456897420045
30
0.0
41
1.0
10
69.9625087098296
20
10.9580043120986
30
0.0
41
1.0
10
70.7901411616826
20
10.8672623283776
30
0.0
41
1.0
10
70.7901411616826
20
10.8672623283776
30
0.0
41
1.0
10
71.6177736135356
20
10.7765203446566
30
0.0
41
1.0
10
72.4431616999716
20
10.6827218071204
30
0.0
41
1.0
10
73.2656588190859
20
10.5860660942075
30
0.0
41
1.0
10
73.2656588190859
20
10.5860660942075
30
0.0
41
1.0
10
74.0881559382001
20
10.4894103812945
30
0.0
41
1.0
10
74.9077620899926
20
10.3898974930047
30
0.0
41
1.0
10
75.7238377021668
20
10.2877351829933
30
0.0
41
1.0
10
75.7238377021668
20
10.2877351829933
30
0.0
41
1.0
10
76.539913314341
20
10.1855728729819
30
0.0
41
1.0
10
77.3524583868969
20
10.0807611412488
30
0.0
41
1.0
10
78.1608418277026
20
9.97351543648233
30
0.0
41
1.0
10
78.1608418277026
20
9.97351543648233
30
0.0
41
1.0
10
78.9692252685083
20
9.86626973171584
30
0.0
41
1.0
10
79.7734470775638
20
9.75659005391591
30
0.0
41
1.0
10
80.5728854087349
20
9.64469887840922
30
0.0
41
1.0
10
80.5728854087349
20
9.64469887840922
30
0.0
41
1.0
10
81.372323739906
20
9.53280770290252
30
0.0
41
1.0
10
82.1669785931927
20
9.41870502968906
30
0.0
41
1.0
10
82.9562382805686
20
9.30261975731209
30
0.0
41
1.0
10
82.9562382805686
20
9.30261975731209
30
0.0
41
1.0
10
83.7454979679445
20
9.18653448493511
30
0.0
41
1.0
10
84.5293624894095
20
9.06846661339462
30
0.0
41
1.0
10
85.307231153604
20
8.94865090245783
30
0.0
41
1.0
10
85.307231153604
20
8.94865090245783
30
0.0
41
1.0
10
86.0850998177984
20
8.82883519152105
30
0.0
41
1.0
10
86.8569726247222
20
8.70727164118796
30
0.0
41
1.0
10
87.6222607057933
20
8.58420034617423
30
0.0
41
1.0
10
87.6222607057933
20
8.58420034617423
30
0.0
41
1.0
10
88.3875487868643
20
8.46112905116051
30
0.0
41
1.0
10
89.1462521420824
20
8.33655001146613
30
0.0
41
1.0
10
89.8977945243699
20
8.21070815350845
30
0.0
41
1.0
10
89.8977945243699
20
8.21070815350845
30
0.0
41
1.0
10
90.6493369066574
20
8.08486629555077
30
0.0
41
1.0
10
91.3937183160143
20
7.95776161932978
30
0.0
41
1.0
10
92.1303759028105
20
7.82964339031169
30
0.0
41
1.0
10
92.1303759028105
20
7.82964339031169
30
0.0
41
1.0
10
92.8670334896068
20
7.7015251612936
30
0.0
41
1.0
10
93.5959672538422
20
7.57239337947842
30
0.0
41
1.0
10
94.3166284949925
20
7.44250115382256
30
0.0
41
1.0
10
94.3166284949925
20
7.44250115382256
30
0.0
41
1.0
10
95.0372897361427
20
7.31260892816671
30
0.0
41
1.0
10
95.7496784542077
20
7.18195625867018
30
0.0
41
1.0
10
96.4532608244309
20
7.0507995857396
30
0.0
41
1.0
10
96.4532608244309
20
7.0507995857396
30
0.0
41
1.0
10
97.1568431946541
20
6.91964291280902
30
0.0
41
1.0
10
97.8516192170356
20
6.78798223644439
30
0.0
41
1.0
10
98.5370706425573
20
6.65607678670084
30
0.0
41
1.0
10
98.5370706425573
20
6.65607678670084
30
0.0
41
1.0
10
99.2225220680791
20
6.52417133695728
30
0.0
41
1.0
10
99.898648896741
20
6.3920211138348
30
0.0
41
1.0
10
100.564949126445
20
6.25988755300578
30
0.0
41
1.0
10
100.564949126445
20
6.25988755300578
30
0.0
41
1.0
10
101.23124935615
20
6.12775399217677
30
0.0
41
1.0
10
101.887722986897
20
5.99563709364124
30
0.0
41
1.0
10
102.533884903396
20
5.86379986121638
30
0.0
41
1.0
10
102.533884903396
20
5.86379986121638
30
0.0
41
1.0
10
103.180046819895
20
5.73196262879152
30
0.0
41
1.0
10
103.815897022147
20
5.60040506247732
30
0.0
41
1.0
10
104.440967887526
20
5.46939103377745
30
0.0
41
1.0
10
104.440967887526
20
5.46939103377745
30
0.0
41
1.0
10
105.066038752905
20
5.33837700507757
30
0.0
41
1.0
10
105.680330281411
20
5.20790651399202
30
0.0
41
1.0
10
106.283392912087
20
5.07824352874511
30
0.0
41
1.0
10
106.283392912087
20
5.07824352874511
30
0.0
41
1.0
10
106.886455542762
20
4.94858054349819
30
0.0
41
1.0
10
107.478289275608
20
4.81972506408991
30
0.0
41
1.0
10
108.058463140747
20
4.69194030878627
30
0.0
41
1.0
10
108.058463140747
20
4.69194030878627
30
0.0
41
1.0
10
108.638637005885
20
4.56415555348263
30
0.0
41
1.0
10
109.207151003316
20
4.43744152228363
30
0.0
41
1.0
10
109.763593241565
20
4.312059758439
30
0.0
41
1.0
10
109.763593241565
20
4.312059758439
30
0.0
41
1.0
10
110.320035479813
20
4.18667799459437
30
0.0
41
1.0
10
110.864405958878
20
4.06262849810412
30
0.0
41
1.0
10
111.396312308817
20
3.94017013378668
30
0.0
41
1.0
10
111.396312308817
20
3.94017013378668
30
0.0
41
1.0
10
111.928218658756
20
3.81771176946925
30
0.0
41
1.0
10
112.447660879569
20
3.69684453732464
30
0.0
41
1.0
10
112.954266520209
20
3.57782354475305
30
0.0
41
1.0
10
112.954266520209
20
3.57782354475305
30
0.0
41
1.0
10
113.460872160849
20
3.45880255218146
30
0.0
41
1.0
10
113.954641221316
20
3.34162779918288
30
0.0
41
1.0
10
114.435221520171
20
3.22654948670527
30
0.0
41
1.0
10
114.435221520171
20
3.22654948670527
30
0.0
41
1.0
10
114.915801819026
20
3.11147117422766
30
0.0
41
1.0
10
115.383193356268
20
2.998489302271
30
0.0
41
1.0
10
115.837064523806
20
2.88784795449117
30
0.0
41
1.0
10
115.837064523806
20
2.88784795449117
30
0.0
41
1.0
10
116.290935691343
20
2.77720660671134
30
0.0
41
1.0
10
116.731286489176
20
2.66890578310834
30
0.0
41
1.0
10
117.157806140447
20
2.56318218797063
30
0.0
41
1.0
10
117.157806140447
20
2.56318218797063
30
0.0
41
1.0
10
117.584325791719
20
2.45745859283291
30
0.0
41
1.0
10
117.99701429643
20
2.35431222616049
30
0.0
41
1.0
10
118.395581920514
20
2.25397111309049
30
0.0
41
1.0
10
118.395581920514
20
2.25397111309049
30
0.0
41
1.0
10
118.794149544599
20
2.15363000002049
30
0.0
41
1.0
10
119.178596288057
20
2.05609414055291
30
0.0
41
1.0
10
119.548653634221
20
1.9615815561829
30
0.0
41
1.0
10
119.548653634221
20
1.9615815561829
30
0.0
41
1.0
10
119.918710980384
20
1.86706897181288
30
0.0
41
1.0
10
120.274378929252
20
1.77557966254041
30
0.0
41
1.0
10
120.615410295509
20
1.68732032106902
30
0.0
41
1.0
10
120.615410295509
20
1.68732032106902
30
0.0
41
1.0
10
120.956441661766
20
1.59906097959763
30
0.0
41
1.0
10
121.282836445411
20
1.51403160592732
30
0.0
41
1.0
10
121.594368949102
20
1.43242622840059
30
0.0
41
1.0
10
121.594368949102
20
1.43242622840059
30
0.0
41
1.0
10
121.905901452793
20
1.35082085087387
30
0.0
41
1.0
10
122.20257167653
20
1.27263946949074
30
0.0
41
1.0
10
122.484175242634
20
1.19806222420522
30
0.0
41
1.0
10
122.484175242634
20
1.19806222420522
30
0.0
41
1.0
10
122.765778808739
20
1.12348497891971
30
0.0
41
1.0
10
123.032315717211
20
1.05251186973182
30
0.0
41
1.0
10
123.283603809241
20
0.985307669614164
30
0.0
41
1.0
10
123.283603809241
20
0.985307669614164
30
0.0
41
1.0
10
123.53489190127
20
0.918103469496505
30
0.0
41
1.0
10
123.770931176856
20
0.854668178449076
30
0.0
41
1.0
10
123.991558488596
20
0.795150926106223
30
0.0
41
1.0
10
123.991558488596
20
0.795150926106223
30
0.0
41
1.0
10
124.212185800336
20
0.73563367376337
30
0.0
41
1.0
10
124.417401148231
20
0.680034460125091
30
0.0
41
1.0
10
124.607072416109
20
0.628482350229954
30
0.0
41
1.0
10
124.607072416109
20
0.628482350229954
30
0.0
41
1.0
10
124.796743683988
20
0.576930240334817
30
0.0
41
1.0
10
124.970870871852
20
0.529425234182821
30
0.0
41
1.0
10
125.129308010656
20
0.4860878086688
30
0.0
41
1.0
10
125.129308010656
20
0.4860878086688
30
0.0
41
1.0
10
125.287745149461
20
0.442750383154779
30
0.0
41
1.0
10
125.430492239206
20
0.403580538278731
30
0.0
41
1.0
10
125.557556890906
20
0.368642818760693
30
0.0
41
1.0
10
125.557556890906
20
0.368642818760693
30
0.0
41
1.0
10
125.684621542605
20
0.333705099242654
30
0.0
41
1.0
10
125.796003756259
20
0.302999505082625
30
0.0
41
1.0
10
125.891239748875
20
0.276707411308443
30
0.0
41
1.0
10
125.891239748875
20
0.276707411308443
30
0.0
41
1.0
10
125.986475741491
20
0.250415317534261
30
0.0
41
1.0
10
126.065565513069
20
0.228536724145927
30
0.0
41
1.0
10
126.129906206951
20
0.210721801919617
30
0.0
41
1.0
10
126.129906206951
20
0.210721801919617
30
0.0
41
1.0
10
126.194246900833
20
0.192906879693307
30
0.0
41
1.0
10
126.243838517019
20
0.179155628629021
30
0.0
41
1.0
10
126.273234681259
20
0.171002944445894
30
0.0
41
1.0
10
126.273234681259
20
0.171002944445894
30
0.0
41
1.0
10
126.302630845499
20
0.162850260262767
30
0.0
41
1.0
10
126.311831557793
20
0.160296142960799
30
0.0
41
1.0
10
126.321032270088
20
0.15774202565883
30
0.0
41
1.0
11
0.0
21
0.0
31
0.0
11
-0.0371437607841406
21
0.439297164673066
31
0.0
11
0.0249689676685032
21
0.890648324932497
31
0.0
11
0.186626559990107
21
1.35364132400893
31
0.0
11
0.447963818970484
21
1.82763908997344
31
0.0
11
0.808959434586446
21
2.31178456657626
31
0.0
11
1.2694330331506
21
2.80500797801883
31
0.0
11
1.829041891196
21
3.30603633396705
31
0.0
11
2.48727740828864
21
3.81340505430254
31
0.0
11
3.24346144985348
21
4.32547156797844
31
0.0
11
4.09674268482645
21
4.84043071722426
31
0.0
11
5.04609305310508
21
5.35633177754044
31
0.0
11
6.09030450406273
21
5.87109688572484
31
0.0
11
7.22798614961486
21
6.38254065284313
31
0.0
11
8.45756197339793
21
6.88839072682543
31
0.0
11
9.77726923156758
21
7.38630906044188
31
0.0
11
11.1851576706901
21
7.87391363493964
31
0.0
11
12.6790896744491
21
8.34880038773147
31
0.0
11
14.2567414337833
21
8.80856509427728
31
0.0
11
15.9156052150866
21
9.25082495971202
31
0.0
11
17.6529927787884
21
9.67323968479898
31
0.0
11
19.4660399766318
21
10.0735317833221
31
0.0
11
21.3517125309672
21
10.4495059438974
31
0.0
11
23.3068129741051
21
10.7990672481409
31
0.0
11
25.3279887009784
21
11.1202380788634
31
0.0
11
27.4117410647781
21
11.4111735760852
31
0.0
11
29.5544354235582
21
11.6701755247326
31
0.0
11
31.7523120267079
21
11.89570458537
31
0.0
11
34.0014976142183
21
12.0863908076873
31
0.0
11
36.2980175893142
21
12.2410423950816
31
0.0
11
38.6378086166029
21
12.3586527169261
31
0.0
11
41.0167314936414
21
12.4384055923513
31
0.0
11
43.4305841437946
21
12.4796788949559
31
0.0
11
45.8751145823684
21
12.4820465511938
31
0.0
11
48.3460337160156
21
12.4452790257148
31
0.0
11
50.8340380258842
21
12.3694525376912
31
0.0
11
53.3061017445256
21
12.2630630220791
31
0.0
11
55.7926008911852
21
12.1318221451714
31
0.0
11
58.2895191801416
21
11.9764237740226
31
0.0
11
60.7928390438708
21
11.7976510268966
31
0.0
11
63.2985489663849
21
11.5963701539885
31
0.0
11
65.8026505470142
21
11.3735244835548
31
0.0
11
68.3011652950912
21
11.1301285281163
31
0.0
11
70.7901411616826
21
10.8672623283776
31
0.0
11
73.2656588190859
21
10.5860660942075
31
0.0
11
75.7238377021668
21
10.2877351829933
31
0.0
11
78.1608418277026
21
9.97351543648233
31
0.0
11
80.5728854087349
21
9.64469887840922
31
0.0
11
82.9562382805686
21
9.30261975731209
31
0.0
11
85.307231153604
21
8.94865090245783
31
0.0
11
87.6222607057933
21
8.58420034617423
31
0.0
11
89.8977945243699
21
8.21070815350845
31
0.0
11
92.1303759028105
21
7.82964339031169
31
0.0
11
94.3166284949925
21
7.44250115382256
31
0.0
11
96.4532608244309
21
7.0507995857396
31
0.0
11
98.5370706425573
21
6.65607678670084
31
0.0
11
100.564949126445
21
6.25988755300578
31
0.0
11
102.533884903396
21
5.86379986121638
31
0.0
11
104.440967887526
21
5.46939103377745
31
0.0
11
106.283392912087
21
5.07824352874511
31
0.0
11
108.058463140747
21
4.69194030878627
31
0.0
11
109.763593241565
21
4.312059758439
31
0.0
11
111.396312308817
21
3.94017013378668
31
0.0
11
112.954266520209
21
3.57782354475305
31
0.0
11
114.435221520171
21
3.22654948670527
31
0.0
11
115.837064523806
21
2.88784795449117
31
0.0
11
117.157806140447
21
2.56318218797063
31
0.0
11
118.395581920514
21
2.25397111309049
31
0.0
11
119.548653634221
21
1.9615815561829
31
0.0
11
120.615410295509
21
1.68732032106902
31
0.0
11
121.594368949102
21
1.43242622840059
31
0.0
11
122.484175242634
21
1.19806222420522
31
0.0
11
123.283603809241
21
0.985307669614164
31
0.0
11
123.991558488596
21
0.795150926106223
31
0.0
11
124.607072416109
21
0.628482350229954
31
0.0
11
125.129308010656
21
0.4860878086688
31
0.0
11
125.557556890906
21
0.368642818760693
31
0.0
11
125.891239748875
21
0.276707411308443
31
0.0
11
126.129906206951
21
0.210721801919617
31
0.0
11
126.273234681259
21
0.171002944445894
31
0.0
11
126.321032270088
21
0.15774202565883
31
0.0
0
SPLINE
5
31
330
1C
100
AcDbEntity
67
0
8
BLADE_SURFACE
62
256
6
ByLayer
370
-1
48
1.0
60
0
100
AcDbSpline
70
36
71
3
42
0.0000001
43
0.0000001
44
0.0000000001
40
0.0
40
0.0
40
0.0
40
0.0
40
0.0123456790123457
40
0.0123456790123457
40
0.0123456790123457
40
0.0123456790123457
40
0.0246913580246914
40
0.0246913580246914
40
0.0246913580246914
40
0.0246913580246914
40
0.037037037037037
40
0.037037037037037
40
0.037037037037037
40
0.037037037037037
40
0.0493827160493827
40
0.0493827160493827
40
0.0493827160493827
40
0.0493827160493827
40
0.0617283950617284
40
0.0617283950617284
40
0.0617283950617284
40
0.0617283950617284
40
0.0740740740740741
40
0.0740740740740741
40
0.0740740740740741
40
0.0740740740740741
40
0.0864197530864197
40
0.0864197530864197
40
0.0864197530864197
40
0.0864197530864197
40
0.0987654320987654
40
0.0987654320987654
40
0.0987654320987654
40
0.0987654320987654
40
0.111111111111111
40
0.111111111111111
40
0.111111111111111
40
0.111111111111111
40
0.123456790123457
40
0.123456790123457
40
0.123456790123457
40
0.123456790123457
40
0.135802469135802
40
0.135802469135802
40
0.135802469135802
40
0.135802469135802
40
0.148148148148148
40
0.148148148148148
40
0.148148148148148
40
0.148148148148148
40
0.160493827160494
40
0.160493827160494
40
0.160493827160494
40
0.160493827160494
40
0.172839506172839
40
0.172839506172839
40
0.172839506172839
40
0.172839506172839
40
0.185185185185185
40
0.185185185185185
40
0.185185185185185
40
0.185185185185185
40
0.197530864197531
40
0.197530864197531
40
0.197530864197531
40
0.197530864197531
40
0.209876543209877
40
0.209876543209877
40
0.209876543209877
40
0.209876543209877
40
0.222222222222222
40
0.222222222222222
40
0.222222222222222
40
0.222222222222222
40
0.234567901234568
40
0.234567901234568
40
0.234567901234568
40
0.234567901234568
40
0.246913580246914
40
0.246913580246914
40
0.246913580246914
40
0.246913580246914
40
0.259259259259259
40
0.259259259259259
40
0.259259259259259
40
0.259259259259259
40
0.271604938271605
40
0.271604938271605
40
0.271604938271605
40
0.271604938271605
40
0.283950617283951
40
0.283950617283951
40
0.283950617283951
40
0.283950617283951
40
0.296296296296296
40
0.296296296296296
40
0.296296296296296
40
0.296296296296296
40
0.308641975308642
40
0.308641975308642
40
0.308641975308642
40
0.308641975308642
40
0.320987654320988
40
0.320987654320988
40
0.320987654320988
40
0.320987654320988
40
0.333333333333333
40
0.333333333333333
40
0.333333333333333
40
0.333333333333333
40
0.345679012345679
40
0.345679012345679
40
0.345679012345679
40
0.345679012345679
40
0.358024691358025
40
0.358024691358025
40
0.358024691358025
40
0.358024691358025
40
0.37037037037037
40
0.37037037037037
40
0.37037037037037
40
0.37037037037037
40
0.382716049382716
40
0.382716049382716
40
0.382716049382716
40
0.382716049382716
40
0.395061728395062
40
0.395061728395062
40
0.395061728395062
40
0.395061728395062
40
0.407407407407407
40
0.407407407407407
40
0.407407407407407
40
0.407407407407407
40
0.419753086419753
40
0.419753086419753
40
0.419753086419753
40
0.419753086419753
40
0.432098765432099
40
0.432098765432099
40
0.432098765432099
40
0.432098765432099
40
0.444444444444444
40
0.444444444444444
40
0.444444444444444
40
0.444444444444444
40
0.45679012345679
40
0.45679012345679
40
0.45679012345679
40
0.45679012345679
40
0.469135802469136
40
0.469135802469136
40
0.469135802469136
40
0.469135802469136
40
0.481481481481481
40
0.481481481481481
40
0.481481481481481
40
0.481481481481481
40
0.493827160493827
40
0.493827160493827
40
0.493827160493827
40
0.493827160493827
40
0.506172839506173
40
0.506172839506173
40
0.506172839506173
40
0.506172839506173
40
0.518518518518518
40
0.518518518518518
40
0.518518518518518
40
0.518518518518518
40
0.530864197530864
40
0.530864197530864
40
0.530864197530864
40
0.530864197530864
40
0.54320987654321
40
0.54320987654321
40
0.54320987654321
40
0.54320987654321
40
0.555555555555556
40
0.555555555555556
40
0.555555555555556
40
0.555555555555556
40
0.567901234567901
40
0.567901234567901
40
0.567901234567901
40
0.567901234567901
40
0.580246913580247
40
0.580246913580247
40
0.580246913580247
40
0.580246913580247
40
0.592592592592593
40
0.592592592592593
40
0.592592592592593
40
0.592592592592593
40
0.604938271604938
40
0.604938271604938
40
0.604938271604938
40
0.604938271604938
40
0.617283950617284
40
0.617283950617284
40
0.617283950617284
40
0.617283950617284
40
0.62962962962963
40
0.62962962962963
40
0.62962962962963
40
0.62962962962963
40
0.641975308641975
40
0.641975308641975
40
0.641975308641975
40
0.641975308641975
40
0.654320987654321
40
0.654320987654321
40
0.654320987654321
40
0.654320987654321
40
0.666666666666667
40
0.666666666666667
40
0.666666666666667
40
0.666666666666667
40
0.679012345679012
40
0.679012345679012
40
0.679012345679012
40
0.679012345679012
40
0.691358024691358
40
0.691358024691358
40
0.691358024691358
40
0.691358024691358
40
0.703703703703704
40
0.703703703703704
40
0.703703703703704
40
0.703703703703704
40
0.716049382716049
40
0.716049382716049
40
0.716049382716049
40
0.716049382716049
40
0.728395061728395
40
0.728395061728395
40
0.728395061728395
40
0.728395061728395
40
0.740740740740741
40
0.740740740740741
40
0.740740740740741
40
0.740740740740741
40
0.753086419753086
40
0.753086419753086
40
0.753086419753086
40
0.753086419753086
40
0.765432098765432
40
0.765432098765432
40
0.765432098765432
40
0.765432098765432
40
0.777777777777778
40
0.777777777777778
40
0.777777777777778
40
0.777777777777778
40
0.790123456790123
40
0.790123456790123
40
0.790123456790123
40
0.790123456790123
40
0.802469135802469
40
0.802469135802469
40
0.802469135802469
40
0.802469135802469
40
0.814814814814815
40
0.814814814814815
40
0.814814814814815
40
0.814814814814815
40
0.82716049382716
40
0.82716049382716
40
0.82716049382716
40
0.82716049382716
40
0.839506172839506
40
0.839506172839506
40
0.839506172839506
40
0.839506172839506
40
0.851851851851852
40
0.851851851851852
40
0.851851851851852
40
0.851851851851852
40
0.864197530864197
40
0.864197530864197
40
0.864197530864197
40
0.864197530864197
40
0.876543209876543
40
0.876543209876543
40
0.876543209876543
40
0.876543209876543
40
0.888888888888889
40
0.888888888888889
40
0.888888888888889
40
0.888888888888889
40
0.901234567901235
40
0.901234567901235
40
0.901234567901235
40
0.901234567901235
40
0.91358024691358
40
0.91358024691358
40
0.91358024691358
40
0.91358024691358
40
0.925925925925926
40
0.925925925925926
40
0.925925925925926
40
0.925925925925926
40
0.938271604938272
40
0.938271604938272
40
0.938271604938272
40
0.938271604938272
40
0.950617283950617
40
0.950617283950617
40
0.950617283950617
40
0.950617283950617
40
0.962962962962963
40
0.962962962962963
40
0.962962962962963
40
0.962962962962963
40
0.975308641975309
40
0.975308641975309
40
0.975308641975309
40
0.975308641975309
40
1.0
40
1.0
40
1.0
40
1.0
10
0.0
20
0.0
30
0.0
41
1.0
10
0.0381124737049146
20
-0.141827212210981
30
0.0
41
1.0
10
0.0762249474098292
20
-0.283654424421962
30
0.0
41
1.0
10
0.134516483580838
20
-0.419832003968779
30
0.0
41
1.0
10
0.134516483580838
20
-0.419832003968779
30
0.0
41
1.0
10
0.192808019751847
20
-0.556009583515597
30
0.0
41
1.0
10
0.27127861838895
20
-0.686537530398251
30
0.0
41
1.0
10
0.364371781837435
20
-0.812930200980662
30
0.0
41
1.0
10
0.364371781837435
20
-0.812930200980662
30
0.0
41
1.0
10
0.45746494528592
20
-0.939322871563073
30
0.0
41
1.0
10
0.565180673545786
20
-1.06158026584524
30
0.0
41
1.0
10
0.688827326602702
20
-1.17930907747773
30
0.0
41
1.0
10
0.688827326602702
20
-1.17930907747773
30
0.0
41
1.0
10
0.812473979659618
20
-1.29703788911021
30
0.0
41
1.0
10
0.952051557513584
20
-1.41023811809302
30
0.0
41
1.0
10
1.10699876386362
20
-1.51903959462001
30
0.0
41
1.0
10
1.10699876386362
20
-1.51903959462001
30
0.0
41
1.0
10
1.26194597021365
20
-1.627841071147
30
0.0
41
1.0
10
1.43226280505975
20
-1.73224379521819
30
0.0
41
1.0
10
1.61785965048555
20
-1.83224958059083
30
0.0
41
1.0
10
1.61785965048555
20
-1.83224958059083
30
0.0
41
1.0
10
1.80345649591135
20
-1.93225536596348
30
0.0
41
1.0
10
2.00433335191686
20
-2.02786421263758
30
0.0
41
1.0
10
2.22024602062285
20
-2.11912468101943
30
0.0
41
1.0
10
2.22024602062285
20
-2.11912468101943
30
0.0
41
1.0
10
2.43615868932883
20
-2.21038514940128
30
0.0
41
1.0
10
2.66710717073529
20
-2.29729723949087
30
0.0
41
1.0
10
2.91286174470835
20
-2.37990981313238
30
0.0
41
1.0
10
2.91286174470835
20
-2.37990981313238
30
0.0
41
1.0
10
3.1586163186814
20
-2.46252238677389
30
0.0
41
1.0
10
3.41917698522105
20
-2.54083544396733
30
0.0
41
1.0
10
3.69428458363347
20
-2.61491105324588
30
0.0
41
1.0
10
3.69428458363347
20
-2.61491105324588
30
0.0
41
1.0
10
3.96939218204589
20
-2.68898666252443
30
0.0
41
1.0
10
4.25904671233109
20
-2.75882482388809
30
0.0
41
1.0
10
4.56297282313677
20
-2.82449787258319
30
0.0
41
1.0
10
4.56297282313677
20
-2.82449787258319
30
0.0
41
1.0
10
4.86689893394245
20
-2.8901709212783
30
0.0
41
1.0
10
5.1850966252686
20
-2.95167885730485
30
0.0
41
1.0
10
5.51727235899804
20
-3.00910562340679
30
0.0
41
1.0
10
5.51727235899804
20
-3.00910562340679
30
0.0
41
1.0
10
5.84944809272747
20
-3.06653238950874
30
0.0
41
1.0
10
6.19560186886018
20
-3.11987798568606
30
0.0
41
1.0
10
6.55542409278714
20
-3.16923816634144
30
0.0
41
1.0
10
6.55542409278714
20
-3.16923816634144
30
0.0
41
1.0
10
6.9152463167141
20
-3.21859834699682
30
0.0
41
1.0
10
7.28873698843532
20
-3.26397311213024
30
0.0
41
1.0
10
7.6755714909464
20
-3.30547052075901
30
0.0
41
1.0
10
7.6755714909464
20
-3.30547052075901
30
0.0
41
1.0
10
8.06240599345748
20
-3.34696792938778
30
0.0
41
1.0
10
8.46258432675842
20
-3.38458798151188
30
0.0
41
1.0
10
8.87576815709086
20
-3.41845141340494
30
0.0
41
1.0
10
8.87576815709086
20
-3.41845141340494
30
0.0
41
1.0
10
9.28895198742329
20
-3.45231484529799
30
0.0
41
1.0
10
9.71514131478721
20
-3.48242165695999
30
0.0
41
1.0
10
10.1539852686802
20
-3.50890559624839
30
0.0
41
1.0
10
10.1539852686802
20
-3.50890559624839
30
0.0
41
1.0
10
10.5928292225732
20
-3.53538953553679
30
0.0
41
1.0
10
11.0443278029953
20
-3.5582506024516
30
0.0
41
1.0
10
11.508118734621
20
-3.57763580298323
30
0.0
41
1.0
10
11.508118734621
20
-3.57763580298323
30
0.0
41
1.0
10
11.9719096662466
20
-3.59702100351487
30
0.0
41
1.0
10
12.4479929490759
20
-3.61293033766333
30
0.0
41
1.0
10
12.935995939754
20
-3.62552421480909
30
0.0
41
1.0
10
12.935995939754
20
-3.62552421480909
30
0.0
41
1.0
10
13.4239989304321
20
-3.63811809195484
30
0.0
41
1.0
10
13.923921628959
20
-3.64739651209788
30
0.0
41
1.0
10
14.4353819553128
20
-3.65353331015712
30
0.0
41
1.0
10
14.4353819553128
20
-3.65353331015712
30
0.0
41
1.0
10
14.9468422816665
20
-3.65967010821635
30
0.0
41
1.0
10
15.4698402358471
20
-3.66266528419179
30
0.0
41
1.0
10
16.0039851109328
20
-3.66270597992441
30
0.0
41
1.0
10
16.0039851109328
20
-3.66270597992441
30
0.0
41
1.0
10
16.5381299860184
20
-3.66274667565703
30
0.0
41
1.0
10
17.0834217820092
20
-3.65983289114684
30
0.0
41
1.0
10
17.6394618431863
20
-3.65416479952734
30
0.0
41
1.0
10
17.6394618431863
20
-3.65416479952734
30
0.0
41
1.0
10
18.1955019043633
20
-3.64849670790784
30
0.0
41
1.0
10
18.7622902307266
20
-3.64007430917902
30
0.0
41
1.0
10
19.3394207573507
20
-3.62911036160594
30
0.0
41
1.0
10
19.3394207573507
20
-3.62911036160594
30
0.0
41
1.0
10
19.9165512839747
20
-3.61814641403286
30
0.0
41
1.0
10
20.5040240108596
20
-3.60464091761551
30
0.0
41
1.0
10
21.1014258625576
20
-3.58881858837992
30
0.0
41
1.0
10
21.1014258625576
20
-3.58881858837992
30
0.0
41
1.0
10
21.6988277142556
20
-3.57299625914433
30
0.0
41
1.0
10
22.3061586907668
20
-3.55485709709051
30
0.0
41
1.0
10
22.9229989649306
20
-3.53463696028097
30
0.0
41
1.0
10
22.9229989649306
20
-3.53463696028097
30
0.0
41
1.0
10
23.5398392390943
20
-3.51441682347143
30
0.0
41
1.0
10
24.1661888109108
20
-3.49211571190617
30
0.0
41
1.0
10
24.8016212280629
20
-3.46797961731177
30
0.0
41
1.0
10
24.8016212280629
20
-3.46797961731177
30
0.0
41
1.0
10
25.437053645215
20
-3.44384352271736
30
0.0
41
1.0
10
26.0815689077027
20
-3.41787244509381
30
0.0
41
1.0
10
26.7347339344822
20
-3.39032131128916
30
0.0
41
1.0
10
26.7347339344822
20
-3.39032131128916
30
0.0
41
1.0
10
27.3878989612617
20
-3.36277017748451
30
0.0
41
1.0
10
28.0497137523329
20
-3.33363898749877
30
0.0
41
1.0
10
28.7197385048462
20
-3.30319021033451
30
0.0
41
1.0
10
28.7197385048462
20
-3.30319021033451
30
0.0
41
1.0
10
29.3897632573594
20
-3.27274143317025
30
0.0
41
1.0
10
30.0679979713147
20
-3.24097506882746
30
0.0
41
1.0
10
30.7539958528174
20
-3.20815958123237
30
0.0
41
1.0
10
30.7539958528174
20
-3.20815958123237
30
0.0
41
1.0
10
31.4399937343201
20
-3.17534409363729
30
0.0
41
1.0
10
32.1337547833701
20
-3.14147948278991
30
0.0
41
1.0
10
32.8348251722267
20
-3.10683840009026
30
0.0
41
1.0
10
32.8348251722267
20
-3.10683840009026
30
0.0
41
1.0
10
33.5358955610832
20
-3.07219731739061
30
0.0
41
1.0
10
34.2442752897463
20
-3.03677976283869
30
0.0
41
1.0
10
34.9595022686769
20
-3.00086096654832
30
0.0
41
1.0
10
34.9595022686769
20
-3.00086096654832
30
0.0
41
1.0
10
35.6747292476075
20
-2.96494217025795
30
0.0
41
1.0
10
36.3968034768056
20
-2.92852213222913
30
0.0
41
1.0
10
37.1252575597086
20
-2.89187562102635
30
0.0
41
1.0
10
37.1252575597086
20
-2.89187562102635
30
0.0
41
1.0
10
37.8537116426116
20
-2.85522910982357
30
0.0
41
1.0
10
38.5885455792197
20
-2.81835612544682
30
0.0
41
1.0
10
39.3292738756862
20
-2.78153268754922
30
0.0
41
1.0
10
39.3292738756862
20
-2.78153268754922
30
0.0
41
1.0
10
40.0700021721528
20
-2.74470924965163
30
0.0
41
1.0
10
40.816624828478
20
-2.70793535823318
30
0.0
41
1.0
10
41.5686841974712
20
-2.67147178595174
30
0.0
41
1.0
10
41.5686841974712
20
-2.67147178595174
30
0.0
41
1.0
10
42.3207435664645
20
-2.63500821367029
30
0.0
41
1.0
10
43.0782396481258
20
-2.59885496052586
30
0.0
41
1.0
10
43.8405694666495
20
-2.5633086761309
30
0.0
41
1.0
10
43.8405694666495
20
-2.5633086761309
30
0.0
41
1.0
10
44.6028992851732
20
-2.52776239173594
30
0.0
41
1.0
10
45.3700628405592
20
-2.49282307609045
30
0.0
41
1.0
10
46.1419565996728
20
-2.45862181292574
30
0.0
41
1.0
10
46.1419565996728
20
-2.45862181292574
30
0.0
41
1.0
10
46.9138503587863
20
-2.42442054976102
30
0.0
41
1.0
10
47.6904743216274
20
-2.39095733907707
30
0.0
41
1.0
10
48.4698168289835
20
-2.35893880265284
30
0.0
41
1.0
10
48.4698168289835
20
-2.35893880265284
30
0.0
41
1.0
10
49.2491593363397
20
-2.3269202662286
30
0.0
41
1.0
10
50.031220388211
20
-2.29634640406409
30
0.0
41
1.0
10
50.8260543034787
20
-2.26562167400546
30
0.0
41
1.0
10
50.8260543034787
20
-2.26562167400546
30
0.0
41
1.0
10
51.6208882187465
20
-2.23489694394683
30
0.0
41
1.0
10
52.4284949974105
20
-2.2040213459941
30
0.0
41
1.0
10
53.2362253208932
20
-2.17238034553064
30
0.0
41
1.0
10
53.2362253208932
20
-2.17238034553064
30
0.0
41
1.0
10
54.0439556443759
20
-2.14073934506719
30
0.0
41
1.0
10
54.8518095126773
20
-2.10833294209302
30
0.0
41
1.0
10
55.6624258098899
20
-2.07553604557787
30
0.0
41
1.0
10
55.6624258098899
20
-2.07553604557787
30
0.0
41
1.0
10
56.4730421071025
20
-2.04273914906272
30
0.0
41
1.0
10
57.2864208332264
20
-2.0095517590066
30
0.0
41
1.0
10
58.1010970294316
20
-1.97607531709186
30
0.0
41
1.0
10
58.1010970294316
20
-1.97607531709186
30
0.0
41
1.0
10
58.9157732256367
20
-1.94259887517713
30
0.0
41
1.0
10
59.7317468919232
20
-1.90883338140378
30
0.0
41
1.0
10
60.5486462257588
20
-1.87494349815246
30
0.0
41
1.0
10
60.5486462257588
20
-1.87494349815246
30
0.0
41
1.0
10
61.3655455595945
20
-1.84105361490114
30
0.0
41
1.0
10
62.1833705609793
20
-1.80703934217186
30
0.0
41
1.0
10
63.0014510336151
20
-1.77303682065516
30
0.0
41
1.0
10
63.0014510336151
20
-1.77303682065516
30
0.0
41
1.0
10
63.8195315062509
20
-1.73903429913845
30
0.0
41
1.0
10
64.6378674501376
20
-1.70504352883432
30
0.0
41
1.0
10
65.4558641833561
20
-1.67119538727152
30
0.0
41
1.0
10
65.4558641833561
20
-1.67119538727152
30
0.0
41
1.0
10
66.2738609165746
20
-1.63734724570872
30
0.0
41
1.0
10
67.091518439125
20
-1.60364173288725
30
0.0
41
1.0
10
67.9082184953356
20
-1.57019712853785
30
0.0
41
1.0
10
67.9082184953356
20
-1.57019712853785
30
0.0
41
1.0
10
68.7249185515461
20
-1.53675252418846
30
0.0
41
1.0
10
69.5406611414169
20
-1.50356882831114
30
0.0
41
1.0
10
70.3548321372423
20
-1.47075281984742
30
0.0
41
1.0
10
70.3548321372423
20
-1.47075281984742
30
0.0
41
1.0
10
71.1690031330676
20
-1.4379368113837
30
0.0
41
1.0
10
71.9816025348476
20
-1.40548849033359
30
0.0
41
1.0
10
72.7920141154952
20
-1.37350221475156
30
0.0
41
1.0
10
72.7920141154952
20
-1.37350221475156
30
0.0
41
1.0
10
73.6024256961429
20
-1.34151593916954
30
0.0
41
1.0
10
74.4106494556584
20
-1.3099917090556
30
0.0
41
1.0
10
75.2160699684702
20
-1.27901132689145
30
0.0
41
1.0
10
75.2160699684702
20
-1.27901132689145
30
0.0
41
1.0
10
76.021490481282
20
-1.2480309447273
30
0.0
41
1.0
10
76.8241077473902
20
-1.21759441051294
30
0.0
41
1.0
10
77.6233076272982
20
-1.18777086867705
30
0.0
41
1.0
10
77.6233076272982
20
-1.18777086867705
30
0.0
41
1.0
10
78.4225075072063
20
-1.15794732684116
30
0.0
41
1.0
10
79.2182900009142
20
-1.12873677738375
30
0.0
41
1.0
10
80.010043409224
20
-1.10019583108825
30
0.0
41
1.0
10
80.010043409224
20
-1.10019583108825
30
0.0
41
1.0
10
80.8017968175338
20
-1.07165488479276
30
0.0
41
1.0
10
81.5895211404455
20
-1.04378354165919
30
0.0
41
1.0
10
82.3726081089873
20
-1.016626166259
30
0.0
41
1.0
10
82.3726081089873
20
-1.016626166259
30
0.0
41
1.0
10
83.155695077529
20
-0.989468790858801
30
0.0
41
1.0
10
83.9341446917009
20
-0.963025383191976
30
0.0
41
1.0
10
84.7073531552834
20
-0.937328513341888
30
0.0
41
1.0
10
84.7073531552834
20
-0.937328513341888
30
0.0
41
1.0
10
85.4805616188659
20
-0.911631643491799
30
0.0
41
1.0
10
86.248528931859
20
-0.886681311458446
30
0.0
41
1.0
10
87.0106568019176
20
-0.862498889016111
30
0.0
41
1.0
10
87.0106568019176
20
-0.862498889016111
30
0.0
41
1.0
10
87.7727846719761
20
-0.838316466573776
30
0.0
41
1.0
10
88.5290730991
20
-0.814901953722458
30
0.0
41
1.0
10
89.2789303266073
20
-0.792266247305103
30
0.0
41
1.0
10
89.2789303266073
20
-0.792266247305103
30
0.0
41
1.0
10
90.0287875541145
20
-0.769630540887748
30
0.0
41
1.0
10
90.7722135820051
20
-0.747773640904355
30
0.0
41
1.0
10
91.5086242142942
20
-0.726696799454591
30
0.0
41
1.0
10
91.5086242142942
20
-0.726696799454591
30
0.0
41
1.0
10
92.2450348465833
20
-0.705619958004828
30
0.0
41
1.0
10
92.974430083271
20
-0.685323175088695
30
0.0
41
1.0
10
93.6962343060729
20
-0.665798973745566
30
0.0
41
1.0
10
93.6962343060729
20
-0.665798973745566
30
0.0
41
1.0
10
94.4180385288749
20
-0.646274772402437
30
0.0
41
1.0
10
95.1322517377911
20
-0.627523152632313
30
0.0
41
1.0
10
95.8383078991935
20
-0.609528887456119
30
0.0
41
1.0
10
95.8383078991935
20
-0.609528887456119
30
0.0
41
1.0
10
96.5443640605958
20
-0.591534622279925
30
0.0
41
1.0
10
97.2422631744843
20
-0.574297711697663
30
0.0
41
1.0
10
97.9314497878184
20
-0.557796198828333
30
0.0
41
1.0
10
97.9314497878184
20
-0.557796198828333
30
0.0
41
1.0
10
98.6206364011525
20
-0.541294685959004
30
0.0
41
1.0
10
99.3011105139323
20
-0.525528570802607
30
0.0
41
1.0
10
99.9723282380939
20
-0.510470205841214
30
0.0
41
1.0
10
99.9723282380939
20
-0.510470205841214
30
0.0
41
1.0
10
100.643545962256
20
-0.495411840879821
30
0.0
41
1.0
10
101.305507297799
20
-0.481061226113434
30
0.0
41
1.0
10
101.957680894436
20
-0.467386060751507
30
0.0
41
1.0
10
101.957680894436
20
-0.467386060751507
30
0.0
41
1.0
10
102.609854491073
20
-0.45371089538958
30
0.0
41
1.0
10
103.252240348804
20
-0.440711179432114
30
0.0
41
1.0
10
103.884320616576
20
-0.428350974574685
30
0.0
41
1.0
10
103.884320616576
20
-0.428350974574685
30
0.0
41
1.0
10
104.516400884348
20
-0.415990769717256
30
0.0
41
1.0
10
105.138175562161
20
-0.404270075959863
30
0.0
41
1.0
10
105.749141248724
20
-0.393150293695704
30
0.0
41
1.0
10
105.749141248724
20
-0.393150293695704
30
0.0
41
1.0
10
106.360106935286
20
-0.382030511431545
30
0.0
41
1.0
10
106.960263630598
20
-0.371511640660621
30
0.0
41
1.0
10
107.549123323114
20
-0.361553341316516
30
0.0
41
1.0
10
107.549123323114
20
-0.361553341316516
30
0.0
41
1.0
10
108.137983015631
20
-0.35159504197241
30
0.0
41
1.0
10
108.715545705352
20
-0.342197314055124
30
0.0
41
1.0
10
109.281339700162
20
-0.333318929100345
30
0.0
41
1.0
10
109.281339700162
20
-0.333318929100345
30
0.0
41
1.0
10
109.847133694973
20
-0.324440544145566
30
0.0
41
1.0
10
110.401158994872
20
-0.316081502153293
30
0.0
41
1.0
10
110.942961146467
20
-0.308200458753581
30
0.0
41
1.0
10
110.942961146467
20
-0.308200458753581
30
0.0
41
1.0
10
111.484763298061
20
-0.30031941535387
30
0.0
41
1.0
10
112.014342301351
20
-0.292916370546719
30
0.0
41
1.0
10
112.531261850029
20
-0.285950548952806
30
0.0
41
1.0
10
112.531261850029
20
-0.285950548952806
30
0.0
41
1.0
10
113.048181398706
20
-0.278984727358894
30
0.0
41
1.0
10
113.552441492772
20
-0.27245612897822
30
0.0
41
1.0
10
114.043624869385
20
-0.266325139516397
30
0.0
41
1.0
10
114.043624869385
20
-0.266325139516397
30
0.0
41
1.0
10
114.534808245998
20
-0.260194150054574
30
0.0
41
1.0
10
115.012914905158
20
-0.2544607695116
30
0.0
41
1.0
10
115.477547510006
20
-0.249087041567834
30
0.0
41
1.0
10
115.477547510006
20
-0.249087041567834
30
0.0
41
1.0
10
115.942180114853
20
-0.243713313624068
30
0.0
41
1.0
10
116.393338665389
20
-0.23869923827951
30
0.0
41
1.0
10
116.830646617474
20
-0.234008919177356
30
0.0
41
1.0
10
116.830646617474
20
-0.234008919177356
30
0.0
41
1.0
10
117.26795456956
20
-0.229318600075203
30
0.0
41
1.0
10
117.691411923195
20
-0.224952037215454
30
0.0
41
1.0
10
118.10066377278
20
-0.220875704153256
30
0.0
41
1.0
10
118.10066377278
20
-0.220875704153256
30
0.0
41
1.0
10
118.509915622365
20
-0.216799371091057
30
0.0
41
1.0
10
118.904961967901
20
-0.213013267826409
30
0.0
41
1.0
10
119.28547037077
20
-0.20948646086434
30
0.0
41
1.0
10
119.28547037077
20
-0.20948646086434
30
0.0
41
1.0
10
119.66597877364
20
-0.205959653902272
30
0.0
41
1.0
10
120.031949233843
20
-0.202692143242783
30
0.0
41
1.0
10
120.383072558599
20
-0.199655731829811
30
0.0
41
1.0
10
120.383072558599
20
-0.199655731829811
30
0.0
41
1.0
10
120.734195883354
20
-0.196619320416839
30
0.0
41
1.0
10
121.070472072662
20
-0.193814008250385
30
0.0
41
1.0
10
121.391616007074
20
-0.191214406978409
30
0.0
41
1.0
10
121.391616007074
20
-0.191214406978409
30
0.0
41
1.0
10
121.712759941485
20
-0.188614805706432
30
0.0
41
1.0
10
122.018771621
20
-0.186220915328933
30
0.0
41
1.0
10
122.309390484375
20
-0.18401016967444
30
0.0
41
1.0
10
122.309390484375
20
-0.18401016967444
30
0.0
41
1.0
10
122.600009347751
20
-0.181799424019946
30
0.0
41
1.0
10
122.875235394987
20
-0.179771823088458
30
0.0
41
1.0
10
123.134834198837
20
-0.177907580614669
30
0.0
41
1.0
10
123.134834198837
20
-0.177907580614669
30
0.0
41
1.0
10
123.394433002687
20
-0.17604333814088
30
0.0
41
1.0
10
123.638404563151
20
-0.174342454124788
30
0.0
41
1.0
10
123.866537875499
20
-0.172787866361731
30
0.0
41
1.0
10
123.866537875499
20
-0.172787866361731
30
0.0
41
1.0
10
124.094671187848
20
-0.171233278598674
30
0.0
41
1.0
10
124.30696625208
20
-0.169824987088651
30
0.0
41
1.0
10
124.503248530117
20
-0.168548482506955
30
0.0
41
1.0
10
124.503248530117
20
-0.168548482506955
30
0.0
41
1.0
10
124.699530808154
20
-0.167271977925259
30
0.0
41
1.0
10
124.879800299995
20
-0.16612726027189
30
0.0
41
1.0
10
125.043872904272
20
-0.165102522227632
30
0.0
41
1.0
10
125.043872904272
20
-0.165102522227632
30
0.0
41
1.0
10
125.207945508548
20
-0.164077784183373
30
0.0
41
1.0
10
125.355821225259
20
-0.163173025748225
30
0.0
41
1.0
10
125.48748052626
20
-0.162378039366543
30
0.0
41
1.0
10
125.48748052626
20
-0.162378039366543
30
0.0
41
1.0
10
125.619139827261
20
-0.161583052984862
30
0.0
41
1.0
10
125.734582712551
20
-0.160897838656648
30
0.0
41
1.0
10
125.833306364532
20
-0.160317351223786
30
0.0
41
1.0
10
125.833306364532
20
-0.160317351223786
30
0.0
41
1.0
10
125.932030016514
20
-0.159736863790925
30
0.0
41
1.0
10
126.014034435187
20
-0.159261103253415
30
0.0
41
1.0
10
126.080753043543
20
-0.158876380185207
30
0.0
41
1.0
10
126.080753043543
20
-0.158876380185207
30
0.0
41
1.0
10
126.147471651898
20
-0.158491657117
30
0.0
41
1.0
10
126.198904449936
20
-0.158197971518095
30
0.0
41
1.0
10
126.229392595944
20
-0.158024085341915
30
0.0
41
1.0
10
126.229392595944
20
-0.158024085341915
30
0.0
41
1.0
10
126.259880741953
20
-0.157850199165736
30
0.0
41
1.0
10
126.269424235933
20
-0.157796112412283
30
0.0
41
1.0
10
126.278967729912
20
-0.15774202565883
30
0.0
41
1.0
11
0.0
21
0.0
31
0.0
11
0.134516483580838
21
-0.419832003968779
31
0.0
11
0.364371781837435
21
-0.812930200980662
31
0.0
11
0.688827326602702
21
-1.17930907747773
31
0.0
11
1.10699876386362
21
-1.51903959462001
31
0.0
11
1.61785965048555
21
-1.83224958059083
31
0.0
11
2.22024602062285
21
-2.11912468101943
31
0.0
11
2.91286174470835
21
-2.37990981313238
31
0.0
11
3.69428458363347
21
-2.61491105324588
31
0.0
11
4.56297282313677
21
-2.82449787258319
31
0.0
11
5.51727235899804
21
-3.00910562340679
31
0.0
11
6.55542409278714
21
-3.16923816634144
31
0.0
11
7.6755714909464
21
-3.30547052075901
31
0.0
11
8.87576815709086
21
-3.41845141340494
31
0.0
11
10.1539852686802
21
-3.50890559624839
31
0.0
11
11.508118734621
21
-3.57763580298323
31
0.0
11
12.935995939754
21
-3.62552421480909
31
0.0
11
14.4353819553128
21
-3.65353331015712
31
0.0
11
16.0039851109328
21
-3.66270597992441
31
0.0
11
17.6394618431863
21
-3.65416479952734
31
0.0
11
19.3394207573507
21
-3.62911036160594
31
0.0
11
21.1014258625576
21
-3.58881858837992
31
0.0
11
22.9229989649306
21
-3.53463696028097
31
0.0
11
24.8016212280629
21
-3.46797961731177
31
0.0
11
26.7347339344822
21
-3.39032131128916
31
0.0
11
28.7197385048462
21
-3.30319021033451
31
0.0
11
30.7539958528174
21
-3.20815958123237
31
0.0
11
32.8348251722267
21
-3.10683840009026
31
0.0
11
34.9595022686769
21
-3.00086096654832
31
0.0
11
37.1252575597086
21
-2.89187562102635
31
0.0
11
39.3292738756862
21
-2.78153268754922
31
0.0
11
41.5686841974712
21
-2.67147178595174
31
0.0
11
43.8405694666495
21
-2.5633086761309
31
0.0
11
46.1419565996728
21
-2.45862181292574
31
0.0
11
48.4698168289835
21
-2.35893880265284
31
0.0
11
50.8260543034787
21
-2.26562167400546
31
0.0
11
53.2362253208932
21
-2.17238034553064
31
0.0
11
55.6624258098899
21
-2.07553604557787
31
0.0
11
58.1010970294316
21
-1.97607531709186
31
0.0
11
60.5486462257588
21
-1.87494349815246
31
0.0
11
63.0014510336151
21
-1.77303682065516
31
0.0
11
65.4558641833561
21
-1.67119538727152
31
0.0
11
67.9082184953356
21
-1.57019712853785
31
0.0
11
70.3548321372423
21
-1.47075281984742
31
0.0
11
72.7920141154952
21
-1.37350221475156
31
0.0
11
75.2160699684702
21
-1.27901132689145
31
0.0
11
77.6233076272982
21
-1.18777086867705
31
0.0
11
80.010043409224
21
-1.10019583108825
31
0.0
11
82.3726081089873
21
-1.016626166259
31
0.0
11
84.7073531552834
21
-0.937328513341888
31
0.0
11
87.0106568019176
21
-0.862498889016111
31
0.0
11
89.2789303266073
21
-0.792266247305103
31
0.0
11
91.5086242142942
21
-0.726696799454591
31
0.0
11
93.6962343060729
21
-0.665798973745566
31
0.0
11
95.8383078991935
21
-0.609528887456119
31
0.0
11
97.9314497878184
21
-0.557796198828333
31
0.0
11
99.9723282380939
21
-0.510470205841214
31
0.0
11
101.957680894436
21
-0.467386060751507
31
0.0
11
103.884320616576
21
-0.428350974574685
31
0.0
11
105.749141248724
21
-0.393150293695704
31
0.0
11
107.549123323114
21
-0.361553341316516
31
0.0
11
109.281339700162
21
-0.333318929100345
31
0.0
11
110.942961146467
21
-0.308200458753581
31
0.0
11
112.531261850029
21
-0.285950548952806
31
0.0
11
114.043624869385
21
-0.266325139516397
31
0.0
11
115.477547510006
21
-0.249087041567834
31
0.0
11
116.830646617474
21
-0.234008919177356
31
0.0
11
118.10066377278
21
-0.220875704153256
31
0.0
11
119.28547037077
21
-0.20948646086434
31
0.0
11
120.383072558599
21
-0.199655731829811
31
0.0
11
121.391616007074
21
-0.191214406978409
31
0.0
11
122.309390484375
21
-0.18401016967444
31
0.0
11
123.134834198837
21
-0.177907580614669
31
0.0
11
123.866537875499
21
-0.172787866361731
31
0.0
11
124.503248530117
21
-0.168548482506955
31
0.0
11
125.043872904272
21
-0.165102522227632
31
0.0
11
125.48748052626
21
-0.162378039366543
31
0.0
11
125.833306364532
21
-0.160317351223786
31
0.0
11
126.080753043543
21
-0.158876380185207
31
0.0
11
126.229392595944
21
-0.158024085341915
31
0.0
11
126.278967729912
21
-0.15774202565883
31
0.0
0
LWPOLYLINE
5
32
330
1C
100
AcDbEntity
67
0
8
CAMBER_LINE
62
256
6
DASHED
370
-1
48
1.0
60
0
100
AcDbPolyline
90
81
70
0
38
0.0
39
0.0
10
0.0
20
0.0
40
0.0
41
0.0
42
0.0
10
0.0486863613983488
20
0.0097325803521436
40
0.0
41
0.0
42
0.0
10
0.194670374752969
20
0.0388590619759175
40
0.0
41
0.0
42
0.0
10
0.437726943296405
20
0.0871661232656
40
0.0
41
0.0
42
0.0
10
0.77748129141705
20
0.154299747676713
40
0.0
41
0.0
42
0.0
10
1.213409542536
20
0.239767492992715
40
0.0
41
0.0
42
0.0
10
1.74483952688673
20
0.3429416484997
40
0.0
41
0.0
42
0.0
10
2.37095181795217
20
0.463063260417334
40
0.0
41
0.0
42
0.0
10
3.09078099596105
20
0.599247000528327
40
0.0
41
0.0
42
0.0
10
3.90321713649513
20
0.750486847697621
40
0.0
41
0.0
42
0.0
10
4.80700752191224
20
0.915662546908733
40
0.0
41
0.0
42
0.0
10
5.80075857294611
20
1.0935468055995
40
0.0
41
0.0
42
0.0
10
6.88293799750457
20
1.28281318248292
40
0.0
41
0.0
42
0.0
10
8.05187715335286
20
1.4820446197191
40
0.0
41
0.0
42
0.0
10
9.30577362103907
20
1.68974256528852
40
0.0
41
0.0
42
0.0
10
10.6426939830943
20
1.90433662872932
40
0.0
41
0.0
42
0.0
10
12.0605768052221
20
2.12419471006528
40
0.0
41
0.0
42
0.0
10
13.557235814881
20
2.34763353878717
40
0.0
41
0.0
42
0.0
10
15.130363272358
20
2.57292955717644
40
0.0
41
0.0
42
0.0
10
16.7775335291365
20
2.79833008009234
40
0.0
41
0.0
42
0.0
10
18.4962067680695
20
3.02206466159652
40
0.0
41
0.0
42
0.0
10
20.2837329195947
20
3.2423565974711
40
0.0
41
0.0
42
0.0
10
22.1373557479489
20
3.45743449180821
40
0.0
41
0.0
42
0.0
10
24.054217101084
20
3.66554381541458
40
0.0
41
0.0
42
0.0
10
26.0313613177303
20
3.8649583837871
40
0.0
41
0.0
42
0.0
10
28.0657397848121
20
4.05399168287536
40
0.0
41
0.0
42
0.0
10
30.1542156381878
20
4.23100797175013
40
0.0
41
0.0
42
0.0
10
32.2935685994673
20
4.3944330926399
40
0.0
41
0.0
42
0.0
10
34.4804999414476
20
4.54276492056947
40
0.0
41
0.0
42
0.0
10
36.7116375745114
20
4.67458338702762
40
0.0
41
0.0
42
0.0
10
38.9835412461446
20
4.78856001468843
40
0.0
41
0.0
42
0.0
10
41.2927078455563
20
4.88346690319981
40
0.0
41
0.0
42
0.0
10
43.6355768052221
20
4.95818510941252
40
0.0
41
0.0
42
0.0
10
46.0085355910206
20
5.01171236913403
40
0.0
41
0.0
42
0.0
10
48.4079252724996
20
5.04317011153099
40
0.0
41
0.0
42
0.0
10
50.8300461646815
20
5.05191543184285
40
0.0
41
0.0
42
0.0
10
53.2711635327094
20
5.04534133827421
40
0.0
41
0.0
42
0.0
10
55.7275133505375
20
5.02814304979676
40
0.0
41
0.0
42
0.0
10
58.1953081047866
20
5.00017422846538
40
0.0
41
0.0
42
0.0
10
60.6707426348148
20
4.96135376437209
40
0.0
41
0.0
42
0.0
10
63.15
20
4.91166666666667
40
0.0
41
0.0
42
0.0
10
65.6292573651852
20
4.85116454814164
40
0.0
41
0.0
42
0.0
10
68.1046918952134
20
4.77996569978923
40
0.0
41
0.0
42
0.0
10
70.5724866494624
20
4.69825475426509
40
0.0
41
0.0
42
0.0
10
73.0288364672906
20
4.60628193972796
40
0.0
41
0.0
42
0.0
10
75.4699538353185
20
4.50436192805092
40
0.0
41
0.0
42
0.0
10
77.8920747275004
20
4.39287228390264
40
0.0
41
0.0
42
0.0
10
80.2914644089795
20
4.27225152366048
40
0.0
41
0.0
42
0.0
10
82.6644231947779
20
4.14299679552654
40
0.0
41
0.0
42
0.0
10
85.0072921544437
20
4.00566119455797
40
0.0
41
0.0
42
0.0
10
87.3164587538554
20
3.86085072857906
40
0.0
41
0.0
42
0.0
10
89.5883624254886
20
3.70922095310167
40
0.0
41
0.0
42
0.0
10
91.8195000585524
20
3.55147329542855
40
0.0
41
0.0
42
0.0
10
94.0064314005327
20
3.3883510900385
40
0.0
41
0.0
42
0.0
10
96.1457843618122
20
3.22063534914174
40
0.0
41
0.0
42
0.0
10
98.2342602151879
20
3.04914029393625
40
0.0
41
0.0
42
0.0
10
100.26863868227
20
2.87470867358228
40
0.0
41
0.0
42
0.0
10
102.245782898916
20
2.69820690023244
40
0.0
41
0.0
42
0.0
10
104.162644252051
20
2.52052002960138
40
0.0
41
0.0
42
0.0
10
106.016267080405
20
2.3425466175247
40
0.0
41
0.0
42
0.0
10
107.80379323193
20
2.16519348373488
40
0.0
41
0.0
42
0.0
10
109.522466470864
20
1.98937041466933
40
0.0
41
0.0
42
0.0
10
111.169636727642
20
1.81598483751655
40
0.0
41
0.0
42
0.0
10
112.742764185119
20
1.64593649790012
40
0.0
41
0.0
42
0.0
10
114.239423194778
20
1.48011217359444
40
0.0
41
0.0
42
0.0
10
115.657306016906
20
1.31938045646167
40
0.0
41
0.0
42
0.0
10
116.994226378961
20
1.16458663439664
40
0.0
41
0.0
42
0.0
10
118.248122846647
20
1.01654770446862
40
0.0
41
0.0
42
0.0
10
119.417062002495
20
0.876047547659278
40
0.0
41
0.0
42
0.0
10
120.499241427054
20
0.743832294619605
40
0.0
41
0.0
42
0.0
10
121.492992478088
20
0.620605910711093
40
0.0
41
0.0
42
0.0
10
122.396782863505
20
0.507026027265392
40
0.0
41
0.0
42
0.0
10
123.209219004039
20
0.403700044499747
40
0.0
41
0.0
42
0.0
10
123.929048182048
20
0.311181529872246
40
0.0
41
0.0
42
0.0
10
124.555160473113
20
0.229966933861499
40
0.0
41
0.0
42
0.0
10
125.086590457464
20
0.160492643220584
40
0.0
41
0.0
42
0.0
10
125.522518708583
20
0.103132389697075
40
0.0
41
0.0
42
0.0
10
125.862273056704
20
0.0581950300423283
40
0.0
41
0.0
42
0.0
10
126.105329625247
20
0.0259227108672047
40
0.0
41
0.0
42
0.0
10
126.251313638602
20
0.0064894295519896
40
0.0
41
0.0
42
0.0
10
126.3
20
0.0
40
0.0
41
0.0
42
0.0
210
0.0
220
0.0
230
1.0
0
LINE
5
33
330
1C
100
AcDbEntity
67
0
8
STATION_TICKS
62
256
6
ByLayer
370
-1
48
1.0
60
0
100
AcDbLine
10
12.63
20
-6.6152616659484
30
0.0
11
12.63
21
11.3331959050013
31
0.0
39
0.0
210
0.0
220
0.0
230
1.0
0
TEXT
5
34
330
1C
100
AcDbEntity
67
0
8
ANNOTATION
62
256
6
ByLayer
370
-1
48
1.0
60
0
100
AcDbText
1
10%
10
12.63
20
-11.6152616659484
30
0.0
40
3.0
41
1.0
50
0.0
51
0.0
7
Standard
11
12.63
21
-11.6152616659484
31
0.0
210
0.0
220
0.0
230
1.0
71
0
72
0
100
AcDbText
73
0
0
LINE
5
35
330
1C
100
AcDbEntity
67
0
8
STATION_TICKS
62
256
6
ByLayer
370
-1
48
1.0
60
0
100
AcDbLine
10
25.26
20
-6.44956531646691
30
0.0
11
25.26
21
14.1094344721696
31
0.0
39
0.0
210
0.0
220
0.0
230
1.0
0
TEXT
5
36
330
1C
100
AcDbEntity
67
0
8
ANNOTATION
62
256
6
ByLayer
370
-1
48
1.0
60
0
100
AcDbText
1
20%
10
25.26
20
-11.4495653164669
30
0.0
40
3.0
41
1.0
50
0.0
51
0.0
7
Standard
11
25.26
21
-11.4495653164669
31
0.0
210
0.0
220
0.0
230
1.0
71
0
72
0
100
AcDbText
73
0
0
LINE
5
37
330
1C
100
AcDbEntity
67
0
8
STATION_TICKS
62
256
6
ByLayer
370
-1
48
1.0
60
0
100
AcDbLine
10
37.89
20
-5.85358918748244
30
0.0
11
37.89
21
15.3210638848205
31
0.0
39
0.0
210
0.0
220
0.0
230
1.0
0
TEXT
5
38
330
1C
100
AcDbEntity
67
0
8
ANNOTATION
62
256
6
ByLayer
370
-1
48
1.0
60
0
100
AcDbText
1
30%
10
37.89
20
-10.8535891874824
30
0.0
40
3.0
41
1.0
50
0.0
51
0.0
7
Standard
11
37.89
21
-10.8535891874824
31
0.0
210
0.0
220
0.0
230
1.0
71
0
72
0
100
AcDbText
73
0
0
LINE
5
39
330
1C
100
AcDbEntity
67
0
8
STATION_TICKS
62
256
6
ByLayer
370
-1
48
1.0
60
0
100
AcDbLine
10
50.52
20
-5.27774273953056
30
0.0
11
50.52
21
15.3790234216814
31
0.0
39
0.0
210
0.0
220
0.0
230
1.0
0
TEXT
5
3A
330
1C
100
AcDbEntity
67
0
8
ANNOTATION
62
256
6
ByLayer
370
-1
48
1.0
60
0
100
AcDbText
1
40%
10
50.52
20
-10.2777427395306
30
0.0
40
3.0
41
1.0
50
0.0
51
0.0
7
Standard
11
50.52
21
-10.2777427395306
31
0.0
210
0.0
220
0.0
230
1.0
71
0
72
0
100
AcDbText
73
0
0
LINE
5
3B
330
1C
100
AcDbEntity
67
0
8
STATION_TICKS
62
256
6
ByLayer
370
-1
48
1.0
60
0
100
AcDbLine
10
63.15
20
-4.76687305003442
30
0.0
11
63.15
21
14.6083029261657
31
0.0
39
0.0
210
0.0
220
0.0
230
1.0
0
TEXT
5
3C
330
1C
100
AcDbEntity
67
0
8
ANNOTATION
62
256
6
ByLayer
370
-1
48
1.0
60
0
100
AcDbText
1
50%
10
63.15
20
-9.76687305003442
30
0.0
40
3.0
41
1.0
50
0.0
51
0.0
7
Standard
11
63.15
21
-9.76687305003442
31
0.0
210
0.0
220
0.0
230
1.0
71
0
72
0
100
AcDbText
73
0
0
LINE
5
3D
330
1C
100
AcDbEntity
67
0
8
STATION_TICKS
62
256
6
ByLayer
370
-1
48
1.0
60
0
100
AcDbLine
10
75.78
20
-4.25763693775033
30
0.0
11
75.78
21
13.2804937906613
31
0.0
39
0.0
210
0.0
220
0.0
230
1.0
0
TEXT
5
3E
330
1C
100
AcDbEntity
67
0
8
ANNOTATION
62
256
6
ByLayer
370
-1
48
1.0
60
0
100
AcDbText
1
60%
10
75.78
20
-9.25763693775034
30
0.0
40
3.0
41
1.0
50
0.0
51
0.0
7
Standard
11
75.78
21
-9.25763693775034
31
0.0
210
0.0
220
0.0
230
1.0
71
0
72
0
100
AcDbText
73
0
0
LINE
5
3F
330
1C
100
AcDbEntity
67
0
8
STATION_TICKS
62
256
6
ByLayer
370
-1
48
1.0
60
0
100
AcDbLine
10
88.41
20
-3.81917097093814
30
0.0
11
88.41
21
11.4549056401039
31
0.0
39
0.0
210
0.0
220
0.0
230
1.0
0
TEXT
5
40
330
1C
100
AcDbEntity
67
0
8
ANNOTATION
62
256
6
ByLayer
370
-1
48
1.0
60
0
100
AcDbText
1
70%
10
88.41
20
-8.81917097093814
30
0.0
40
3.0
41
1.0
50
0.0
51
0.0
7
Standard
11
88.41
21
-8.81917097093814
31
0.0
210
0.0
220
0.0
230
1.0
71
0
72
0
100
AcDbText
73
0
0
LINE
5
41
330
1C
100
AcDbEntity
67
0
8
STATION_TICKS
62
256
6
ByLayer
370
-1
48
1.0
60
0
100
AcDbLine
10
101.04
20
-3.48730065712236
30
0.0
11
101.04
21
9.1643223211788
31
0.0
39
0.0
210
0.0
220
0.0
230
1.0
0
TEXT
5
42
330
1C
100
AcDbEntity
67
0
8
ANNOTATION
62
256
6
ByLayer
370
-1
48
1.0
60
0
100
AcDbText
1
80%
10
101.04
20
-8.48730065712236
30
0.0
40
3.0
41
1.0
50
0.0
51
0.0
7
Standard
11
101.04
21
-8.48730065712236
31
0.0
210
0.0
220
0.0
230
1.0
71
0
72
0
100
AcDbText
73
0
0
LINE
5
43
330
1C
100
AcDbEntity
67
0
8
STATION_TICKS
62
256
6
ByLayer
370
-1
48
1.0
60
0
100
AcDbLine
10
113.67
20
-3.27117353963285
30
0.0
11
113.67
21
6.4080556558491
31
0.0
39
0.0
210
0.0
220
0.0
230
1.0
0
TEXT
5
44
330
1C
100
AcDbEntity
67
0
8
ANNOTATION
62
256
6
ByLayer
370
-1
48
1.0
60
0
100
AcDbText
1
90%
10
113.67
20
-8.27117353963285
30
0.0
40
3.0
41
1.0
50
0.0
51
0.0
7
Standard
11
113.67
21
-8.27117353963285
31
0.0
210
0.0
220
0.0
230
1.0
71
0
72
0
100
AcDbText
73
0
0
LINE
5
45
330
1C
100
AcDbEntity
67
0
8
DIMENSIONS
62
256
6
ByLayer
370
-1
48
1.0
60
0
100
AcDbLine
10
38.6478
20
12.3589876758955
30
0.0
11
38.6478
21
-2.81565032361015
31
0.0
39
0.0
210
0.0
220
0.0
230
1.0
0
LINE
5
46
330
1C
100
AcDbEntity
67
0
8
DIMENSIONS
62
256
6
ByLayer
370
-1
48
1.0
60
0
100
AcDbLine
10
38.6478
20
4.7716686761427
30
0.0
11
53.6478
21
4.7716686761427
31
0.0
39
0.0
210
0.0
220
0.0
230
1.0
0
TEXT
5
47
330
1C
100
AcDbEntity
67
0
8
DIMENSIONS
62
256
6
ByLayer
370
-1
48
1.0
60
0
100
AcDbText
1
t=15.14mm (12.0%c)
10
56.6478
20
6.7716686761427
30
0.0
40
3.0
41
1.0
50
0.0
51
0.0
7
Standard
11
56.6478
21
6.7716686761427
31
0.0
210
0.0
220
0.0
230
1.0
71
0
72
0
100
AcDbText
73
0
0
LINE
5
48
330
1C
100
AcDbEntity
67
0
8
DIMENSIONS
62
256
6
ByLayer
370
-1
48
1.0
60
0
100
AcDbLine
10
50.7726
20
0.0
30
0.0
11
50.7726
21
5.052
31
0.0
39
0.0
210
0.0
220
0.0
230
1.0
0
LINE
5
49
330
1C
100
AcDbEntity
67
0
8
DIMENSIONS
62
256
6
ByLayer
370
-1
48
1.0
60
0
100
AcDbLine
10
50.7726
20
2.526
30
0.0
11
35.7726
21
2.526
31
0.0
39
0.0
210
0.0
220
0.0
230
1.0
0
TEXT
5
4A
330
1C
100
AcDbEntity
67
0
8
DIMENSIONS
62
256
6
ByLayer
370
-1
48
1.0
60
0
100
AcDbText
1
f=5.05mm (4.0%c)
10
32.7726
20
4.526
30
0.0
40
3.0
41
1.0
50
0.0
51
0.0
7
Standard
11
32.7726
21
4.526
31
0.0
210
0.0
220
0.0
230
1.0
71
0
72
0
100
AcDbText
73
0
0
CIRCLE
5
4B
330
1C
100
AcDbEntity
67
0
8
DIMENSIONS
62
256
6
DASHED
370
-1
48
1.0
60
0
100
AcDbCircle
10
0.0
20
0.0
30
0.0
40
2.379
39
0.0
210
0.0
220
0.0
230
1.0
0
TEXT
5
4C
330
1C
100
AcDbEntity
67
0
8
ANNOTATION
62
256
6
ByLayer
370
-1
48
1.0
60
0
100
AcDbText
1
r_LE=2.379mm
10
5.0
20
20.3589876758955
30
0.0
40
3.5
41
1.0
50
0.0
51
0.0
7
Standard
11
5.0
21
20.3589876758955
31
0.0
210
0.0
220
0.0
230
1.0
71
0
72
0
100
AcDbText
73
0
0
LINE
5
4D
330
1C
100
AcDbEntity
67
0
8
CENTERLINE
62
256
6
ByLayer
370
-1
48
1.0
60
0
100
AcDbLine
10
0.0
20
0.0
30
0.0
11
126.3
21
0.0
31
0.0
39
0.0
210
0.0
220
0.0
230
1.0
0
TEXT
5
4E
330
1C
100
AcDbEntity
67
0
8
ANNOTATION
62
256
6
ByLayer
370
-1
48
1.0
60
0
100
AcDbText
1
LE
10
-4.0
20
7.0
30
0.0
40
5.0
41
1.0
50
0.0
51
0.0
7
Standard
11
-4.0
21
7.0
31
0.0
210
0.0
220
0.0
230
1.0
71
0
72
0
100
AcDbText
73
0
0
TEXT
5
4F
330
1C
100
AcDbEntity
67
0
8
ANNOTATION
62
256
6
ByLayer
370
-1
48
1.0
60
0
100
AcDbText
1
TE
10
129.3
20
7.0
30
0.0
40
5.0
41
1.0
50
0.0
51
0.0
7
Standard
11
129.3
21
7.0
31
0.0
210
0.0
220
0.0
230
1.0
71
0
72
0
100
AcDbText
73
0
0
LINE
5
50
330
1C
100
AcDbEntity
67
0
8
DIMENSIONS
62
256
6
ByLayer
370
-1
48
1.0
60
0
100
AcDbLine
10
0.0
20
-22.734
30
0.0
11
126.3
21
-22.734
31
0.0
39
0.0
210
0.0
220
0.0
230
1.0
0
LINE
5
51
330
1C
100
AcDbEntity
67
0
8
DIMENSIONS
62
256
6
ByLayer
370
-1
48
1.0
60
0
100
AcDbLine
10
0.0
20
-28.734
30
0.0
11
0.0
21
-16.734
31
0.0
39
0.0
210
0.0
220
0.0
230
1.0
0
LINE
5
52
330
1C
100
AcDbEntity
67
0
8
DIMENSIONS
62
256
6
ByLayer
370
-1
48
1.0
60
0
100
AcDbLine
10
126.3
20
-28.734
30
0.0
11
126.3
21
-16.734
31
0.0
39
0.0
210
0.0
220
0.0
230
1.0
0
TEXT
5
53
330
1C
100
AcDbEntity
67
0
8
DIMENSIONS
62
256
6
ByLayer
370
-1
48
1.0
60
0
100
AcDbText
1
Chord=126.3mm
10
44.95
20
-33.734
30
0.0
40
5.0
41
1.0
50
0.0
51
0.0
7
Standard
11
44.95
21
-33.734
31
0.0
210
0.0
220
0.0
230
1.0
71
0
72
0
100
AcDbText
73
0
0
TEXT
5
54
330
1C
100
AcDbEntity
67
0
8
ANNOTATION
62
256
6
ByLayer
370
-1
48
1.0
60
0
100
AcDbText
1
Blade Angle B=28.0deg
10
131.3
20
-8.0
30
0.0
40
5.0
41
1.0
50
0.0
51
0.0
7
Standard
11
131.3
21
-8.0
31
0.0
210
0.0
220
0.0
230
1.0
71
0
72
0
100
AcDbText
73
0
0
TEXT
5
55
330
1C
100
AcDbEntity
67
0
8
ANNOTATION
62
256
6
ByLayer
370
-1
48
1.0
60
0
100
AcDbText
1
Profile: NACA 4412
10
131.3
20
-20.0
30
0.0
40
5.0
41
1.0
50
0.0
51
0.0
7
Standard
11
131.3
21
-20.0
31
0.0
210
0.0
220
0.0
230
1.0
71
0
72
0
100
AcDbText
73
0
0
LINE
5
56
330
1C
100
AcDbEntity
67
0
8
ANNOTATION
62
256
6
ByLayer
370
-1
48
1.0
60
0
100
AcDbLine
10
-40.0
20
-8.0
30
0.0
11
-5.0
21
-8.0
31
0.0
39
0.0
210
0.0
220
0.0
230
1.0
0
TEXT
5
57
330
1C
100
AcDbEntity
67
0
8
ANNOTATION
62
256
6
ByLayer
370
-1
48
1.0
60
0
100
AcDbText
1
V_inf
10
-45.0
20
-4.0
30
0.0
40
4.5
41
1.0
50
0.0
51
0.0
7
Standard
11
-45.0
21
-4.0
31
0.0
210
0.0
220
0.0
230
1.0
71
0
72
0
100
AcDbText
73
0
0
TEXT
5
58
330
1C
100
AcDbEntity
67
0
8
TITLE_BLOCK
62
256
6
ByLayer
370
-1
48
1.0
60
0
100
AcDbText
1
DWG-003  BLADE AEROFOIL SECTION (NACA 4412)
10
0.0
20
-85.52
30
0.0
40
6.0
41
1.0
50
0.0
51
0.0
7
Standard
11
0.0
21
-85.52
31
0.0
210
0.0
220
0.0
230
1.0
71
0
72
0
100
AcDbText
73
0
0
TEXT
5
59
330
1C
100
AcDbEntity
67
0
8
ANNOTATION
62
256
6
ByLayer
370
-1
48
1.0
60
0
100
AcDbText
1
Chord=126.3mm  B=28.0deg  Span=264.0mm
10
0.0
20
-95.52
30
0.0
40
4.5
41
1.0
50
0.0
51
0.0
7
Standard
11
0.0
21
-95.52
31
0.0
210
0.0
220
0.0
230
1.0
71
0
72
0
100
AcDbText
73
0
0
TEXT
5
5A
330
1C
100
AcDbEntity
67
0
8
ANNOTATION
62
256
6
ByLayer
370
-1
48
1.0
60
0
100
AcDbText
1
AxialFlow Designer  |  For Engineering Reference Only
10
0.0
20
-105.52
30
0.0
40
3.5
41
1.0
50
0.0
51
0.0
7
Standard
11
0.0
21
-105.52
31
0.0
210
0.0
220
0.0
230
1.0
71
0
72
0
100
AcDbText
73
0
0
VIEWPORT
5
5F
330
5B
100
AcDbEntity
67
1
8
0
62
256
6
ByLayer
370
-1
48
1.0
60
0
100
AcDbViewport
10
0.0
20
0.0
30
0.0
40
297.0
41
210.0
68
1
69
1
12
50.0
22
100.0
13
0.0
23
0.0
14
10.0
24
10.0
15
10.0
25
10.0
16
0.0
26
0.0
36
1.0
17
0.0
27
0.0
37
0.0
42
50.0
43
0.0
44
0.0
45
250.0
50
0.0
51
0.0
72
1000
90
819232
110
0.0
120
0.0
130
0.0
111
1.0
121
0.0
131
0.0
112
0.0
122
1.0
132
0.0
0
ENDSEC
0
SECTION
2
OBJECTS
0
DICTIONARY
5
65
330
0
100
AcDbDictionary
280
1
281
1
3
ACAD_GROUP
350
12
3
ACAD_LAYOUT
350
5E
3
ACAD_DGNDEFINITIONS
350
F
3
ACAD_DWFDEFINITIONS
350
10
3
ACAD_PDFDEFINITIONS
350
11
3
ACAD_MLINESTYLE
350
B
3
ACAD_IMAGE_DICT
350
E
3
ACAD_IMAGE_VARS
350
21
0
DICTIONARY
5
12
330
65
100
AcDbDictionary
280
1
281
1
0
DICTIONARY
5
5E
330
65
100
AcDbDictionary
280
1
281
1
3
Model
350
20
3
Layout1
350
60
0
DICTIONARY
5
F
330
65
100
AcDbDictionary
280
1
281
1
0
DICTIONARY
5
10
330
65
100
AcDbDictionary
280
1
281
1
0
DICTIONARY
5
11
330
65
100
AcDbDictionary
280
1
281
1
0
DICTIONARY
5
B
330
65
100
AcDbDictionary
280
1
281
1
3
Standard
350
1B
0
DICTIONARY
5
E
330
65
100
AcDbDictionary
280
1
281
1
0
DICTIONARY
5
6
330
5
100
AcDbDictionary
280
1
281
1
3
ACAD_LAYERSTATES
360
66
0
DICTIONARY
5
66
330
6
100
AcDbDictionary
280
1
281
1
0
LAYOUT
5
20
330
5E
100
AcDbPlotSettings
1

2
none_device
4
ISO_A4_(210.00_x_297.00_MM)
6

40
7.5
41
20.0
42
7.5
43
20.0
44
210.0
45
297.0
46
0.0
47
0.0
48
0.0
49
0.0
140
0.0
141
0.0
142
1.0
143
1.0
70
11952
72
1
73
1
74
1
7

75
0
76
0
77
2
78
300
147
1.0
148
0.0
149
0.0
100
AcDbLayout
1
Model
71
0
10
-20.0
20
-7.5
11
277.0
21
202.5
12
0.0
22
0.0
32
0.0
14
25.7
24
19.5
34
0.0
15
231.3
25
175.5
35
0.0
146
0.0
13
0.0
23
0.0
33
0.0
16
1.0
26
0.0
36
0.0
17
0.0
27
1.0
37
0.0
76
0
330
1C
0
LAYOUT
5
60
330
5E
100
AcDbPlotSettings
1

2
none_device
4
ISO_A4_(210.00_x_297.00_MM)
6

40
7.5
41
20.0
42
7.5
43
20.0
44
210.0
45
297.0
46
0.0
47
0.0
48
0.0
49
0.0
140
0.0
141
0.0
142
1.0
143
1.0
70
688
72
1
73
1
74
1
7

75
0
76
0
77
2
78
300
147
1.0
148
0.0
149
0.0
100
AcDbLayout
1
Layout1
71
1
10
-20.0
20
-7.5
11
277.0
21
202.5
12
0.0
22
0.0
32
0.0
14
25.7
24
19.5
34
0.0
15
231.3
25
175.5
35
0.0
146
0.0
13
0.0
23
0.0
33
0.0
16
1.0
26
0.0
36
0.0
17
0.0
27
1.0
37
0.0
76
0
330
5B
0
MLINESTYLE
5
1B
330
B
100
AcDbMlineStyle
2
Standard
70
0
3

62
256
51
90.0
52
90.0
71
2
49
0.5
62
256
6
ByLayer
49
-0.5
62
256
6
ByLayer
0
RASTERVARIABLES
5
21
330
E
100
AcDbRasterVariables
90
0
70
1
71
1
72
0
0
ENDSEC
0
EOF
