999
DXF file generated by netDxf https://github.com/haplokuon/netDxf, Copyright(C) Daniel Carvajal, Licensed under MIT
0
SECTION
2
HEADER
9
$ACADVER
1
AC1015
9
$DWGCODEPAGE
3
ANSI_1252
9
$HANDSEED
5
67
9
$ANGBASE
50
0.0
9
$ANGDIR
70
0
9
$ATTMODE
70
1
9
$AUNITS
70
0
9
$AUPREC
70
0
9
$CECOLOR
62
256
9
$CELTSCALE
40
1.0
9
$CELTYPE
6
ByLayer
9
$CELWEIGHT
370
-1
9
$CLAYER
8
0
9
$CMLJUST
70
0
9
$CMLSCALE
40
20.0
9
$CMLSTYLE
2
Standard
9
$DIMSTYLE
2
Standard
9
$TEXTSIZE
40
2.5
9
$TEXTSTYLE
7
Standard
9
$LUNITS
70
2
9
$LUPREC
70
4
9
$MIRRTEXT
70
0
9
$EXTNAMES
290
1
9
$INSBASE
10
0.0
20
0.0
30
0.0
9
$INSUNITS
70
0
9
$LTSCALE
40
1.0
9
$LWDISPLAY
290
0
9
$PDMODE
70
0
9
$PDSIZE
40
0.0
9
$PLINEGEN
70
0
9
$PSLTSCALE
70
1
9
$SPLINESEGS
70
8
9
$SURFU
70
6
9
$SURFV
70
6
9
$TDCREATE
40
2461235.51196361
9
$TDUCREATE
40
2461235.28279694
9
$TDUPDATE
40
2461235.51196361
9
$TDUUPDATE
40
2461235.28279694
9
$TDINDWG
40
0.0
9
$UCSORG
10
0.0
20
0.0
30
0.0
9
$UCSXDIR
10
1.0
20
0.0
30
0.0
9
$UCSYDIR
10
0.0
20
1.0
30
0.0
9
$DIMADEC
70
0
9
$DIMALT
70
0
9
$DIMALTD
70
2
9
$DIMALTF
40
25.4
9
$DIMALTRND
40
0.0
9
$DIMALTTD
70
2
9
$DIMALTTZ
70
0
9
$DIMALTU
70
2
9
$DIMALTZ
70
0
9
$DIMAPOST
1

9
$DIMATFIT
70
3
9
$DIMAUNIT
70
0
9
$DIMASZ
40
0.18
9
$DIMAZIN
70
0
9
$DIMSAH
70
0
9
$DIMBLK
1

9
$DIMLDRBLK
1

9
$DIMCEN
40
0.09
9
$DIMCLRD
70
0
9
$DIMCLRE
70
0
9
$DIMCLRT
70
0
9
$DIMDEC
70
4
9
$DIMDLE
40
0.0
9
$DIMDLI
40
0.38
9
$DIMDSEP
70
46
9
$DIMEXE
40
0.18
9
$DIMEXO
40
0.0625
9
$DIMFXLON
70
0
9
$DIMFXL
40
1.0
9
$DIMGAP
40
0.09
9
$DIMJUST
70
0
9
$DIMLFAC
40
1.0
9
$DIMLUNIT
70
2
9
$DIMLWD
70
-2
9
$DIMLWE
70
-2
9
$DIMPOST
1

9
$DIMRND
40
0.0
9
$DIMSCALE
40
1.0
9
$DIMSD1
70
0
9
$DIMSD2
70
0
9
$DIMSE1
70
0
9
$DIMSE2
70
0
9
$DIMSOXD
70
0
9
$DIMTAD
70
0
9
$DIMTDEC
70
4
9
$DIMTFAC
40
1.0
9
$DIMTIH
70
0
9
$DIMTIX
70
0
9
$DIMTM
40
0.0
9
$DIMTMOVE
70
0
9
$DIMTOFL
70
0
9
$DIMTOH
70
0
9
$DIMTOL
70
0
9
$DIMLIM
70
0
9
$DIMTOLJ
70
1
9
$DIMTP
40
0.0
9
$DIMTXT
40
0.18
9
$DIMTXTDIRECTION
70
0
9
$DIMTZIN
70
0
9
$DIMZIN
70
0
9
$DIMFRAC
70
0
9
$DIMLTYPE
6
ByBlock
9
$DIMLTEX1
6
ByBlock
9
$DIMLTEX2
6
ByBlock
0
ENDSEC
0
SECTION
2
CLASSES
0
CLASS
1
RASTERVARIABLES
2
AcDbRasterVariables
3
ISM
90
0
280
0
281
0
0
ENDSEC
0
SECTION
2
TABLES
0
TABLE
2
APPID
5
4
330
0
100
AcDbSymbolTable
70
5
0
APPID
5
19
330
4
100
AcDbSymbolTableRecord
100
AcDbRegAppTableRecord
2
ACAD
70
0
0
APPID
5
61
330
4
100
AcDbSymbolTableRecord
100
AcDbRegAppTableRecord
2
AcCmTransparency
70
0
0
APPID
5
62
330
4
100
AcDbSymbolTableRecord
100
AcDbRegAppTableRecord
2
AcAecLayerStandard
70
0
0
APPID
5
63
330
4
100
AcDbSymbolTableRecord
100
AcDbRegAppTableRecord
2
GradientColor1ACI
70
0
0
APPID
5
64
330
4
100
AcDbSymbolTableRecord
100
AcDbRegAppTableRecord
2
GradientColor2ACI
70
0
0
ENDTAB
0
TABLE
2
VPORT
5
1
330
0
100
AcDbSymbolTable
70
1
0
VPORT
5
2
330
1
100
AcDbSymbolTableRecord
100
AcDbViewportTableRecord
2
*Active
70
0
10
0.0
20
0.0
11
1.0
21
1.0
12
0.0
22
0.0
13
0.0
23
0.0
14
0.5
24
0.5
15
10.0
25
10.0
16
0.0
26
0.0
36
1.0
17
0.0
27
0.0
37
0.0
40
10.0
41
1.0
75
0
76
1
0
ENDTAB
0
TABLE
2
LTYPE
5
7
330
0
100
AcDbSymbolTable
70
5
0
LTYPE
5
15
330
7
100
AcDbSymbolTableRecord
100
AcDbLinetypeTableRecord
2
Continuous
70
0
3
Solid line
72
65
73
0
40
0.0
0
LTYPE
5
16
330
7
100
AcDbSymbolTableRecord
100
AcDbLinetypeTableRecord
2
ByLayer
70
0
3

72
65
73
0
40
0.0
0
LTYPE
5
17
330
7
100
AcDbSymbolTableRecord
100
AcDbLinetypeTableRecord
2
ByBlock
70
0
3

72
65
73
0
40
0.0
0
LTYPE
5
22
330
7
100
AcDbSymbolTableRecord
100
AcDbLinetypeTableRecord
2
DASHED
70
0
3
Dashed
72
65
73
2
40
8.0
49
6.0
74
0
49
-2.0
74
0
0
LTYPE
5
23
330
7
100
AcDbSymbolTableRecord
100
AcDbLinetypeTableRecord
2
CENTER
70
0
3
Center
72
65
73
4
40
20.0
49
12.0
74
0
49
-3.0
74
0
49
2.0
74
0
49
-3.0
74
0
0
ENDTAB
0
TABLE
2
LAYER
5
5
102
{ACAD_XDICTIONARY
360
6
102
}
330
0
100
AcDbSymbolTable
70
13
0
LAYER
5
14
330
5
100
AcDbSymbolTableRecord
100
AcDbLayerTableRecord
2
0
70
0
62
7
6
Continuous
290
1
370
-3
390
0
0
LAYER
5
24
330
5
100
AcDbSymbolTableRecord
100
AcDbLayerTableRecord
2
CASING
70
0
62
8
6
Continuous
290
1
370
-3
390
0
0
LAYER
5
25
330
5
100
AcDbSymbolTableRecord
100
AcDbLayerTableRecord
2
HUB
70
0
62
9
6
Continuous
290
1
370
-3
390
0
0
LAYER
5
26
330
5
100
AcDbSymbolTableRecord
100
AcDbLayerTableRecord
2
BLADES
70
0
62
5
6
Continuous
290
1
370
-3
390
0
0
LAYER
5
27
330
5
100
AcDbSymbolTableRecord
100
AcDbLayerTableRecord
2
CENTERLINE
70
0
62
1
6
Continuous
290
1
370
-3
390
0
0
LAYER
5
28
330
5
100
AcDbSymbolTableRecord
100
AcDbLayerTableRecord
2
TIP_DIAMETER
70
0
62
2
6
Continuous
290
1
370
-3
390
0
0
LAYER
5
29
330
5
100
AcDbSymbolTableRecord
100
AcDbLayerTableRecord
2
TIP_CLEARANCE
70
0
62
2
6
Continuous
290
1
370
-3
390
0
0
LAYER
5
2A
330
5
100
AcDbSymbolTableRecord
100
AcDbLayerTableRecord
2
BLADE_SURFACE
70
0
62
5
6
Continuous
290
1
370
-3
390
0
0
LAYER
5
2B
330
5
100
AcDbSymbolTableRecord
100
AcDbLayerTableRecord
2
CAMBER_LINE
70
0
62
4
6
Continuous
290
1
370
-3
390
0
0
LAYER
5
2C
330
5
100
AcDbSymbolTableRecord
100
AcDbLayerTableRecord
2
STATION_TICKS
70
0
62
9
6
Continuous
290
1
370
-3
390
0
0
LAYER
5
2D
330
5
100
AcDbSymbolTableRecord
100
AcDbLayerTableRecord
2
DIMENSIONS
70
0
62
7
6
Continuous
290
1
370
-3
390
0
0
LAYER
5
2E
330
5
100
AcDbSymbolTableRecord
100
AcDbLayerTableRecord
2
ANNOTATION
70
0
62
3
6
Continuous
290
1
370
-3
390
0
0
LAYER
5
2F
330
5
100
AcDbSymbolTableRecord
100
AcDbLayerTableRecord
2
TITLE_BLOCK
70
0
62
5
6
Continuous
290
1
370
-3
390
0
0
ENDTAB
0
TABLE
2
STYLE
5
8
330
0
100
AcDbSymbolTable
70
1
0
STYLE
5
18
330
8
100
AcDbSymbolTableRecord
100
AcDbTextStyleTableRecord
2
Standard
3
simplex.shx
70
0
71
0
40
0.0
41
1.0
42
0.0
50
0.0
0
ENDTAB
0
TABLE
2
DIMSTYLE
5
A
330
0
100
AcDbSymbolTable
70
1
100
AcDbDimStyleTable
0
DIMSTYLE
105
1A
330
A
100
AcDbSymbolTableRecord
100
AcDbDimStyleTableRecord
2
Standard
3

4

40
1.0
41
0.18
42
0.0625
43
0.38
44
0.18
45
0.0
46
0.0
47
0.0
48
0.0
49
1.0
70
0
71
0
72
0
73
0
74
0
75
0
76
0
77
0
78
0
79
0
140
0.18
141
0.09
143
25.4
144
1.0
146
1.0
147
0.09
148
0.0
170
0
171
2
172
0
174
0
175
0
176
0
177
0
178
0
179
0
271
4
272
4
273
2
274
2
275
0
276
0
277
2
278
46
279
0
280
0
281
0
282
0
283
1
284
0
285
0
286
0
289
3
290
0
294
0
340
18
173
0
345
17
346
17
347
17
371
-2
372
-2
0
ENDTAB
0
TABLE
2
VIEW
5
3
330
0
100
AcDbSymbolTable
70
0
0
ENDTAB
0
TABLE
2
UCS
5
C
330
0
100
AcDbSymbolTable
70
0
0
ENDTAB
0
TABLE
2
BLOCK_RECORD
5
D
330
0
100
AcDbSymbolTable
70
2
0
BLOCK_RECORD
5
1C
330
D
100
AcDbSymbolTableRecord
100
AcDbBlockTableRecord
2
*Model_Space
340
20
0
BLOCK_RECORD
5
5B
330
D
100
AcDbSymbolTableRecord
100
AcDbBlockTableRecord
2
*Paper_Space
340
60
0
ENDTAB
0
ENDSEC
0
SECTION
2
BLOCKS
0
BLOCK
5
1E
330
1C
100
AcDbEntity
67
0
8
0
100
AcDbBlockBegin
2
*Model_Space
70
0
10
0.0
20
0.0
30
0.0
3
*Model_Space
4

0
ENDBLK
5
1D
330
1C
100
AcDbEntity
8
0
100
AcDbBlockEnd
0
BLOCK
5
5D
330
5B
100
AcDbEntity
67
1
8
0
100
AcDbBlockBegin
2
*Paper_Space
70
0
10
0.0
20
0.0
30
0.0
3
*Paper_Space
4

0
ENDBLK
5
5C
330
5B
100
AcDbEntity
8
0
100
AcDbBlockEnd
0
ENDSEC
0
SECTION
2
ENTITIES
0
SPLINE
5
30
330
1C
100
AcDbEntity
67
0
8
BLADE_SURFACE
62
256
6
ByLayer
370
-1
48
1.0
60
0
100
AcDbSpline
70
36
71
3
42
0.0000001
43
0.0000001
44
0.0000000001
40
0.0
40
0.0
40
0.0
40
0.0
40
0.0123456790123457
40
0.0123456790123457
40
0.0123456790123457
40
0.0123456790123457
40
0.0246913580246914
40
0.0246913580246914
40
0.0246913580246914
40
0.0246913580246914
40
0.037037037037037
40
0.037037037037037
40
0.037037037037037
40
0.037037037037037
40
0.0493827160493827
40
0.0493827160493827
40
0.0493827160493827
40
0.0493827160493827
40
0.0617283950617284
40
0.0617283950617284
40
0.0617283950617284
40
0.0617283950617284
40
0.0740740740740741
40
0.0740740740740741
40
0.0740740740740741
40
0.0740740740740741
40
0.0864197530864197
40
0.0864197530864197
40
0.0864197530864197
40
0.0864197530864197
40
0.0987654320987654
40
0.0987654320987654
40
0.0987654320987654
40
0.0987654320987654
40
0.111111111111111
40
0.111111111111111
40
0.111111111111111
40
0.111111111111111
40
0.123456790123457
40
0.123456790123457
40
0.123456790123457
40
0.123456790123457
40
0.135802469135802
40
0.135802469135802
40
0.135802469135802
40
0.135802469135802
40
0.148148148148148
40
0.148148148148148
40
0.148148148148148
40
0.148148148148148
40
0.160493827160494
40
0.160493827160494
40
0.160493827160494
40
0.160493827160494
40
0.172839506172839
40
0.172839506172839
40
0.172839506172839
40
0.172839506172839
40
0.185185185185185
40
0.185185185185185
40
0.185185185185185
40
0.185185185185185
40
0.197530864197531
40
0.197530864197531
40
0.197530864197531
40
0.197530864197531
40
0.209876543209877
40
0.209876543209877
40
0.209876543209877
40
0.209876543209877
40
0.222222222222222
40
0.222222222222222
40
0.222222222222222
40
0.222222222222222
40
0.234567901234568
40
0.234567901234568
40
0.234567901234568
40
0.234567901234568
40
0.246913580246914
40
0.246913580246914
40
0.246913580246914
40
0.246913580246914
40
0.259259259259259
40
0.259259259259259
40
0.259259259259259
40
0.259259259259259
40
0.271604938271605
40
0.271604938271605
40
0.271604938271605
40
0.271604938271605
40
0.283950617283951
40
0.283950617283951
40
0.283950617283951
40
0.283950617283951
40
0.296296296296296
40
0.296296296296296
40
0.296296296296296
40
0.296296296296296
40
0.308641975308642
40
0.308641975308642
40
0.308641975308642
40
0.308641975308642
40
0.320987654320988
40
0.320987654320988
40
0.320987654320988
40
0.320987654320988
40
0.333333333333333
40
0.333333333333333
40
0.333333333333333
40
0.333333333333333
40
0.345679012345679
40
0.345679012345679
40
0.345679012345679
40
0.345679012345679
40
0.358024691358025
40
0.358024691358025
40
0.358024691358025
40
0.358024691358025
40
0.37037037037037
40
0.37037037037037
40
0.37037037037037
40
0.37037037037037
40
0.382716049382716
40
0.382716049382716
40
0.382716049382716
40
0.382716049382716
40
0.395061728395062
40
0.395061728395062
40
0.395061728395062
40
0.395061728395062
40
0.407407407407407
40
0.407407407407407
40
0.407407407407407
40
0.407407407407407
40
0.419753086419753
40
0.419753086419753
40
0.419753086419753
40
0.419753086419753
40
0.432098765432099
40
0.432098765432099
40
0.432098765432099
40
0.432098765432099
40
0.444444444444444
40
0.444444444444444
40
0.444444444444444
40
0.444444444444444
40
0.45679012345679
40
0.45679012345679
40
0.45679012345679
40
0.45679012345679
40
0.469135802469136
40
0.469135802469136
40
0.469135802469136
40
0.469135802469136
40
0.481481481481481
40
0.481481481481481
40
0.481481481481481
40
0.481481481481481
40
0.493827160493827
40
0.493827160493827
40
0.493827160493827
40
0.493827160493827
40
0.506172839506173
40
0.506172839506173
40
0.506172839506173
40
0.506172839506173
40
0.518518518518518
40
0.518518518518518
40
0.518518518518518
40
0.518518518518518
40
0.530864197530864
40
0.530864197530864
40
0.530864197530864
40
0.530864197530864
40
0.54320987654321
40
0.54320987654321
40
0.54320987654321
40
0.54320987654321
40
0.555555555555556
40
0.555555555555556
40
0.555555555555556
40
0.555555555555556
40
0.567901234567901
40
0.567901234567901
40
0.567901234567901
40
0.567901234567901
40
0.580246913580247
40
0.580246913580247
40
0.580246913580247
40
0.580246913580247
40
0.592592592592593
40
0.592592592592593
40
0.592592592592593
40
0.592592592592593
40
0.604938271604938
40
0.604938271604938
40
0.604938271604938
40
0.604938271604938
40
0.617283950617284
40
0.617283950617284
40
0.617283950617284
40
0.617283950617284
40
0.62962962962963
40
0.62962962962963
40
0.62962962962963
40
0.62962962962963
40
0.641975308641975
40
0.641975308641975
40
0.641975308641975
40
0.641975308641975
40
0.654320987654321
40
0.654320987654321
40
0.654320987654321
40
0.654320987654321
40
0.666666666666667
40
0.666666666666667
40
0.666666666666667
40
0.666666666666667
40
0.679012345679012
40
0.679012345679012
40
0.679012345679012
40
0.679012345679012
40
0.691358024691358
40
0.691358024691358
40
0.691358024691358
40
0.691358024691358
40
0.703703703703704
40
0.703703703703704
40
0.703703703703704
40
0.703703703703704
40
0.716049382716049
40
0.716049382716049
40
0.716049382716049
40
0.716049382716049
40
0.728395061728395
40
0.728395061728395
40
0.728395061728395
40
0.728395061728395
40
0.740740740740741
40
0.740740740740741
40
0.740740740740741
40
0.740740740740741
40
0.753086419753086
40
0.753086419753086
40
0.753086419753086
40
0.753086419753086
40
0.765432098765432
40
0.765432098765432
40
0.765432098765432
40
0.765432098765432
40
0.777777777777778
40
0.777777777777778
40
0.777777777777778
40
0.777777777777778
40
0.790123456790123
40
0.790123456790123
40
0.790123456790123
40
0.790123456790123
40
0.802469135802469
40
0.802469135802469
40
0.802469135802469
40
0.802469135802469
40
0.814814814814815
40
0.814814814814815
40
0.814814814814815
40
0.814814814814815
40
0.82716049382716
40
0.82716049382716
40
0.82716049382716
40
0.82716049382716
40
0.839506172839506
40
0.839506172839506
40
0.839506172839506
40
0.839506172839506
40
0.851851851851852
40
0.851851851851852
40
0.851851851851852
40
0.851851851851852
40
0.864197530864197
40
0.864197530864197
40
0.864197530864197
40
0.864197530864197
40
0.876543209876543
40
0.876543209876543
40
0.876543209876543
40
0.876543209876543
40
0.888888888888889
40
0.888888888888889
40
0.888888888888889
40
0.888888888888889
40
0.901234567901235
40
0.901234567901235
40
0.901234567901235
40
0.901234567901235
40
0.91358024691358
40
0.91358024691358
40
0.91358024691358
40
0.91358024691358
40
0.925925925925926
40
0.925925925925926
40
0.925925925925926
40
0.925925925925926
40
0.938271604938272
40
0.938271604938272
40
0.938271604938272
40
0.938271604938272
40
0.950617283950617
40
0.950617283950617
40
0.950617283950617
40
0.950617283950617
40
0.962962962962963
40
0.962962962962963
40
0.962962962962963
40
0.962962962962963
40
0.975308641975309
40
0.975308641975309
40
0.975308641975309
40
0.975308641975309
40
1.0
40
1.0
40
1.0
40
1.0
10
0.0
20
0.0
30
0.0
41
1.0
10
-0.0242141680707377
20
0.182001141284012
30
0.0
41
1.0
10
-0.0484283361414754
20
0.364002282568024
30
0.0
41
1.0
10
-0.0464370532685337
20
0.549208410941229
30
0.0
41
1.0
10
-0.0464370532685337
20
0.549208410941229
30
0.0
41
1.0
10
-0.0444457703955919
20
0.734414539314433
30
0.0
41
1.0
10
-0.0162490365789707
20
0.922825654776829
30
0.0
41
1.0
10
0.0312161519782792
20
1.11348670235029
30
0.0
41
1.0
10
0.0312161519782792
20
1.11348670235029
30
0.0
41
1.0
10
0.0786813405355291
20
1.30414774992375
30
0.0
41
1.0
10
0.145414983833408
20
1.49705872960827
30
0.0
41
1.0
10
0.233320141111939
20
1.69231959668258
30
0.0
41
1.0
10
0.233320141111939
20
1.69231959668258
30
0.0
41
1.0
10
0.321225298390471
20
1.88758046375688
30
0.0
41
1.0
10
0.430301969649655
20
2.08519121822098
30
0.0
41
1.0
10
0.560043444302766
20
2.28491062792403
30
0.0
41
1.0
10
0.560043444302766
20
2.28491062792403
30
0.0
41
1.0
10
0.689784918955877
20
2.48463003762709
30
0.0
41
1.0
10
0.840191197002915
20
2.6864581025691
30
0.0
41
1.0
10
1.01135941980364
20
2.89018830611553
30
0.0
41
1.0
10
1.01135941980364
20
2.89018830611553
30
0.0
41
1.0
10
1.18252764260437
20
3.09391850966196
30
0.0
41
1.0
10
1.37445781015878
20
3.29955085181281
30
0.0
41
1.0
10
1.5870425648019
20
3.50681519975593
30
0.0
41
1.0
10
1.5870425648019
20
3.50681519975593
30
0.0
41
1.0
10
1.79962731944503
20
3.71407954769905
30
0.0
41
1.0
10
2.03286666117686
20
3.92297590143444
30
0.0
41
1.0
10
2.28666440712469
20
4.13319981895009
30
0.0
41
1.0
10
2.28666440712469
20
4.13319981895009
30
0.0
41
1.0
10
2.54046215307252
20
4.34342373646574
30
0.0
41
1.0
10
2.81481830323634
20
4.55497521776165
30
0.0
41
1.0
10
3.10958909555642
20
4.76751114864902
30
0.0
41
1.0
10
3.10958909555642
20
4.76751114864902
30
0.0
41
1.0
10
3.4043598878765
20
4.98004707953638
30
0.0
41
1.0
10
3.71954532235283
20
5.1935674600152
30
0.0
41
1.0
10
4.05496882764739
20
5.40769564991128
30
0.0
41
1.0
10
4.05496882764739
20
5.40769564991128
30
0.0
41
1.0
10
4.39039233294194
20
5.62182383980737
30
0.0
41
1.0
10
4.74605390905472
20
5.83655983912071
30
0.0
41
1.0
10
5.12173927105381
20
6.05149651820832
30
0.0
41
1.0
10
5.12173927105381
20
6.05149651820832
30
0.0
41
1.0
10
5.4974246330529
20
6.26643319729593
30
0.0
41
1.0
10
5.8931337809383
20
6.48157055615782
30
0.0
41
1.0
10
6.30861514715196
20
6.6964749617865
30
0.0
41
1.0
10
6.30861514715196
20
6.6964749617865
30
0.0
41
1.0
10
6.72409651336562
20
6.91137936741519
30
0.0
41
1.0
10
7.15935009790753
20
7.12605081981068
30
0.0
41
1.0
10
7.61408615353528
20
7.340033240348
30
0.0
41
1.0
10
7.61408615353528
20
7.340033240348
30
0.0
41
1.0
10
8.06882220916302
20
7.55401566088532
30
0.0
41
1.0
10
8.54304073587659
20
7.76730904956446
30
0.0
41
1.0
10
9.03641340478374
20
7.97943918514592
30
0.0
41
1.0
10
9.03641340478374
20
7.97943918514592
30
0.0
41
1.0
10
9.52978607369089
20
8.19156932072738
30
0.0
41
1.0
10
10.0423128847916
20
8.40253620321116
30
0.0
41
1.0
10
10.573626568484
20
8.61185190630037
30
0.0
41
1.0
10
10.573626568484
20
8.61185190630037
30
0.0
41
1.0
10
11.1049402521764
20
8.82116760938957
30
0.0
41
1.0
10
11.6550408084605
20
9.0288321330842
30
0.0
41
1.0
10
12.2235218659107
20
9.23434838197761
30
0.0
41
1.0
10
12.2235218659107
20
9.23434838197761
30
0.0
41
1.0
10
12.7920029233609
20
9.43986463087103
30
0.0
41
1.0
10
13.3788644819771
20
9.64323260496323
30
0.0
41
1.0
10
13.9836610942357
20
9.84395061723649
30
0.0
41
1.0
10
13.9836610942357
20
9.84395061723649
30
0.0
41
1.0
10
14.5884577064943
20
10.0446686295098
30
0.0
41
1.0
10
15.2111893723952
20
10.2427366799641
30
0.0
41
1.0
10
15.8513718099407
20
10.4376530579794
30
0.0
41
1.0
10
15.8513718099407
20
10.4376530579794
30
0.0
41
1.0
10
16.4915542474863
20
10.6325694359947
30
0.0
41
1.0
10
17.1491874566765
20
10.8243341415711
30
0.0
41
1.0
10
17.8237487917212
20
11.0124499476357
30
0.0
41
1.0
10
17.8237487917212
20
11.0124499476357
30
0.0
41
1.0
10
18.4983101267659
20
11.2005657537003
30
0.0
41
1.0
10
19.1897995876649
20
11.3850326602531
30
0.0
41
1.0
10
19.8976568761851
20
11.5653623209701
30
0.0
41
1.0
10
19.8976568761851
20
11.5653623209701
30
0.0
41
1.0
10
20.6055141647053
20
11.7456919816871
30
0.0
41
1.0
10
21.3297392808465
20
11.9218843965683
30
0.0
41
1.0
10
22.0697352317552
20
12.0934643406949
30
0.0
41
1.0
10
22.0697352317552
20
12.0934643406949
30
0.0
41
1.0
10
22.809731182664
20
12.2650442848214
30
0.0
41
1.0
10
23.5654979683402
20
12.4320117581933
30
0.0
41
1.0
10
24.3364031061771
20
12.5939086982309
30
0.0
41
1.0
10
24.3364031061771
20
12.5939086982309
30
0.0
41
1.0
10
25.107308244014
20
12.7558056382686
30
0.0
41
1.0
10
25.8933517340115
20
12.912632044972
30
0.0
41
1.0
10
26.6938670517793
20
13.0639508198052
30
0.0
41
1.0
10
26.6938670517793
20
13.0639508198052
30
0.0
41
1.0
10
27.4943823695471
20
13.2152695946385
30
0.0
41
1.0
10
28.3093695150852
20
13.3610807376016
30
0.0
41
1.0
10
29.1381296010388
20
13.5009716427668
30
0.0
41
1.0
10
29.1381296010388
20
13.5009716427668
30
0.0
41
1.0
10
29.9668896869923
20
13.6408625479321
30
0.0
41
1.0
10
30.8094227133613
20
13.7748332152995
30
0.0
41
1.0
10
31.6649993340023
20
13.9024987541768
30
0.0
41
1.0
10
31.6649993340023
20
13.9024987541768
30
0.0
41
1.0
10
32.5205759546433
20
14.030164293054
30
0.0
41
1.0
10
33.3891961695563
20
14.1515247034412
30
0.0
41
1.0
10
34.2701022496315
20
14.2662257138864
30
0.0
41
1.0
10
34.2701022496315
20
14.2662257138864
30
0.0
41
1.0
10
35.1510083297067
20
14.3809267243317
30
0.0
41
1.0
10
36.0442002749441
20
14.4889683348351
30
0.0
41
1.0
10
36.9488943260479
20
14.5900294169064
30
0.0
41
1.0
10
36.9488943260479
20
14.5900294169064
30
0.0
41
1.0
10
37.8535883771517
20
14.6910904989778
30
0.0
41
1.0
10
38.7697845341218
20
14.7851710526172
30
0.0
41
1.0
10
39.6966751307774
20
14.8719853842433
30
0.0
41
1.0
10
39.6966751307774
20
14.8719853842433
30
0.0
41
1.0
10
40.6235657274329
20
14.9587997158694
30
0.0
41
1.0
10
41.5611507637739
20
15.0383478254823
30
0.0
41
1.0
10
42.5086023221304
20
15.1103809068394
30
0.0
41
1.0
10
42.5086023221304
20
15.1103809068394
30
0.0
41
1.0
10
43.456053880487
20
15.1824139881966
30
0.0
41
1.0
10
44.4133719608592
20
15.2469320412981
30
0.0
41
1.0
10
45.3797068674008
20
15.3037260030355
30
0.0
41
1.0
10
45.3797068674008
20
15.3037260030355
30
0.0
41
1.0
10
46.3460417739423
20
15.3605199647729
30
0.0
41
1.0
10
47.3213935066534
20
15.4095898351463
30
0.0
41
1.0
10
48.3049087930451
20
15.450762185294
30
0.0
41
1.0
10
48.3049087930451
20
15.450762185294
30
0.0
41
1.0
10
49.2884240794369
20
15.4919345354417
30
0.0
41
1.0
10
50.2801029195093
20
15.5252093653637
30
0.0
41
1.0
10
51.2790332766902
20
15.5504690659721
30
0.0
41
1.0
10
51.2790332766902
20
15.5504690659721
30
0.0
41
1.0
10
52.2779636338711
20
15.5757287665805
30
0.0
41
1.0
10
53.2841455081604
20
15.5929733378753
30
0.0
41
1.0
10
54.2968268907773
20
15.6020688639235
30
0.0
41
1.0
10
54.2968268907773
20
15.6020688639235
30
0.0
41
1.0
10
55.3095082733941
20
15.6111643899717
30
0.0
41
1.0
10
56.3286891643385
20
15.6121108707734
30
0.0
41
1.0
10
57.3529738127946
20
15.6050289028781
30
0.0
41
1.0
10
57.3529738127946
20
15.6050289028781
30
0.0
41
1.0
10
58.3772584612507
20
15.5979469349827
30
0.0
41
1.0
10
59.4066468672186
20
15.5828365183904
30
0.0
41
1.0
10
60.4421118270694
20
15.5590622182135
30
0.0
41
1.0
10
60.4421118270694
20
15.5590622182135
30
0.0
41
1.0
10
61.4775767869202
20
15.5352879180366
30
0.0
41
1.0
10
62.519118300654
20
15.5028497342752
30
0.0
41
1.0
10
63.5526096934847
20
15.4642640989821
30
0.0
41
1.0
10
63.5526096934847
20
15.4642640989821
30
0.0
41
1.0
10
64.5861010863155
20
15.4256784636889
30
0.0
41
1.0
10
65.6115423582431
20
15.380945376864
30
0.0
41
1.0
10
66.6431786655629
20
15.3312561455763
30
0.0
41
1.0
10
66.6431786655629
20
15.3312561455763
30
0.0
41
1.0
10
67.6748149728827
20
15.2815669142886
30
0.0
41
1.0
10
68.7126463155946
20
15.2269215385381
30
0.0
41
1.0
10
69.7517947800328
20
15.1671790714375
30
0.0
41
1.0
10
69.7517947800328
20
15.1671790714375
30
0.0
41
1.0
10
70.7909432444711
20
15.107436604337
30
0.0
41
1.0
10
71.8314088306355
20
15.0425970458863
30
0.0
41
1.0
10
72.8734368847535
20
14.972900347729
30
0.0
41
1.0
10
72.8734368847535
20
14.972900347729
30
0.0
41
1.0
10
73.9154649388714
20
14.9032036495717
30
0.0
41
1.0
10
74.9590554609427
20
14.8286498117077
30
0.0
41
1.0
10
76.0030822250768
20
14.749399027292
30
0.0
41
1.0
10
76.0030822250768
20
14.749399027292
30
0.0
41
1.0
10
77.047108989211
20
14.6701482428763
30
0.0
41
1.0
10
78.091571995408
20
14.5862005119089
30
0.0
41
1.0
10
79.1357156119729
20
14.4977580943372
30
0.0
41
1.0
10
79.1357156119729
20
14.4977580943372
30
0.0
41
1.0
10
80.1798592285379
20
14.4093156767654
30
0.0
41
1.0
10
81.2236834554707
20
14.3163785725892
30
0.0
41
1.0
10
82.2663382531555
20
14.219156895909
30
0.0
41
1.0
10
82.2663382531555
20
14.219156895909
30
0.0
41
1.0
10
83.3089930508403
20
14.1219352192287
30
0.0
41
1.0
10
84.3504784192769
20
14.0204289700445
30
0.0
41
1.0
10
85.3899762477823
20
13.9148637734724
30
0.0
41
1.0
10
85.3899762477823
20
13.9148637734724
30
0.0
41
1.0
10
86.4294740762878
20
13.8092985769003
30
0.0
41
1.0
10
87.4669843648621
20
13.6996744329404
30
0.0
41
1.0
10
88.5016887524124
20
13.586228991693
30
0.0
41
1.0
10
88.5016887524124
20
13.586228991693
30
0.0
41
1.0
10
89.5363931399626
20
13.4727835504456
30
0.0
41
1.0
10
90.5682916264887
20
13.3555168119107
30
0.0
41
1.0
10
91.5965758316204
20
13.2346780386014
30
0.0
41
1.0
10
91.5965758316204
20
13.2346780386014
30
0.0
41
1.0
10
92.6248600367522
20
13.1138392652922
30
0.0
41
1.0
10
93.6495299604895
20
12.9894284572086
30
0.0
41
1.0
10
94.6697860108641
20
12.8617053475427
30
0.0
41
1.0
10
94.6697860108641
20
12.8617053475427
30
0.0
41
1.0
10
95.6900420612387
20
12.7339822378768
30
0.0
41
1.0
10
96.7058842382504
20
12.6029468266286
30
0.0
41
1.0
10
97.7165235518151
20
12.4688684673045
30
0.0
41
1.0
10
97.7165235518151
20
12.4688684673045
30
0.0
41
1.0
10
98.7271628653798
20
12.3347901079805
30
0.0
41
1.0
10
99.7325993154974
20
12.1976688005805
30
0.0
41
1.0
10
100.732055471411
20
12.0577826833002
30
0.0
41
1.0
10
100.732055471411
20
12.0577826833002
30
0.0
41
1.0
10
101.731511627325
20
11.9178965660199
30
0.0
41
1.0
10
102.724987489035
20
11.7752456388591
30
0.0
41
1.0
10
103.71171832543
20
11.6301160703054
30
0.0
41
1.0
10
103.71171832543
20
11.6301160703054
30
0.0
41
1.0
10
104.698449161824
20
11.4849865017518
30
0.0
41
1.0
10
105.678434972904
20
11.3373782918053
30
0.0
41
1.0
10
106.650924775567
20
11.1875849366436
30
0.0
41
1.0
10
106.650924775567
20
11.1875849366436
30
0.0
41
1.0
10
107.623414578229
20
11.037791581482
30
0.0
41
1.0
10
108.588408372475
20
10.8858130811051
30
0.0
41
1.0
10
109.545169956015
20
10.7319496014324
30
0.0
41
1.0
10
109.545169956015
20
10.7319496014324
30
0.0
41
1.0
10
110.501931539556
20
10.5780861217597
30
0.0
41
1.0
10
111.45046091239
20
10.422337662791
30
0.0
41
1.0
10
112.390037651607
20
10.2650104310292
30
0.0
41
1.0
10
112.390037651607
20
10.2650104310292
30
0.0
41
1.0
10
113.329614390825
20
10.1076831992674
30
0.0
41
1.0
10
114.260238496426
20
9.94877719471237
30
0.0
41
1.0
10
115.181206294963
20
9.78860404853694
30
0.0
41
1.0
10
115.181206294963
20
9.78860404853694
30
0.0
41
1.0
10
116.102174093499
20
9.62843090236152
30
0.0
41
1.0
10
117.01348558497
20
9.46699061456566
30
0.0
41
1.0
10
117.914454785109
20
9.30459962144563
30
0.0
41
1.0
10
117.914454785109
20
9.30459962144563
30
0.0
41
1.0
10
118.815423985249
20
9.1422086283256
30
0.0
41
1.0
10
119.706050894057
20
8.9788669298814
30
0.0
41
1.0
10
120.585668124922
20
8.8148951273815
30
0.0
41
1.0
10
120.585668124922
20
8.8148951273815
30
0.0
41
1.0
10
121.465285355787
20
8.65092332488159
30
0.0
41
1.0
10
122.333892908709
20
8.48632141832597
30
0.0
41
1.0
10
123.190842869832
20
8.3214134965959
30
0.0
41
1.0
10
123.190842869832
20
8.3214134965959
30
0.0
41
1.0
10
124.047792830956
20
8.15650557486584
30
0.0
41
1.0
10
124.89308520028
20
7.99129163796132
30
0.0
41
1.0
10
125.726092375817
20
7.8260985322218
30
0.0
41
1.0
10
125.726092375817
20
7.8260985322218
30
0.0
41
1.0
10
126.559099551354
20
7.66090542648228
30
0.0
41
1.0
10
127.379821533104
20
7.49573315190777
30
0.0
41
1.0
10
128.187651830928
20
7.33091051532911
30
0.0
41
1.0
10
128.187651830928
20
7.33091051532911
30
0.0
41
1.0
10
128.995482128753
20
7.16608787875044
30
0.0
41
1.0
10
129.790420742653
20
7.00161488016761
30
0.0
41
1.0
10
130.571883051784
20
6.83782141119128
30
0.0
41
1.0
10
130.571883051784
20
6.83782141119128
30
0.0
41
1.0
10
131.353345360916
20
6.67402794221496
30
0.0
41
1.0
10
132.121331365279
20
6.51091400284513
30
0.0
41
1.0
10
132.875279024691
20
6.34880960561245
30
0.0
41
1.0
10
132.875279024691
20
6.34880960561245
30
0.0
41
1.0
10
133.629226684103
20
6.18670520837976
30
0.0
41
1.0
10
134.369135998563
20
6.02561035328422
30
0.0
41
1.0
10
135.094468170419
20
5.86585411526011
30
0.0
41
1.0
10
135.094468170419
20
5.86585411526011
30
0.0
41
1.0
10
135.819800342275
20
5.70609787723601
30
0.0
41
1.0
10
136.530555371526
20
5.54768025628333
30
0.0
41
1.0
10
137.226218312297
20
5.3909282332345
30
0.0
41
1.0
10
137.226218312297
20
5.3909282332345
30
0.0
41
1.0
10
137.921881253068
20
5.23417621018568
30
0.0
41
1.0
10
138.602452105359
20
5.0790897850407
30
0.0
41
1.0
10
139.267440329076
20
4.92599259006269
30
0.0
41
1.0
10
139.267440329076
20
4.92599259006269
30
0.0
41
1.0
10
139.932428552792
20
4.77289539508468
30
0.0
41
1.0
10
140.581834147934
20
4.62178743027364
30
0.0
41
1.0
10
141.215191476968
20
4.47298763037614
30
0.0
41
1.0
10
141.215191476968
20
4.47298763037614
30
0.0
41
1.0
10
141.848548806003
20
4.32418783047864
30
0.0
41
1.0
10
142.46585786893
20
4.17769619549468
30
0.0
41
1.0
10
143.06667836924
20
4.0338255261343
30
0.0
41
1.0
10
143.06667836924
20
4.0338255261343
30
0.0
41
1.0
10
143.66749886955
20
3.88995485677393
30
0.0
41
1.0
10
144.251830807243
20
3.74870515303714
30
0.0
41
1.0
10
144.819259606563
20
3.61038156780805
30
0.0
41
1.0
10
144.819259606563
20
3.61038156780805
30
0.0
41
1.0
10
145.386688405884
20
3.47205798257895
30
0.0
41
1.0
10
145.937214066832
20
3.33666051585754
30
0.0
41
1.0
10
146.470448056822
20
3.20448509485798
30
0.0
41
1.0
10
146.470448056822
20
3.20448509485798
30
0.0
41
1.0
10
147.003682046813
20
3.07230967385841
30
0.0
41
1.0
10
147.519624365845
20
2.94335629858069
30
0.0
41
1.0
10
148.017912788988
20
2.81791004558185
30
0.0
41
1.0
10
148.017912788988
20
2.81791004558185
30
0.0
41
1.0
10
148.516201212131
20
2.69246379258301
30
0.0
41
1.0
10
148.996835739385
20
2.57052466186307
30
0.0
41
1.0
10
149.459480671761
20
2.45236522344639
30
0.0
41
1.0
10
149.459480671761
20
2.45236522344639
30
0.0
41
1.0
10
149.922125604138
20
2.33420578502972
30
0.0
41
1.0
10
150.366780941638
20
2.21982603891632
30
0.0
41
1.0
10
150.793137653689
20
2.10948439189864
30
0.0
41
1.0
10
150.793137653689
20
2.10948439189864
30
0.0
41
1.0
10
151.219494365739
20
1.99914274488097
30
0.0
41
1.0
10
151.627552452339
20
1.89283919695901
30
0.0
41
1.0
10
152.017029747135
20
1.79081632196717
30
0.0
41
1.0
10
152.017029747135
20
1.79081632196717
30
0.0
41
1.0
10
152.406507041932
20
1.68879344697533
30
0.0
41
1.0
10
152.777403544925
20
1.5910512449136
30
0.0
41
1.0
10
153.129463743563
20
1.49781492638167
30
0.0
41
1.0
10
153.129463743563
20
1.49781492638167
30
0.0
41
1.0
10
153.4815239422
20
1.40457860784974
30
0.0
41
1.0
10
153.814747836482
20
1.31584817284762
30
0.0
41
1.0
10
154.128907691838
20
1.23182962020646
30
0.0
41
1.0
10
154.128907691838
20
1.23182962020646
30
0.0
41
1.0
10
154.443067547193
20
1.14781106756531
30
0.0
41
1.0
10
154.738163363623
20
1.06850439728511
30
0.0
41
1.0
10
155.013991174579
20
0.994096050927733
30
0.0
41
1.0
10
155.013991174579
20
0.994096050927733
30
0.0
41
1.0
10
155.289818985535
20
0.919687704570357
30
0.0
41
1.0
10
155.546378791018
20
0.850177682135802
30
0.0
41
1.0
10
155.783505419665
20
0.785727340469594
30
0.0
41
1.0
10
155.783505419665
20
0.785727340469594
30
0.0
41
1.0
10
156.020632048312
20
0.721276998803385
30
0.0
41
1.0
10
156.238325500122
20
0.661886337905522
30
0.0
41
1.0
10
156.436403284898
20
0.607705977741912
30
0.0
41
1.0
10
156.436403284898
20
0.607705977741912
30
0.0
41
1.0
10
156.634481069674
20
0.553525617578302
30
0.0
41
1.0
10
156.812943187416
20
0.504555558148944
30
0.0
41
1.0
10
156.971799153397
20
0.460876493129955
30
0.0
41
1.0
10
156.971799153397
20
0.460876493129955
30
0.0
41
1.0
10
157.130655119377
20
0.417197428110967
30
0.0
41
1.0
10
157.269904933597
20
0.378809357502348
30
0.0
41
1.0
10
157.388968775514
20
0.345939035990524
30
0.0
41
1.0
10
157.388968775514
20
0.345939035990524
30
0.0
41
1.0
10
157.50803261743
20
0.3130687144787
30
0.0
41
1.0
10
157.606910487044
20
0.285716142063673
30
0.0
41
1.0
10
157.687349090084
20
0.263443962969972
30
0.0
41
1.0
10
157.687349090084
20
0.263443962969972
30
0.0
41
1.0
10
157.767787693124
20
0.241171783876272
30
0.0
41
1.0
10
157.82978702959
20
0.223979998103899
30
0.0
41
1.0
10
157.866538053609
20
0.213787529121194
30
0.0
41
1.0
10
157.866538053609
20
0.213787529121194
30
0.0
41
1.0
10
157.903289077627
20
0.203595060138488
30
0.0
41
1.0
10
157.914791789197
20
0.200401907945449
30
0.0
41
1.0
10
157.926294500767
20
0.197208755752409
30
0.0
41
1.0
11
0.0
21
0.0
31
0.0
11
-0.0464370532685337
21
0.549208410941229
31
0.0
11
0.0312161519782792
21
1.11348670235029
31
0.0
11
0.233320141111939
21
1.69231959668258
31
0.0
11
0.560043444302766
21
2.28491062792403
31
0.0
11
1.01135941980364
21
2.89018830611553
31
0.0
11
1.5870425648019
21
3.50681519975593
31
0.0
11
2.28666440712469
21
4.13319981895009
31
0.0
11
3.10958909555642
21
4.76751114864902
31
0.0
11
4.05496882764739
21
5.40769564991128
31
0.0
11
5.12173927105381
21
6.05149651820832
31
0.0
11
6.30861514715196
21
6.6964749617865
31
0.0
11
7.61408615353528
21
7.340033240348
31
0.0
11
9.03641340478374
21
7.97943918514592
31
0.0
11
10.573626568484
21
8.61185190630037
31
0.0
11
12.2235218659107
21
9.23434838197761
31
0.0
11
13.9836610942357
21
9.84395061723649
31
0.0
11
15.8513718099407
21
10.4376530579794
31
0.0
11
17.8237487917212
21
11.0124499476357
31
0.0
11
19.8976568761851
21
11.5653623209701
31
0.0
11
22.0697352317552
21
12.0934643406949
31
0.0
11
24.3364031061771
21
12.5939086982309
31
0.0
11
26.6938670517793
21
13.0639508198052
31
0.0
11
29.1381296010388
21
13.5009716427668
31
0.0
11
31.6649993340023
21
13.9024987541768
31
0.0
11
34.2701022496315
21
14.2662257138864
31
0.0
11
36.9488943260479
21
14.5900294169064
31
0.0
11
39.6966751307774
21
14.8719853842433
31
0.0
11
42.5086023221304
21
15.1103809068394
31
0.0
11
45.3797068674008
21
15.3037260030355
31
0.0
11
48.3049087930451
21
15.450762185294
31
0.0
11
51.2790332766902
21
15.5504690659721
31
0.0
11
54.2968268907773
21
15.6020688639235
31
0.0
11
57.3529738127946
21
15.6050289028781
31
0.0
11
60.4421118270694
21
15.5590622182135
31
0.0
11
63.5526096934847
21
15.4642640989821
31
0.0
11
66.6431786655629
21
15.3312561455763
31
0.0
11
69.7517947800328
21
15.1671790714375
31
0.0
11
72.8734368847535
21
14.972900347729
31
0.0
11
76.0030822250768
21
14.749399027292
31
0.0
11
79.1357156119729
21
14.4977580943372
31
0.0
11
82.2663382531555
21
14.219156895909
31
0.0
11
85.3899762477823
21
13.9148637734724
31
0.0
11
88.5016887524124
21
13.586228991693
31
0.0
11
91.5965758316204
21
13.2346780386014
31
0.0
11
94.6697860108641
21
12.8617053475427
31
0.0
11
97.7165235518151
21
12.4688684673045
31
0.0
11
100.732055471411
21
12.0577826833002
31
0.0
11
103.71171832543
21
11.6301160703054
31
0.0
11
106.650924775567
21
11.1875849366436
31
0.0
11
109.545169956015
21
10.7319496014324
31
0.0
11
112.390037651607
21
10.2650104310292
31
0.0
11
115.181206294963
21
9.78860404853694
31
0.0
11
117.914454785109
21
9.30459962144563
31
0.0
11
120.585668124922
21
8.8148951273815
31
0.0
11
123.190842869832
21
8.3214134965959
31
0.0
11
125.726092375817
21
7.8260985322218
31
0.0
11
128.187651830928
21
7.33091051532911
31
0.0
11
130.571883051784
21
6.83782141119128
31
0.0
11
132.875279024691
21
6.34880960561245
31
0.0
11
135.094468170419
21
5.86585411526011
31
0.0
11
137.226218312297
21
5.3909282332345
31
0.0
11
139.267440329076
21
4.92599259006269
31
0.0
11
141.215191476968
21
4.47298763037614
31
0.0
11
143.06667836924
21
4.0338255261343
31
0.0
11
144.819259606563
21
3.61038156780805
31
0.0
11
146.470448056822
21
3.20448509485798
31
0.0
11
148.017912788988
21
2.81791004558185
31
0.0
11
149.459480671761
21
2.45236522344639
31
0.0
11
150.793137653689
21
2.10948439189864
31
0.0
11
152.017029747135
21
1.79081632196717
31
0.0
11
153.129463743563
21
1.49781492638167
31
0.0
11
154.128907691838
21
1.23182962020646
31
0.0
11
155.013991174579
21
0.994096050927733
31
0.0
11
155.783505419665
21
0.785727340469594
31
0.0
11
156.436403284898
21
0.607705977741912
31
0.0
11
156.971799153397
21
0.460876493129955
31
0.0
11
157.388968775514
21
0.345939035990524
31
0.0
11
157.687349090084
21
0.263443962969972
31
0.0
11
157.866538053609
21
0.213787529121194
31
0.0
11
157.926294500767
21
0.197208755752409
31
0.0
0
SPLINE
5
31
330
1C
100
AcDbEntity
67
0
8
BLADE_SURFACE
62
256
6
ByLayer
370
-1
48
1.0
60
0
100
AcDbSpline
70
36
71
3
42
0.0000001
43
0.0000001
44
0.0000000001
40
0.0
40
0.0
40
0.0
40
0.0
40
0.0123456790123457
40
0.0123456790123457
40
0.0123456790123457
40
0.0123456790123457
40
0.0246913580246914
40
0.0246913580246914
40
0.0246913580246914
40
0.0246913580246914
40
0.037037037037037
40
0.037037037037037
40
0.037037037037037
40
0.037037037037037
40
0.0493827160493827
40
0.0493827160493827
40
0.0493827160493827
40
0.0493827160493827
40
0.0617283950617284
40
0.0617283950617284
40
0.0617283950617284
40
0.0617283950617284
40
0.0740740740740741
40
0.0740740740740741
40
0.0740740740740741
40
0.0740740740740741
40
0.0864197530864197
40
0.0864197530864197
40
0.0864197530864197
40
0.0864197530864197
40
0.0987654320987654
40
0.0987654320987654
40
0.0987654320987654
40
0.0987654320987654
40
0.111111111111111
40
0.111111111111111
40
0.111111111111111
40
0.111111111111111
40
0.123456790123457
40
0.123456790123457
40
0.123456790123457
40
0.123456790123457
40
0.135802469135802
40
0.135802469135802
40
0.135802469135802
40
0.135802469135802
40
0.148148148148148
40
0.148148148148148
40
0.148148148148148
40
0.148148148148148
40
0.160493827160494
40
0.160493827160494
40
0.160493827160494
40
0.160493827160494
40
0.172839506172839
40
0.172839506172839
40
0.172839506172839
40
0.172839506172839
40
0.185185185185185
40
0.185185185185185
40
0.185185185185185
40
0.185185185185185
40
0.197530864197531
40
0.197530864197531
40
0.197530864197531
40
0.197530864197531
40
0.209876543209877
40
0.209876543209877
40
0.209876543209877
40
0.209876543209877
40
0.222222222222222
40
0.222222222222222
40
0.222222222222222
40
0.222222222222222
40
0.234567901234568
40
0.234567901234568
40
0.234567901234568
40
0.234567901234568
40
0.246913580246914
40
0.246913580246914
40
0.246913580246914
40
0.246913580246914
40
0.259259259259259
40
0.259259259259259
40
0.259259259259259
40
0.259259259259259
40
0.271604938271605
40
0.271604938271605
40
0.271604938271605
40
0.271604938271605
40
0.283950617283951
40
0.283950617283951
40
0.283950617283951
40
0.283950617283951
40
0.296296296296296
40
0.296296296296296
40
0.296296296296296
40
0.296296296296296
40
0.308641975308642
40
0.308641975308642
40
0.308641975308642
40
0.308641975308642
40
0.320987654320988
40
0.320987654320988
40
0.320987654320988
40
0.320987654320988
40
0.333333333333333
40
0.333333333333333
40
0.333333333333333
40
0.333333333333333
40
0.345679012345679
40
0.345679012345679
40
0.345679012345679
40
0.345679012345679
40
0.358024691358025
40
0.358024691358025
40
0.358024691358025
40
0.358024691358025
40
0.37037037037037
40
0.37037037037037
40
0.37037037037037
40
0.37037037037037
40
0.382716049382716
40
0.382716049382716
40
0.382716049382716
40
0.382716049382716
40
0.395061728395062
40
0.395061728395062
40
0.395061728395062
40
0.395061728395062
40
0.407407407407407
40
0.407407407407407
40
0.407407407407407
40
0.407407407407407
40
0.419753086419753
40
0.419753086419753
40
0.419753086419753
40
0.419753086419753
40
0.432098765432099
40
0.432098765432099
40
0.432098765432099
40
0.432098765432099
40
0.444444444444444
40
0.444444444444444
40
0.444444444444444
40
0.444444444444444
40
0.45679012345679
40
0.45679012345679
40
0.45679012345679
40
0.45679012345679
40
0.469135802469136
40
0.469135802469136
40
0.469135802469136
40
0.469135802469136
40
0.481481481481481
40
0.481481481481481
40
0.481481481481481
40
0.481481481481481
40
0.493827160493827
40
0.493827160493827
40
0.493827160493827
40
0.493827160493827
40
0.506172839506173
40
0.506172839506173
40
0.506172839506173
40
0.506172839506173
40
0.518518518518518
40
0.518518518518518
40
0.518518518518518
40
0.518518518518518
40
0.530864197530864
40
0.530864197530864
40
0.530864197530864
40
0.530864197530864
40
0.54320987654321
40
0.54320987654321
40
0.54320987654321
40
0.54320987654321
40
0.555555555555556
40
0.555555555555556
40
0.555555555555556
40
0.555555555555556
40
0.567901234567901
40
0.567901234567901
40
0.567901234567901
40
0.567901234567901
40
0.580246913580247
40
0.580246913580247
40
0.580246913580247
40
0.580246913580247
40
0.592592592592593
40
0.592592592592593
40
0.592592592592593
40
0.592592592592593
40
0.604938271604938
40
0.604938271604938
40
0.604938271604938
40
0.604938271604938
40
0.617283950617284
40
0.617283950617284
40
0.617283950617284
40
0.617283950617284
40
0.62962962962963
40
0.62962962962963
40
0.62962962962963
40
0.62962962962963
40
0.641975308641975
40
0.641975308641975
40
0.641975308641975
40
0.641975308641975
40
0.654320987654321
40
0.654320987654321
40
0.654320987654321
40
0.654320987654321
40
0.666666666666667
40
0.666666666666667
40
0.666666666666667
40
0.666666666666667
40
0.679012345679012
40
0.679012345679012
40
0.679012345679012
40
0.679012345679012
40
0.691358024691358
40
0.691358024691358
40
0.691358024691358
40
0.691358024691358
40
0.703703703703704
40
0.703703703703704
40
0.703703703703704
40
0.703703703703704
40
0.716049382716049
40
0.716049382716049
40
0.716049382716049
40
0.716049382716049
40
0.728395061728395
40
0.728395061728395
40
0.728395061728395
40
0.728395061728395
40
0.740740740740741
40
0.740740740740741
40
0.740740740740741
40
0.740740740740741
40
0.753086419753086
40
0.753086419753086
40
0.753086419753086
40
0.753086419753086
40
0.765432098765432
40
0.765432098765432
40
0.765432098765432
40
0.765432098765432
40
0.777777777777778
40
0.777777777777778
40
0.777777777777778
40
0.777777777777778
40
0.790123456790123
40
0.790123456790123
40
0.790123456790123
40
0.790123456790123
40
0.802469135802469
40
0.802469135802469
40
0.802469135802469
40
0.802469135802469
40
0.814814814814815
40
0.814814814814815
40
0.814814814814815
40
0.814814814814815
40
0.82716049382716
40
0.82716049382716
40
0.82716049382716
40
0.82716049382716
40
0.839506172839506
40
0.839506172839506
40
0.839506172839506
40
0.839506172839506
40
0.851851851851852
40
0.851851851851852
40
0.851851851851852
40
0.851851851851852
40
0.864197530864197
40
0.864197530864197
40
0.864197530864197
40
0.864197530864197
40
0.876543209876543
40
0.876543209876543
40
0.876543209876543
40
0.876543209876543
40
0.888888888888889
40
0.888888888888889
40
0.888888888888889
40
0.888888888888889
40
0.901234567901235
40
0.901234567901235
40
0.901234567901235
40
0.901234567901235
40
0.91358024691358
40
0.91358024691358
40
0.91358024691358
40
0.91358024691358
40
0.925925925925926
40
0.925925925925926
40
0.925925925925926
40
0.925925925925926
40
0.938271604938272
40
0.938271604938272
40
0.938271604938272
40
0.938271604938272
40
0.950617283950617
40
0.950617283950617
40
0.950617283950617
40
0.950617283950617
40
0.962962962962963
40
0.962962962962963
40
0.962962962962963
40
0.962962962962963
40
0.975308641975309
40
0.975308641975309
40
0.975308641975309
40
0.975308641975309
40
1.0
40
1.0
40
1.0
40
1.0
10
0.0
20
0.0
30
0.0
41
1.0
10
0.047648136167902
20
-0.177312088741994
30
0.0
41
1.0
10
0.0952962723358041
20
-0.354624177483988
30
0.0
41
1.0
10
0.168172230858388
20
-0.524873107099527
30
0.0
41
1.0
10
0.168172230858388
20
-0.524873107099527
30
0.0
41
1.0
10
0.241048189380971
20
-0.695122036715065
30
0.0
41
1.0
10
0.339151970258236
20
-0.858307807204148
30
0.0
41
1.0
10
0.455536851560815
20
-1.01632366377551
30
0.0
41
1.0
10
0.455536851560815
20
-1.01632366377551
30
0.0
41
1.0
10
0.571921732863394
20
-1.17433952034687
30
0.0
41
1.0
10
0.706587714591288
20
-1.3271854630005
30
0.0
41
1.0
10
0.861170505705199
20
-1.474369780948
30
0.0
41
1.0
10
0.861170505705199
20
-1.474369780948
30
0.0
41
1.0
10
1.01575329681911
20
-1.62155409889551
30
0.0
41
1.0
10
1.19025289731904
20
-1.76307679213688
30
0.0
41
1.0
10
1.38396757572498
20
-1.89910017411322
30
0.0
41
1.0
10
1.38396757572498
20
-1.89910017411322
30
0.0
41
1.0
10
1.57768225413092
20
-2.03512355608956
30
0.0
41
1.0
10
1.79061201044287
20
-2.16564762680088
30
0.0
41
1.0
10
2.02264480452627
20
-2.29067465380279
30
0.0
41
1.0
10
2.02264480452627
20
-2.29067465380279
30
0.0
41
1.0
10
2.25467759860968
20
-2.41570168080469
30
0.0
41
1.0
10
2.50581343046455
20
-2.53523166409719
30
0.0
41
1.0
10
2.77574700440497
20
-2.64932531380022
30
0.0
41
1.0
10
2.77574700440497
20
-2.64932531380022
30
0.0
41
1.0
10
3.04568057834539
20
-2.76341896350326
30
0.0
41
1.0
10
3.33441189437136
20
-2.87207627961685
30
0.0
41
1.0
10
3.6416537568444
20
-2.97535834911799
30
0.0
41
1.0
10
3.6416537568444
20
-2.97535834911799
30
0.0
41
1.0
10
3.94889561931745
20
-3.07864041861914
30
0.0
41
1.0
10
4.27464802823756
20
-3.17654724150786
30
0.0
41
1.0
10
4.61858698143884
20
-3.26915641573654
30
0.0
41
1.0
10
4.61858698143884
20
-3.26915641573654
30
0.0
41
1.0
10
4.96252593464011
20
-3.36176558996523
30
0.0
41
1.0
10
5.32465143212255
20
-3.44907711553388
30
0.0
41
1.0
10
5.70461923019236
20
-3.53118142581858
30
0.0
41
1.0
10
5.70461923019236
20
-3.53118142581858
30
0.0
41
1.0
10
6.08458702826217
20
-3.61328573610327
30
0.0
41
1.0
10
6.48239712691934
20
-3.69018283110401
30
0.0
41
1.0
10
6.89768254541402
20
-3.76197765586645
30
0.0
41
1.0
10
6.89768254541402
20
-3.76197765586645
30
0.0
41
1.0
10
7.31296796390869
20
-3.83377248062889
30
0.0
41
1.0
10
7.74572870224087
20
-3.90046503515304
30
0.0
41
1.0
10
8.19557770586769
20
-3.96217503139599
30
0.0
41
1.0
10
8.19557770586769
20
-3.96217503139599
30
0.0
41
1.0
10
8.64542670949451
20
-4.02388502763894
30
0.0
41
1.0
10
9.11236397841597
20
-4.08061246560068
30
0.0
41
1.0
10
9.59598367712143
20
-4.13249244044218
30
0.0
41
1.0
10
9.59598367712143
20
-4.13249244044218
30
0.0
41
1.0
10
10.0796033758269
20
-4.18437241528369
30
0.0
41
1.0
10
10.5799055043164
20
-4.23140492700496
30
0.0
41
1.0
10
11.0964670784216
20
-4.27374091984671
30
0.0
41
1.0
10
11.0964670784216
20
-4.27374091984671
30
0.0
41
1.0
10
11.6130286525268
20
-4.31607691268846
30
0.0
41
1.0
10
12.1458496722478
20
-4.35371638665069
30
0.0
41
1.0
10
12.6944914800048
20
-4.38682655302946
30
0.0
41
1.0
10
12.6944914800048
20
-4.38682655302946
30
0.0
41
1.0
10
13.2431332877618
20
-4.41993671940823
30
0.0
41
1.0
10
13.8075958835547
20
-4.44851757820354
30
0.0
41
1.0
10
14.3874263515174
20
-4.472752916002
30
0.0
41
1.0
10
14.3874263515174
20
-4.472752916002
30
0.0
41
1.0
10
14.9672568194801
20
-4.49698825380046
30
0.0
41
1.0
10
15.5624551596127
20
-4.51687807060206
30
0.0
41
1.0
10
16.1725554939601
20
-4.53262290988404
30
0.0
41
1.0
10
16.1725554939601
20
-4.53262290988404
30
0.0
41
1.0
10
16.7826558283074
20
-4.54836774916603
30
0.0
41
1.0
10
17.4076581568696
20
-4.55996761092838
30
0.0
41
1.0
10
18.0470848039896
20
-4.56763982322889
30
0.0
41
1.0
10
18.0470848039896
20
-4.56763982322889
30
0.0
41
1.0
10
18.6865114511096
20
-4.57531203552939
30
0.0
41
1.0
10
19.3403624167875
20
-4.57905659836804
30
0.0
41
1.0
10
20.0081492400339
20
-4.57910747608919
30
0.0
41
1.0
10
20.0081492400339
20
-4.57910747608919
30
0.0
41
1.0
10
20.6759360632804
20
-4.57915835381034
30
0.0
41
1.0
10
21.3576587440955
20
-4.57551554641399
30
0.0
41
1.0
10
22.0528188839201
20
-4.56842930993957
30
0.0
41
1.0
10
22.0528188839201
20
-4.56842930993957
30
0.0
41
1.0
10
22.7479790237448
20
-4.56134307346515
30
0.0
41
1.0
10
23.456576622579
20
-4.55081340791265
30
0.0
41
1.0
10
24.1781040188889
20
-4.53710630322706
30
0.0
41
1.0
10
24.1781040188889
20
-4.53710630322706
30
0.0
41
1.0
10
24.8996314151988
20
-4.52339919854147
30
0.0
41
1.0
10
25.6340886089844
20
-4.50651465472279
30
0.0
41
1.0
10
26.3809591741714
20
-4.48673361128416
30
0.0
41
1.0
10
26.3809591741714
20
-4.48673361128416
30
0.0
41
1.0
10
27.1278297393584
20
-4.46695256784553
30
0.0
41
1.0
10
27.8871136759468
20
-4.44427502478695
30
0.0
41
1.0
10
28.6582861168847
20
-4.41899585137265
30
0.0
41
1.0
10
28.6582861168847
20
-4.41899585137265
30
0.0
41
1.0
10
29.4294585578226
20
-4.39371667795835
30
0.0
41
1.0
10
30.2125195031102
20
-4.36583587418832
30
0.0
41
1.0
10
31.0069358029385
20
-4.33566097841274
30
0.0
41
1.0
10
31.0069358029385
20
-4.33566097841274
30
0.0
41
1.0
10
31.8013521027668
20
-4.30548608263715
30
0.0
41
1.0
10
32.6071237571359
20
-4.273017094856
30
0.0
41
1.0
10
33.4237093290162
20
-4.23857272408994
30
0.0
41
1.0
10
33.4237093290162
20
-4.23857272408994
30
0.0
41
1.0
10
34.2402949008965
20
-4.20412835332387
30
0.0
41
1.0
10
35.067694390288
20
-4.16770859957289
30
0.0
41
1.0
10
35.9053579565733
20
-4.1296416010437
30
0.0
41
1.0
10
35.9053579565733
20
-4.1296416010437
30
0.0
41
1.0
10
36.7430215228587
20
-4.0915746025145
30
0.0
41
1.0
10
37.590949166038
20
-4.05186035920709
30
0.0
41
1.0
10
38.4485823053038
20
-4.01083450416937
30
0.0
41
1.0
10
38.4485823053038
20
-4.01083450416937
30
0.0
41
1.0
10
39.3062154445696
20
-3.96980864913165
30
0.0
41
1.0
10
40.1735540799219
20
-3.92747118236363
30
0.0
41
1.0
10
41.0500308368535
20
-3.88416297208433
30
0.0
41
1.0
10
41.0500308368535
20
-3.88416297208433
30
0.0
41
1.0
10
41.926507593785
20
-3.84085476180504
30
0.0
41
1.0
10
42.8121224722957
20
-3.79657580801448
30
0.0
41
1.0
10
43.7062977689951
20
-3.75167020283436
30
0.0
41
1.0
10
43.7062977689951
20
-3.75167020283436
30
0.0
41
1.0
10
44.6004730656946
20
-3.70676459765424
30
0.0
41
1.0
10
45.5032087805827
20
-3.66123234108456
30
0.0
41
1.0
10
46.4139205754393
20
-3.61541694821901
30
0.0
41
1.0
10
46.4139205754393
20
-3.61541694821901
30
0.0
41
1.0
10
47.324632370296
20
-3.56960155535345
30
0.0
41
1.0
10
48.243320245121
20
-3.52350302619202
30
0.0
41
1.0
10
49.1693772365072
20
-3.47746643993684
30
0.0
41
1.0
10
49.1693772365072
20
-3.47746643993684
30
0.0
41
1.0
10
50.0954342278934
20
-3.43142985368165
30
0.0
41
1.0
10
51.0288603358407
20
-3.38545521033269
30
0.0
41
1.0
10
51.9690834107736
20
-3.33986852733
30
0.0
41
1.0
10
51.9690834107736
20
-3.33986852733
30
0.0
41
1.0
10
52.9093064857066
20
-3.29428184432731
30
0.0
41
1.0
10
53.8563265276252
20
-3.24908312167089
30
0.0
41
1.0
10
54.8093896974185
20
-3.20464323009556
30
0.0
41
1.0
10
54.8093896974185
20
-3.20464323009556
30
0.0
41
1.0
10
55.7624528672118
20
-3.16020333852023
30
0.0
41
1.0
10
56.7215591648797
20
-3.11652227802599
30
0.0
41
1.0
10
57.6865791535101
20
-3.07376392922386
30
0.0
41
1.0
10
57.6865791535101
20
-3.07376392922386
30
0.0
41
1.0
10
58.6515991421406
20
-3.03100558042174
30
0.0
41
1.0
10
59.6225328217336
20
-2.98916994331171
30
0.0
41
1.0
10
60.5968652200832
20
-2.9491404349872
30
0.0
41
1.0
10
60.5968652200832
20
-2.9491404349872
30
0.0
41
1.0
10
61.5711976184327
20
-2.90911092666268
30
0.0
41
1.0
10
62.5489287355386
20
-2.87088754712367
30
0.0
41
1.0
10
63.5426284601686
20
-2.83247555285401
30
0.0
41
1.0
10
63.5426284601686
20
-2.83247555285401
30
0.0
41
1.0
10
64.5363281847986
20
-2.79406355858436
30
0.0
41
1.0
10
65.5459965169527
20
-2.75546294958407
30
0.0
41
1.0
10
66.5558193045846
20
-2.71590543594053
30
0.0
41
1.0
10
66.5558193045846
20
-2.71590543594053
30
0.0
41
1.0
10
67.5656420922166
20
-2.67634792229698
30
0.0
41
1.0
10
68.5756193353265
20
-2.63583350401019
30
0.0
41
1.0
10
69.5890501613746
20
-2.59483089150234
30
0.0
41
1.0
10
69.5890501613746
20
-2.59483089150234
30
0.0
41
1.0
10
70.6024809874227
20
-2.55382827899449
30
0.0
41
1.0
10
71.6193653964089
20
-2.51233747226557
30
0.0
41
1.0
10
72.6378718998198
20
-2.47048529349806
30
0.0
41
1.0
10
72.6378718998198
20
-2.47048529349806
30
0.0
41
1.0
10
73.6563784032307
20
-2.42863311473055
30
0.0
41
1.0
10
74.6765070010663
20
-2.38641956392444
30
0.0
41
1.0
10
75.6977928665662
20
-2.34405050164904
30
0.0
41
1.0
10
75.6977928665662
20
-2.34405050164904
30
0.0
41
1.0
10
76.7190787320662
20
-2.30168143937364
30
0.0
41
1.0
10
77.7415218652306
20
-2.25915686562896
30
0.0
41
1.0
10
78.7642843880271
20
-2.21664698322604
30
0.0
41
1.0
10
78.7642843880271
20
-2.21664698322604
30
0.0
41
1.0
10
79.7870469108235
20
-2.17413710082313
30
0.0
41
1.0
10
80.810128823252
20
-2.13164190976199
30
0.0
41
1.0
10
81.8327866552014
20
-2.08932503285964
30
0.0
41
1.0
10
81.8327866552014
20
-2.08932503285964
30
0.0
41
1.0
10
82.8554444871508
20
-2.0470081559573
30
0.0
41
1.0
10
83.8776782386211
20
-2.00486959321375
30
0.0
41
1.0
10
84.8987149676444
20
-1.96305721770488
30
0.0
41
1.0
10
84.8987149676444
20
-1.96305721770488
30
0.0
41
1.0
10
85.9197516966677
20
-1.92124484219602
30
0.0
41
1.0
10
86.9395914032441
20
-1.87975865392184
30
0.0
41
1.0
10
87.9574663061802
20
-1.83873214769523
30
0.0
41
1.0
10
87.9574663061802
20
-1.83873214769523
30
0.0
41
1.0
10
88.9753412091163
20
-1.79770564146862
30
0.0
41
1.0
10
89.9912513084119
20
-1.75713881728957
30
0.0
41
1.0
10
91.004426198232
20
-1.71714964140357
30
0.0
41
1.0
10
91.004426198232
20
-1.71714964140357
30
0.0
41
1.0
10
92.017601088052
20
-1.67716046551757
30
0.0
41
1.0
10
93.0280407683964
20
-1.63774893792462
30
0.0
41
1.0
10
94.0349758354825
20
-1.59901732791893
30
0.0
41
1.0
10
94.0349758354825
20
-1.59901732791893
30
0.0
41
1.0
10
95.0419109025687
20
-1.56028571791323
30
0.0
41
1.0
10
96.0453413563967
20
-1.5222340254948
30
0.0
41
1.0
10
97.0444994010324
20
-1.48494869488603
30
0.0
41
1.0
10
97.0444994010324
20
-1.48494869488603
30
0.0
41
1.0
10
98.043657445668
20
-1.44766336427727
30
0.0
41
1.0
10
99.0385430811112
20
-1.41114439547817
30
0.0
41
1.0
10
100.028391562284
20
-1.37546256317368
30
0.0
41
1.0
10
100.028391562284
20
-1.37546256317368
30
0.0
41
1.0
10
101.018240043457
20
-1.33978073086918
30
0.0
41
1.0
10
102.003051370359
20
-1.30493603505928
30
0.0
41
1.0
10
102.982065086374
20
-1.27098394023987
30
0.0
41
1.0
10
102.982065086374
20
-1.27098394023987
30
0.0
41
1.0
10
103.96107880239
20
-1.23703184542046
30
0.0
41
1.0
10
104.934294907518
20
-1.20397235159155
30
0.0
41
1.0
10
105.900958536969
20
-1.17184617780431
30
0.0
41
1.0
10
105.900958536969
20
-1.17184617780431
30
0.0
41
1.0
10
106.867622166421
20
-1.13972000401706
30
0.0
41
1.0
10
107.827733320194
20
-1.10852715027149
30
0.0
41
1.0
10
108.780544014432
20
-1.07829433551579
30
0.0
41
1.0
10
108.780544014432
20
-1.07829433551579
30
0.0
41
1.0
10
109.73335470867
20
-1.04806152076009
30
0.0
41
1.0
10
110.678864943372
20
-1.01878874499427
30
0.0
41
1.0
10
111.616334905553
20
-0.990489631428945
30
0.0
41
1.0
10
111.616334905553
20
-0.990489631428945
30
0.0
41
1.0
10
112.553804867733
20
-0.962190517863622
30
0.0
41
1.0
10
113.483234557392
20
-0.934865066498793
30
0.0
41
1.0
10
114.403893613912
20
-0.908514842706888
30
0.0
41
1.0
10
114.403893613912
20
-0.908514842706888
30
0.0
41
1.0
10
115.324552670432
20
-0.882164618914983
30
0.0
41
1.0
10
116.236441093812
20
-0.856789622696001
30
0.0
41
1.0
10
117.13883924726
20
-0.83238050636916
30
0.0
41
1.0
10
117.13883924726
20
-0.83238050636916
30
0.0
41
1.0
10
118.041237400707
20
-0.807971390042318
30
0.0
41
1.0
10
118.934145284222
20
-0.784528153607618
30
0.0
41
1.0
10
119.816855243726
20
-0.762031760327167
30
0.0
41
1.0
10
119.816855243726
20
-0.762031760327167
30
0.0
41
1.0
10
120.699565203231
20
-0.739535367046716
30
0.0
41
1.0
10
121.572077238726
20
-0.717985816920515
30
0.0
41
1.0
10
122.433696923963
20
-0.697355659501139
30
0.0
41
1.0
10
122.433696923963
20
-0.697355659501139
30
0.0
41
1.0
10
123.2953166092
20
-0.676725502081763
30
0.0
41
1.0
10
124.14604394418
20
-0.657014737369213
30
0.0
41
1.0
10
124.985198961164
20
-0.638188800493489
30
0.0
41
1.0
10
124.985198961164
20
-0.638188800493489
30
0.0
41
1.0
10
125.824353978148
20
-0.619362863617766
30
0.0
41
1.0
10
126.651936677137
20
-0.601421754578869
30
0.0
41
1.0
10
127.467282765095
20
-0.584325090994956
30
0.0
41
1.0
10
127.467282765095
20
-0.584325090994956
30
0.0
41
1.0
10
128.282628853052
20
-0.567228427411043
30
0.0
41
1.0
10
129.085738329977
20
-0.550976209282113
30
0.0
41
1.0
10
129.875963779552
20
-0.535523506613957
30
0.0
41
1.0
10
129.875963779552
20
-0.535523506613957
30
0.0
41
1.0
10
130.666189229126
20
-0.520070803945801
30
0.0
41
1.0
10
131.443530651348
20
-0.505417616738419
30
0.0
41
1.0
10
132.20735869496
20
-0.491515687842848
30
0.0
41
1.0
10
132.20735869496
20
-0.491515687842848
30
0.0
41
1.0
10
132.971186738572
20
-0.477613758947276
30
0.0
41
1.0
10
133.721501403574
20
-0.464463088363516
30
0.0
41
1.0
10
134.457692578937
20
-0.452013243023577
30
0.0
41
1.0
10
134.457692578937
20
-0.452013243023577
30
0.0
41
1.0
10
135.1938837543
20
-0.439563397683639
30
0.0
41
1.0
10
135.915951440024
20
-0.427814377587522
30
0.0
41
1.0
10
136.623305927598
20
-0.416714638994018
30
0.0
41
1.0
10
136.623305927598
20
-0.416714638994018
30
0.0
41
1.0
10
137.330660415172
20
-0.405614900400513
30
0.0
41
1.0
10
138.023301704595
20
-0.39516444330962
30
0.0
41
1.0
10
138.700661639169
20
-0.385311579075143
30
0.0
41
1.0
10
138.700661639169
20
-0.385311579075143
30
0.0
41
1.0
10
139.378021573744
20
-0.375458714840665
30
0.0
41
1.0
10
140.04010015347
20
-0.366203443462604
30
0.0
41
1.0
10
140.686351909102
20
-0.35749478764567
30
0.0
41
1.0
10
140.686351909102
20
-0.35749478764567
30
0.0
41
1.0
10
141.332603664733
20
-0.348786131828736
30
0.0
41
1.0
10
141.963028596268
20
-0.340624091572929
30
0.0
41
1.0
10
142.577105042564
20
-0.332959141168955
30
0.0
41
1.0
10
142.577105042564
20
-0.332959141168955
30
0.0
41
1.0
10
143.19118148886
20
-0.325294190764981
30
0.0
41
1.0
10
143.788909449916
20
-0.31812633021284
30
0.0
41
1.0
10
144.369792176009
20
-0.31140810659985
30
0.0
41
1.0
10
144.369792176009
20
-0.31140810659985
30
0.0
41
1.0
10
144.950674902101
20
-0.30468988298686
30
0.0
41
1.0
10
145.51471239323
20
-0.298421296313022
30
0.0
41
1.0
10
146.061433894689
20
-0.292557469026956
30
0.0
41
1.0
10
146.061433894689
20
-0.292557469026956
30
0.0
41
1.0
10
146.608155396148
20
-0.286693641740891
30
0.0
41
1.0
10
147.137560907937
20
-0.281234573842599
30
0.0
41
1.0
10
147.649206727806
20
-0.27613835063974
30
0.0
41
1.0
10
147.649206727806
20
-0.27613835063974
30
0.0
41
1.0
10
148.160852547676
20
-0.27104212743688
30
0.0
41
1.0
10
148.654738675626
20
-0.266308748929454
30
0.0
41
1.0
10
149.130449497582
20
-0.261899542125727
30
0.0
41
1.0
10
149.130449497582
20
-0.261899542125727
30
0.0
41
1.0
10
149.606160319538
20
-0.257490335322001
30
0.0
41
1.0
10
150.063695835501
20
-0.253405300221974
30
0.0
41
1.0
10
150.502669493292
20
-0.249609184924206
30
0.0
41
1.0
10
150.502669493292
20
-0.249609184924206
30
0.0
41
1.0
10
150.941643151082
20
-0.245813069626437
30
0.0
41
1.0
10
151.3620549507
20
-0.242305874130925
30
0.0
41
1.0
10
151.763548436397
20
-0.239055857972215
30
0.0
41
1.0
10
151.763548436397
20
-0.239055857972215
30
0.0
41
1.0
10
152.165041922094
20
-0.235805841813505
30
0.0
41
1.0
10
152.547617093871
20
-0.232813004991596
30
0.0
41
1.0
10
152.910948198598
20
-0.230049135325368
30
0.0
41
1.0
10
152.910948198598
20
-0.230049135325368
30
0.0
41
1.0
10
153.274279303324
20
-0.227285265659141
30
0.0
41
1.0
10
153.618366341001
20
-0.224750363148595
30
0.0
41
1.0
10
153.942916231167
20
-0.222419691045576
30
0.0
41
1.0
10
153.942916231167
20
-0.222419691045576
30
0.0
41
1.0
10
154.267466121333
20
-0.220089018942557
30
0.0
41
1.0
10
154.572478863987
20
-0.217962577247063
30
0.0
41
1.0
10
154.857690661452
20
-0.216019034825949
30
0.0
41
1.0
10
154.857690661452
20
-0.216019034825949
30
0.0
41
1.0
10
155.142902458916
20
-0.214075492404835
30
0.0
41
1.0
10
155.408313311191
20
-0.2123148492581
30
0.0
41
1.0
10
155.653705011128
20
-0.210718965857864
30
0.0
41
1.0
10
155.653705011128
20
-0.210718965857864
30
0.0
41
1.0
10
155.899096711065
20
-0.209123082457628
30
0.0
41
1.0
10
156.124469258664
20
-0.207691958803891
30
0.0
41
1.0
10
156.329592490772
20
-0.206410833410476
30
0.0
41
1.0
10
156.329592490772
20
-0.206410833410476
30
0.0
41
1.0
10
156.53471572288
20
-0.20512970801706
30
0.0
41
1.0
10
156.719589639497
20
-0.203998580883964
30
0.0
41
1.0
10
156.884189826575
20
-0.203004690546138
30
0.0
41
1.0
10
156.884189826575
20
-0.203004690546138
30
0.0
41
1.0
10
157.048790013654
20
-0.202010800208311
30
0.0
41
1.0
10
157.193116471194
20
-0.201154146665754
30
0.0
41
1.0
10
157.316540577669
20
-0.200428422472176
30
0.0
41
1.0
10
157.316540577669
20
-0.200428422472176
30
0.0
41
1.0
10
157.439964684145
20
-0.199702698278599
30
0.0
41
1.0
10
157.542486439557
20
-0.199107903434
30
0.0
41
1.0
10
157.625897906377
20
-0.198626923446115
30
0.0
41
1.0
10
157.625897906377
20
-0.198626923446115
30
0.0
41
1.0
10
157.709309373197
20
-0.198145943458229
30
0.0
41
1.0
10
157.773610551424
20
-0.197778778327056
30
0.0
41
1.0
10
157.811726768802
20
-0.197561386187557
30
0.0
41
1.0
10
157.811726768802
20
-0.197561386187557
30
0.0
41
1.0
10
157.849842986179
20
-0.197343994048058
30
0.0
41
1.0
10
157.861774242706
20
-0.197276374900234
30
0.0
41
1.0
10
157.873705499233
20
-0.197208755752409
30
0.0
41
1.0
11
0.0
21
0.0
31
0.0
11
0.168172230858388
21
-0.524873107099527
31
0.0
11
0.455536851560815
21
-1.01632366377551
31
0.0
11
0.861170505705199
21
-1.474369780948
31
0.0
11
1.38396757572498
21
-1.89910017411322
31
0.0
11
2.02264480452627
21
-2.29067465380279
31
0.0
11
2.77574700440497
21
-2.64932531380022
31
0.0
11
3.6416537568444
21
-2.97535834911799
31
0.0
11
4.61858698143884
21
-3.26915641573654
31
0.0
11
5.70461923019236
21
-3.53118142581858
31
0.0
11
6.89768254541402
21
-3.76197765586645
31
0.0
11
8.19557770586769
21
-3.96217503139599
31
0.0
11
9.59598367712143
21
-4.13249244044218
31
0.0
11
11.0964670784216
21
-4.27374091984671
31
0.0
11
12.6944914800048
21
-4.38682655302946
31
0.0
11
14.3874263515174
21
-4.472752916002
31
0.0
11
16.1725554939601
21
-4.53262290988404
31
0.0
11
18.0470848039896
21
-4.56763982322889
31
0.0
11
20.0081492400339
21
-4.57910747608919
31
0.0
11
22.0528188839201
21
-4.56842930993957
31
0.0
11
24.1781040188889
21
-4.53710630322706
31
0.0
11
26.3809591741714
21
-4.48673361128416
31
0.0
11
28.6582861168847
21
-4.41899585137265
31
0.0
11
31.0069358029385
21
-4.33566097841274
31
0.0
11
33.4237093290162
21
-4.23857272408994
31
0.0
11
35.9053579565733
21
-4.1296416010437
31
0.0
11
38.4485823053038
21
-4.01083450416937
31
0.0
11
41.0500308368535
21
-3.88416297208433
31
0.0
11
43.7062977689951
21
-3.75167020283436
31
0.0
11
46.4139205754393
21
-3.61541694821901
31
0.0
11
49.1693772365072
21
-3.47746643993684
31
0.0
11
51.9690834107736
21
-3.33986852733
31
0.0
11
54.8093896974185
21
-3.20464323009556
31
0.0
11
57.6865791535101
21
-3.07376392922386
31
0.0
11
60.5968652200832
21
-2.9491404349872
31
0.0
11
63.5426284601686
21
-2.83247555285401
31
0.0
11
66.5558193045846
21
-2.71590543594053
31
0.0
11
69.5890501613746
21
-2.59483089150234
31
0.0
11
72.6378718998198
21
-2.47048529349806
31
0.0
11
75.6977928665662
21
-2.34405050164904
31
0.0
11
78.7642843880271
21
-2.21664698322604
31
0.0
11
81.8327866552014
21
-2.08932503285964
31
0.0
11
84.8987149676444
21
-1.96305721770488
31
0.0
11
87.9574663061802
21
-1.83873214769523
31
0.0
11
91.004426198232
21
-1.71714964140357
31
0.0
11
94.0349758354825
21
-1.59901732791893
31
0.0
11
97.0444994010324
21
-1.48494869488603
31
0.0
11
100.028391562284
21
-1.37546256317368
31
0.0
11
102.982065086374
21
-1.27098394023987
31
0.0
11
105.900958536969
21
-1.17184617780431
31
0.0
11
108.780544014432
21
-1.07829433551579
31
0.0
11
111.616334905553
21
-0.990489631428945
31
0.0
11
114.403893613912
21
-0.908514842706888
31
0.0
11
117.13883924726
21
-0.83238050636916
31
0.0
11
119.816855243726
21
-0.762031760327167
31
0.0
11
122.433696923963
21
-0.697355659501139
31
0.0
11
124.985198961164
21
-0.638188800493489
31
0.0
11
127.467282765095
21
-0.584325090994956
31
0.0
11
129.875963779552
21
-0.535523506613957
31
0.0
11
132.20735869496
21
-0.491515687842848
31
0.0
11
134.457692578937
21
-0.452013243023577
31
0.0
11
136.623305927598
21
-0.416714638994018
31
0.0
11
138.700661639169
21
-0.385311579075143
31
0.0
11
140.686351909102
21
-0.35749478764567
31
0.0
11
142.577105042564
21
-0.332959141168955
31
0.0
11
144.369792176009
21
-0.31140810659985
31
0.0
11
146.061433894689
21
-0.292557469026956
31
0.0
11
147.649206727806
21
-0.27613835063974
31
0.0
11
149.130449497582
21
-0.261899542125727
31
0.0
11
150.502669493292
21
-0.249609184924206
31
0.0
11
151.763548436397
21
-0.239055857972215
31
0.0
11
152.910948198598
21
-0.230049135325368
31
0.0
11
153.942916231167
21
-0.222419691045576
31
0.0
11
154.857690661452
21
-0.216019034825949
31
0.0
11
155.653705011128
21
-0.210718965857864
31
0.0
11
156.329592490772
21
-0.206410833410476
31
0.0
11
156.884189826575
21
-0.203004690546138
31
0.0
11
157.316540577669
21
-0.200428422472176
31
0.0
11
157.625897906377
21
-0.198626923446115
31
0.0
11
157.811726768802
21
-0.197561386187557
31
0.0
11
157.873705499233
21
-0.197208755752409
31
0.0
0
LWPOLYLINE
5
32
330
1C
100
AcDbEntity
67
0
8
CAMBER_LINE
62
256
6
DASHED
370
-1
48
1.0
60
0
100
AcDbPolyline
90
81
70
0
38
0.0
39
0.0
10
0.0
20
0.0
40
0.0
41
0.0
42
0.0
10
0.060867588794927
20
0.012167651920851
40
0.0
41
0.0
42
0.0
10
0.243376501769547
20
0.0485815192873902
40
0.0
41
0.0
42
0.0
10
0.547245323408569
20
0.108974907867286
40
0.0
41
0.0
42
0.0
10
0.972005510013873
20
0.192905226905407
40
0.0
41
0.0
42
0.0
10
1.51700211216496
20
0.299756826156372
40
0.0
41
0.0
42
0.0
10
2.18139478460344
20
0.428744942977851
40
0.0
41
0.0
42
0.0
10
2.96415908198455
20
0.578920734916049
40
0.0
41
0.0
42
0.0
10
3.86408803849763
20
0.749177366456238
40
0.0
41
0.0
42
0.0
10
4.87979402891988
20
0.938257112046353
40
0.0
41
0.0
42
0.0
10
6.00971090823391
20
1.14475943117093
40
0.0
41
0.0
42
0.0
10
7.25209642650983
20
1.36714996519526
40
0.0
41
0.0
42
0.0
10
8.60503491532836
20
1.60377039995291
40
0.0
41
0.0
42
0.0
10
10.0664402416027
20
1.85284913264961
40
0.0
41
0.0
42
0.0
10
11.6340590242444
20
2.11251267663545
40
0.0
41
0.0
42
0.0
10
13.3054741087141
20
2.38079773298781
40
0.0
41
0.0
42
0.0
10
15.0781082940979
20
2.65566385367622
40
0.0
41
0.0
42
0.0
10
16.9492283069652
20
2.93500661737526
40
0.0
41
0.0
42
0.0
10
18.9159490158776
20
3.21667123577323
40
0.0
41
0.0
42
0.0
10
20.9752378800526
20
3.49846650551528
40
0.0
41
0.0
42
0.0
10
23.1239196253221
20
3.7781790187339
40
0.0
41
0.0
42
0.0
10
25.3586811401742
20
4.05358754347337
40
0.0
41
0.0
42
0.0
10
27.676076584332
20
4.32247748421629
40
0.0
41
0.0
42
0.0
10
30.0725327019886
20
4.58265533217705
40
0.0
41
0.0
42
0.0
10
32.5443543315092
20
4.83196301504342
40
0.0
41
0.0
42
0.0
10
35.0877301031024
20
5.06829205642137
40
0.0
41
0.0
42
0.0
10
37.6987383156758
20
5.28959745636853
40
0.0
41
0.0
42
0.0
10
40.3733529838154
20
5.49391120607949
40
0.0
41
0.0
42
0.0
10
43.1074500455628
20
5.67935535200253
40
0.0
41
0.0
42
0.0
10
45.8968137214201
20
5.84415452740825
40
0.0
41
0.0
42
0.0
10
48.7371430147762
20
5.98664787267856
40
0.0
41
0.0
42
0.0
10
51.6240583437319
20
6.10530026932106
40
0.0
41
0.0
42
0.0
10
54.5531082940979
20
6.19871281691398
40
0.0
41
0.0
42
0.0
10
57.5197764831524
20
6.2656324868271
40
0.0
41
0.0
42
0.0
10
60.5194885235763
20
6.30496089161316
40
0.0
41
0.0
42
0.0
10
63.5476190768267
20
6.31589427306402
40
0.0
41
0.0
42
0.0
10
66.5994989850738
20
6.30767535481787
40
0.0
41
0.0
42
0.0
10
69.6704224707037
20
6.2861740899676
40
0.0
41
0.0
42
0.0
10
72.7556543922866
20
6.25120752711547
40
0.0
41
0.0
42
0.0
10
75.8504375458215
20
6.20267426282148
40
0.0
41
0.0
42
0.0
10
78.95
20
6.14055555555555
40
0.0
41
0.0
42
0.0
10
82.0495624541784
20
6.06491593152466
40
0.0
41
0.0
42
0.0
10
85.1443456077133
20
5.97590327788376
40
0.0
41
0.0
42
0.0
10
88.2295775292963
20
5.87374842199888
40
0.0
41
0.0
42
0.0
10
91.3005010149262
20
5.75876419859893
40
0.0
41
0.0
42
0.0
10
94.3523809231733
20
5.63134400981187
40
0.0
41
0.0
42
0.0
10
97.3805114764237
20
5.49195988620924
40
0.0
41
0.0
42
0.0
10
100.380223516848
20
5.34116006006326
40
0.0
41
0.0
42
0.0
10
103.346891705902
20
5.17956606503279
40
0.0
41
0.0
42
0.0
10
106.275941656268
20
5.00786937941967
40
0.0
41
0.0
42
0.0
10
109.162856985224
20
4.8268276329583
40
0.0
41
0.0
42
0.0
10
112.00318627858
20
4.63726039980011
40
0.0
41
0.0
42
0.0
10
114.792549954437
20
4.44004460291503
40
0.0
41
0.0
42
0.0
10
117.526647016185
20
4.23610955753824
40
0.0
41
0.0
42
0.0
10
120.201261684324
20
4.02643168352716
40
0.0
41
0.0
42
0.0
10
122.812269896898
20
3.81202891854738
40
0.0
41
0.0
42
0.0
10
125.355645668491
20
3.59395486586415
40
0.0
41
0.0
42
0.0
10
127.827467298011
20
3.37329271216707
40
0.0
41
0.0
42
0.0
10
130.223923415668
20
3.15114895228866
40
0.0
41
0.0
42
0.0
10
132.541318859826
20
2.9286469588848
40
0.0
41
0.0
42
0.0
10
134.776080374678
20
2.70692043611827
40
0.0
41
0.0
42
0.0
10
136.924762119947
20
2.48710679712024
40
0.0
41
0.0
42
0.0
10
138.984050984122
20
2.27034050549377
40
0.0
41
0.0
42
0.0
10
140.950771693035
20
2.05774642136523
40
0.0
41
0.0
42
0.0
10
142.821891705902
20
1.85043319248267
40
0.0
41
0.0
42
0.0
10
144.594525891286
20
1.6494867306041
40
0.0
41
0.0
42
0.0
10
146.265940975756
20
1.45596381291551
40
0.0
41
0.0
42
0.0
10
147.833559758397
20
1.27088584747106
40
0.0
41
0.0
42
0.0
10
149.294965084672
20
1.09523284066033
40
0.0
41
0.0
42
0.0
10
150.64790357349
20
0.929937603487218
40
0.0
41
0.0
42
0.0
10
151.890289091766
20
0.775880231997478
40
0.0
41
0.0
42
0.0
10
153.02020597108
20
0.633882895528151
40
0.0
41
0.0
42
0.0
10
154.035911961502
20
0.504704964580444
40
0.0
41
0.0
42
0.0
10
154.935840918015
20
0.389038508050892
40
0.0
41
0.0
42
0.0
10
155.718605215397
20
0.287504187305865
40
0.0
41
0.0
42
0.0
10
156.382997887835
20
0.200647572165718
40
0.0
41
0.0
42
0.0
10
156.927994489986
20
0.128935901291909
40
0.0
41
0.0
42
0.0
10
157.352754676591
20
0.0727553067591737
40
0.0
41
0.0
42
0.0
10
157.65662349823
20
0.0324085197619289
40
0.0
41
0.0
42
0.0
10
157.839132411205
20
0.0081130714668183
40
0.0
41
0.0
42
0.0
10
157.9
20
0.0
40
0.0
41
0.0
42
0.0
210
0.0
220
0.0
230
1.0
0
LINE
5
33
330
1C
100
AcDbEntity
67
0
8
STATION_TICKS
62
256
6
ByLayer
370
-1
48
1.0
60
0
100
AcDbLine
10
15.79
20
-7.51979269242481
30
0.0
11
15.79
21
13.4181443657933
31
0.0
39
0.0
210
0.0
220
0.0
230
1.0
0
TEXT
5
34
330
1C
100
AcDbEntity
67
0
8
ANNOTATION
62
256
6
ByLayer
370
-1
48
1.0
60
0
100
AcDbText
1
10%
10
15.79
20
-12.5197926924248
30
0.0
40
3.0
41
1.0
50
0.0
51
0.0
7
Standard
11
15.79
21
-12.5197926924248
31
0.0
210
0.0
220
0.0
230
1.0
71
0
72
0
100
AcDbText
73
0
0
LINE
5
35
330
1C
100
AcDbEntity
67
0
8
STATION_TICKS
62
256
6
ByLayer
370
-1
48
1.0
60
0
100
AcDbLine
10
31.58
20
-7.31263945740399
30
0.0
11
31.58
21
16.8889921073284
31
0.0
39
0.0
210
0.0
220
0.0
230
1.0
0
TEXT
5
36
330
1C
100
AcDbEntity
67
0
8
ANNOTATION
62
256
6
ByLayer
370
-1
48
1.0
60
0
100
AcDbText
1
20%
10
31.58
20
-12.312639457404
30
0.0
40
3.0
41
1.0
50
0.0
51
0.0
7
Standard
11
31.58
21
-12.312639457404
31
0.0
210
0.0
220
0.0
230
1.0
71
0
72
0
100
AcDbText
73
0
0
LINE
5
37
330
1C
100
AcDbEntity
67
0
8
STATION_TICKS
62
256
6
ByLayer
370
-1
48
1.0
60
0
100
AcDbLine
10
47.37
20
-6.5675513278185
30
0.0
11
47.37
21
18.4037687047756
31
0.0
39
0.0
210
0.0
220
0.0
230
1.0
0
TEXT
5
38
330
1C
100
AcDbEntity
67
0
8
ANNOTATION
62
256
6
ByLayer
370
-1
48
1.0
60
0
100
AcDbText
1
30%
10
47.37
20
-11.5675513278185
30
0.0
40
3.0
41
1.0
50
0.0
51
0.0
7
Standard
11
47.37
21
-11.5675513278185
31
0.0
210
0.0
220
0.0
230
1.0
71
0
72
0
100
AcDbText
73
0
0
LINE
5
39
330
1C
100
AcDbEntity
67
0
8
STATION_TICKS
62
256
6
ByLayer
370
-1
48
1.0
60
0
100
AcDbLine
10
63.16
20
-5.84762928402119
30
0.0
11
63.16
21
18.4762295984442
31
0.0
39
0.0
210
0.0
220
0.0
230
1.0
0
TEXT
5
3A
330
1C
100
AcDbEntity
67
0
8
ANNOTATION
62
256
6
ByLayer
370
-1
48
1.0
60
0
100
AcDbText
1
40%
10
63.16
20
-10.8476292840212
30
0.0
40
3.0
41
1.0
50
0.0
51
0.0
7
Standard
11
63.16
21
-10.8476292840212
31
0.0
210
0.0
220
0.0
230
1.0
71
0
72
0
100
AcDbText
73
0
0
LINE
5
3B
330
1C
100
AcDbEntity
67
0
8
STATION_TICKS
62
256
6
ByLayer
370
-1
48
1.0
60
0
100
AcDbLine
10
78.95
20
-5.20894104988468
30
0.0
11
78.95
21
17.5126764215484
31
0.0
39
0.0
210
0.0
220
0.0
230
1.0
0
TEXT
5
3C
330
1C
100
AcDbEntity
67
0
8
ANNOTATION
62
256
6
ByLayer
370
-1
48
1.0
60
0
100
AcDbText
1
50%
10
78.95
20
-10.2089410498847
30
0.0
40
3.0
41
1.0
50
0.0
51
0.0
7
Standard
11
78.95
21
-10.2089410498847
31
0.0
210
0.0
220
0.0
230
1.0
71
0
72
0
100
AcDbText
73
0
0
LINE
5
3D
330
1C
100
AcDbEntity
67
0
8
STATION_TICKS
62
256
6
ByLayer
370
-1
48
1.0
60
0
100
AcDbLine
10
94.74
20
-4.57229511061582
30
0.0
11
94.74
21
15.8526521737563
31
0.0
39
0.0
210
0.0
220
0.0
230
1.0
0
TEXT
5
3E
330
1C
100
AcDbEntity
67
0
8
ANNOTATION
62
256
6
ByLayer
370
-1
48
1.0
60
0
100
AcDbText
1
60%
10
94.74
20
-9.57229511061582
30
0.0
40
3.0
41
1.0
50
0.0
51
0.0
7
Standard
11
94.74
21
-9.57229511061582
31
0.0
210
0.0
220
0.0
230
1.0
71
0
72
0
100
AcDbText
73
0
0
LINE
5
3F
330
1C
100
AcDbEntity
67
0
8
STATION_TICKS
62
256
6
ByLayer
370
-1
48
1.0
60
0
100
AcDbLine
10
110.53
20
-4.02412586152915
30
0.0
11
110.53
21
13.5703056260682
31
0.0
39
0.0
210
0.0
220
0.0
230
1.0
0
TEXT
5
40
330
1C
100
AcDbEntity
67
0
8
ANNOTATION
62
256
6
ByLayer
370
-1
48
1.0
60
0
100
AcDbText
1
70%
10
110.53
20
-9.02412586152916
30
0.0
40
3.0
41
1.0
50
0.0
51
0.0
7
Standard
11
110.53
21
-9.02412586152916
31
0.0
210
0.0
220
0.0
230
1.0
71
0
72
0
100
AcDbText
73
0
0
LINE
5
41
330
1C
100
AcDbEntity
67
0
8
STATION_TICKS
62
256
6
ByLayer
370
-1
48
1.0
60
0
100
AcDbLine
10
126.32
20
-3.6092222783818
30
0.0
11
126.32
21
10.7066230761214
31
0.0
39
0.0
210
0.0
220
0.0
230
1.0
0
TEXT
5
42
330
1C
100
AcDbEntity
67
0
8
ANNOTATION
62
256
6
ByLayer
370
-1
48
1.0
60
0
100
AcDbText
1
80%
10
126.32
20
-8.6092222783818
30
0.0
40
3.0
41
1.0
50
0.0
51
0.0
7
Standard
11
126.32
21
-8.6092222783818
31
0.0
210
0.0
220
0.0
230
1.0
71
0
72
0
100
AcDbText
73
0
0
LINE
5
43
330
1C
100
AcDbEntity
67
0
8
STATION_TICKS
62
256
6
ByLayer
370
-1
48
1.0
60
0
100
AcDbLine
10
142.11
20
-3.33902060101367
30
0.0
11
142.11
21
7.26074416515101
31
0.0
39
0.0
210
0.0
220
0.0
230
1.0
0
TEXT
5
44
330
1C
100
AcDbEntity
67
0
8
ANNOTATION
62
256
6
ByLayer
370
-1
48
1.0
60
0
100
AcDbText
1
90%
10
142.11
20
-8.33902060101367
30
0.0
40
3.0
41
1.0
50
0.0
51
0.0
7
Standard
11
142.11
21
-8.33902060101367
31
0.0
210
0.0
220
0.0
230
1.0
71
0
72
0
100
AcDbText
73
0
0
LINE
5
45
330
1C
100
AcDbEntity
67
0
8
DIMENSIONS
62
256
6
ByLayer
370
-1
48
1.0
60
0
100
AcDbLine
10
48.3174
20
15.4511809503081
30
0.0
11
48.3174
21
-3.52012023830596
31
0.0
39
0.0
210
0.0
220
0.0
230
1.0
0
LINE
5
46
330
1C
100
AcDbEntity
67
0
8
DIMENSIONS
62
256
6
ByLayer
370
-1
48
1.0
60
0
100
AcDbLine
10
48.3174
20
5.96553035600104
30
0.0
11
63.3174
21
5.96553035600104
31
0.0
39
0.0
210
0.0
220
0.0
230
1.0
0
TEXT
5
47
330
1C
100
AcDbEntity
67
0
8
DIMENSIONS
62
256
6
ByLayer
370
-1
48
1.0
60
0
100
AcDbText
1
t=18.93mm (12.0%c)
10
66.3174
20
7.96553035600104
30
0.0
40
3.0
41
1.0
50
0.0
51
0.0
7
Standard
11
66.3174
21
7.96553035600104
31
0.0
210
0.0
220
0.0
230
1.0
71
0
72
0
100
AcDbText
73
0
0
LINE
5
48
330
1C
100
AcDbEntity
67
0
8
DIMENSIONS
62
256
6
ByLayer
370
-1
48
1.0
60
0
100
AcDbLine
10
63.4758
20
0.0
30
0.0
11
63.4758
21
6.316
31
0.0
39
0.0
210
0.0
220
0.0
230
1.0
0
LINE
5
49
330
1C
100
AcDbEntity
67
0
8
DIMENSIONS
62
256
6
ByLayer
370
-1
48
1.0
60
0
100
AcDbLine
10
63.4758
20
3.158
30
0.0
11
48.4758
21
3.158
31
0.0
39
0.0
210
0.0
220
0.0
230
1.0
0
TEXT
5
4A
330
1C
100
AcDbEntity
67
0
8
DIMENSIONS
62
256
6
ByLayer
370
-1
48
1.0
60
0
100
AcDbText
1
f=6.32mm (4.0%c)
10
45.4758
20
5.158
30
0.0
40
3.0
41
1.0
50
0.0
51
0.0
7
Standard
11
45.4758
21
5.158
31
0.0
210
0.0
220
0.0
230
1.0
71
0
72
0
100
AcDbText
73
0
0
CIRCLE
5
4B
330
1C
100
AcDbEntity
67
0
8
DIMENSIONS
62
256
6
DASHED
370
-1
48
1.0
60
0
100
AcDbCircle
10
0.0
20
0.0
30
0.0
40
2.974
39
0.0
210
0.0
220
0.0
230
1.0
0
TEXT
5
4C
330
1C
100
AcDbEntity
67
0
8
ANNOTATION
62
256
6
ByLayer
370
-1
48
1.0
60
0
100
AcDbText
1
r_LE=2.974mm
10
5.0
20
23.451180950308
30
0.0
40
3.5
41
1.0
50
0.0
51
0.0
7
Standard
11
5.0
21
23.451180950308
31
0.0
210
0.0
220
0.0
230
1.0
71
0
72
0
100
AcDbText
73
0
0
LINE
5
4D
330
1C
100
AcDbEntity
67
0
8
CENTERLINE
62
256
6
ByLayer
370
-1
48
1.0
60
0
100
AcDbLine
10
0.0
20
0.0
30
0.0
11
157.9
21
0.0
31
0.0
39
0.0
210
0.0
220
0.0
230
1.0
0
TEXT
5
4E
330
1C
100
AcDbEntity
67
0
8
ANNOTATION
62
256
6
ByLayer
370
-1
48
1.0
60
0
100
AcDbText
1
LE
10
-4.0
20
7.0
30
0.0
40
5.0
41
1.0
50
0.0
51
0.0
7
Standard
11
-4.0
21
7.0
31
0.0
210
0.0
220
0.0
230
1.0
71
0
72
0
100
AcDbText
73
0
0
TEXT
5
4F
330
1C
100
AcDbEntity
67
0
8
ANNOTATION
62
256
6
ByLayer
370
-1
48
1.0
60
0
100
AcDbText
1
TE
10
160.9
20
7.0
30
0.0
40
5.0
41
1.0
50
0.0
51
0.0
7
Standard
11
160.9
21
7.0
31
0.0
210
0.0
220
0.0
230
1.0
71
0
72
0
100
AcDbText
73
0
0
LINE
5
50
330
1C
100
AcDbEntity
67
0
8
DIMENSIONS
62
256
6
ByLayer
370
-1
48
1.0
60
0
100
AcDbLine
10
0.0
20
-28.422
30
0.0
11
157.9
21
-28.422
31
0.0
39
0.0
210
0.0
220
0.0
230
1.0
0
LINE
5
51
330
1C
100
AcDbEntity
67
0
8
DIMENSIONS
62
256
6
ByLayer
370
-1
48
1.0
60
0
100
AcDbLine
10
0.0
20
-34.422
30
0.0
11
0.0
21
-22.422
31
0.0
39
0.0
210
0.0
220
0.0
230
1.0
0
LINE
5
52
330
1C
100
AcDbEntity
67
0
8
DIMENSIONS
62
256
6
ByLayer
370
-1
48
1.0
60
0
100
AcDbLine
10
157.9
20
-34.422
30
0.0
11
157.9
21
-22.422
31
0.0
39
0.0
210
0.0
220
0.0
230
1.0
0
TEXT
5
53
330
1C
100
AcDbEntity
67
0
8
DIMENSIONS
62
256
6
ByLayer
370
-1
48
1.0
60
0
100
AcDbText
1
Chord=157.9mm
10
60.75
20
-39.422
30
0.0
40
5.0
41
1.0
50
0.0
51
0.0
7
Standard
11
60.75
21
-39.422
31
0.0
210
0.0
220
0.0
230
1.0
71
0
72
0
100
AcDbText
73
0
0
TEXT
5
54
330
1C
100
AcDbEntity
67
0
8
ANNOTATION
62
256
6
ByLayer
370
-1
48
1.0
60
0
100
AcDbText
1
Blade Angle B=28.0deg
10
162.9
20
-8.0
30
0.0
40
5.0
41
1.0
50
0.0
51
0.0
7
Standard
11
162.9
21
-8.0
31
0.0
210
0.0
220
0.0
230
1.0
71
0
72
0
100
AcDbText
73
0
0
TEXT
5
55
330
1C
100
AcDbEntity
67
0
8
ANNOTATION
62
256
6
ByLayer
370
-1
48
1.0
60
0
100
AcDbText
1
Profile: NACA 4412
10
162.9
20
-20.0
30
0.0
40
5.0
41
1.0
50
0.0
51
0.0
7
Standard
11
162.9
21
-20.0
31
0.0
210
0.0
220
0.0
230
1.0
71
0
72
0
100
AcDbText
73
0
0
LINE
5
56
330
1C
100
AcDbEntity
67
0
8
ANNOTATION
62
256
6
ByLayer
370
-1
48
1.0
60
0
100
AcDbLine
10
-40.0
20
-8.0
30
0.0
11
-5.0
21
-8.0
31
0.0
39
0.0
210
0.0
220
0.0
230
1.0
0
TEXT
5
57
330
1C
100
AcDbEntity
67
0
8
ANNOTATION
62
256
6
ByLayer
370
-1
48
1.0
60
0
100
AcDbText
1
V_inf
10
-45.0
20
-4.0
30
0.0
40
4.5
41
1.0
50
0.0
51
0.0
7
Standard
11
-45.0
21
-4.0
31
0.0
210
0.0
220
0.0
230
1.0
71
0
72
0
100
AcDbText
73
0
0
TEXT
5
58
330
1C
100
AcDbEntity
67
0
8
TITLE_BLOCK
62
256
6
ByLayer
370
-1
48
1.0
60
0
100
AcDbText
1
DWG-003  BLADE AEROFOIL SECTION (NACA 4412)
10
0.0
20
-98.16
30
0.0
40
6.0
41
1.0
50
0.0
51
0.0
7
Standard
11
0.0
21
-98.16
31
0.0
210
0.0
220
0.0
230
1.0
71
0
72
0
100
AcDbText
73
0
0
TEXT
5
59
330
1C
100
AcDbEntity
67
0
8
ANNOTATION
62
256
6
ByLayer
370
-1
48
1.0
60
0
100
AcDbText
1
Chord=157.9mm  B=28.0deg  Span=330.0mm
10
0.0
20
-108.16
30
0.0
40
4.5
41
1.0
50
0.0
51
0.0
7
Standard
11
0.0
21
-108.16
31
0.0
210
0.0
220
0.0
230
1.0
71
0
72
0
100
AcDbText
73
0
0
TEXT
5
5A
330
1C
100
AcDbEntity
67
0
8
ANNOTATION
62
256
6
ByLayer
370
-1
48
1.0
60
0
100
AcDbText
1
AxialFlow Designer  |  For Engineering Reference Only
10
0.0
20
-118.16
30
0.0
40
3.5
41
1.0
50
0.0
51
0.0
7
Standard
11
0.0
21
-118.16
31
0.0
210
0.0
220
0.0
230
1.0
71
0
72
0
100
AcDbText
73
0
0
VIEWPORT
5
5F
330
5B
100
AcDbEntity
67
1
8
0
62
256
6
ByLayer
370
-1
48
1.0
60
0
100
AcDbViewport
10
0.0
20
0.0
30
0.0
40
297.0
41
210.0
68
1
69
1
12
50.0
22
100.0
13
0.0
23
0.0
14
10.0
24
10.0
15
10.0
25
10.0
16
0.0
26
0.0
36
1.0
17
0.0
27
0.0
37
0.0
42
50.0
43
0.0
44
0.0
45
250.0
50
0.0
51
0.0
72
1000
90
819232
110
0.0
120
0.0
130
0.0
111
1.0
121
0.0
131
0.0
112
0.0
122
1.0
132
0.0
0
ENDSEC
0
SECTION
2
OBJECTS
0
DICTIONARY
5
65
330
0
100
AcDbDictionary
280
1
281
1
3
ACAD_GROUP
350
12
3
ACAD_LAYOUT
350
5E
3
ACAD_DGNDEFINITIONS
350
F
3
ACAD_DWFDEFINITIONS
350
10
3
ACAD_PDFDEFINITIONS
350
11
3
ACAD_MLINESTYLE
350
B
3
ACAD_IMAGE_DICT
350
E
3
ACAD_IMAGE_VARS
350
21
0
DICTIONARY
5
12
330
65
100
AcDbDictionary
280
1
281
1
0
DICTIONARY
5
5E
330
65
100
AcDbDictionary
280
1
281
1
3
Model
350
20
3
Layout1
350
60
0
DICTIONARY
5
F
330
65
100
AcDbDictionary
280
1
281
1
0
DICTIONARY
5
10
330
65
100
AcDbDictionary
280
1
281
1
0
DICTIONARY
5
11
330
65
100
AcDbDictionary
280
1
281
1
0
DICTIONARY
5
B
330
65
100
AcDbDictionary
280
1
281
1
3
Standard
350
1B
0
DICTIONARY
5
E
330
65
100
AcDbDictionary
280
1
281
1
0
DICTIONARY
5
6
330
5
100
AcDbDictionary
280
1
281
1
3
ACAD_LAYERSTATES
360
66
0
DICTIONARY
5
66
330
6
100
AcDbDictionary
280
1
281
1
0
LAYOUT
5
20
330
5E
100
AcDbPlotSettings
1

2
none_device
4
ISO_A4_(210.00_x_297.00_MM)
6

40
7.5
41
20.0
42
7.5
43
20.0
44
210.0
45
297.0
46
0.0
47
0.0
48
0.0
49
0.0
140
0.0
141
0.0
142
1.0
143
1.0
70
11952
72
1
73
1
74
1
7

75
0
76
0
77
2
78
300
147
1.0
148
0.0
149
0.0
100
AcDbLayout
1
Model
71
0
10
-20.0
20
-7.5
11
277.0
21
202.5
12
0.0
22
0.0
32
0.0
14
25.7
24
19.5
34
0.0
15
231.3
25
175.5
35
0.0
146
0.0
13
0.0
23
0.0
33
0.0
16
1.0
26
0.0
36
0.0
17
0.0
27
1.0
37
0.0
76
0
330
1C
0
LAYOUT
5
60
330
5E
100
AcDbPlotSettings
1

2
none_device
4
ISO_A4_(210.00_x_297.00_MM)
6

40
7.5
41
20.0
42
7.5
43
20.0
44
210.0
45
297.0
46
0.0
47
0.0
48
0.0
49
0.0
140
0.0
141
0.0
142
1.0
143
1.0
70
688
72
1
73
1
74
1
7

75
0
76
0
77
2
78
300
147
1.0
148
0.0
149
0.0
100
AcDbLayout
1
Layout1
71
1
10
-20.0
20
-7.5
11
277.0
21
202.5
12
0.0
22
0.0
32
0.0
14
25.7
24
19.5
34
0.0
15
231.3
25
175.5
35
0.0
146
0.0
13
0.0
23
0.0
33
0.0
16
1.0
26
0.0
36
0.0
17
0.0
27
1.0
37
0.0
76
0
330
5B
0
MLINESTYLE
5
1B
330
B
100
AcDbMlineStyle
2
Standard
70
0
3

62
256
51
90.0
52
90.0
71
2
49
0.5
62
256
6
ByLayer
49
-0.5
62
256
6
ByLayer
0
RASTERVARIABLES
5
21
330
E
100
AcDbRasterVariables
90
0
70
1
71
1
72
0
0
ENDSEC
0
EOF
