999
DXF file generated by netDxf https://github.com/haplokuon/netDxf, Copyright(C) Daniel Carvajal, Licensed under MIT
0
SECTION
2
HEADER
9
$ACADVER
1
AC1015
9
$DWGCODEPAGE
3
ANSI_1252
9
$HANDSEED
5
67
9
$ANGBASE
50
0.0
9
$ANGDIR
70
0
9
$ATTMODE
70
1
9
$AUNITS
70
0
9
$AUPREC
70
0
9
$CECOLOR
62
256
9
$CELTSCALE
40
1.0
9
$CELTYPE
6
ByLayer
9
$CELWEIGHT
370
-1
9
$CLAYER
8
0
9
$CMLJUST
70
0
9
$CMLSCALE
40
20.0
9
$CMLSTYLE
2
Standard
9
$DIMSTYLE
2
Standard
9
$TEXTSIZE
40
2.5
9
$TEXTSTYLE
7
Standard
9
$LUNITS
70
2
9
$LUPREC
70
4
9
$MIRRTEXT
70
0
9
$EXTNAMES
290
1
9
$INSBASE
10
0.0
20
0.0
30
0.0
9
$INSUNITS
70
0
9
$LTSCALE
40
1.0
9
$LWDISPLAY
290
0
9
$PDMODE
70
0
9
$PDSIZE
40
0.0
9
$PLINEGEN
70
0
9
$PSLTSCALE
70
1
9
$SPLINESEGS
70
8
9
$SURFU
70
6
9
$SURFV
70
6
9
$TDCREATE
40
2461235.41205016
9
$TDUCREATE
40
2461235.1828835
9
$TDUPDATE
40
2461235.41205016
9
$TDUUPDATE
40
2461235.1828835
9
$TDINDWG
40
0.0
9
$UCSORG
10
0.0
20
0.0
30
0.0
9
$UCSXDIR
10
1.0
20
0.0
30
0.0
9
$UCSYDIR
10
0.0
20
1.0
30
0.0
9
$DIMADEC
70
0
9
$DIMALT
70
0
9
$DIMALTD
70
2
9
$DIMALTF
40
25.4
9
$DIMALTRND
40
0.0
9
$DIMALTTD
70
2
9
$DIMALTTZ
70
0
9
$DIMALTU
70
2
9
$DIMALTZ
70
0
9
$DIMAPOST
1

9
$DIMATFIT
70
3
9
$DIMAUNIT
70
0
9
$DIMASZ
40
0.18
9
$DIMAZIN
70
0
9
$DIMSAH
70
0
9
$DIMBLK
1

9
$DIMLDRBLK
1

9
$DIMCEN
40
0.09
9
$DIMCLRD
70
0
9
$DIMCLRE
70
0
9
$DIMCLRT
70
0
9
$DIMDEC
70
4
9
$DIMDLE
40
0.0
9
$DIMDLI
40
0.38
9
$DIMDSEP
70
46
9
$DIMEXE
40
0.18
9
$DIMEXO
40
0.0625
9
$DIMFXLON
70
0
9
$DIMFXL
40
1.0
9
$DIMGAP
40
0.09
9
$DIMJUST
70
0
9
$DIMLFAC
40
1.0
9
$DIMLUNIT
70
2
9
$DIMLWD
70
-2
9
$DIMLWE
70
-2
9
$DIMPOST
1

9
$DIMRND
40
0.0
9
$DIMSCALE
40
1.0
9
$DIMSD1
70
0
9
$DIMSD2
70
0
9
$DIMSE1
70
0
9
$DIMSE2
70
0
9
$DIMSOXD
70
0
9
$DIMTAD
70
0
9
$DIMTDEC
70
4
9
$DIMTFAC
40
1.0
9
$DIMTIH
70
0
9
$DIMTIX
70
0
9
$DIMTM
40
0.0
9
$DIMTMOVE
70
0
9
$DIMTOFL
70
0
9
$DIMTOH
70
0
9
$DIMTOL
70
0
9
$DIMLIM
70
0
9
$DIMTOLJ
70
1
9
$DIMTP
40
0.0
9
$DIMTXT
40
0.18
9
$DIMTXTDIRECTION
70
0
9
$DIMTZIN
70
0
9
$DIMZIN
70
0
9
$DIMFRAC
70
0
9
$DIMLTYPE
6
ByBlock
9
$DIMLTEX1
6
ByBlock
9
$DIMLTEX2
6
ByBlock
0
ENDSEC
0
SECTION
2
CLASSES
0
CLASS
1
RASTERVARIABLES
2
AcDbRasterVariables
3
ISM
90
0
280
0
281
0
0
ENDSEC
0
SECTION
2
TABLES
0
TABLE
2
APPID
5
4
330
0
100
AcDbSymbolTable
70
5
0
APPID
5
19
330
4
100
AcDbSymbolTableRecord
100
AcDbRegAppTableRecord
2
ACAD
70
0
0
APPID
5
61
330
4
100
AcDbSymbolTableRecord
100
AcDbRegAppTableRecord
2
AcCmTransparency
70
0
0
APPID
5
62
330
4
100
AcDbSymbolTableRecord
100
AcDbRegAppTableRecord
2
AcAecLayerStandard
70
0
0
APPID
5
63
330
4
100
AcDbSymbolTableRecord
100
AcDbRegAppTableRecord
2
GradientColor1ACI
70
0
0
APPID
5
64
330
4
100
AcDbSymbolTableRecord
100
AcDbRegAppTableRecord
2
GradientColor2ACI
70
0
0
ENDTAB
0
TABLE
2
VPORT
5
1
330
0
100
AcDbSymbolTable
70
1
0
VPORT
5
2
330
1
100
AcDbSymbolTableRecord
100
AcDbViewportTableRecord
2
*Active
70
0
10
0.0
20
0.0
11
1.0
21
1.0
12
0.0
22
0.0
13
0.0
23
0.0
14
0.5
24
0.5
15
10.0
25
10.0
16
0.0
26
0.0
36
1.0
17
0.0
27
0.0
37
0.0
40
10.0
41
1.0
75
0
76
1
0
ENDTAB
0
TABLE
2
LTYPE
5
7
330
0
100
AcDbSymbolTable
70
5
0
LTYPE
5
15
330
7
100
AcDbSymbolTableRecord
100
AcDbLinetypeTableRecord
2
Continuous
70
0
3
Solid line
72
65
73
0
40
0.0
0
LTYPE
5
16
330
7
100
AcDbSymbolTableRecord
100
AcDbLinetypeTableRecord
2
ByLayer
70
0
3

72
65
73
0
40
0.0
0
LTYPE
5
17
330
7
100
AcDbSymbolTableRecord
100
AcDbLinetypeTableRecord
2
ByBlock
70
0
3

72
65
73
0
40
0.0
0
LTYPE
5
22
330
7
100
AcDbSymbolTableRecord
100
AcDbLinetypeTableRecord
2
DASHED
70
0
3
Dashed
72
65
73
2
40
8.0
49
6.0
74
0
49
-2.0
74
0
0
LTYPE
5
23
330
7
100
AcDbSymbolTableRecord
100
AcDbLinetypeTableRecord
2
CENTER
70
0
3
Center
72
65
73
4
40
20.0
49
12.0
74
0
49
-3.0
74
0
49
2.0
74
0
49
-3.0
74
0
0
ENDTAB
0
TABLE
2
LAYER
5
5
102
{ACAD_XDICTIONARY
360
6
102
}
330
0
100
AcDbSymbolTable
70
13
0
LAYER
5
14
330
5
100
AcDbSymbolTableRecord
100
AcDbLayerTableRecord
2
0
70
0
62
7
6
Continuous
290
1
370
-3
390
0
0
LAYER
5
24
330
5
100
AcDbSymbolTableRecord
100
AcDbLayerTableRecord
2
CASING
70
0
62
8
6
Continuous
290
1
370
-3
390
0
0
LAYER
5
25
330
5
100
AcDbSymbolTableRecord
100
AcDbLayerTableRecord
2
HUB
70
0
62
9
6
Continuous
290
1
370
-3
390
0
0
LAYER
5
26
330
5
100
AcDbSymbolTableRecord
100
AcDbLayerTableRecord
2
BLADES
70
0
62
5
6
Continuous
290
1
370
-3
390
0
0
LAYER
5
27
330
5
100
AcDbSymbolTableRecord
100
AcDbLayerTableRecord
2
CENTERLINE
70
0
62
1
6
Continuous
290
1
370
-3
390
0
0
LAYER
5
28
330
5
100
AcDbSymbolTableRecord
100
AcDbLayerTableRecord
2
TIP_DIAMETER
70
0
62
2
6
Continuous
290
1
370
-3
390
0
0
LAYER
5
29
330
5
100
AcDbSymbolTableRecord
100
AcDbLayerTableRecord
2
TIP_CLEARANCE
70
0
62
2
6
Continuous
290
1
370
-3
390
0
0
LAYER
5
2A
330
5
100
AcDbSymbolTableRecord
100
AcDbLayerTableRecord
2
BLADE_SURFACE
70
0
62
5
6
Continuous
290
1
370
-3
390
0
0
LAYER
5
2B
330
5
100
AcDbSymbolTableRecord
100
AcDbLayerTableRecord
2
CAMBER_LINE
70
0
62
4
6
Continuous
290
1
370
-3
390
0
0
LAYER
5
2C
330
5
100
AcDbSymbolTableRecord
100
AcDbLayerTableRecord
2
STATION_TICKS
70
0
62
9
6
Continuous
290
1
370
-3
390
0
0
LAYER
5
2D
330
5
100
AcDbSymbolTableRecord
100
AcDbLayerTableRecord
2
DIMENSIONS
70
0
62
7
6
Continuous
290
1
370
-3
390
0
0
LAYER
5
2E
330
5
100
AcDbSymbolTableRecord
100
AcDbLayerTableRecord
2
ANNOTATION
70
0
62
3
6
Continuous
290
1
370
-3
390
0
0
LAYER
5
2F
330
5
100
AcDbSymbolTableRecord
100
AcDbLayerTableRecord
2
TITLE_BLOCK
70
0
62
5
6
Continuous
290
1
370
-3
390
0
0
ENDTAB
0
TABLE
2
STYLE
5
8
330
0
100
AcDbSymbolTable
70
1
0
STYLE
5
18
330
8
100
AcDbSymbolTableRecord
100
AcDbTextStyleTableRecord
2
Standard
3
simplex.shx
70
0
71
0
40
0.0
41
1.0
42
0.0
50
0.0
0
ENDTAB
0
TABLE
2
DIMSTYLE
5
A
330
0
100
AcDbSymbolTable
70
1
100
AcDbDimStyleTable
0
DIMSTYLE
105
1A
330
A
100
AcDbSymbolTableRecord
100
AcDbDimStyleTableRecord
2
Standard
3

4

40
1.0
41
0.18
42
0.0625
43
0.38
44
0.18
45
0.0
46
0.0
47
0.0
48
0.0
49
1.0
70
0
71
0
72
0
73
0
74
0
75
0
76
0
77
0
78
0
79
0
140
0.18
141
0.09
143
25.4
144
1.0
146
1.0
147
0.09
148
0.0
170
0
171
2
172
0
174
0
175
0
176
0
177
0
178
0
179
0
271
4
272
4
273
2
274
2
275
0
276
0
277
2
278
46
279
0
280
0
281
0
282
0
283
1
284
0
285
0
286
0
289
3
290
0
294
0
340
18
173
0
345
17
346
17
347
17
371
-2
372
-2
0
ENDTAB
0
TABLE
2
VIEW
5
3
330
0
100
AcDbSymbolTable
70
0
0
ENDTAB
0
TABLE
2
UCS
5
C
330
0
100
AcDbSymbolTable
70
0
0
ENDTAB
0
TABLE
2
BLOCK_RECORD
5
D
330
0
100
AcDbSymbolTable
70
2
0
BLOCK_RECORD
5
1C
330
D
100
AcDbSymbolTableRecord
100
AcDbBlockTableRecord
2
*Model_Space
340
20
0
BLOCK_RECORD
5
5B
330
D
100
AcDbSymbolTableRecord
100
AcDbBlockTableRecord
2
*Paper_Space
340
60
0
ENDTAB
0
ENDSEC
0
SECTION
2
BLOCKS
0
BLOCK
5
1E
330
1C
100
AcDbEntity
67
0
8
0
100
AcDbBlockBegin
2
*Model_Space
70
0
10
0.0
20
0.0
30
0.0
3
*Model_Space
4

0
ENDBLK
5
1D
330
1C
100
AcDbEntity
8
0
100
AcDbBlockEnd
0
BLOCK
5
5D
330
5B
100
AcDbEntity
67
1
8
0
100
AcDbBlockBegin
2
*Paper_Space
70
0
10
0.0
20
0.0
30
0.0
3
*Paper_Space
4

0
ENDBLK
5
5C
330
5B
100
AcDbEntity
8
0
100
AcDbBlockEnd
0
ENDSEC
0
SECTION
2
ENTITIES
0
SPLINE
5
30
330
1C
100
AcDbEntity
67
0
8
BLADE_SURFACE
62
256
6
ByLayer
370
-1
48
1.0
60
0
100
AcDbSpline
70
36
71
3
42
0.0000001
43
0.0000001
44
0.0000000001
40
0.0
40
0.0
40
0.0
40
0.0
40
0.0123456790123457
40
0.0123456790123457
40
0.0123456790123457
40
0.0123456790123457
40
0.0246913580246914
40
0.0246913580246914
40
0.0246913580246914
40
0.0246913580246914
40
0.037037037037037
40
0.037037037037037
40
0.037037037037037
40
0.037037037037037
40
0.0493827160493827
40
0.0493827160493827
40
0.0493827160493827
40
0.0493827160493827
40
0.0617283950617284
40
0.0617283950617284
40
0.0617283950617284
40
0.0617283950617284
40
0.0740740740740741
40
0.0740740740740741
40
0.0740740740740741
40
0.0740740740740741
40
0.0864197530864197
40
0.0864197530864197
40
0.0864197530864197
40
0.0864197530864197
40
0.0987654320987654
40
0.0987654320987654
40
0.0987654320987654
40
0.0987654320987654
40
0.111111111111111
40
0.111111111111111
40
0.111111111111111
40
0.111111111111111
40
0.123456790123457
40
0.123456790123457
40
0.123456790123457
40
0.123456790123457
40
0.135802469135802
40
0.135802469135802
40
0.135802469135802
40
0.135802469135802
40
0.148148148148148
40
0.148148148148148
40
0.148148148148148
40
0.148148148148148
40
0.160493827160494
40
0.160493827160494
40
0.160493827160494
40
0.160493827160494
40
0.172839506172839
40
0.172839506172839
40
0.172839506172839
40
0.172839506172839
40
0.185185185185185
40
0.185185185185185
40
0.185185185185185
40
0.185185185185185
40
0.197530864197531
40
0.197530864197531
40
0.197530864197531
40
0.197530864197531
40
0.209876543209877
40
0.209876543209877
40
0.209876543209877
40
0.209876543209877
40
0.222222222222222
40
0.222222222222222
40
0.222222222222222
40
0.222222222222222
40
0.234567901234568
40
0.234567901234568
40
0.234567901234568
40
0.234567901234568
40
0.246913580246914
40
0.246913580246914
40
0.246913580246914
40
0.246913580246914
40
0.259259259259259
40
0.259259259259259
40
0.259259259259259
40
0.259259259259259
40
0.271604938271605
40
0.271604938271605
40
0.271604938271605
40
0.271604938271605
40
0.283950617283951
40
0.283950617283951
40
0.283950617283951
40
0.283950617283951
40
0.296296296296296
40
0.296296296296296
40
0.296296296296296
40
0.296296296296296
40
0.308641975308642
40
0.308641975308642
40
0.308641975308642
40
0.308641975308642
40
0.320987654320988
40
0.320987654320988
40
0.320987654320988
40
0.320987654320988
40
0.333333333333333
40
0.333333333333333
40
0.333333333333333
40
0.333333333333333
40
0.345679012345679
40
0.345679012345679
40
0.345679012345679
40
0.345679012345679
40
0.358024691358025
40
0.358024691358025
40
0.358024691358025
40
0.358024691358025
40
0.37037037037037
40
0.37037037037037
40
0.37037037037037
40
0.37037037037037
40
0.382716049382716
40
0.382716049382716
40
0.382716049382716
40
0.382716049382716
40
0.395061728395062
40
0.395061728395062
40
0.395061728395062
40
0.395061728395062
40
0.407407407407407
40
0.407407407407407
40
0.407407407407407
40
0.407407407407407
40
0.419753086419753
40
0.419753086419753
40
0.419753086419753
40
0.419753086419753
40
0.432098765432099
40
0.432098765432099
40
0.432098765432099
40
0.432098765432099
40
0.444444444444444
40
0.444444444444444
40
0.444444444444444
40
0.444444444444444
40
0.45679012345679
40
0.45679012345679
40
0.45679012345679
40
0.45679012345679
40
0.469135802469136
40
0.469135802469136
40
0.469135802469136
40
0.469135802469136
40
0.481481481481481
40
0.481481481481481
40
0.481481481481481
40
0.481481481481481
40
0.493827160493827
40
0.493827160493827
40
0.493827160493827
40
0.493827160493827
40
0.506172839506173
40
0.506172839506173
40
0.506172839506173
40
0.506172839506173
40
0.518518518518518
40
0.518518518518518
40
0.518518518518518
40
0.518518518518518
40
0.530864197530864
40
0.530864197530864
40
0.530864197530864
40
0.530864197530864
40
0.54320987654321
40
0.54320987654321
40
0.54320987654321
40
0.54320987654321
40
0.555555555555556
40
0.555555555555556
40
0.555555555555556
40
0.555555555555556
40
0.567901234567901
40
0.567901234567901
40
0.567901234567901
40
0.567901234567901
40
0.580246913580247
40
0.580246913580247
40
0.580246913580247
40
0.580246913580247
40
0.592592592592593
40
0.592592592592593
40
0.592592592592593
40
0.592592592592593
40
0.604938271604938
40
0.604938271604938
40
0.604938271604938
40
0.604938271604938
40
0.617283950617284
40
0.617283950617284
40
0.617283950617284
40
0.617283950617284
40
0.62962962962963
40
0.62962962962963
40
0.62962962962963
40
0.62962962962963
40
0.641975308641975
40
0.641975308641975
40
0.641975308641975
40
0.641975308641975
40
0.654320987654321
40
0.654320987654321
40
0.654320987654321
40
0.654320987654321
40
0.666666666666667
40
0.666666666666667
40
0.666666666666667
40
0.666666666666667
40
0.679012345679012
40
0.679012345679012
40
0.679012345679012
40
0.679012345679012
40
0.691358024691358
40
0.691358024691358
40
0.691358024691358
40
0.691358024691358
40
0.703703703703704
40
0.703703703703704
40
0.703703703703704
40
0.703703703703704
40
0.716049382716049
40
0.716049382716049
40
0.716049382716049
40
0.716049382716049
40
0.728395061728395
40
0.728395061728395
40
0.728395061728395
40
0.728395061728395
40
0.740740740740741
40
0.740740740740741
40
0.740740740740741
40
0.740740740740741
40
0.753086419753086
40
0.753086419753086
40
0.753086419753086
40
0.753086419753086
40
0.765432098765432
40
0.765432098765432
40
0.765432098765432
40
0.765432098765432
40
0.777777777777778
40
0.777777777777778
40
0.777777777777778
40
0.777777777777778
40
0.790123456790123
40
0.790123456790123
40
0.790123456790123
40
0.790123456790123
40
0.802469135802469
40
0.802469135802469
40
0.802469135802469
40
0.802469135802469
40
0.814814814814815
40
0.814814814814815
40
0.814814814814815
40
0.814814814814815
40
0.82716049382716
40
0.82716049382716
40
0.82716049382716
40
0.82716049382716
40
0.839506172839506
40
0.839506172839506
40
0.839506172839506
40
0.839506172839506
40
0.851851851851852
40
0.851851851851852
40
0.851851851851852
40
0.851851851851852
40
0.864197530864197
40
0.864197530864197
40
0.864197530864197
40
0.864197530864197
40
0.876543209876543
40
0.876543209876543
40
0.876543209876543
40
0.876543209876543
40
0.888888888888889
40
0.888888888888889
40
0.888888888888889
40
0.888888888888889
40
0.901234567901235
40
0.901234567901235
40
0.901234567901235
40
0.901234567901235
40
0.91358024691358
40
0.91358024691358
40
0.91358024691358
40
0.91358024691358
40
0.925925925925926
40
0.925925925925926
40
0.925925925925926
40
0.925925925925926
40
0.938271604938272
40
0.938271604938272
40
0.938271604938272
40
0.938271604938272
40
0.950617283950617
40
0.950617283950617
40
0.950617283950617
40
0.950617283950617
40
0.962962962962963
40
0.962962962962963
40
0.962962962962963
40
0.962962962962963
40
0.975308641975309
40
0.975308641975309
40
0.975308641975309
40
0.975308641975309
40
1.0
40
1.0
40
1.0
40
1.0
10
0.0
20
0.0
30
0.0
41
1.0
10
-0.026192399661064
20
0.196870138893662
30
0.0
41
1.0
10
-0.0523847993221279
20
0.393740277787325
30
0.0
41
1.0
10
-0.0502308340612131
20
0.594077242487409
30
0.0
41
1.0
10
-0.0502308340612131
20
0.594077242487409
30
0.0
41
1.0
10
-0.0480768688002983
20
0.794414207187493
30
0.0
41
1.0
10
-0.0175765386174047
20
0.998217997693998
30
0.0
41
1.0
10
0.033766426585751
20
1.20445553363793
30
0.0
41
1.0
10
0.033766426585751
20
1.20445553363793
30
0.0
41
1.0
10
0.0851093917889068
20
1.41069306958186
30
0.0
41
1.0
10
0.157294992012325
20
1.61936435096322
30
0.0
41
1.0
10
0.252381761253447
20
1.83057749913479
30
0.0
41
1.0
10
0.252381761253447
20
1.83057749913479
30
0.0
41
1.0
10
0.347468530494569
20
2.04179064730637
30
0.0
41
1.0
10
0.465456468753395
20
2.25554566226817
30
0.0
41
1.0
10
0.60579746856816
20
2.47158160385956
30
0.0
41
1.0
10
0.60579746856816
20
2.47158160385956
30
0.0
41
1.0
10
0.746138468382925
20
2.68761754545096
30
0.0
41
1.0
10
0.908832529753628
20
2.90593441367196
30
0.0
41
1.0
10
1.09398473022458
20
3.12630882004138
30
0.0
41
1.0
10
1.09398473022458
20
3.12630882004138
30
0.0
41
1.0
10
1.27913693069554
20
3.34668322641079
30
0.0
41
1.0
10
1.48674727026675
20
3.56911517092861
30
0.0
41
1.0
10
1.71669962044436
20
3.79331245166759
30
0.0
41
1.0
10
1.71669962044436
20
3.79331245166759
30
0.0
41
1.0
10
1.94665197062198
20
4.01750973240657
30
0.0
41
1.0
10
2.198946331406
20
4.2434723493667
30
0.0
41
1.0
10
2.47347866204495
20
4.47087098845267
30
0.0
41
1.0
10
2.47347866204495
20
4.47087098845267
30
0.0
41
1.0
10
2.74801099268389
20
4.69826962753863
30
0.0
41
1.0
10
3.04478129317775
20
4.92710428875041
30
0.0
41
1.0
10
3.36363405649801
20
5.15700382640438
30
0.0
41
1.0
10
3.36363405649801
20
5.15700382640438
30
0.0
41
1.0
10
3.68248681981828
20
5.38690336405835
30
0.0
41
1.0
10
4.02342204596494
20
5.61786777815451
30
0.0
41
1.0
10
4.3862487382025
20
5.8494896580421
30
0.0
41
1.0
10
4.3862487382025
20
5.8494896580421
30
0.0
41
1.0
10
4.74907543044005
20
6.08111153792969
30
0.0
41
1.0
10
5.1337935887685
20
6.31339088360872
30
0.0
41
1.0
10
5.54017142176055
20
6.54588730405308
30
0.0
41
1.0
10
5.54017142176055
20
6.54588730405308
30
0.0
41
1.0
10
5.9465492547526
20
6.77838372449744
30
0.0
41
1.0
10
6.37458676240824
20
7.01109721970713
30
0.0
41
1.0
10
6.82401182478502
20
7.24355873003885
30
0.0
41
1.0
10
6.82401182478502
20
7.24355873003885
30
0.0
41
1.0
10
7.2734368871618
20
7.47602024037058
30
0.0
41
1.0
10
7.7442495042597
20
7.70822976582435
30
0.0
41
1.0
10
8.23613625727565
20
7.93969396739353
30
0.0
41
1.0
10
8.23613625727565
20
7.93969396739353
30
0.0
41
1.0
10
8.7280230102916
20
8.17115816896271
30
0.0
41
1.0
10
9.24098389922559
20
8.40187704664731
30
0.0
41
1.0
10
9.77466377160901
20
8.63133763662396
30
0.0
41
1.0
10
9.77466377160901
20
8.63133763662396
30
0.0
41
1.0
10
10.3083436439924
20
8.86079822660061
30
0.0
41
1.0
10
10.8627424998253
20
9.08900052886932
30
0.0
41
1.0
10
11.4374630645793
20
9.31541675488349
30
0.0
41
1.0
10
11.4374630645793
20
9.31541675488349
30
0.0
41
1.0
10
12.0121836293334
20
9.54183298089765
30
0.0
41
1.0
10
12.6072259030086
20
9.76646313065726
30
0.0
41
1.0
10
13.2221503147406
20
9.98876949741467
30
0.0
41
1.0
10
13.2221503147406
20
9.98876949741467
30
0.0
41
1.0
10
13.8370747264727
20
10.2110758641721
30
0.0
41
1.0
10
14.4718812762615
20
10.4310584479273
30
0.0
41
1.0
10
15.1260881247338
20
10.6481745751994
30
0.0
41
1.0
10
15.1260881247338
20
10.6481745751994
30
0.0
41
1.0
10
15.780294973206
20
10.8652907024716
30
0.0
41
1.0
10
16.4539021203616
20
11.0795403732607
30
0.0
41
1.0
10
17.1463857196826
20
11.2903808885553
30
0.0
41
1.0
10
17.1463857196826
20
11.2903808885553
30
0.0
41
1.0
10
17.8388693190036
20
11.5012214038499
30
0.0
41
1.0
10
18.5502293704899
20
11.70865276365
30
0.0
41
1.0
10
19.2799005296136
20
11.9121371187851
30
0.0
41
1.0
10
19.2799005296136
20
11.9121371187851
30
0.0
41
1.0
10
20.0095716887372
20
12.1156214739202
30
0.0
41
1.0
10
20.7575539554982
20
12.3151588243903
30
0.0
41
1.0
10
21.5232412568234
20
12.5102209273065
30
0.0
41
1.0
10
21.5232412568234
20
12.5102209273065
30
0.0
41
1.0
10
22.2889285581486
20
12.7052830302227
30
0.0
41
1.0
10
23.0723208940379
20
12.895869885585
30
0.0
41
1.0
10
23.8727724989474
20
13.0814674438928
30
0.0
41
1.0
10
23.8727724989474
20
13.0814674438928
30
0.0
41
1.0
10
24.6732241038569
20
13.2670650022007
30
0.0
41
1.0
10
25.4907349777866
20
13.4476732634541
30
0.0
41
1.0
10
26.3246209660231
20
13.6227967426082
30
0.0
41
1.0
10
26.3246209660231
20
13.6227967426082
30
0.0
41
1.0
10
27.1585069542596
20
13.7979202217623
30
0.0
41
1.0
10
28.0087680568028
20
13.9675589188171
30
0.0
41
1.0
10
28.8746832960349
20
14.1312400254765
30
0.0
41
1.0
10
28.8746832960349
20
14.1312400254765
30
0.0
41
1.0
10
29.7405985352669
20
14.2949211321359
30
0.0
41
1.0
10
30.6221679111878
20
14.4526446483999
30
0.0
41
1.0
10
31.518635439249
20
14.6039642595603
30
0.0
41
1.0
10
31.518635439249
20
14.6039642595603
30
0.0
41
1.0
10
32.4151029673102
20
14.7552838707207
30
0.0
41
1.0
10
33.3264686475118
20
14.9001995767774
30
0.0
41
1.0
10
34.2519435481165
20
15.0382950425167
30
0.0
41
1.0
10
34.2519435481165
20
15.0382950425167
30
0.0
41
1.0
10
35.1774184487212
20
15.1763905082561
30
0.0
41
1.0
10
36.117002569729
20
15.307665733678
30
0.0
41
1.0
10
37.0698762776254
20
15.4317375043179
30
0.0
41
1.0
10
37.0698762776254
20
15.4317375043179
30
0.0
41
1.0
10
38.0227499855218
20
15.5558092749579
30
0.0
41
1.0
10
38.9889132803069
20
15.6726775908159
30
0.0
41
1.0
10
39.9675183716845
20
15.7819950880787
30
0.0
41
1.0
10
39.9675183716845
20
15.7819950880787
30
0.0
41
1.0
10
40.9461234630621
20
15.8913125853414
30
0.0
41
1.0
10
41.9371703510323
20
15.993079264009
30
0.0
41
1.0
10
42.9397853852867
20
16.0869860901125
30
0.0
41
1.0
10
42.9397853852867
20
16.0869860901125
30
0.0
41
1.0
10
43.9424004195411
20
16.1808929162159
30
0.0
41
1.0
10
44.9565836000796
20
16.2669398897554
30
0.0
41
1.0
10
45.9814393706135
20
16.3448578776958
30
0.0
41
1.0
10
45.9814393706135
20
16.3448578776958
30
0.0
41
1.0
10
47.0062951411474
20
16.4227758656363
30
0.0
41
1.0
10
48.0418235016767
20
16.4925648679779
30
0.0
41
1.0
10
49.0871053385184
20
16.5539987417255
30
0.0
41
1.0
10
49.0871053385184
20
16.5539987417255
30
0.0
41
1.0
10
50.1323871753601
20
16.6154326154732
30
0.0
41
1.0
10
51.1874224885142
20
16.6685113606269
30
0.0
41
1.0
10
52.2512882954535
20
16.7130473796593
30
0.0
41
1.0
10
52.2512882954535
20
16.7130473796593
30
0.0
41
1.0
10
53.3151541023928
20
16.7575833986918
30
0.0
41
1.0
10
54.3878504031171
20
16.793576691603
30
0.0
41
1.0
10
55.46839065015
20
16.8209000409629
30
0.0
41
1.0
10
55.46839065015
20
16.8209000409629
30
0.0
41
1.0
10
56.548930897183
20
16.8482233903227
30
0.0
41
1.0
10
57.6373150905244
20
16.8668767961311
30
0.0
41
1.0
10
58.732729784324
20
16.8767154018881
30
0.0
41
1.0
10
58.732729784324
20
16.8767154018881
30
0.0
41
1.0
10
59.8281444781236
20
16.8865540076452
30
0.0
41
1.0
10
60.9305896723814
20
16.8875778133508
30
0.0
41
1.0
10
62.0385555872408
20
16.8799172679644
30
0.0
41
1.0
10
62.0385555872408
20
16.8799172679644
30
0.0
41
1.0
10
63.1465215021002
20
16.8722567225779
30
0.0
41
1.0
10
64.2600081375613
20
16.8559118260993
30
0.0
41
1.0
10
65.3800677648097
20
16.8301952303412
30
0.0
41
1.0
10
65.3800677648097
20
16.8301952303412
30
0.0
41
1.0
10
66.5001273920581
20
16.804478634583
30
0.0
41
1.0
10
67.6267600110938
20
16.7693903395453
30
0.0
41
1.0
10
68.744684836271
20
16.7276523629268
30
0.0
41
1.0
10
68.744684836271
20
16.7276523629268
30
0.0
41
1.0
10
69.8626096614483
20
16.6859143863082
30
0.0
41
1.0
10
70.9718266927671
20
16.6375267281087
30
0.0
41
1.0
10
72.087744876999
20
16.5837780219406
30
0.0
41
1.0
10
72.087744876999
20
16.5837780219406
30
0.0
41
1.0
10
73.2036630612309
20
16.5300293157726
30
0.0
41
1.0
10
74.3262823983759
20
16.4709195616359
30
0.0
41
1.0
10
75.4503264625054
20
16.4062962976664
30
0.0
41
1.0
10
75.4503264625054
20
16.4062962976664
30
0.0
41
1.0
10
76.5743705266349
20
16.341673033697
30
0.0
41
1.0
10
77.6998393177489
20
16.2715362598948
30
0.0
41
1.0
10
78.8269982261931
20
16.196145531299
30
0.0
41
1.0
10
78.8269982261931
20
16.196145531299
30
0.0
41
1.0
10
79.9541571346373
20
16.1207548027032
30
0.0
41
1.0
10
81.0830061604117
20
16.0401101193139
30
0.0
41
1.0
10
82.2123270680375
20
15.9543847616306
30
0.0
41
1.0
10
82.2123270680375
20
15.9543847616306
30
0.0
41
1.0
10
83.3416479756633
20
15.8686594039473
30
0.0
41
1.0
10
84.4714407651405
20
15.7778533719699
30
0.0
41
1.0
10
85.6008880717225
20
15.6821854497327
30
0.0
41
1.0
10
85.6008880717225
20
15.6821854497327
30
0.0
41
1.0
10
86.7303353783044
20
15.5865175274954
30
0.0
41
1.0
10
87.8594372019912
20
15.4859877149983
30
0.0
41
1.0
10
88.9872740572448
20
15.3808232920915
30
0.0
41
1.0
10
88.9872740572448
20
15.3808232920915
30
0.0
41
1.0
10
90.1151109124985
20
15.2756588691847
30
0.0
41
1.0
10
91.2416827993191
20
15.1658598358683
30
0.0
41
1.0
10
92.3661047696088
20
15.0516702502159
30
0.0
41
1.0
10
92.3661047696088
20
15.0516702502159
30
0.0
41
1.0
10
93.4905267398984
20
14.9374806645635
30
0.0
41
1.0
10
94.6127987936571
20
14.8189005265752
30
0.0
41
1.0
10
95.7320357119191
20
14.6961869017173
30
0.0
41
1.0
10
95.7320357119191
20
14.6961869017173
30
0.0
41
1.0
10
96.8512726301812
20
14.5734732768594
30
0.0
41
1.0
10
97.9674744129466
20
14.446626165132
30
0.0
41
1.0
10
99.0797666373703
20
14.3159151931167
30
0.0
41
1.0
10
99.0797666373703
20
14.3159151931167
30
0.0
41
1.0
10
100.192058861794
20
14.1852042211014
30
0.0
41
1.0
10
101.300441527876
20
14.0506293887981
30
0.0
41
1.0
10
102.404049719161
20
13.9124716488935
30
0.0
41
1.0
10
102.404049719161
20
13.9124716488935
30
0.0
41
1.0
10
103.507657910447
20
13.7743139089889
30
0.0
41
1.0
10
104.606491626936
20
13.632573261483
30
0.0
41
1.0
10
105.699697420203
20
13.48754106533
30
0.0
41
1.0
10
105.699697420203
20
13.48754106533
30
0.0
41
1.0
10
106.79290321347
20
13.3425088691771
30
0.0
41
1.0
10
107.880481083515
20
13.1941851243772
30
0.0
41
1.0
10
108.961590085605
20
13.0428706922589
30
0.0
41
1.0
10
108.961590085605
20
13.0428706922589
30
0.0
41
1.0
10
110.042699087696
20
12.8915562601405
30
0.0
41
1.0
10
111.117339221832
20
12.7372511407038
30
0.0
41
1.0
10
112.184683280452
20
12.5802648816224
30
0.0
41
1.0
10
112.184683280452
20
12.5802648816224
30
0.0
41
1.0
10
113.252027339073
20
12.4232786225409
30
0.0
41
1.0
10
114.312075322178
20
12.2636112238147
30
0.0
41
1.0
10
115.364014893393
20
12.10158015946
30
0.0
41
1.0
10
115.364014893393
20
12.10158015946
30
0.0
41
1.0
10
116.415954464608
20
11.9395490951053
30
0.0
41
1.0
10
117.459785623932
20
11.775154365122
30
0.0
41
1.0
10
118.494712023353
20
11.6087206581675
30
0.0
41
1.0
10
118.494712023353
20
11.6087206581675
30
0.0
41
1.0
10
119.529638422774
20
11.4422869512131
30
0.0
41
1.0
10
120.555660062293
20
11.2738142672875
30
0.0
41
1.0
10
121.57199766241
20
11.103633829131
30
0.0
41
1.0
10
121.57199766241
20
11.103633829131
30
0.0
41
1.0
10
122.588335262526
20
10.9334533909744
30
0.0
41
1.0
10
123.59498882324
20
10.7615651985869
30
0.0
41
1.0
10
124.591197182898
20
10.5883063425593
30
0.0
41
1.0
10
124.591197182898
20
10.5883063425593
30
0.0
41
1.0
10
125.587405542556
20
10.4150474865317
30
0.0
41
1.0
10
126.573168701158
20
10.2404179668639
30
0.0
41
1.0
10
127.547744631391
20
10.0647600718361
30
0.0
41
1.0
10
127.547744631391
20
10.0647600718361
30
0.0
41
1.0
10
128.522320561624
20
9.88910217680819
30
0.0
41
1.0
10
129.485709263489
20
9.71241590642016
30
0.0
41
1.0
10
130.437188826705
20
9.535048054191
30
0.0
41
1.0
10
130.437188826705
20
9.535048054191
30
0.0
41
1.0
10
131.38866838992
20
9.35768020196185
30
0.0
41
1.0
10
132.328238814487
20
9.17963076789155
30
0.0
41
1.0
10
133.255199253751
20
9.00125031804041
30
0.0
41
1.0
10
133.255199253751
20
9.00125031804041
30
0.0
41
1.0
10
134.182159693016
20
8.82286986818926
30
0.0
41
1.0
10
135.096510146978
20
8.64415840255727
30
0.0
41
1.0
10
135.997571740276
20
8.46546946993973
30
0.0
41
1.0
10
135.997571740276
20
8.46546946993973
30
0.0
41
1.0
10
136.898633333574
20
8.28678053732219
30
0.0
41
1.0
10
137.786406066207
20
8.10811413771911
30
0.0
41
1.0
10
138.660233899446
20
7.92982594058399
30
0.0
41
1.0
10
138.660233899446
20
7.92982594058399
30
0.0
41
1.0
10
139.534061732685
20
7.75153774344886
30
0.0
41
1.0
10
140.39394466653
20
7.57362774878168
30
0.0
41
1.0
10
141.239250318206
20
7.39645279943934
30
0.0
41
1.0
10
141.239250318206
20
7.39645279943934
30
0.0
41
1.0
10
142.084555969883
20
7.21927785009699
30
0.0
41
1.0
10
142.91528433939
20
7.04283794607947
30
0.0
41
1.0
10
143.730827469394
20
6.86749006104247
30
0.0
41
1.0
10
143.730827469394
20
6.86749006104247
30
0.0
41
1.0
10
144.546370599397
20
6.69214217600547
30
0.0
41
1.0
10
145.346728489896
20
6.51788630994899
30
0.0
41
1.0
10
146.131318324937
20
6.3450784223333
30
0.0
41
1.0
10
146.131318324937
20
6.3450784223333
30
0.0
41
1.0
10
146.915908159978
20
6.17227053471761
30
0.0
41
1.0
10
147.68472993956
20
6.00091062554271
30
0.0
41
1.0
10
148.437226648133
20
5.83135238908457
30
0.0
41
1.0
10
148.437226648133
20
5.83135238908457
30
0.0
41
1.0
10
149.189723356707
20
5.66179415262643
30
0.0
41
1.0
10
149.925894994271
20
5.49403758888506
30
0.0
41
1.0
10
150.645210944941
20
5.32843276999814
30
0.0
41
1.0
10
150.645210944941
20
5.32843276999814
30
0.0
41
1.0
10
151.36452689561
20
5.16282795111123
30
0.0
41
1.0
10
152.066987159386
20
4.99937487707877
30
0.0
41
1.0
10
152.752088057417
20
4.83841853874759
30
0.0
41
1.0
10
152.752088057417
20
4.83841853874759
30
0.0
41
1.0
10
153.437188955448
20
4.67746220041641
30
0.0
41
1.0
10
154.104930487734
20
4.51900259778651
30
0.0
41
1.0
10
154.75483638674
20
4.36337808653413
30
0.0
41
1.0
10
154.75483638674
20
4.36337808653413
30
0.0
41
1.0
10
155.404742285745
20
4.20775357528174
30
0.0
41
1.0
10
156.03681255147
20
4.05496415540687
30
0.0
41
1.0
10
156.650598738449
20
3.90533990995323
30
0.0
41
1.0
10
156.650598738449
20
3.90533990995323
30
0.0
41
1.0
10
157.264384925427
20
3.75571566449959
30
0.0
41
1.0
10
157.85988703366
20
3.60925659346718
30
0.0
41
1.0
10
158.436684788507
20
3.46628280051768
30
0.0
41
1.0
10
158.436684788507
20
3.46628280051768
30
0.0
41
1.0
10
159.013482543354
20
3.32330900756819
30
0.0
41
1.0
10
159.571575944816
20
3.18382049270159
30
0.0
41
1.0
10
160.110573175169
20
3.04812562245333
30
0.0
41
1.0
10
160.110573175169
20
3.04812562245333
30
0.0
41
1.0
10
160.649570405523
20
2.91243075220506
30
0.0
41
1.0
10
161.169471464768
20
2.78052952657512
30
0.0
41
1.0
10
161.669913228226
20
2.65271678381662
30
0.0
41
1.0
10
161.669913228226
20
2.65271678381662
30
0.0
41
1.0
10
162.170354991683
20
2.52490404105811
30
0.0
41
1.0
10
162.651337459353
20
2.40117978117104
30
0.0
41
1.0
10
163.112526353705
20
2.28182352207909
30
0.0
41
1.0
10
163.112526353705
20
2.28182352207909
30
0.0
41
1.0
10
163.573715248057
20
2.16246726298714
30
0.0
41
1.0
10
164.015110569091
20
2.04747900469031
30
0.0
41
1.0
10
164.436407098231
20
1.93712113864467
30
0.0
41
1.0
10
164.436407098231
20
1.93712113864467
30
0.0
41
1.0
10
164.857703627372
20
1.82676327259903
30
0.0
41
1.0
10
165.258901364618
20
1.72103579880457
30
0.0
41
1.0
10
165.639723922739
20
1.6201823269537
30
0.0
41
1.0
10
165.639723922739
20
1.6201823269537
30
0.0
41
1.0
10
166.02054648086
20
1.51932885510283
30
0.0
41
1.0
10
166.380993859855
20
1.42334938519553
30
0.0
41
1.0
10
166.72081971986
20
1.33246674560649
30
0.0
41
1.0
10
166.72081971986
20
1.33246674560649
30
0.0
41
1.0
10
167.060645579865
20
1.24158410601744
30
0.0
41
1.0
10
167.379849920879
20
1.15579829674665
30
0.0
41
1.0
10
167.678212112844
20
1.07531099112386
30
0.0
41
1.0
10
167.678212112844
20
1.07531099112386
30
0.0
41
1.0
10
167.97657430481
20
0.994823685501057
30
0.0
41
1.0
10
168.254094347726
20
0.919634883526251
30
0.0
41
1.0
10
168.51059357618
20
0.849919124459827
30
0.0
41
1.0
10
168.51059357618
20
0.849919124459827
30
0.0
41
1.0
10
168.767092804633
20
0.780203365393402
30
0.0
41
1.0
10
169.002571218625
20
0.715960649235359
30
0.0
41
1.0
10
169.216831419003
20
0.657353901192645
30
0.0
41
1.0
10
169.216831419003
20
0.657353901192645
30
0.0
41
1.0
10
169.431091619382
20
0.59874715314993
30
0.0
41
1.0
10
169.624133606147
20
0.545776373222544
30
0.0
41
1.0
10
169.795967671945
20
0.498528847540192
30
0.0
41
1.0
10
169.795967671945
20
0.498528847540192
30
0.0
41
1.0
10
169.967801737743
20
0.451281321857841
30
0.0
41
1.0
10
170.118427882574
20
0.409757050420525
30
0.0
41
1.0
10
170.247218916135
20
0.374201313155044
30
0.0
41
1.0
10
170.247218916135
20
0.374201313155044
30
0.0
41
1.0
10
170.376009949697
20
0.338645575889563
30
0.0
41
1.0
10
170.482965871989
20
0.309058372795917
30
0.0
41
1.0
10
170.569976089844
20
0.284966617322807
30
0.0
41
1.0
10
170.569976089844
20
0.284966617322807
30
0.0
41
1.0
10
170.656986307699
20
0.260874861849698
30
0.0
41
1.0
10
170.724050821115
20
0.242278553997125
30
0.0
41
1.0
10
170.763804303713
20
0.231253388055097
30
0.0
41
1.0
10
170.763804303713
20
0.231253388055097
30
0.0
41
1.0
10
170.803557786312
20
0.22022822211307
30
0.0
41
1.0
10
170.816000238093
20
0.216774198081587
30
0.0
41
1.0
10
170.828442689873
20
0.213320174050105
30
0.0
41
1.0
11
0.0
21
0.0
31
0.0
11
-0.0502308340612131
21
0.594077242487409
31
0.0
11
0.033766426585751
21
1.20445553363793
31
0.0
11
0.252381761253447
21
1.83057749913479
31
0.0
11
0.60579746856816
21
2.47158160385956
31
0.0
11
1.09398473022458
21
3.12630882004138
31
0.0
11
1.71669962044436
21
3.79331245166759
31
0.0
11
2.47347866204495
21
4.47087098845267
31
0.0
11
3.36363405649801
21
5.15700382640438
31
0.0
11
4.3862487382025
21
5.8494896580421
31
0.0
11
5.54017142176055
21
6.54588730405308
31
0.0
11
6.82401182478502
21
7.24355873003885
31
0.0
11
8.23613625727565
21
7.93969396739353
31
0.0
11
9.77466377160901
21
8.63133763662396
31
0.0
11
11.4374630645793
21
9.31541675488349
31
0.0
11
13.2221503147406
21
9.98876949741467
31
0.0
11
15.1260881247338
21
10.6481745751994
31
0.0
11
17.1463857196826
21
11.2903808885553
31
0.0
11
19.2799005296136
21
11.9121371187851
31
0.0
11
21.5232412568234
21
12.5102209273065
31
0.0
11
23.8727724989474
21
13.0814674438928
31
0.0
11
26.3246209660231
21
13.6227967426082
31
0.0
11
28.8746832960349
21
14.1312400254765
31
0.0
11
31.518635439249
21
14.6039642595603
31
0.0
11
34.2519435481165
21
15.0382950425167
31
0.0
11
37.0698762776254
21
15.4317375043179
31
0.0
11
39.9675183716845
21
15.7819950880787
31
0.0
11
42.9397853852867
21
16.0869860901125
31
0.0
11
45.9814393706135
21
16.3448578776958
31
0.0
11
49.0871053385184
21
16.5539987417255
31
0.0
11
52.2512882954535
21
16.7130473796593
31
0.0
11
55.46839065015
21
16.8209000409629
31
0.0
11
58.732729784324
21
16.8767154018881
31
0.0
11
62.0385555872408
21
16.8799172679644
31
0.0
11
65.3800677648097
21
16.8301952303412
31
0.0
11
68.744684836271
21
16.7276523629268
31
0.0
11
72.087744876999
21
16.5837780219406
31
0.0
11
75.4503264625054
21
16.4062962976664
31
0.0
11
78.8269982261931
21
16.196145531299
31
0.0
11
82.2123270680375
21
15.9543847616306
31
0.0
11
85.6008880717225
21
15.6821854497327
31
0.0
11
88.9872740572448
21
15.3808232920915
31
0.0
11
92.3661047696088
21
15.0516702502159
31
0.0
11
95.7320357119191
21
14.6961869017173
31
0.0
11
99.0797666373703
21
14.3159151931167
31
0.0
11
102.404049719161
21
13.9124716488935
31
0.0
11
105.699697420203
21
13.48754106533
31
0.0
11
108.961590085605
21
13.0428706922589
31
0.0
11
112.184683280452
21
12.5802648816224
31
0.0
11
115.364014893393
21
12.10158015946
31
0.0
11
118.494712023353
21
11.6087206581675
31
0.0
11
121.57199766241
21
11.103633829131
31
0.0
11
124.591197182898
21
10.5883063425593
31
0.0
11
127.547744631391
21
10.0647600718361
31
0.0
11
130.437188826705
21
9.535048054191
31
0.0
11
133.255199253751
21
9.00125031804041
31
0.0
11
135.997571740276
21
8.46546946993973
31
0.0
11
138.660233899446
21
7.92982594058399
31
0.0
11
141.239250318206
21
7.39645279943934
31
0.0
11
143.730827469394
21
6.86749006104247
31
0.0
11
146.131318324937
21
6.3450784223333
31
0.0
11
148.437226648133
21
5.83135238908457
31
0.0
11
150.645210944941
21
5.32843276999814
31
0.0
11
152.752088057417
21
4.83841853874759
31
0.0
11
154.75483638674
21
4.36337808653413
31
0.0
11
156.650598738449
21
3.90533990995323
31
0.0
11
158.436684788507
21
3.46628280051768
31
0.0
11
160.110573175169
21
3.04812562245333
31
0.0
11
161.669913228226
21
2.65271678381662
31
0.0
11
163.112526353705
21
2.28182352207909
31
0.0
11
164.436407098231
21
1.93712113864467
31
0.0
11
165.639723922739
21
1.6201823269537
31
0.0
11
166.72081971986
21
1.33246674560649
31
0.0
11
167.678212112844
21
1.07531099112386
31
0.0
11
168.51059357618
21
0.849919124459827
31
0.0
11
169.216831419003
21
0.657353901192645
31
0.0
11
169.795967671945
21
0.498528847540192
31
0.0
11
170.247218916135
21
0.374201313155044
31
0.0
11
170.569976089844
21
0.284966617322807
31
0.0
11
170.763804303713
21
0.231253388055097
31
0.0
11
170.828442689873
21
0.213320174050105
31
0.0
0
SPLINE
5
31
330
1C
100
AcDbEntity
67
0
8
BLADE_SURFACE
62
256
6
ByLayer
370
-1
48
1.0
60
0
100
AcDbSpline
70
36
71
3
42
0.0000001
43
0.0000001
44
0.0000000001
40
0.0
40
0.0
40
0.0
40
0.0
40
0.0123456790123457
40
0.0123456790123457
40
0.0123456790123457
40
0.0123456790123457
40
0.0246913580246914
40
0.0246913580246914
40
0.0246913580246914
40
0.0246913580246914
40
0.037037037037037
40
0.037037037037037
40
0.037037037037037
40
0.037037037037037
40
0.0493827160493827
40
0.0493827160493827
40
0.0493827160493827
40
0.0493827160493827
40
0.0617283950617284
40
0.0617283950617284
40
0.0617283950617284
40
0.0617283950617284
40
0.0740740740740741
40
0.0740740740740741
40
0.0740740740740741
40
0.0740740740740741
40
0.0864197530864197
40
0.0864197530864197
40
0.0864197530864197
40
0.0864197530864197
40
0.0987654320987654
40
0.0987654320987654
40
0.0987654320987654
40
0.0987654320987654
40
0.111111111111111
40
0.111111111111111
40
0.111111111111111
40
0.111111111111111
40
0.123456790123457
40
0.123456790123457
40
0.123456790123457
40
0.123456790123457
40
0.135802469135802
40
0.135802469135802
40
0.135802469135802
40
0.135802469135802
40
0.148148148148148
40
0.148148148148148
40
0.148148148148148
40
0.148148148148148
40
0.160493827160494
40
0.160493827160494
40
0.160493827160494
40
0.160493827160494
40
0.172839506172839
40
0.172839506172839
40
0.172839506172839
40
0.172839506172839
40
0.185185185185185
40
0.185185185185185
40
0.185185185185185
40
0.185185185185185
40
0.197530864197531
40
0.197530864197531
40
0.197530864197531
40
0.197530864197531
40
0.209876543209877
40
0.209876543209877
40
0.209876543209877
40
0.209876543209877
40
0.222222222222222
40
0.222222222222222
40
0.222222222222222
40
0.222222222222222
40
0.234567901234568
40
0.234567901234568
40
0.234567901234568
40
0.234567901234568
40
0.246913580246914
40
0.246913580246914
40
0.246913580246914
40
0.246913580246914
40
0.259259259259259
40
0.259259259259259
40
0.259259259259259
40
0.259259259259259
40
0.271604938271605
40
0.271604938271605
40
0.271604938271605
40
0.271604938271605
40
0.283950617283951
40
0.283950617283951
40
0.283950617283951
40
0.283950617283951
40
0.296296296296296
40
0.296296296296296
40
0.296296296296296
40
0.296296296296296
40
0.308641975308642
40
0.308641975308642
40
0.308641975308642
40
0.308641975308642
40
0.320987654320988
40
0.320987654320988
40
0.320987654320988
40
0.320987654320988
40
0.333333333333333
40
0.333333333333333
40
0.333333333333333
40
0.333333333333333
40
0.345679012345679
40
0.345679012345679
40
0.345679012345679
40
0.345679012345679
40
0.358024691358025
40
0.358024691358025
40
0.358024691358025
40
0.358024691358025
40
0.37037037037037
40
0.37037037037037
40
0.37037037037037
40
0.37037037037037
40
0.382716049382716
40
0.382716049382716
40
0.382716049382716
40
0.382716049382716
40
0.395061728395062
40
0.395061728395062
40
0.395061728395062
40
0.395061728395062
40
0.407407407407407
40
0.407407407407407
40
0.407407407407407
40
0.407407407407407
40
0.419753086419753
40
0.419753086419753
40
0.419753086419753
40
0.419753086419753
40
0.432098765432099
40
0.432098765432099
40
0.432098765432099
40
0.432098765432099
40
0.444444444444444
40
0.444444444444444
40
0.444444444444444
40
0.444444444444444
40
0.45679012345679
40
0.45679012345679
40
0.45679012345679
40
0.45679012345679
40
0.469135802469136
40
0.469135802469136
40
0.469135802469136
40
0.469135802469136
40
0.481481481481481
40
0.481481481481481
40
0.481481481481481
40
0.481481481481481
40
0.493827160493827
40
0.493827160493827
40
0.493827160493827
40
0.493827160493827
40
0.506172839506173
40
0.506172839506173
40
0.506172839506173
40
0.506172839506173
40
0.518518518518518
40
0.518518518518518
40
0.518518518518518
40
0.518518518518518
40
0.530864197530864
40
0.530864197530864
40
0.530864197530864
40
0.530864197530864
40
0.54320987654321
40
0.54320987654321
40
0.54320987654321
40
0.54320987654321
40
0.555555555555556
40
0.555555555555556
40
0.555555555555556
40
0.555555555555556
40
0.567901234567901
40
0.567901234567901
40
0.567901234567901
40
0.567901234567901
40
0.580246913580247
40
0.580246913580247
40
0.580246913580247
40
0.580246913580247
40
0.592592592592593
40
0.592592592592593
40
0.592592592592593
40
0.592592592592593
40
0.604938271604938
40
0.604938271604938
40
0.604938271604938
40
0.604938271604938
40
0.617283950617284
40
0.617283950617284
40
0.617283950617284
40
0.617283950617284
40
0.62962962962963
40
0.62962962962963
40
0.62962962962963
40
0.62962962962963
40
0.641975308641975
40
0.641975308641975
40
0.641975308641975
40
0.641975308641975
40
0.654320987654321
40
0.654320987654321
40
0.654320987654321
40
0.654320987654321
40
0.666666666666667
40
0.666666666666667
40
0.666666666666667
40
0.666666666666667
40
0.679012345679012
40
0.679012345679012
40
0.679012345679012
40
0.679012345679012
40
0.691358024691358
40
0.691358024691358
40
0.691358024691358
40
0.691358024691358
40
0.703703703703704
40
0.703703703703704
40
0.703703703703704
40
0.703703703703704
40
0.716049382716049
40
0.716049382716049
40
0.716049382716049
40
0.716049382716049
40
0.728395061728395
40
0.728395061728395
40
0.728395061728395
40
0.728395061728395
40
0.740740740740741
40
0.740740740740741
40
0.740740740740741
40
0.740740740740741
40
0.753086419753086
40
0.753086419753086
40
0.753086419753086
40
0.753086419753086
40
0.765432098765432
40
0.765432098765432
40
0.765432098765432
40
0.765432098765432
40
0.777777777777778
40
0.777777777777778
40
0.777777777777778
40
0.777777777777778
40
0.790123456790123
40
0.790123456790123
40
0.790123456790123
40
0.790123456790123
40
0.802469135802469
40
0.802469135802469
40
0.802469135802469
40
0.802469135802469
40
0.814814814814815
40
0.814814814814815
40
0.814814814814815
40
0.814814814814815
40
0.82716049382716
40
0.82716049382716
40
0.82716049382716
40
0.82716049382716
40
0.839506172839506
40
0.839506172839506
40
0.839506172839506
40
0.839506172839506
40
0.851851851851852
40
0.851851851851852
40
0.851851851851852
40
0.851851851851852
40
0.864197530864197
40
0.864197530864197
40
0.864197530864197
40
0.864197530864197
40
0.876543209876543
40
0.876543209876543
40
0.876543209876543
40
0.876543209876543
40
0.888888888888889
40
0.888888888888889
40
0.888888888888889
40
0.888888888888889
40
0.901234567901235
40
0.901234567901235
40
0.901234567901235
40
0.901234567901235
40
0.91358024691358
40
0.91358024691358
40
0.91358024691358
40
0.91358024691358
40
0.925925925925926
40
0.925925925925926
40
0.925925925925926
40
0.925925925925926
40
0.938271604938272
40
0.938271604938272
40
0.938271604938272
40
0.938271604938272
40
0.950617283950617
40
0.950617283950617
40
0.950617283950617
40
0.950617283950617
40
0.962962962962963
40
0.962962962962963
40
0.962962962962963
40
0.962962962962963
40
0.975308641975309
40
0.975308641975309
40
0.975308641975309
40
0.975308641975309
40
1.0
40
1.0
40
1.0
40
1.0
10
0.0
20
0.0
30
0.0
41
1.0
10
0.0515408591353873
20
-0.191798003528389
30
0.0
41
1.0
10
0.103081718270775
20
-0.383596007056778
30
0.0
41
1.0
10
0.181911444145742
20
-0.567753810592775
30
0.0
41
1.0
10
0.181911444145742
20
-0.567753810592775
30
0.0
41
1.0
10
0.260741170020709
20
-0.751911614128772
30
0.0
41
1.0
10
0.366859762635255
20
-0.928429217672378
30
0.0
41
1.0
10
0.492752971795993
20
-1.09935453941011
30
0.0
41
1.0
10
0.492752971795993
20
-1.09935453941011
30
0.0
41
1.0
10
0.61864618095673
20
-1.27027986114784
30
0.0
41
1.0
10
0.76431400666366
20
-1.43561290107971
30
0.0
41
1.0
10
0.931525790845143
20
-1.59482177698492
30
0.0
41
1.0
10
0.931525790845143
20
-1.59482177698492
30
0.0
41
1.0
10
1.09873757502663
20
-1.75403065289014
30
0.0
41
1.0
10
1.28749331768266
20
-1.9071153647687
30
0.0
41
1.0
10
1.49703395778231
20
-2.05425148662785
30
0.0
41
1.0
10
1.49703395778231
20
-2.05425148662785
30
0.0
41
1.0
10
1.70657459788196
20
-2.201387608487
30
0.0
41
1.0
10
1.93690013542522
20
-2.34257514032673
30
0.0
41
1.0
10
2.18788937690366
20
-2.47781653495577
30
0.0
41
1.0
10
2.18788937690366
20
-2.47781653495577
30
0.0
41
1.0
10
2.4388786183821
20
-2.61305792958481
30
0.0
41
1.0
10
2.71053156379573
20
-2.74235318700316
30
0.0
41
1.0
10
3.00251797563248
20
-2.86576797718226
30
0.0
41
1.0
10
3.00251797563248
20
-2.86576797718226
30
0.0
41
1.0
10
3.29450438746924
20
-2.98918276736135
30
0.0
41
1.0
10
3.60682426572912
20
-3.10671709030119
30
0.0
41
1.0
10
3.9391669516721
20
-3.21843702361845
30
0.0
41
1.0
10
3.9391669516721
20
-3.21843702361845
30
0.0
41
1.0
10
4.27150963761507
20
-3.33015695693572
30
0.0
41
1.0
10
4.62387513124113
20
-3.43606250063041
30
0.0
41
1.0
10
4.99591296028976
20
-3.53623759219633
30
0.0
41
1.0
10
4.99591296028976
20
-3.53623759219633
30
0.0
41
1.0
10
5.36795078933839
20
-3.63641268376226
30
0.0
41
1.0
10
5.75966095380958
20
-3.73085732319941
30
0.0
41
1.0
10
6.17067108623721
20
-3.81966933204442
30
0.0
41
1.0
10
6.17067108623721
20
-3.81966933204442
30
0.0
41
1.0
10
6.58168121866484
20
-3.90848134088942
30
0.0
41
1.0
10
7.01199131904891
20
-3.99166071914227
30
0.0
41
1.0
10
7.46120442531168
20
-4.06932098557308
30
0.0
41
1.0
10
7.46120442531168
20
-4.06932098557308
30
0.0
41
1.0
10
7.91041753157445
20
-4.1469812520039
30
0.0
41
1.0
10
8.37853364371591
20
-4.21912240661266
30
0.0
41
1.0
10
8.86513408589108
20
-4.28587394149737
30
0.0
41
1.0
10
8.86513408589108
20
-4.28587394149737
30
0.0
41
1.0
10
9.35173452806626
20
-4.35262547638208
30
0.0
41
1.0
10
9.85681930027516
20
-4.41398739154272
30
0.0
41
1.0
10
10.3799494113511
20
-4.47010581904702
30
0.0
41
1.0
10
10.3799494113511
20
-4.47010581904702
30
0.0
41
1.0
10
10.9030795224271
20
-4.52622424655133
30
0.0
41
1.0
10
11.4442549723701
20
-4.57709918639929
30
0.0
41
1.0
10
12.0030182203572
20
-4.62289391456503
30
0.0
41
1.0
10
12.0030182203572
20
-4.62289391456503
30
0.0
41
1.0
10
12.5617814683444
20
-4.66868864273077
30
0.0
41
1.0
10
13.1381325143757
20
-4.7094031592143
30
0.0
41
1.0
10
13.7315968637417
20
-4.7452183360192
30
0.0
41
1.0
10
13.7315968637417
20
-4.7452183360192
30
0.0
41
1.0
10
14.3250612131077
20
-4.78103351282411
30
0.0
41
1.0
10
14.9356388658084
20
-4.81194934995038
30
0.0
41
1.0
10
15.5628399039846
20
-4.83816464884827
30
0.0
41
1.0
10
15.5628399039846
20
-4.83816464884827
30
0.0
41
1.0
10
16.1900409421609
20
-4.86437994774615
30
0.0
41
1.0
10
16.8338653658129
20
-4.88589470841566
30
0.0
41
1.0
10
17.4938092360252
20
-4.90292585818996
30
0.0
41
1.0
10
17.4938092360252
20
-4.90292585818996
30
0.0
41
1.0
10
18.1537531062376
20
-4.91995700796426
30
0.0
41
1.0
10
18.8298164230103
20
-4.93250454684337
30
0.0
41
1.0
10
19.5214824858862
20
-4.94080355799553
30
0.0
41
1.0
10
19.5214824858862
20
-4.94080355799553
30
0.0
41
1.0
10
20.213148548762
20
-4.94910256914769
30
0.0
41
1.0
10
20.920417357741
20
-4.9531530525729
30
0.0
41
1.0
10
21.6427605459012
20
-4.95320808686532
30
0.0
41
1.0
10
21.6427605459012
20
-4.95320808686532
30
0.0
41
1.0
10
22.3651037340614
20
-4.95326312115773
30
0.0
41
1.0
10
23.1025213014028
20
-4.94932270631735
30
0.0
41
1.0
10
23.8544741315615
20
-4.94165754362051
30
0.0
41
1.0
10
23.8544741315615
20
-4.94165754362051
30
0.0
41
1.0
10
24.6064269617202
20
-4.93399238092366
30
0.0
41
1.0
10
25.372915054696
20
-4.92260247037036
30
0.0
41
1.0
10
26.1533892743903
20
-4.90777553255973
30
0.0
41
1.0
10
26.1533892743903
20
-4.90777553255973
30
0.0
41
1.0
10
26.9338634940846
20
-4.89294859474911
30
0.0
41
1.0
10
27.7283238404974
20
-4.87468462968114
30
0.0
41
1.0
10
28.5362116969505
20
-4.85328752886216
30
0.0
41
1.0
10
28.5362116969505
20
-4.85328752886216
30
0.0
41
1.0
10
29.3440995534035
20
-4.83189042804317
30
0.0
41
1.0
10
30.1654149198968
20
-4.80736019147316
30
0.0
41
1.0
10
30.9995900491698
20
-4.78001577843223
30
0.0
41
1.0
10
30.9995900491698
20
-4.78001577843223
30
0.0
41
1.0
10
31.8337651784427
20
-4.7526713653913
30
0.0
41
1.0
10
32.6808000704953
20
-4.72251277587945
30
0.0
41
1.0
10
33.5401180186313
20
-4.68987267329256
30
0.0
41
1.0
10
33.5401180186313
20
-4.68987267329256
30
0.0
41
1.0
10
34.3994359667673
20
-4.65723257070567
30
0.0
41
1.0
10
35.2710369709868
20
-4.62211095504373
30
0.0
41
1.0
10
36.1543353603291
20
-4.58485257298645
30
0.0
41
1.0
10
36.1543353603291
20
-4.58485257298645
30
0.0
41
1.0
10
37.0376337496714
20
-4.54759419092918
30
0.0
41
1.0
10
37.9326295241367
20
-4.50819904247657
30
0.0
41
1.0
10
38.8387279226265
20
-4.46702207383321
30
0.0
41
1.0
10
38.8387279226265
20
-4.46702207383321
30
0.0
41
1.0
10
39.7448263211163
20
-4.42584510518985
30
0.0
41
1.0
10
40.6620273436307
20
-4.38288631635574
30
0.0
41
1.0
10
41.5897267748315
20
-4.33850876068479
30
0.0
41
1.0
10
41.5897267748315
20
-4.33850876068479
30
0.0
41
1.0
10
42.5174262060322
20
-4.29413120501385
30
0.0
41
1.0
10
43.4556240459194
20
-4.24833488250606
30
0.0
41
1.0
10
44.4037065670334
20
-4.20148850938571
30
0.0
41
1.0
10
44.4037065670334
20
-4.20148850938571
30
0.0
41
1.0
10
45.3517890881474
20
-4.15464213626537
30
0.0
41
1.0
10
46.3097562904883
20
-4.10674571253245
30
0.0
41
1.0
10
47.2769832738719
20
-4.05817144169797
30
0.0
41
1.0
10
47.2769832738719
20
-4.05817144169797
30
0.0
41
1.0
10
48.2442102572555
20
-4.00959717086349
30
0.0
41
1.0
10
49.2206970216816
20
-3.96034505292744
30
0.0
41
1.0
10
50.2058114900889
20
-3.9107866672312
30
0.0
41
1.0
10
50.2058114900889
20
-3.9107866672312
30
0.0
41
1.0
10
51.1909259584962
20
-3.86122828153496
30
0.0
41
1.0
10
52.1846681308846
20
-3.81136362807852
30
0.0
41
1.0
10
53.1863814565892
20
-3.76156597809507
30
0.0
41
1.0
10
53.1863814565892
20
-3.76156597809507
30
0.0
41
1.0
10
54.1880947822938
20
-3.71176832811162
30
0.0
41
1.0
10
55.1977792613147
20
-3.66203768160116
30
0.0
41
1.0
10
56.2148160010142
20
-3.61272669074075
30
0.0
41
1.0
10
56.2148160010142
20
-3.61272669074075
30
0.0
41
1.0
10
57.2318527407137
20
-3.56341569988033
30
0.0
41
1.0
10
58.2562417410918
20
-3.51452436466996
30
0.0
41
1.0
10
59.287167576435
20
-3.46645385497353
30
0.0
41
1.0
10
59.287167576435
20
-3.46645385497353
30
0.0
41
1.0
10
60.3180934117782
20
-3.4183833452771
30
0.0
41
1.0
10
61.3555560820864
20
-3.37113366109461
30
0.0
41
1.0
10
62.3994155758045
20
-3.32488207163671
30
0.0
41
1.0
10
62.3994155758045
20
-3.32488207163671
30
0.0
41
1.0
10
63.4432750695226
20
-3.2786304821788
30
0.0
41
1.0
10
64.4935313866504
20
-3.23337698744548
30
0.0
41
1.0
10
65.5474640886017
20
-3.19007717730091
30
0.0
41
1.0
10
65.5474640886017
20
-3.19007717730091
30
0.0
41
1.0
10
66.6013967905529
20
-3.14677736715634
30
0.0
41
1.0
10
67.6590058773274
20
-3.10543124160052
30
0.0
41
1.0
10
68.7338881633743
20
-3.06388109200422
30
0.0
41
1.0
10
68.7338881633743
20
-3.06388109200422
30
0.0
41
1.0
10
69.8087704494212
20
-3.02233094240791
30
0.0
41
1.0
10
70.9009259347404
20
-2.98057676877112
30
0.0
41
1.0
10
71.9932484941296
20
-2.9377875139876
30
0.0
41
1.0
10
71.9932484941296
20
-2.9377875139876
30
0.0
41
1.0
10
73.0855710535187
20
-2.89499825920409
30
0.0
41
1.0
10
74.1780606869777
20
-2.85117392327385
30
0.0
41
1.0
10
75.2742860516959
20
-2.80682150898417
30
0.0
41
1.0
10
75.2742860516959
20
-2.80682150898417
30
0.0
41
1.0
10
76.3705114164141
20
-2.76246909469448
30
0.0
41
1.0
10
77.4704725123917
20
-2.71758860204535
30
0.0
41
1.0
10
78.572188223491
20
-2.67231721424616
30
0.0
41
1.0
10
78.572188223491
20
-2.67231721424616
30
0.0
41
1.0
10
79.6739039345903
20
-2.62704582644698
30
0.0
41
1.0
10
80.7773742608114
20
-2.58138354349774
30
0.0
41
1.0
10
81.8820964003136
20
-2.53555304421568
30
0.0
41
1.0
10
81.8820964003136
20
-2.53555304421568
30
0.0
41
1.0
10
82.9868185398158
20
-2.48972254493361
30
0.0
41
1.0
10
84.0927924925991
20
-2.44372382931872
30
0.0
41
1.0
10
85.1991119282775
20
-2.39774100528821
30
0.0
41
1.0
10
85.1991119282775
20
-2.39774100528821
30
0.0
41
1.0
10
86.305431363956
20
-2.3517581812577
30
0.0
41
1.0
10
87.4120962825297
20
-2.30579124881158
30
0.0
41
1.0
10
88.518302474404
20
-2.26001719830543
30
0.0
41
1.0
10
88.518302474404
20
-2.26001719830543
30
0.0
41
1.0
10
89.6245086662783
20
-2.21424314779928
30
0.0
41
1.0
10
90.7302561314533
20
-2.16866197923311
30
0.0
41
1.0
10
91.8347087807072
20
-2.12343364651041
30
0.0
41
1.0
10
91.8347087807072
20
-2.12343364651041
30
0.0
41
1.0
10
92.939161429961
20
-2.07820531378771
30
0.0
41
1.0
10
94.0423192632939
20
-2.03332981690849
30
0.0
41
1.0
10
95.1433517738795
20
-1.98895155684829
30
0.0
41
1.0
10
95.1433517738795
20
-1.98895155684829
30
0.0
41
1.0
10
96.2443842844652
20
-1.94457329678809
30
0.0
41
1.0
10
97.3432914723037
20
-1.90069227354692
30
0.0
41
1.0
10
98.4392399915011
20
-1.85743609089126
30
0.0
41
1.0
10
98.4392399915011
20
-1.85743609089126
30
0.0
41
1.0
10
99.5351885106984
20
-1.8141799082356
30
0.0
41
1.0
10
100.628178361255
20
-1.77154856616545
30
0.0
41
1.0
10
101.717377281193
20
-1.72965268909786
30
0.0
41
1.0
10
101.717377281193
20
-1.72965268909786
30
0.0
41
1.0
10
102.806576201132
20
-1.68775681203027
30
0.0
41
1.0
10
103.891984190453
20
-1.64659639996524
30
0.0
41
1.0
10
104.972770726386
20
-1.60626495938274
30
0.0
41
1.0
10
104.972770726386
20
-1.60626495938274
30
0.0
41
1.0
10
106.053557262319
20
-1.56593351880024
30
0.0
41
1.0
10
107.129722344863
20
-1.52643104970027
30
0.0
41
1.0
10
108.20043875135
20
-1.48783410886678
30
0.0
41
1.0
10
108.20043875135
20
-1.48783410886678
30
0.0
41
1.0
10
109.271155157837
20
-1.44923716803329
30
0.0
41
1.0
10
110.336422888267
20
-1.41154575546627
30
0.0
41
1.0
10
111.395419358789
20
-1.37481986695991
30
0.0
41
1.0
10
111.395419358789
20
-1.37481986695991
30
0.0
41
1.0
10
112.454415829311
20
-1.33809397845355
30
0.0
41
1.0
10
113.507141039925
20
-1.30233361400784
30
0.0
41
1.0
10
114.552778455443
20
-1.26758281930954
30
0.0
41
1.0
10
114.552778455443
20
-1.26758281930954
30
0.0
41
1.0
10
115.59841587096
20
-1.23283202461124
30
0.0
41
1.0
10
116.636965491382
20
-1.19909079966035
30
0.0
41
1.0
10
117.667618224604
20
-1.1663880462704
30
0.0
41
1.0
10
117.667618224604
20
-1.1663880462704
30
0.0
41
1.0
10
118.698270957827
20
-1.13368529288045
30
0.0
41
1.0
10
119.72102680385
20
-1.10202101105143
30
0.0
41
1.0
10
120.735085508983
20
-1.07140993697317
30
0.0
41
1.0
10
120.735085508983
20
-1.07140993697317
30
0.0
41
1.0
10
121.749144214115
20
-1.04079886289491
30
0.0
41
1.0
10
122.754505778357
20
-1.01124099656741
30
0.0
41
1.0
10
123.750380172616
20
-0.982738031249756
30
0.0
41
1.0
10
123.750380172616
20
-0.982738031249756
30
0.0
41
1.0
10
124.746254566876
20
-0.954235065932103
30
0.0
41
1.0
10
125.732641791154
20
-0.9267870016243
30
0.0
41
1.0
10
126.708763416289
20
-0.9003837269655
30
0.0
41
1.0
10
126.708763416289
20
-0.9003837269655
30
0.0
41
1.0
10
127.684885041424
20
-0.8739804523067
30
0.0
41
1.0
10
128.650741067417
20
-0.848621967296904
30
0.0
41
1.0
10
129.605566026779
20
-0.824287679948576
30
0.0
41
1.0
10
129.605566026779
20
-0.824287679948576
30
0.0
41
1.0
10
130.560390986142
20
-0.799953392600248
30
0.0
41
1.0
10
131.504184878875
20
-0.776643302913388
30
0.0
41
1.0
10
132.436196545997
20
-0.754327717813772
30
0.0
41
1.0
10
132.436196545997
20
-0.754327717813772
30
0.0
41
1.0
10
133.368208213118
20
-0.732012132714155
30
0.0
41
1.0
10
134.288437654629
20
-0.710691052201783
30
0.0
41
1.0
10
135.196149351278
20
-0.690327087550905
30
0.0
41
1.0
10
135.196149351278
20
-0.690327087550905
30
0.0
41
1.0
10
136.103861047928
20
-0.669963122900028
30
0.0
41
1.0
10
136.999054999715
20
-0.650556274110645
30
0.0
41
1.0
10
137.881012642674
20
-0.632062859670288
30
0.0
41
1.0
10
137.881012642674
20
-0.632062859670288
30
0.0
41
1.0
10
138.762970285632
20
-0.613569445229931
30
0.0
41
1.0
10
139.63169161976
20
-0.5959894651386
30
0.0
41
1.0
10
140.486476336589
20
-0.579274318743913
30
0.0
41
1.0
10
140.486476336589
20
-0.579274318743913
30
0.0
41
1.0
10
141.341261053418
20
-0.562559172349226
30
0.0
41
1.0
10
142.182109152947
20
-0.546708859651184
30
0.0
41
1.0
10
143.008339867633
20
-0.531671181023169
30
0.0
41
1.0
10
143.008339867633
20
-0.531671181023169
30
0.0
41
1.0
10
143.834570582319
20
-0.516633502395154
30
0.0
41
1.0
10
144.646183912162
20
-0.502408457837166
30
0.0
41
1.0
10
145.442519901725
20
-0.488941494036903
30
0.0
41
1.0
10
145.442519901725
20
-0.488941494036903
30
0.0
41
1.0
10
146.238855891288
20
-0.47547453023664
30
0.0
41
1.0
10
147.019914540571
20
-0.462765647194103
30
0.0
41
1.0
10
147.785057963482
20
-0.450759090184789
30
0.0
41
1.0
10
147.785057963482
20
-0.450759090184789
30
0.0
41
1.0
10
148.550201386392
20
-0.438752533175476
30
0.0
41
1.0
10
149.299429582931
20
-0.427448302199386
30
0.0
41
1.0
10
150.032127979545
20
-0.416790485788691
30
0.0
41
1.0
10
150.032127979545
20
-0.416790485788691
30
0.0
41
1.0
10
150.764826376159
20
-0.406132669377997
30
0.0
41
1.0
10
151.480994972848
20
-0.396121267532696
30
0.0
41
1.0
10
152.180043737014
20
-0.386701138251301
30
0.0
41
1.0
10
152.180043737014
20
-0.386701138251301
30
0.0
41
1.0
10
152.87909250118
20
-0.377281008969906
30
0.0
41
1.0
10
153.561021432822
20
-0.368452152252415
30
0.0
41
1.0
10
154.225266252501
20
-0.360160996273956
30
0.0
41
1.0
10
154.225266252501
20
-0.360160996273956
30
0.0
41
1.0
10
154.88951107218
20
-0.351869840295496
30
0.0
41
1.0
10
155.536071779897
20
-0.344116385056067
30
0.0
41
1.0
10
156.164411042826
20
-0.336849300869249
30
0.0
41
1.0
10
156.164411042826
20
-0.336849300869249
30
0.0
41
1.0
10
156.792750305756
20
-0.32958221668243
30
0.0
41
1.0
10
157.402868123899
20
-0.322801503548221
30
0.0
41
1.0
10
157.994255283172
20
-0.316458617541508
30
0.0
41
1.0
10
157.994255283172
20
-0.316458617541508
30
0.0
41
1.0
10
158.585642442445
20
-0.310115731534795
30
0.0
41
1.0
10
159.158298942848
20
-0.304210672655579
30
0.0
41
1.0
10
159.711744832865
20
-0.298698101895298
30
0.0
41
1.0
10
159.711744832865
20
-0.298698101895298
30
0.0
41
1.0
10
160.265190722882
20
-0.293185531135017
30
0.0
41
1.0
10
160.799426002513
20
-0.288065448493671
30
0.0
41
1.0
10
161.314001103148
20
-0.28329602150142
30
0.0
41
1.0
10
161.314001103148
20
-0.28329602150142
30
0.0
41
1.0
10
161.828576203782
20
-0.278526594509169
30
0.0
41
1.0
10
162.323491125419
20
-0.274107823166012
30
0.0
41
1.0
10
162.798327735619
20
-0.270001575586158
30
0.0
41
1.0
10
162.798327735619
20
-0.270001575586158
30
0.0
41
1.0
10
163.273164345819
20
-0.265895328006304
30
0.0
41
1.0
10
163.727922644582
20
-0.262101604189753
30
0.0
41
1.0
10
164.162217054696
20
-0.258586070561458
30
0.0
41
1.0
10
164.162217054696
20
-0.258586070561458
30
0.0
41
1.0
10
164.596511464811
20
-0.255070536933164
30
0.0
41
1.0
10
165.010341986277
20
-0.251833193493126
30
0.0
41
1.0
10
165.403356252821
20
-0.248843523201855
30
0.0
41
1.0
10
165.403356252821
20
-0.248843523201855
30
0.0
41
1.0
10
165.796370519366
20
-0.245853852910584
30
0.0
41
1.0
10
166.168568530988
20
-0.243111855768081
30
0.0
41
1.0
10
166.519633263352
20
-0.240590774101231
30
0.0
41
1.0
10
166.519633263352
20
-0.240590774101231
30
0.0
41
1.0
10
166.870697995717
20
-0.23806969243438
30
0.0
41
1.0
10
167.200629448822
20
-0.235769526243182
30
0.0
41
1.0
10
167.509142273439
20
-0.233667201699
30
0.0
41
1.0
10
167.509142273439
20
-0.233667201699
30
0.0
41
1.0
10
167.817655098055
20
-0.231564877154819
30
0.0
41
1.0
10
168.104749294183
20
-0.229660394257653
30
0.0
41
1.0
10
168.370188827744
20
-0.227934131529596
30
0.0
41
1.0
10
168.370188827744
20
-0.227934131529596
30
0.0
41
1.0
10
168.635628361304
20
-0.226207868801538
30
0.0
41
1.0
10
168.879413232298
20
-0.224659826242588
30
0.0
41
1.0
10
169.101294473868
20
-0.223274036393345
30
0.0
41
1.0
10
169.101294473868
20
-0.223274036393345
30
0.0
41
1.0
10
169.323175715439
20
-0.221888246544102
30
0.0
41
1.0
10
169.523153327588
20
-0.220664709404567
30
0.0
41
1.0
10
169.701200901704
20
-0.219589620932744
30
0.0
41
1.0
10
169.701200901704
20
-0.219589620932744
30
0.0
41
1.0
10
169.879248475821
20
-0.218514532460922
30
0.0
41
1.0
10
170.035366011905
20
-0.217587892656813
30
0.0
41
1.0
10
170.168873531766
20
-0.216802878772943
30
0.0
41
1.0
10
170.168873531766
20
-0.216802878772943
30
0.0
41
1.0
10
170.302381051628
20
-0.216017864889073
30
0.0
41
1.0
10
170.413278555265
20
-0.215374476925442
30
0.0
41
1.0
10
170.503504511774
20
-0.214854202182371
30
0.0
41
1.0
10
170.503504511774
20
-0.214854202182371
30
0.0
41
1.0
10
170.593730468284
20
-0.2143339274393
30
0.0
41
1.0
10
170.663284877665
20
-0.21393676591679
30
0.0
41
1.0
10
170.704515086202
20
-0.213701613431506
30
0.0
41
1.0
10
170.704515086202
20
-0.213701613431506
30
0.0
41
1.0
10
170.745745294739
20
-0.213466460946221
30
0.0
41
1.0
10
170.758651302433
20
-0.213393317498163
30
0.0
41
1.0
10
170.771557310127
20
-0.213320174050105
30
0.0
41
1.0
11
0.0
21
0.0
31
0.0
11
0.181911444145742
21
-0.567753810592775
31
0.0
11
0.492752971795993
21
-1.09935453941011
31
0.0
11
0.931525790845143
21
-1.59482177698492
31
0.0
11
1.49703395778231
21
-2.05425148662785
31
0.0
11
2.18788937690366
21
-2.47781653495577
31
0.0
11
3.00251797563248
21
-2.86576797718226
31
0.0
11
3.9391669516721
21
-3.21843702361845
31
0.0
11
4.99591296028976
21
-3.53623759219633
31
0.0
11
6.17067108623721
21
-3.81966933204442
31
0.0
11
7.46120442531168
21
-4.06932098557308
31
0.0
11
8.86513408589108
21
-4.28587394149737
31
0.0
11
10.3799494113511
21
-4.47010581904702
31
0.0
11
12.0030182203572
21
-4.62289391456503
31
0.0
11
13.7315968637417
21
-4.7452183360192
31
0.0
11
15.5628399039846
21
-4.83816464884827
31
0.0
11
17.4938092360252
21
-4.90292585818996
31
0.0
11
19.5214824858862
21
-4.94080355799553
31
0.0
11
21.6427605459012
21
-4.95320808686532
31
0.0
11
23.8544741315615
21
-4.94165754362051
31
0.0
11
26.1533892743903
21
-4.90777553255973
31
0.0
11
28.5362116969505
21
-4.85328752886216
31
0.0
11
30.9995900491698
21
-4.78001577843223
31
0.0
11
33.5401180186313
21
-4.68987267329256
31
0.0
11
36.1543353603291
21
-4.58485257298645
31
0.0
11
38.8387279226265
21
-4.46702207383321
31
0.0
11
41.5897267748315
21
-4.33850876068479
31
0.0
11
44.4037065670334
21
-4.20148850938571
31
0.0
11
47.2769832738719
21
-4.05817144169797
31
0.0
11
50.2058114900889
21
-3.9107866672312
31
0.0
11
53.1863814565892
21
-3.76156597809507
31
0.0
11
56.2148160010142
21
-3.61272669074075
31
0.0
11
59.287167576435
21
-3.46645385497353
31
0.0
11
62.3994155758045
21
-3.32488207163671
31
0.0
11
65.5474640886017
21
-3.19007717730091
31
0.0
11
68.7338881633743
21
-3.06388109200422
31
0.0
11
71.9932484941296
21
-2.9377875139876
31
0.0
11
75.2742860516959
21
-2.80682150898417
31
0.0
11
78.572188223491
21
-2.67231721424616
31
0.0
11
81.8820964003136
21
-2.53555304421568
31
0.0
11
85.1991119282775
21
-2.39774100528821
31
0.0
11
88.518302474404
21
-2.26001719830543
31
0.0
11
91.8347087807072
21
-2.12343364651041
31
0.0
11
95.1433517738795
21
-1.98895155684829
31
0.0
11
98.4392399915011
21
-1.85743609089126
31
0.0
11
101.717377281193
21
-1.72965268909786
31
0.0
11
104.972770726386
21
-1.60626495938274
31
0.0
11
108.20043875135
21
-1.48783410886678
31
0.0
11
111.395419358789
21
-1.37481986695991
31
0.0
11
114.552778455443
21
-1.26758281930954
31
0.0
11
117.667618224604
21
-1.1663880462704
31
0.0
11
120.735085508983
21
-1.07140993697317
31
0.0
11
123.750380172616
21
-0.982738031249756
31
0.0
11
126.708763416289
21
-0.9003837269655
31
0.0
11
129.605566026779
21
-0.824287679948576
31
0.0
11
132.436196545997
21
-0.754327717813772
31
0.0
11
135.196149351278
21
-0.690327087550905
31
0.0
11
137.881012642674
21
-0.632062859670288
31
0.0
11
140.486476336589
21
-0.579274318743913
31
0.0
11
143.008339867633
21
-0.531671181023169
31
0.0
11
145.442519901725
21
-0.488941494036903
31
0.0
11
147.785057963482
21
-0.450759090184789
31
0.0
11
150.032127979545
21
-0.416790485788691
31
0.0
11
152.180043737014
21
-0.386701138251301
31
0.0
11
154.225266252501
21
-0.360160996273956
31
0.0
11
156.164411042826
21
-0.336849300869249
31
0.0
11
157.994255283172
21
-0.316458617541508
31
0.0
11
159.711744832865
21
-0.298698101895298
31
0.0
11
161.314001103148
21
-0.28329602150142
31
0.0
11
162.798327735619
21
-0.270001575586158
31
0.0
11
164.162217054696
21
-0.258586070561458
31
0.0
11
165.403356252821
21
-0.248843523201855
31
0.0
11
166.519633263352
21
-0.240590774101231
31
0.0
11
167.509142273439
21
-0.233667201699
31
0.0
11
168.370188827744
21
-0.227934131529596
31
0.0
11
169.101294473868
21
-0.223274036393345
31
0.0
11
169.701200901704
21
-0.219589620932744
31
0.0
11
170.168873531766
21
-0.216802878772943
31
0.0
11
170.503504511774
21
-0.214854202182371
31
0.0
11
170.704515086202
21
-0.213701613431506
31
0.0
11
170.771557310127
21
-0.213320174050105
31
0.0
0
LWPOLYLINE
5
32
330
1C
100
AcDbEntity
67
0
8
CAMBER_LINE
62
256
6
DASHED
370
-1
48
1.0
60
0
100
AcDbPolyline
90
81
70
0
38
0.0
39
0.0
10
0.0
20
0.0
40
0.0
41
0.0
42
0.0
10
0.0658403050422643
20
0.0131617159473169
40
0.0
41
0.0
42
0.0
10
0.263259699190872
20
0.0525504971139091
40
0.0
41
0.0
42
0.0
10
0.591953776049295
20
0.117877861074936
40
0.0
41
0.0
42
0.0
10
1.05141571317523
20
0.208665058615855
40
0.0
41
0.0
42
0.0
10
1.64093705356412
20
0.324246142542801
40
0.0
41
0.0
42
0.0
10
2.35960879803842
20
0.463772237242666
40
0.0
41
0.0
42
0.0
10
3.20632280685852
20
0.626216982417107
40
0.0
41
0.0
42
0.0
10
4.17977350839389
20
0.810383117104025
40
0.0
41
0.0
42
0.0
10
5.27845991221985
20
1.01491016299884
40
0.0
41
0.0
42
0.0
10
6.50068792353611
20
1.23828315924
40
0.0
41
0.0
42
0.0
10
7.84457295533805
20
1.47884239427074
40
0.0
41
0.0
42
0.0
10
9.30804283431338
20
1.73479407417326
40
0.0
41
0.0
42
0.0
10
10.8888409959831
20
2.00422186102947
40
0.0
41
0.0
42
0.0
10
12.5845299641605
20
2.28509920943214
40
0.0
41
0.0
42
0.0
10
14.3924951093626
20
2.5753024242832
40
0.0
41
0.0
42
0.0
10
16.3099486803795
20
2.87262435850474
40
0.0
41
0.0
42
0.0
10
18.3339341027844
20
3.17478866527988
40
0.0
41
0.0
42
0.0
10
20.4613305377574
20
3.4794645159599
40
0.0
41
0.0
42
0.0
10
22.6888576941925
20
3.784281691843
40
0.0
41
0.0
42
0.0
10
25.0130808866688
20
4.08684595566656
40
0.0
41
0.0
42
0.0
10
27.4304163314868
20
4.38475460687303
40
0.0
41
0.0
42
0.0
10
29.9371366726023
20
4.67561212352212
40
0.0
41
0.0
42
0.0
10
32.5293767289402
20
4.95704579313389
40
0.0
41
0.0
42
0.0
10
35.2031394542228
20
5.22672123476514
40
0.0
41
0.0
42
0.0
10
37.954302100126
20
5.48235771524237
40
0.0
41
0.0
42
0.0
10
40.778622573258
20
5.72174316369693
40
0.0
41
0.0
42
0.0
10
43.67174597616
20
5.94274879036337
40
0.0
41
0.0
42
0.0
10
46.6292113222427
20
6.14334321799894
40
0.0
41
0.0
42
0.0
10
49.6464584143036
20
6.32160603724717
40
0.0
41
0.0
42
0.0
10
52.7188348760213
20
6.47574070078213
40
0.0
41
0.0
42
0.0
10
55.8416033255821
20
6.60408667511106
40
0.0
41
0.0
42
0.0
10
59.0099486803795
20
6.70513077345731
40
0.0
41
0.0
42
0.0
10
62.2189855815227
20
6.77751759816383
40
0.0
41
0.0
42
0.0
10
65.4637659267057
20
6.82005902652013
40
0.0
41
0.0
42
0.0
10
68.7392864998227
20
6.83188563546127
40
0.0
41
0.0
42
0.0
10
72.0404966855643
20
6.82299525397652
40
0.0
41
0.0
42
0.0
10
75.3623062571007
20
6.79973739434114
40
0.0
41
0.0
42
0.0
10
78.699593224842
20
6.76191415852642
40
0.0
41
0.0
42
0.0
10
82.0472117341755
20
6.70941585870746
40
0.0
41
0.0
42
0.0
10
85.4
20
6.64222222222222
40
0.0
41
0.0
42
0.0
10
88.7527882658244
20
6.56040304689304
40
0.0
41
0.0
42
0.0
10
92.1004067751579
20
6.46411830185274
40
0.0
41
0.0
42
0.0
10
95.4376937428993
20
6.3536176724345
40
0.0
41
0.0
42
0.0
10
98.7595033144357
20
6.22923955111271
40
0.0
41
0.0
42
0.0
10
102.060713500177
20
6.09140947989783
40
0.0
41
0.0
42
0.0
10
105.336234073294
20
5.94063805297364
40
0.0
41
0.0
42
0.0
10
108.581014418477
20
5.77751829169604
40
0.0
41
0.0
42
0.0
10
111.790051319621
20
5.60272250733123
40
0.0
41
0.0
42
0.0
10
114.958396674418
20
5.41699867007523
40
0.0
41
0.0
42
0.0
10
118.081165123979
20
5.22116630594856
40
0.0
41
0.0
42
0.0
10
121.153541585696
20
5.01611194607891
40
0.0
41
0.0
42
0.0
10
124.170788677757
20
4.80278415565476
40
0.0
41
0.0
42
0.0
10
127.12825402384
20
4.58218817243528
40
0.0
41
0.0
42
0.0
10
130.021377426742
20
4.35538018712121
40
0.0
41
0.0
42
0.0
10
132.845697899874
20
4.12346130011332
40
0.0
41
0.0
42
0.0
10
135.596860545777
20
3.88757119119441
40
0.0
41
0.0
42
0.0
10
138.27062327106
20
3.64888154045685
40
0.0
41
0.0
42
0.0
10
140.862863327398
20
3.40858924034771
40
0.0
41
0.0
42
0.0
10
143.369583668513
20
3.16790944000965
40
0.0
41
0.0
42
0.0
10
145.786919113331
20
2.9280684641482
40
0.0
41
0.0
42
0.0
10
148.111142305808
20
2.69029664944989
40
0.0
41
0.0
42
0.0
10
150.338669462243
20
2.45582114210473
40
0.0
41
0.0
42
0.0
10
152.466065897216
20
2.22585870024814
40
0.0
41
0.0
42
0.0
10
154.490051319621
20
2.00160854513009
40
0.0
41
0.0
42
0.0
10
156.407504890637
20
1.78424530454199
40
0.0
41
0.0
42
0.0
10
158.215470035839
20
1.57491209148809
40
0.0
41
0.0
42
0.0
10
159.911159004017
20
1.37471376027901
40
0.0
41
0.0
42
0.0
10
161.491957165687
20
1.1847103811576
40
0.0
41
0.0
42
0.0
10
162.955427044662
20
1.00591097324647
40
0.0
41
0.0
42
0.0
10
164.299312076464
20
0.839267534041604
40
0.0
41
0.0
42
0.0
10
165.52154008778
20
0.685669401875923
40
0.0
41
0.0
42
0.0
10
166.620226491606
20
0.545937985752628
40
0.0
41
0.0
42
0.0
10
167.593677193141
20
0.420821894712427
40
0.0
41
0.0
42
0.0
10
168.440391201962
20
0.310992496465115
40
0.0
41
0.0
42
0.0
10
169.159062946436
20
0.21703993239965
40
0.0
41
0.0
42
0.0
10
169.748584286825
20
0.139469613303724
40
0.0
41
0.0
42
0.0
10
170.208046223951
20
0.0786992171910505
40
0.0
41
0.0
42
0.0
10
170.536740300809
20
0.0350562075702182
40
0.0
41
0.0
42
0.0
10
170.734159694958
20
0.0087758873117959
40
0.0
41
0.0
42
0.0
10
170.8
20
0.0
40
0.0
41
0.0
42
0.0
210
0.0
220
0.0
230
1.0
0
LINE
5
33
330
1C
100
AcDbEntity
67
0
8
STATION_TICKS
62
256
6
ByLayer
370
-1
48
1.0
60
0
100
AcDbLine
10
17.08
20
-7.8890474469041
30
0.0
11
17.08
21
14.2692783893445
31
0.0
39
0.0
210
0.0
220
0.0
230
1.0
0
TEXT
5
34
330
1C
100
AcDbEntity
67
0
8
ANNOTATION
62
256
6
ByLayer
370
-1
48
1.0
60
0
100
AcDbText
1
10%
10
17.08
20
-12.8890474469041
30
0.0
40
3.0
41
1.0
50
0.0
51
0.0
7
Standard
11
17.08
21
-12.8890474469041
31
0.0
210
0.0
220
0.0
230
1.0
71
0
72
0
100
AcDbText
73
0
0
LINE
5
35
330
1C
100
AcDbEntity
67
0
8
STATION_TICKS
62
256
6
ByLayer
370
-1
48
1.0
60
0
100
AcDbLine
10
34.16
20
-7.66497035671059
30
0.0
11
34.16
21
18.0236849394027
31
0.0
39
0.0
210
0.0
220
0.0
230
1.0
0
TEXT
5
36
330
1C
100
AcDbEntity
67
0
8
ANNOTATION
62
256
6
ByLayer
370
-1
48
1.0
60
0
100
AcDbText
1
20%
10
34.16
20
-12.6649703567106
30
0.0
40
3.0
41
1.0
50
0.0
51
0.0
7
Standard
11
34.16
21
-12.6649703567106
31
0.0
210
0.0
220
0.0
230
1.0
71
0
72
0
100
AcDbText
73
0
0
LINE
5
37
330
1C
100
AcDbEntity
67
0
8
STATION_TICKS
62
256
6
ByLayer
370
-1
48
1.0
60
0
100
AcDbLine
10
51.24
20
-6.85901055599367
30
0.0
11
51.24
21
19.6622146597573
31
0.0
39
0.0
210
0.0
220
0.0
230
1.0
0
TEXT
5
38
330
1C
100
AcDbEntity
67
0
8
ANNOTATION
62
256
6
ByLayer
370
-1
48
1.0
60
0
100
AcDbText
1
30%
10
51.24
20
-11.8590105559937
30
0.0
40
3.0
41
1.0
50
0.0
51
0.0
7
Standard
11
51.24
21
-11.8590105559937
31
0.0
210
0.0
220
0.0
230
1.0
71
0
72
0
100
AcDbText
73
0
0
LINE
5
39
330
1C
100
AcDbEntity
67
0
8
STATION_TICKS
62
256
6
ByLayer
370
-1
48
1.0
60
0
100
AcDbLine
10
68.32
20
-6.08027284174046
30
0.0
11
68.32
21
19.74059541111
31
0.0
39
0.0
210
0.0
220
0.0
230
1.0
0
TEXT
5
3A
330
1C
100
AcDbEntity
67
0
8
ANNOTATION
62
256
6
ByLayer
370
-1
48
1.0
60
0
100
AcDbText
1
40%
10
68.32
20
-11.0802728417405
30
0.0
40
3.0
41
1.0
50
0.0
51
0.0
7
Standard
11
68.32
21
-11.0802728417405
31
0.0
210
0.0
220
0.0
230
1.0
71
0
72
0
100
AcDbText
73
0
0
LINE
5
3B
330
1C
100
AcDbEntity
67
0
8
STATION_TICKS
62
256
6
ByLayer
370
-1
48
1.0
60
0
100
AcDbLine
10
85.4
20
-5.38940551817798
30
0.0
11
85.4
21
18.6983225636508
31
0.0
39
0.0
210
0.0
220
0.0
230
1.0
0
TEXT
5
3C
330
1C
100
AcDbEntity
67
0
8
ANNOTATION
62
256
6
ByLayer
370
-1
48
1.0
60
0
100
AcDbText
1
50%
10
85.4
20
-10.389405518178
30
0.0
40
3.0
41
1.0
50
0.0
51
0.0
7
Standard
11
85.4
21
-10.389405518178
31
0.0
210
0.0
220
0.0
230
1.0
71
0
72
0
100
AcDbText
73
0
0
LINE
5
3D
330
1C
100
AcDbEntity
67
0
8
STATION_TICKS
62
256
6
ByLayer
370
-1
48
1.0
60
0
100
AcDbLine
10
102.48
20
-4.70074733941217
30
0.0
11
102.48
21
16.9026788554628
31
0.0
39
0.0
210
0.0
220
0.0
230
1.0
0
TEXT
5
3E
330
1C
100
AcDbEntity
67
0
8
ANNOTATION
62
256
6
ByLayer
370
-1
48
1.0
60
0
100
AcDbText
1
60%
10
102.48
20
-9.70074733941217
30
0.0
40
3.0
41
1.0
50
0.0
51
0.0
7
Standard
11
102.48
21
-9.70074733941217
31
0.0
210
0.0
220
0.0
230
1.0
71
0
72
0
100
AcDbText
73
0
0
LINE
5
3F
330
1C
100
AcDbEntity
67
0
8
STATION_TICKS
62
256
6
ByLayer
370
-1
48
1.0
60
0
100
AcDbLine
10
119.56
20
-4.10779415547296
30
0.0
11
119.56
21
14.4338708102118
31
0.0
39
0.0
210
0.0
220
0.0
230
1.0
0
TEXT
5
40
330
1C
100
AcDbEntity
67
0
8
ANNOTATION
62
256
6
ByLayer
370
-1
48
1.0
60
0
100
AcDbText
1
70%
10
119.56
20
-9.10779415547296
30
0.0
40
3.0
41
1.0
50
0.0
51
0.0
7
Standard
11
119.56
21
-9.10779415547296
31
0.0
210
0.0
220
0.0
230
1.0
71
0
72
0
100
AcDbText
73
0
0
LINE
5
41
330
1C
100
AcDbEntity
67
0
8
STATION_TICKS
62
256
6
ByLayer
370
-1
48
1.0
60
0
100
AcDbLine
10
136.64
20
-3.65899407946555
30
0.0
11
136.64
21
11.3362331944366
31
0.0
39
0.0
210
0.0
220
0.0
230
1.0
0
TEXT
5
42
330
1C
100
AcDbEntity
67
0
8
ANNOTATION
62
256
6
ByLayer
370
-1
48
1.0
60
0
100
AcDbText
1
80%
10
136.64
20
-8.65899407946556
30
0.0
40
3.0
41
1.0
50
0.0
51
0.0
7
Standard
11
136.64
21
-8.65899407946556
31
0.0
210
0.0
220
0.0
230
1.0
71
0
72
0
100
AcDbText
73
0
0
LINE
5
43
330
1C
100
AcDbEntity
67
0
8
STATION_TICKS
62
256
6
ByLayer
370
-1
48
1.0
60
0
100
AcDbLine
10
153.72
20
-3.36671766088116
30
0.0
11
153.72
21
7.60883536040401
31
0.0
39
0.0
210
0.0
220
0.0
230
1.0
0
TEXT
5
44
330
1C
100
AcDbEntity
67
0
8
ANNOTATION
62
256
6
ByLayer
370
-1
48
1.0
60
0
100
AcDbText
1
90%
10
153.72
20
-8.36671766088116
30
0.0
40
3.0
41
1.0
50
0.0
51
0.0
7
Standard
11
153.72
21
-8.36671766088116
31
0.0
210
0.0
220
0.0
230
1.0
71
0
72
0
100
AcDbText
73
0
0
LINE
5
45
330
1C
100
AcDbEntity
67
0
8
DIMENSIONS
62
256
6
ByLayer
370
-1
48
1.0
60
0
100
AcDbLine
10
52.2648
20
16.7135003566347
30
0.0
11
52.2648
21
-3.80770447563432
31
0.0
39
0.0
210
0.0
220
0.0
230
1.0
0
LINE
5
46
330
1C
100
AcDbEntity
67
0
8
DIMENSIONS
62
256
6
ByLayer
370
-1
48
1.0
60
0
100
AcDbLine
10
52.2648
20
6.45289794050018
30
0.0
11
67.2648
21
6.45289794050018
31
0.0
39
0.0
210
0.0
220
0.0
230
1.0
0
TEXT
5
47
330
1C
100
AcDbEntity
67
0
8
DIMENSIONS
62
256
6
ByLayer
370
-1
48
1.0
60
0
100
AcDbText
1
t=20.48mm (12.0%c)
10
70.2648
20
8.45289794050018
30
0.0
40
3.0
41
1.0
50
0.0
51
0.0
7
Standard
11
70.2648
21
8.45289794050018
31
0.0
210
0.0
220
0.0
230
1.0
71
0
72
0
100
AcDbText
73
0
0
LINE
5
48
330
1C
100
AcDbEntity
67
0
8
DIMENSIONS
62
256
6
ByLayer
370
-1
48
1.0
60
0
100
AcDbLine
10
68.6616
20
0.0
30
0.0
11
68.6616
21
6.832
31
0.0
39
0.0
210
0.0
220
0.0
230
1.0
0
LINE
5
49
330
1C
100
AcDbEntity
67
0
8
DIMENSIONS
62
256
6
ByLayer
370
-1
48
1.0
60
0
100
AcDbLine
10
68.6616
20
3.416
30
0.0
11
53.6616
21
3.416
31
0.0
39
0.0
210
0.0
220
0.0
230
1.0
0
TEXT
5
4A
330
1C
100
AcDbEntity
67
0
8
DIMENSIONS
62
256
6
ByLayer
370
-1
48
1.0
60
0
100
AcDbText
1
f=6.83mm (4.0%c)
10
50.6616
20
5.416
30
0.0
40
3.0
41
1.0
50
0.0
51
0.0
7
Standard
11
50.6616
21
5.416
31
0.0
210
0.0
220
0.0
230
1.0
71
0
72
0
100
AcDbText
73
0
0
CIRCLE
5
4B
330
1C
100
AcDbEntity
67
0
8
DIMENSIONS
62
256
6
DASHED
370
-1
48
1.0
60
0
100
AcDbCircle
10
0.0
20
0.0
30
0.0
40
3.217
39
0.0
210
0.0
220
0.0
230
1.0
0
TEXT
5
4C
330
1C
100
AcDbEntity
67
0
8
ANNOTATION
62
256
6
ByLayer
370
-1
48
1.0
60
0
100
AcDbText
1
r_LE=3.217mm
10
5.0
20
24.7135003566347
30
0.0
40
3.5
41
1.0
50
0.0
51
0.0
7
Standard
11
5.0
21
24.7135003566347
31
0.0
210
0.0
220
0.0
230
1.0
71
0
72
0
100
AcDbText
73
0
0
LINE
5
4D
330
1C
100
AcDbEntity
67
0
8
CENTERLINE
62
256
6
ByLayer
370
-1
48
1.0
60
0
100
AcDbLine
10
0.0
20
0.0
30
0.0
11
170.8
21
0.0
31
0.0
39
0.0
210
0.0
220
0.0
230
1.0
0
TEXT
5
4E
330
1C
100
AcDbEntity
67
0
8
ANNOTATION
62
256
6
ByLayer
370
-1
48
1.0
60
0
100
AcDbText
1
LE
10
-4.0
20
7.0
30
0.0
40
5.0
41
1.0
50
0.0
51
0.0
7
Standard
11
-4.0
21
7.0
31
0.0
210
0.0
220
0.0
230
1.0
71
0
72
0
100
AcDbText
73
0
0
TEXT
5
4F
330
1C
100
AcDbEntity
67
0
8
ANNOTATION
62
256
6
ByLayer
370
-1
48
1.0
60
0
100
AcDbText
1
TE
10
173.8
20
7.0
30
0.0
40
5.0
41
1.0
50
0.0
51
0.0
7
Standard
11
173.8
21
7.0
31
0.0
210
0.0
220
0.0
230
1.0
71
0
72
0
100
AcDbText
73
0
0
LINE
5
50
330
1C
100
AcDbEntity
67
0
8
DIMENSIONS
62
256
6
ByLayer
370
-1
48
1.0
60
0
100
AcDbLine
10
0.0
20
-30.744
30
0.0
11
170.8
21
-30.744
31
0.0
39
0.0
210
0.0
220
0.0
230
1.0
0
LINE
5
51
330
1C
100
AcDbEntity
67
0
8
DIMENSIONS
62
256
6
ByLayer
370
-1
48
1.0
60
0
100
AcDbLine
10
0.0
20
-36.744
30
0.0
11
0.0
21
-24.744
31
0.0
39
0.0
210
0.0
220
0.0
230
1.0
0
LINE
5
52
330
1C
100
AcDbEntity
67
0
8
DIMENSIONS
62
256
6
ByLayer
370
-1
48
1.0
60
0
100
AcDbLine
10
170.8
20
-36.744
30
0.0
11
170.8
21
-24.744
31
0.0
39
0.0
210
0.0
220
0.0
230
1.0
0
TEXT
5
53
330
1C
100
AcDbEntity
67
0
8
DIMENSIONS
62
256
6
ByLayer
370
-1
48
1.0
60
0
100
AcDbText
1
Chord=170.8mm
10
67.2
20
-41.744
30
0.0
40
5.0
41
1.0
50
0.0
51
0.0
7
Standard
11
67.2
21
-41.744
31
0.0
210
0.0
220
0.0
230
1.0
71
0
72
0
100
AcDbText
73
0
0
TEXT
5
54
330
1C
100
AcDbEntity
67
0
8
ANNOTATION
62
256
6
ByLayer
370
-1
48
1.0
60
0
100
AcDbText
1
Blade Angle B=22.0deg
10
175.8
20
-8.0
30
0.0
40
5.0
41
1.0
50
0.0
51
0.0
7
Standard
11
175.8
21
-8.0
31
0.0
210
0.0
220
0.0
230
1.0
71
0
72
0
100
AcDbText
73
0
0
TEXT
5
55
330
1C
100
AcDbEntity
67
0
8
ANNOTATION
62
256
6
ByLayer
370
-1
48
1.0
60
0
100
AcDbText
1
Profile: NACA 4412
10
175.8
20
-20.0
30
0.0
40
5.0
41
1.0
50
0.0
51
0.0
7
Standard
11
175.8
21
-20.0
31
0.0
210
0.0
220
0.0
230
1.0
71
0
72
0
100
AcDbText
73
0
0
LINE
5
56
330
1C
100
AcDbEntity
67
0
8
ANNOTATION
62
256
6
ByLayer
370
-1
48
1.0
60
0
100
AcDbLine
10
-40.0
20
-8.0
30
0.0
11
-5.0
21
-8.0
31
0.0
39
0.0
210
0.0
220
0.0
230
1.0
0
TEXT
5
57
330
1C
100
AcDbEntity
67
0
8
ANNOTATION
62
256
6
ByLayer
370
-1
48
1.0
60
0
100
AcDbText
1
V_inf
10
-45.0
20
-4.0
30
0.0
40
4.5
41
1.0
50
0.0
51
0.0
7
Standard
11
-45.0
21
-4.0
31
0.0
210
0.0
220
0.0
230
1.0
71
0
72
0
100
AcDbText
73
0
0
TEXT
5
58
330
1C
100
AcDbEntity
67
0
8
TITLE_BLOCK
62
256
6
ByLayer
370
-1
48
1.0
60
0
100
AcDbText
1
DWG-003  BLADE AEROFOIL SECTION (NACA 4412)
10
0.0
20
-103.32
30
0.0
40
6.0
41
1.0
50
0.0
51
0.0
7
Standard
11
0.0
21
-103.32
31
0.0
210
0.0
220
0.0
230
1.0
71
0
72
0
100
AcDbText
73
0
0
TEXT
5
59
330
1C
100
AcDbEntity
67
0
8
ANNOTATION
62
256
6
ByLayer
370
-1
48
1.0
60
0
100
AcDbText
1
Chord=170.8mm  B=22.0deg  Span=275.0mm
10
0.0
20
-113.32
30
0.0
40
4.5
41
1.0
50
0.0
51
0.0
7
Standard
11
0.0
21
-113.32
31
0.0
210
0.0
220
0.0
230
1.0
71
0
72
0
100
AcDbText
73
0
0
TEXT
5
5A
330
1C
100
AcDbEntity
67
0
8
ANNOTATION
62
256
6
ByLayer
370
-1
48
1.0
60
0
100
AcDbText
1
AxialFlow Designer  |  For Engineering Reference Only
10
0.0
20
-123.32
30
0.0
40
3.5
41
1.0
50
0.0
51
0.0
7
Standard
11
0.0
21
-123.32
31
0.0
210
0.0
220
0.0
230
1.0
71
0
72
0
100
AcDbText
73
0
0
VIEWPORT
5
5F
330
5B
100
AcDbEntity
67
1
8
0
62
256
6
ByLayer
370
-1
48
1.0
60
0
100
AcDbViewport
10
0.0
20
0.0
30
0.0
40
297.0
41
210.0
68
1
69
1
12
50.0
22
100.0
13
0.0
23
0.0
14
10.0
24
10.0
15
10.0
25
10.0
16
0.0
26
0.0
36
1.0
17
0.0
27
0.0
37
0.0
42
50.0
43
0.0
44
0.0
45
250.0
50
0.0
51
0.0
72
1000
90
819232
110
0.0
120
0.0
130
0.0
111
1.0
121
0.0
131
0.0
112
0.0
122
1.0
132
0.0
0
ENDSEC
0
SECTION
2
OBJECTS
0
DICTIONARY
5
65
330
0
100
AcDbDictionary
280
1
281
1
3
ACAD_GROUP
350
12
3
ACAD_LAYOUT
350
5E
3
ACAD_DGNDEFINITIONS
350
F
3
ACAD_DWFDEFINITIONS
350
10
3
ACAD_PDFDEFINITIONS
350
11
3
ACAD_MLINESTYLE
350
B
3
ACAD_IMAGE_DICT
350
E
3
ACAD_IMAGE_VARS
350
21
0
DICTIONARY
5
12
330
65
100
AcDbDictionary
280
1
281
1
0
DICTIONARY
5
5E
330
65
100
AcDbDictionary
280
1
281
1
3
Model
350
20
3
Layout1
350
60
0
DICTIONARY
5
F
330
65
100
AcDbDictionary
280
1
281
1
0
DICTIONARY
5
10
330
65
100
AcDbDictionary
280
1
281
1
0
DICTIONARY
5
11
330
65
100
AcDbDictionary
280
1
281
1
0
DICTIONARY
5
B
330
65
100
AcDbDictionary
280
1
281
1
3
Standard
350
1B
0
DICTIONARY
5
E
330
65
100
AcDbDictionary
280
1
281
1
0
DICTIONARY
5
6
330
5
100
AcDbDictionary
280
1
281
1
3
ACAD_LAYERSTATES
360
66
0
DICTIONARY
5
66
330
6
100
AcDbDictionary
280
1
281
1
0
LAYOUT
5
20
330
5E
100
AcDbPlotSettings
1

2
none_device
4
ISO_A4_(210.00_x_297.00_MM)
6

40
7.5
41
20.0
42
7.5
43
20.0
44
210.0
45
297.0
46
0.0
47
0.0
48
0.0
49
0.0
140
0.0
141
0.0
142
1.0
143
1.0
70
11952
72
1
73
1
74
1
7

75
0
76
0
77
2
78
300
147
1.0
148
0.0
149
0.0
100
AcDbLayout
1
Model
71
0
10
-20.0
20
-7.5
11
277.0
21
202.5
12
0.0
22
0.0
32
0.0
14
25.7
24
19.5
34
0.0
15
231.3
25
175.5
35
0.0
146
0.0
13
0.0
23
0.0
33
0.0
16
1.0
26
0.0
36
0.0
17
0.0
27
1.0
37
0.0
76
0
330
1C
0
LAYOUT
5
60
330
5E
100
AcDbPlotSettings
1

2
none_device
4
ISO_A4_(210.00_x_297.00_MM)
6

40
7.5
41
20.0
42
7.5
43
20.0
44
210.0
45
297.0
46
0.0
47
0.0
48
0.0
49
0.0
140
0.0
141
0.0
142
1.0
143
1.0
70
688
72
1
73
1
74
1
7

75
0
76
0
77
2
78
300
147
1.0
148
0.0
149
0.0
100
AcDbLayout
1
Layout1
71
1
10
-20.0
20
-7.5
11
277.0
21
202.5
12
0.0
22
0.0
32
0.0
14
25.7
24
19.5
34
0.0
15
231.3
25
175.5
35
0.0
146
0.0
13
0.0
23
0.0
33
0.0
16
1.0
26
0.0
36
0.0
17
0.0
27
1.0
37
0.0
76
0
330
5B
0
MLINESTYLE
5
1B
330
B
100
AcDbMlineStyle
2
Standard
70
0
3

62
256
51
90.0
52
90.0
71
2
49
0.5
62
256
6
ByLayer
49
-0.5
62
256
6
ByLayer
0
RASTERVARIABLES
5
21
330
E
100
AcDbRasterVariables
90
0
70
1
71
1
72
0
0
ENDSEC
0
EOF
