999
DXF file generated by netDxf https://github.com/haplokuon/netDxf, Copyright(C) Daniel Carvajal, Licensed under MIT
0
SECTION
2
HEADER
9
$ACADVER
1
AC1015
9
$DWGCODEPAGE
3
ANSI_1252
9
$HANDSEED
5
56
9
$ANGBASE
50
0.0
9
$ANGDIR
70
0
9
$ATTMODE
70
1
9
$AUNITS
70
0
9
$AUPREC
70
0
9
$CECOLOR
62
256
9
$CELTSCALE
40
1.0
9
$CELTYPE
6
ByLayer
9
$CELWEIGHT
370
-1
9
$CLAYER
8
0
9
$CMLJUST
70
0
9
$CMLSCALE
40
20.0
9
$CMLSTYLE
2
Standard
9
$DIMSTYLE
2
Standard
9
$TEXTSIZE
40
2.5
9
$TEXTSTYLE
7
Standard
9
$LUNITS
70
2
9
$LUPREC
70
4
9
$MIRRTEXT
70
0
9
$EXTNAMES
290
1
9
$INSBASE
10
0.0
20
0.0
30
0.0
9
$INSUNITS
70
0
9
$LTSCALE
40
1.0
9
$LWDISPLAY
290
0
9
$PDMODE
70
0
9
$PDSIZE
40
0.0
9
$PLINEGEN
70
0
9
$PSLTSCALE
70
1
9
$SPLINESEGS
70
8
9
$SURFU
70
6
9
$SURFV
70
6
9
$TDCREATE
40
2461232.45718368
9
$TDUCREATE
40
2461232.22801701
9
$TDUPDATE
40
2461232.45718368
9
$TDUUPDATE
40
2461232.22801701
9
$TDINDWG
40
0.0
9
$UCSORG
10
0.0
20
0.0
30
0.0
9
$UCSXDIR
10
1.0
20
0.0
30
0.0
9
$UCSYDIR
10
0.0
20
1.0
30
0.0
9
$DIMADEC
70
0
9
$DIMALT
70
0
9
$DIMALTD
70
2
9
$DIMALTF
40
25.4
9
$DIMALTRND
40
0.0
9
$DIMALTTD
70
2
9
$DIMALTTZ
70
0
9
$DIMALTU
70
2
9
$DIMALTZ
70
0
9
$DIMAPOST
1

9
$DIMATFIT
70
3
9
$DIMAUNIT
70
0
9
$DIMASZ
40
0.18
9
$DIMAZIN
70
0
9
$DIMSAH
70
0
9
$DIMBLK
1

9
$DIMLDRBLK
1

9
$DIMCEN
40
0.09
9
$DIMCLRD
70
0
9
$DIMCLRE
70
0
9
$DIMCLRT
70
0
9
$DIMDEC
70
4
9
$DIMDLE
40
0.0
9
$DIMDLI
40
0.38
9
$DIMDSEP
70
46
9
$DIMEXE
40
0.18
9
$DIMEXO
40
0.0625
9
$DIMFXLON
70
0
9
$DIMFXL
40
1.0
9
$DIMGAP
40
0.09
9
$DIMJUST
70
0
9
$DIMLFAC
40
1.0
9
$DIMLUNIT
70
2
9
$DIMLWD
70
-2
9
$DIMLWE
70
-2
9
$DIMPOST
1

9
$DIMRND
40
0.0
9
$DIMSCALE
40
1.0
9
$DIMSD1
70
0
9
$DIMSD2
70
0
9
$DIMSE1
70
0
9
$DIMSE2
70
0
9
$DIMSOXD
70
0
9
$DIMTAD
70
0
9
$DIMTDEC
70
4
9
$DIMTFAC
40
1.0
9
$DIMTIH
70
0
9
$DIMTIX
70
0
9
$DIMTM
40
0.0
9
$DIMTMOVE
70
0
9
$DIMTOFL
70
0
9
$DIMTOH
70
0
9
$DIMTOL
70
0
9
$DIMLIM
70
0
9
$DIMTOLJ
70
1
9
$DIMTP
40
0.0
9
$DIMTXT
40
0.18
9
$DIMTXTDIRECTION
70
0
9
$DIMTZIN
70
0
9
$DIMZIN
70
0
9
$DIMFRAC
70
0
9
$DIMLTYPE
6
ByBlock
9
$DIMLTEX1
6
ByBlock
9
$DIMLTEX2
6
ByBlock
0
ENDSEC
0
SECTION
2
CLASSES
0
CLASS
1
RASTERVARIABLES
2
AcDbRasterVariables
3
ISM
90
0
280
0
281
0
0
ENDSEC
0
SECTION
2
TABLES
0
TABLE
2
APPID
5
4
330
0
100
AcDbSymbolTable
70
5
0
APPID
5
19
330
4
100
AcDbSymbolTableRecord
100
AcDbRegAppTableRecord
2
ACAD
70
0
0
APPID
5
50
330
4
100
AcDbSymbolTableRecord
100
AcDbRegAppTableRecord
2
AcCmTransparency
70
0
0
APPID
5
51
330
4
100
AcDbSymbolTableRecord
100
AcDbRegAppTableRecord
2
AcAecLayerStandard
70
0
0
APPID
5
52
330
4
100
AcDbSymbolTableRecord
100
AcDbRegAppTableRecord
2
GradientColor1ACI
70
0
0
APPID
5
53
330
4
100
AcDbSymbolTableRecord
100
AcDbRegAppTableRecord
2
GradientColor2ACI
70
0
0
ENDTAB
0
TABLE
2
VPORT
5
1
330
0
100
AcDbSymbolTable
70
1
0
VPORT
5
2
330
1
100
AcDbSymbolTableRecord
100
AcDbViewportTableRecord
2
*Active
70
0
10
0.0
20
0.0
11
1.0
21
1.0
12
0.0
22
0.0
13
0.0
23
0.0
14
0.5
24
0.5
15
10.0
25
10.0
16
0.0
26
0.0
36
1.0
17
0.0
27
0.0
37
0.0
40
10.0
41
1.0
75
0
76
1
0
ENDTAB
0
TABLE
2
LTYPE
5
7
330
0
100
AcDbSymbolTable
70
5
0
LTYPE
5
15
330
7
100
AcDbSymbolTableRecord
100
AcDbLinetypeTableRecord
2
Continuous
70
0
3
Solid line
72
65
73
0
40
0.0
0
LTYPE
5
16
330
7
100
AcDbSymbolTableRecord
100
AcDbLinetypeTableRecord
2
ByLayer
70
0
3

72
65
73
0
40
0.0
0
LTYPE
5
17
330
7
100
AcDbSymbolTableRecord
100
AcDbLinetypeTableRecord
2
ByBlock
70
0
3

72
65
73
0
40
0.0
0
LTYPE
5
22
330
7
100
AcDbSymbolTableRecord
100
AcDbLinetypeTableRecord
2
DASHED
70
0
3
Dashed
72
65
73
2
40
8.0
49
6.0
74
0
49
-2.0
74
0
0
LTYPE
5
23
330
7
100
AcDbSymbolTableRecord
100
AcDbLinetypeTableRecord
2
CENTER
70
0
3
Center
72
65
73
4
40
20.0
49
12.0
74
0
49
-3.0
74
0
49
2.0
74
0
49
-3.0
74
0
0
ENDTAB
0
TABLE
2
LAYER
5
5
102
{ACAD_XDICTIONARY
360
6
102
}
330
0
100
AcDbSymbolTable
70
13
0
LAYER
5
14
330
5
100
AcDbSymbolTableRecord
100
AcDbLayerTableRecord
2
0
70
0
62
7
6
Continuous
290
1
370
-3
390
0
0
LAYER
5
24
330
5
100
AcDbSymbolTableRecord
100
AcDbLayerTableRecord
2
CASING
70
0
62
8
6
Continuous
290
1
370
-3
390
0
0
LAYER
5
25
330
5
100
AcDbSymbolTableRecord
100
AcDbLayerTableRecord
2
HUB
70
0
62
9
6
Continuous
290
1
370
-3
390
0
0
LAYER
5
26
330
5
100
AcDbSymbolTableRecord
100
AcDbLayerTableRecord
2
BLADES
70
0
62
5
6
Continuous
290
1
370
-3
390
0
0
LAYER
5
27
330
5
100
AcDbSymbolTableRecord
100
AcDbLayerTableRecord
2
CENTERLINE
70
0
62
1
6
Continuous
290
1
370
-3
390
0
0
LAYER
5
28
330
5
100
AcDbSymbolTableRecord
100
AcDbLayerTableRecord
2
TIP_DIAMETER
70
0
62
2
6
Continuous
290
1
370
-3
390
0
0
LAYER
5
29
330
5
100
AcDbSymbolTableRecord
100
AcDbLayerTableRecord
2
TIP_CLEARANCE
70
0
62
2
6
Continuous
290
1
370
-3
390
0
0
LAYER
5
2A
330
5
100
AcDbSymbolTableRecord
100
AcDbLayerTableRecord
2
BLADE_SURFACE
70
0
62
5
6
Continuous
290
1
370
-3
390
0
0
LAYER
5
2B
330
5
100
AcDbSymbolTableRecord
100
AcDbLayerTableRecord
2
CAMBER_LINE
70
0
62
4
6
Continuous
290
1
370
-3
390
0
0
LAYER
5
2C
330
5
100
AcDbSymbolTableRecord
100
AcDbLayerTableRecord
2
STATION_TICKS
70
0
62
9
6
Continuous
290
1
370
-3
390
0
0
LAYER
5
2D
330
5
100
AcDbSymbolTableRecord
100
AcDbLayerTableRecord
2
DIMENSIONS
70
0
62
7
6
Continuous
290
1
370
-3
390
0
0
LAYER
5
2E
330
5
100
AcDbSymbolTableRecord
100
AcDbLayerTableRecord
2
ANNOTATION
70
0
62
3
6
Continuous
290
1
370
-3
390
0
0
LAYER
5
2F
330
5
100
AcDbSymbolTableRecord
100
AcDbLayerTableRecord
2
TITLE_BLOCK
70
0
62
5
6
Continuous
290
1
370
-3
390
0
0
ENDTAB
0
TABLE
2
STYLE
5
8
330
0
100
AcDbSymbolTable
70
1
0
STYLE
5
18
330
8
100
AcDbSymbolTableRecord
100
AcDbTextStyleTableRecord
2
Standard
3
simplex.shx
70
0
71
0
40
0.0
41
1.0
42
0.0
50
0.0
0
ENDTAB
0
TABLE
2
DIMSTYLE
5
A
330
0
100
AcDbSymbolTable
70
1
100
AcDbDimStyleTable
0
DIMSTYLE
105
1A
330
A
100
AcDbSymbolTableRecord
100
AcDbDimStyleTableRecord
2
Standard
3

4

40
1.0
41
0.18
42
0.0625
43
0.38
44
0.18
45
0.0
46
0.0
47
0.0
48
0.0
49
1.0
70
0
71
0
72
0
73
0
74
0
75
0
76
0
77
0
78
0
79
0
140
0.18
141
0.09
143
25.4
144
1.0
146
1.0
147
0.09
148
0.0
170
0
171
2
172
0
174
0
175
0
176
0
177
0
178
0
179
0
271
4
272
4
273
2
274
2
275
0
276
0
277
2
278
46
279
0
280
0
281
0
282
0
283
1
284
0
285
0
286
0
289
3
290
0
294
0
340
18
173
0
345
17
346
17
347
17
371
-2
372
-2
0
ENDTAB
0
TABLE
2
VIEW
5
3
330
0
100
AcDbSymbolTable
70
0
0
ENDTAB
0
TABLE
2
UCS
5
C
330
0
100
AcDbSymbolTable
70
0
0
ENDTAB
0
TABLE
2
BLOCK_RECORD
5
D
330
0
100
AcDbSymbolTable
70
2
0
BLOCK_RECORD
5
1C
330
D
100
AcDbSymbolTableRecord
100
AcDbBlockTableRecord
2
*Model_Space
340
20
0
BLOCK_RECORD
5
4A
330
D
100
AcDbSymbolTableRecord
100
AcDbBlockTableRecord
2
*Paper_Space
340
4F
0
ENDTAB
0
ENDSEC
0
SECTION
2
BLOCKS
0
BLOCK
5
1E
330
1C
100
AcDbEntity
67
0
8
0
100
AcDbBlockBegin
2
*Model_Space
70
0
10
0.0
20
0.0
30
0.0
3
*Model_Space
4

0
ENDBLK
5
1D
330
1C
100
AcDbEntity
8
0
100
AcDbBlockEnd
0
BLOCK
5
4C
330
4A
100
AcDbEntity
67
1
8
0
100
AcDbBlockBegin
2
*Paper_Space
70
0
10
0.0
20
0.0
30
0.0
3
*Paper_Space
4

0
ENDBLK
5
4B
330
4A
100
AcDbEntity
8
0
100
AcDbBlockEnd
0
ENDSEC
0
SECTION
2
ENTITIES
0
CIRCLE
5
30
330
1C
100
AcDbEntity
67
0
8
CASING
62
256
6
ByLayer
370
-1
48
1.0
60
0
100
AcDbCircle
10
0.0
20
0.0
30
0.0
40
415.0
39
0.0
210
0.0
220
0.0
230
1.0
0
CIRCLE
5
31
330
1C
100
AcDbEntity
67
0
8
TIP_CLEARANCE
62
256
6
DASHED
370
-1
48
1.0
60
0
100
AcDbCircle
10
0.0
20
0.0
30
0.0
40
403.0
39
0.0
210
0.0
220
0.0
230
1.0
0
CIRCLE
5
32
330
1C
100
AcDbEntity
67
0
8
TIP_DIAMETER
62
256
6
DASHED
370
-1
48
1.0
60
0
100
AcDbCircle
10
0.0
20
0.0
30
0.0
40
400.0
39
0.0
210
0.0
220
0.0
230
1.0
0
LWPOLYLINE
5
33
330
1C
100
AcDbEntity
67
0
8
BLADES
62
256
6
ByLayer
370
-1
48
1.0
60
0
100
AcDbPolyline
90
4
70
1
38
0.0
39
0.0
10
182.622246153911
20
-6.49028698196751
40
0.0
41
0.0
42
0.0
10
177.377753846089
20
6.49028698196751
40
0.0
41
0.0
42
0.0
10
397.377753846089
20
6.49028698196751
40
0.0
41
0.0
42
0.0
10
402.622246153911
20
-6.49028698196751
40
0.0
41
0.0
42
0.0
210
0.0
220
0.0
230
1.0
0
LWPOLYLINE
5
34
330
1C
100
AcDbEntity
67
0
8
BLADES
62
256
6
ByLayer
370
-1
48
1.0
60
0
100
AcDbPolyline
90
4
70
1
38
0.0
39
0.0
10
96.931876481191
20
154.910360974478
40
0.0
41
0.0
42
0.0
10
83.068123518809
20
156.858784387919
40
0.0
41
0.0
42
0.0
10
193.068123518809
20
347.384373220496
40
0.0
41
0.0
42
0.0
10
206.931876481191
20
345.435949807055
40
0.0
41
0.0
42
0.0
210
0.0
220
0.0
230
1.0
0
LWPOLYLINE
5
35
330
1C
100
AcDbEntity
67
0
8
BLADES
62
256
6
ByLayer
370
-1
48
1.0
60
0
100
AcDbPolyline
90
4
70
1
38
0.0
39
0.0
10
-85.6903696727204
20
161.400647956446
40
0.0
41
0.0
42
0.0
10
-94.3096303272796
20
150.368497405952
40
0.0
41
0.0
42
0.0
10
-204.30963032728
20
340.894086238528
40
0.0
41
0.0
42
0.0
10
-195.69036967272
20
351.926236789023
40
0.0
41
0.0
42
0.0
210
0.0
220
0.0
230
1.0
0
LWPOLYLINE
5
36
330
1C
100
AcDbEntity
67
0
8
BLADES
62
256
6
ByLayer
370
-1
48
1.0
60
0
100
AcDbPolyline
90
4
70
1
38
0.0
39
0.0
10
-182.622246153911
20
6.49028698196753
40
0.0
41
0.0
42
0.0
10
-177.377753846089
20
-6.49028698196749
40
0.0
41
0.0
42
0.0
10
-397.377753846089
20
-6.49028698196746
40
0.0
41
0.0
42
0.0
10
-402.622246153911
20
6.49028698196756
40
0.0
41
0.0
42
0.0
210
0.0
220
0.0
230
1.0
0
LWPOLYLINE
5
37
330
1C
100
AcDbEntity
67
0
8
BLADES
62
256
6
ByLayer
370
-1
48
1.0
60
0
100
AcDbPolyline
90
4
70
1
38
0.0
39
0.0
10
-96.9318764811911
20
-154.910360974478
40
0.0
41
0.0
42
0.0
10
-83.0681235188091
20
-156.858784387919
40
0.0
41
0.0
42
0.0
10
-193.068123518809
20
-347.384373220496
40
0.0
41
0.0
42
0.0
10
-206.931876481191
20
-345.435949807055
40
0.0
41
0.0
42
0.0
210
0.0
220
0.0
230
1.0
0
LWPOLYLINE
5
38
330
1C
100
AcDbEntity
67
0
8
BLADES
62
256
6
ByLayer
370
-1
48
1.0
60
0
100
AcDbPolyline
90
4
70
1
38
0.0
39
0.0
10
85.6903696727204
20
-161.400647956446
40
0.0
41
0.0
42
0.0
10
94.3096303272796
20
-150.368497405952
40
0.0
41
0.0
42
0.0
10
204.30963032728
20
-340.894086238528
40
0.0
41
0.0
42
0.0
10
195.69036967272
20
-351.926236789022
40
0.0
41
0.0
42
0.0
210
0.0
220
0.0
230
1.0
0
CIRCLE
5
39
330
1C
100
AcDbEntity
67
0
8
HUB
62
256
6
ByLayer
370
-1
48
1.0
60
0
100
AcDbCircle
10
0.0
20
0.0
30
0.0
40
180.0
39
0.0
210
0.0
220
0.0
230
1.0
0
CIRCLE
5
3A
330
1C
100
AcDbEntity
67
0
8
HUB
62
256
6
ByLayer
370
-1
48
1.0
60
0
100
AcDbCircle
10
0.0
20
0.0
30
0.0
40
45.0
39
0.0
210
0.0
220
0.0
230
1.0
0
LINE
5
3B
330
1C
100
AcDbEntity
67
0
8
CENTERLINE
62
256
6
ByLayer
370
-1
48
1.0
60
0
100
AcDbLine
10
-440.0
20
0.0
30
0.0
11
440.0
21
0.0
31
0.0
39
0.0
210
0.0
220
0.0
230
1.0
0
LINE
5
3C
330
1C
100
AcDbEntity
67
0
8
CENTERLINE
62
256
6
ByLayer
370
-1
48
1.0
60
0
100
AcDbLine
10
0.0
20
-440.0
30
0.0
11
0.0
21
440.0
31
0.0
39
0.0
210
0.0
220
0.0
230
1.0
0
LINE
5
3D
330
1C
100
AcDbEntity
67
0
8
DIMENSIONS
62
256
6
ByLayer
370
-1
48
1.0
60
0
100
AcDbLine
10
-400.0
20
-430.0
30
0.0
11
400.0
21
-430.0
31
0.0
39
0.0
210
0.0
220
0.0
230
1.0
0
LINE
5
3E
330
1C
100
AcDbEntity
67
0
8
DIMENSIONS
62
256
6
ByLayer
370
-1
48
1.0
60
0
100
AcDbLine
10
-400.0
20
-436.0
30
0.0
11
-400.0
21
-424.0
31
0.0
39
0.0
210
0.0
220
0.0
230
1.0
0
LINE
5
3F
330
1C
100
AcDbEntity
67
0
8
DIMENSIONS
62
256
6
ByLayer
370
-1
48
1.0
60
0
100
AcDbLine
10
400.0
20
-436.0
30
0.0
11
400.0
21
-424.0
31
0.0
39
0.0
210
0.0
220
0.0
230
1.0
0
TEXT
5
40
330
1C
100
AcDbEntity
67
0
8
DIMENSIONS
62
256
6
ByLayer
370
-1
48
1.0
60
0
100
AcDbText
1
D=800 mm (Tip)
10
-19.6
20
-441.0
30
0.0
40
5.0
41
1.0
50
0.0
51
0.0
7
Standard
11
-19.6
21
-441.0
31
0.0
210
0.0
220
0.0
230
1.0
71
0
72
0
100
AcDbText
73
0
0
LINE
5
41
330
1C
100
AcDbEntity
67
0
8
DIMENSIONS
62
256
6
ByLayer
370
-1
48
1.0
60
0
100
AcDbLine
10
-180.0
20
205.0
30
0.0
11
180.0
21
205.0
31
0.0
39
0.0
210
0.0
220
0.0
230
1.0
0
LINE
5
42
330
1C
100
AcDbEntity
67
0
8
DIMENSIONS
62
256
6
ByLayer
370
-1
48
1.0
60
0
100
AcDbLine
10
-180.0
20
199.6
30
0.0
11
-180.0
21
210.4
31
0.0
39
0.0
210
0.0
220
0.0
230
1.0
0
LINE
5
43
330
1C
100
AcDbEntity
67
0
8
DIMENSIONS
62
256
6
ByLayer
370
-1
48
1.0
60
0
100
AcDbLine
10
180.0
20
199.6
30
0.0
11
180.0
21
210.4
31
0.0
39
0.0
210
0.0
220
0.0
230
1.0
0
TEXT
5
44
330
1C
100
AcDbEntity
67
0
8
DIMENSIONS
62
256
6
ByLayer
370
-1
48
1.0
60
0
100
AcDbText
1
D=360 mm (Hub)
10
-17.64
20
195.1
30
0.0
40
4.5
41
1.0
50
0.0
51
0.0
7
Standard
11
-17.64
21
195.1
31
0.0
210
0.0
220
0.0
230
1.0
71
0
72
0
100
AcDbText
73
0
0
TEXT
5
45
330
1C
100
AcDbEntity
67
0
8
ANNOTATION
62
256
6
ByLayer
370
-1
48
1.0
60
0
100
AcDbText
1
No. of Blades: 6
10
420.0
20
20.0
30
0.0
40
4.5
41
1.0
50
0.0
51
0.0
7
Standard
11
420.0
21
20.0
31
0.0
210
0.0
220
0.0
230
1.0
71
0
72
0
100
AcDbText
73
0
0
TEXT
5
46
330
1C
100
AcDbEntity
67
0
8
ANNOTATION
62
256
6
ByLayer
370
-1
48
1.0
60
0
100
AcDbText
1
Blade Angle: 22.0 deg
10
420.0
20
8.0
30
0.0
40
4.5
41
1.0
50
0.0
51
0.0
7
Standard
11
420.0
21
8.0
31
0.0
210
0.0
220
0.0
230
1.0
71
0
72
0
100
AcDbText
73
0
0
TEXT
5
47
330
1C
100
AcDbEntity
67
0
8
TITLE_BLOCK
62
256
6
ByLayer
370
-1
48
1.0
60
0
100
AcDbText
1
DWG-001  FRONT ELEVATION
10
0.0
20
-435.0
30
0.0
40
6.0
41
1.0
50
0.0
51
0.0
7
Standard
11
0.0
21
-435.0
31
0.0
210
0.0
220
0.0
230
1.0
71
0
72
0
100
AcDbText
73
0
0
TEXT
5
48
330
1C
100
AcDbEntity
67
0
8
ANNOTATION
62
256
6
ByLayer
370
-1
48
1.0
60
0
100
AcDbText
1
D=800mm  Z=6  N=1450RPM
10
0.0
20
-445.0
30
0.0
40
4.5
41
1.0
50
0.0
51
0.0
7
Standard
11
0.0
21
-445.0
31
0.0
210
0.0
220
0.0
230
1.0
71
0
72
0
100
AcDbText
73
0
0
TEXT
5
49
330
1C
100
AcDbEntity
67
0
8
ANNOTATION
62
256
6
ByLayer
370
-1
48
1.0
60
0
100
AcDbText
1
AxialFlow Designer  |  For Engineering Reference Only
10
0.0
20
-455.0
30
0.0
40
3.5
41
1.0
50
0.0
51
0.0
7
Standard
11
0.0
21
-455.0
31
0.0
210
0.0
220
0.0
230
1.0
71
0
72
0
100
AcDbText
73
0
0
VIEWPORT
5
4E
330
4A
100
AcDbEntity
67
1
8
0
62
256
6
ByLayer
370
-1
48
1.0
60
0
100
AcDbViewport
10
0.0
20
0.0
30
0.0
40
297.0
41
210.0
68
1
69
1
12
50.0
22
100.0
13
0.0
23
0.0
14
10.0
24
10.0
15
10.0
25
10.0
16
0.0
26
0.0
36
1.0
17
0.0
27
0.0
37
0.0
42
50.0
43
0.0
44
0.0
45
250.0
50
0.0
51
0.0
72
1000
90
819232
110
0.0
120
0.0
130
0.0
111
1.0
121
0.0
131
0.0
112
0.0
122
1.0
132
0.0
0
ENDSEC
0
SECTION
2
OBJECTS
0
DICTIONARY
5
54
330
0
100
AcDbDictionary
280
1
281
1
3
ACAD_GROUP
350
12
3
ACAD_LAYOUT
350
4D
3
ACAD_DGNDEFINITIONS
350
F
3
ACAD_DWFDEFINITIONS
350
10
3
ACAD_PDFDEFINITIONS
350
11
3
ACAD_MLINESTYLE
350
B
3
ACAD_IMAGE_DICT
350
E
3
ACAD_IMAGE_VARS
350
21
0
DICTIONARY
5
12
330
54
100
AcDbDictionary
280
1
281
1
0
DICTIONARY
5
4D
330
54
100
AcDbDictionary
280
1
281
1
3
Model
350
20
3
Layout1
350
4F
0
DICTIONARY
5
F
330
54
100
AcDbDictionary
280
1
281
1
0
DICTIONARY
5
10
330
54
100
AcDbDictionary
280
1
281
1
0
DICTIONARY
5
11
330
54
100
AcDbDictionary
280
1
281
1
0
DICTIONARY
5
B
330
54
100
AcDbDictionary
280
1
281
1
3
Standard
350
1B
0
DICTIONARY
5
E
330
54
100
AcDbDictionary
280
1
281
1
0
DICTIONARY
5
6
330
5
100
AcDbDictionary
280
1
281
1
3
ACAD_LAYERSTATES
360
55
0
DICTIONARY
5
55
330
6
100
AcDbDictionary
280
1
281
1
0
LAYOUT
5
20
330
4D
100
AcDbPlotSettings
1

2
none_device
4
ISO_A4_(210.00_x_297.00_MM)
6

40
7.5
41
20.0
42
7.5
43
20.0
44
210.0
45
297.0
46
0.0
47
0.0
48
0.0
49
0.0
140
0.0
141
0.0
142
1.0
143
1.0
70
11952
72
1
73
1
74
1
7

75
0
76
0
77
2
78
300
147
1.0
148
0.0
149
0.0
100
AcDbLayout
1
Model
71
0
10
-20.0
20
-7.5
11
277.0
21
202.5
12
0.0
22
0.0
32
0.0
14
25.7
24
19.5
34
0.0
15
231.3
25
175.5
35
0.0
146
0.0
13
0.0
23
0.0
33
0.0
16
1.0
26
0.0
36
0.0
17
0.0
27
1.0
37
0.0
76
0
330
1C
0
LAYOUT
5
4F
330
4D
100
AcDbPlotSettings
1

2
none_device
4
ISO_A4_(210.00_x_297.00_MM)
6

40
7.5
41
20.0
42
7.5
43
20.0
44
210.0
45
297.0
46
0.0
47
0.0
48
0.0
49
0.0
140
0.0
141
0.0
142
1.0
143
1.0
70
688
72
1
73
1
74
1
7

75
0
76
0
77
2
78
300
147
1.0
148
0.0
149
0.0
100
AcDbLayout
1
Layout1
71
1
10
-20.0
20
-7.5
11
277.0
21
202.5
12
0.0
22
0.0
32
0.0
14
25.7
24
19.5
34
0.0
15
231.3
25
175.5
35
0.0
146
0.0
13
0.0
23
0.0
33
0.0
16
1.0
26
0.0
36
0.0
17
0.0
27
1.0
37
0.0
76
0
330
4A
0
MLINESTYLE
5
1B
330
B
100
AcDbMlineStyle
2
Standard
70
0
3

62
256
51
90.0
52
90.0
71
2
49
0.5
62
256
6
ByLayer
49
-0.5
62
256
6
ByLayer
0
RASTERVARIABLES
5
21
330
E
100
AcDbRasterVariables
90
0
70
1
71
1
72
0
0
ENDSEC
0
EOF
