999
DXF file generated by netDxf https://github.com/haplokuon/netDxf, Copyright(C) Daniel Carvajal, Licensed under MIT
0
SECTION
2
HEADER
9
$ACADVER
1
AC1015
9
$DWGCODEPAGE
3
ANSI_1252
9
$HANDSEED
5
67
9
$ANGBASE
50
0.0
9
$ANGDIR
70
0
9
$ATTMODE
70
1
9
$AUNITS
70
0
9
$AUPREC
70
0
9
$CECOLOR
62
256
9
$CELTSCALE
40
1.0
9
$CELTYPE
6
ByLayer
9
$CELWEIGHT
370
-1
9
$CLAYER
8
0
9
$CMLJUST
70
0
9
$CMLSCALE
40
20.0
9
$CMLSTYLE
2
Standard
9
$DIMSTYLE
2
Standard
9
$TEXTSIZE
40
2.5
9
$TEXTSTYLE
7
Standard
9
$LUNITS
70
2
9
$LUPREC
70
4
9
$MIRRTEXT
70
0
9
$EXTNAMES
290
1
9
$INSBASE
10
0.0
20
0.0
30
0.0
9
$INSUNITS
70
0
9
$LTSCALE
40
1.0
9
$LWDISPLAY
290
0
9
$PDMODE
70
0
9
$PDSIZE
40
0.0
9
$PLINEGEN
70
0
9
$PSLTSCALE
70
1
9
$SPLINESEGS
70
8
9
$SURFU
70
6
9
$SURFV
70
6
9
$TDCREATE
40
2461231.6919889
9
$TDUCREATE
40
2461231.46282223
9
$TDUPDATE
40
2461231.6919889
9
$TDUUPDATE
40
2461231.46282223
9
$TDINDWG
40
0.0
9
$UCSORG
10
0.0
20
0.0
30
0.0
9
$UCSXDIR
10
1.0
20
0.0
30
0.0
9
$UCSYDIR
10
0.0
20
1.0
30
0.0
9
$DIMADEC
70
0
9
$DIMALT
70
0
9
$DIMALTD
70
2
9
$DIMALTF
40
25.4
9
$DIMALTRND
40
0.0
9
$DIMALTTD
70
2
9
$DIMALTTZ
70
0
9
$DIMALTU
70
2
9
$DIMALTZ
70
0
9
$DIMAPOST
1

9
$DIMATFIT
70
3
9
$DIMAUNIT
70
0
9
$DIMASZ
40
0.18
9
$DIMAZIN
70
0
9
$DIMSAH
70
0
9
$DIMBLK
1

9
$DIMLDRBLK
1

9
$DIMCEN
40
0.09
9
$DIMCLRD
70
0
9
$DIMCLRE
70
0
9
$DIMCLRT
70
0
9
$DIMDEC
70
4
9
$DIMDLE
40
0.0
9
$DIMDLI
40
0.38
9
$DIMDSEP
70
46
9
$DIMEXE
40
0.18
9
$DIMEXO
40
0.0625
9
$DIMFXLON
70
0
9
$DIMFXL
40
1.0
9
$DIMGAP
40
0.09
9
$DIMJUST
70
0
9
$DIMLFAC
40
1.0
9
$DIMLUNIT
70
2
9
$DIMLWD
70
-2
9
$DIMLWE
70
-2
9
$DIMPOST
1

9
$DIMRND
40
0.0
9
$DIMSCALE
40
1.0
9
$DIMSD1
70
0
9
$DIMSD2
70
0
9
$DIMSE1
70
0
9
$DIMSE2
70
0
9
$DIMSOXD
70
0
9
$DIMTAD
70
0
9
$DIMTDEC
70
4
9
$DIMTFAC
40
1.0
9
$DIMTIH
70
0
9
$DIMTIX
70
0
9
$DIMTM
40
0.0
9
$DIMTMOVE
70
0
9
$DIMTOFL
70
0
9
$DIMTOH
70
0
9
$DIMTOL
70
0
9
$DIMLIM
70
0
9
$DIMTOLJ
70
1
9
$DIMTP
40
0.0
9
$DIMTXT
40
0.18
9
$DIMTXTDIRECTION
70
0
9
$DIMTZIN
70
0
9
$DIMZIN
70
0
9
$DIMFRAC
70
0
9
$DIMLTYPE
6
ByBlock
9
$DIMLTEX1
6
ByBlock
9
$DIMLTEX2
6
ByBlock
0
ENDSEC
0
SECTION
2
CLASSES
0
CLASS
1
RASTERVARIABLES
2
AcDbRasterVariables
3
ISM
90
0
280
0
281
0
0
ENDSEC
0
SECTION
2
TABLES
0
TABLE
2
APPID
5
4
330
0
100
AcDbSymbolTable
70
5
0
APPID
5
19
330
4
100
AcDbSymbolTableRecord
100
AcDbRegAppTableRecord
2
ACAD
70
0
0
APPID
5
61
330
4
100
AcDbSymbolTableRecord
100
AcDbRegAppTableRecord
2
AcCmTransparency
70
0
0
APPID
5
62
330
4
100
AcDbSymbolTableRecord
100
AcDbRegAppTableRecord
2
AcAecLayerStandard
70
0
0
APPID
5
63
330
4
100
AcDbSymbolTableRecord
100
AcDbRegAppTableRecord
2
GradientColor1ACI
70
0
0
APPID
5
64
330
4
100
AcDbSymbolTableRecord
100
AcDbRegAppTableRecord
2
GradientColor2ACI
70
0
0
ENDTAB
0
TABLE
2
VPORT
5
1
330
0
100
AcDbSymbolTable
70
1
0
VPORT
5
2
330
1
100
AcDbSymbolTableRecord
100
AcDbViewportTableRecord
2
*Active
70
0
10
0.0
20
0.0
11
1.0
21
1.0
12
0.0
22
0.0
13
0.0
23
0.0
14
0.5
24
0.5
15
10.0
25
10.0
16
0.0
26
0.0
36
1.0
17
0.0
27
0.0
37
0.0
40
10.0
41
1.0
75
0
76
1
0
ENDTAB
0
TABLE
2
LTYPE
5
7
330
0
100
AcDbSymbolTable
70
5
0
LTYPE
5
15
330
7
100
AcDbSymbolTableRecord
100
AcDbLinetypeTableRecord
2
Continuous
70
0
3
Solid line
72
65
73
0
40
0.0
0
LTYPE
5
16
330
7
100
AcDbSymbolTableRecord
100
AcDbLinetypeTableRecord
2
ByLayer
70
0
3

72
65
73
0
40
0.0
0
LTYPE
5
17
330
7
100
AcDbSymbolTableRecord
100
AcDbLinetypeTableRecord
2
ByBlock
70
0
3

72
65
73
0
40
0.0
0
LTYPE
5
22
330
7
100
AcDbSymbolTableRecord
100
AcDbLinetypeTableRecord
2
DASHED
70
0
3
Dashed
72
65
73
2
40
8.0
49
6.0
74
0
49
-2.0
74
0
0
LTYPE
5
23
330
7
100
AcDbSymbolTableRecord
100
AcDbLinetypeTableRecord
2
CENTER
70
0
3
Center
72
65
73
4
40
20.0
49
12.0
74
0
49
-3.0
74
0
49
2.0
74
0
49
-3.0
74
0
0
ENDTAB
0
TABLE
2
LAYER
5
5
102
{ACAD_XDICTIONARY
360
6
102
}
330
0
100
AcDbSymbolTable
70
13
0
LAYER
5
14
330
5
100
AcDbSymbolTableRecord
100
AcDbLayerTableRecord
2
0
70
0
62
7
6
Continuous
290
1
370
-3
390
0
0
LAYER
5
24
330
5
100
AcDbSymbolTableRecord
100
AcDbLayerTableRecord
2
CASING
70
0
62
8
6
Continuous
290
1
370
-3
390
0
0
LAYER
5
25
330
5
100
AcDbSymbolTableRecord
100
AcDbLayerTableRecord
2
HUB
70
0
62
9
6
Continuous
290
1
370
-3
390
0
0
LAYER
5
26
330
5
100
AcDbSymbolTableRecord
100
AcDbLayerTableRecord
2
BLADES
70
0
62
5
6
Continuous
290
1
370
-3
390
0
0
LAYER
5
27
330
5
100
AcDbSymbolTableRecord
100
AcDbLayerTableRecord
2
CENTERLINE
70
0
62
1
6
Continuous
290
1
370
-3
390
0
0
LAYER
5
28
330
5
100
AcDbSymbolTableRecord
100
AcDbLayerTableRecord
2
TIP_DIAMETER
70
0
62
2
6
Continuous
290
1
370
-3
390
0
0
LAYER
5
29
330
5
100
AcDbSymbolTableRecord
100
AcDbLayerTableRecord
2
TIP_CLEARANCE
70
0
62
2
6
Continuous
290
1
370
-3
390
0
0
LAYER
5
2A
330
5
100
AcDbSymbolTableRecord
100
AcDbLayerTableRecord
2
BLADE_SURFACE
70
0
62
5
6
Continuous
290
1
370
-3
390
0
0
LAYER
5
2B
330
5
100
AcDbSymbolTableRecord
100
AcDbLayerTableRecord
2
CAMBER_LINE
70
0
62
4
6
Continuous
290
1
370
-3
390
0
0
LAYER
5
2C
330
5
100
AcDbSymbolTableRecord
100
AcDbLayerTableRecord
2
STATION_TICKS
70
0
62
9
6
Continuous
290
1
370
-3
390
0
0
LAYER
5
2D
330
5
100
AcDbSymbolTableRecord
100
AcDbLayerTableRecord
2
DIMENSIONS
70
0
62
7
6
Continuous
290
1
370
-3
390
0
0
LAYER
5
2E
330
5
100
AcDbSymbolTableRecord
100
AcDbLayerTableRecord
2
ANNOTATION
70
0
62
3
6
Continuous
290
1
370
-3
390
0
0
LAYER
5
2F
330
5
100
AcDbSymbolTableRecord
100
AcDbLayerTableRecord
2
TITLE_BLOCK
70
0
62
5
6
Continuous
290
1
370
-3
390
0
0
ENDTAB
0
TABLE
2
STYLE
5
8
330
0
100
AcDbSymbolTable
70
1
0
STYLE
5
18
330
8
100
AcDbSymbolTableRecord
100
AcDbTextStyleTableRecord
2
Standard
3
simplex.shx
70
0
71
0
40
0.0
41
1.0
42
0.0
50
0.0
0
ENDTAB
0
TABLE
2
DIMSTYLE
5
A
330
0
100
AcDbSymbolTable
70
1
100
AcDbDimStyleTable
0
DIMSTYLE
105
1A
330
A
100
AcDbSymbolTableRecord
100
AcDbDimStyleTableRecord
2
Standard
3

4

40
1.0
41
0.18
42
0.0625
43
0.38
44
0.18
45
0.0
46
0.0
47
0.0
48
0.0
49
1.0
70
0
71
0
72
0
73
0
74
0
75
0
76
0
77
0
78
0
79
0
140
0.18
141
0.09
143
25.4
144
1.0
146
1.0
147
0.09
148
0.0
170
0
171
2
172
0
174
0
175
0
176
0
177
0
178
0
179
0
271
4
272
4
273
2
274
2
275
0
276
0
277
2
278
46
279
0
280
0
281
0
282
0
283
1
284
0
285
0
286
0
289
3
290
0
294
0
340
18
173
0
345
17
346
17
347
17
371
-2
372
-2
0
ENDTAB
0
TABLE
2
VIEW
5
3
330
0
100
AcDbSymbolTable
70
0
0
ENDTAB
0
TABLE
2
UCS
5
C
330
0
100
AcDbSymbolTable
70
0
0
ENDTAB
0
TABLE
2
BLOCK_RECORD
5
D
330
0
100
AcDbSymbolTable
70
2
0
BLOCK_RECORD
5
1C
330
D
100
AcDbSymbolTableRecord
100
AcDbBlockTableRecord
2
*Model_Space
340
20
0
BLOCK_RECORD
5
5B
330
D
100
AcDbSymbolTableRecord
100
AcDbBlockTableRecord
2
*Paper_Space
340
60
0
ENDTAB
0
ENDSEC
0
SECTION
2
BLOCKS
0
BLOCK
5
1E
330
1C
100
AcDbEntity
67
0
8
0
100
AcDbBlockBegin
2
*Model_Space
70
0
10
0.0
20
0.0
30
0.0
3
*Model_Space
4

0
ENDBLK
5
1D
330
1C
100
AcDbEntity
8
0
100
AcDbBlockEnd
0
BLOCK
5
5D
330
5B
100
AcDbEntity
67
1
8
0
100
AcDbBlockBegin
2
*Paper_Space
70
0
10
0.0
20
0.0
30
0.0
3
*Paper_Space
4

0
ENDBLK
5
5C
330
5B
100
AcDbEntity
8
0
100
AcDbBlockEnd
0
ENDSEC
0
SECTION
2
ENTITIES
0
SPLINE
5
30
330
1C
100
AcDbEntity
67
0
8
BLADE_SURFACE
62
256
6
ByLayer
370
-1
48
1.0
60
0
100
AcDbSpline
70
36
71
3
42
0.0000001
43
0.0000001
44
0.0000000001
40
0.0
40
0.0
40
0.0
40
0.0
40
0.0123456790123457
40
0.0123456790123457
40
0.0123456790123457
40
0.0123456790123457
40
0.0246913580246914
40
0.0246913580246914
40
0.0246913580246914
40
0.0246913580246914
40
0.037037037037037
40
0.037037037037037
40
0.037037037037037
40
0.037037037037037
40
0.0493827160493827
40
0.0493827160493827
40
0.0493827160493827
40
0.0493827160493827
40
0.0617283950617284
40
0.0617283950617284
40
0.0617283950617284
40
0.0617283950617284
40
0.0740740740740741
40
0.0740740740740741
40
0.0740740740740741
40
0.0740740740740741
40
0.0864197530864197
40
0.0864197530864197
40
0.0864197530864197
40
0.0864197530864197
40
0.0987654320987654
40
0.0987654320987654
40
0.0987654320987654
40
0.0987654320987654
40
0.111111111111111
40
0.111111111111111
40
0.111111111111111
40
0.111111111111111
40
0.123456790123457
40
0.123456790123457
40
0.123456790123457
40
0.123456790123457
40
0.135802469135802
40
0.135802469135802
40
0.135802469135802
40
0.135802469135802
40
0.148148148148148
40
0.148148148148148
40
0.148148148148148
40
0.148148148148148
40
0.160493827160494
40
0.160493827160494
40
0.160493827160494
40
0.160493827160494
40
0.172839506172839
40
0.172839506172839
40
0.172839506172839
40
0.172839506172839
40
0.185185185185185
40
0.185185185185185
40
0.185185185185185
40
0.185185185185185
40
0.197530864197531
40
0.197530864197531
40
0.197530864197531
40
0.197530864197531
40
0.209876543209877
40
0.209876543209877
40
0.209876543209877
40
0.209876543209877
40
0.222222222222222
40
0.222222222222222
40
0.222222222222222
40
0.222222222222222
40
0.234567901234568
40
0.234567901234568
40
0.234567901234568
40
0.234567901234568
40
0.246913580246914
40
0.246913580246914
40
0.246913580246914
40
0.246913580246914
40
0.259259259259259
40
0.259259259259259
40
0.259259259259259
40
0.259259259259259
40
0.271604938271605
40
0.271604938271605
40
0.271604938271605
40
0.271604938271605
40
0.283950617283951
40
0.283950617283951
40
0.283950617283951
40
0.283950617283951
40
0.296296296296296
40
0.296296296296296
40
0.296296296296296
40
0.296296296296296
40
0.308641975308642
40
0.308641975308642
40
0.308641975308642
40
0.308641975308642
40
0.320987654320988
40
0.320987654320988
40
0.320987654320988
40
0.320987654320988
40
0.333333333333333
40
0.333333333333333
40
0.333333333333333
40
0.333333333333333
40
0.345679012345679
40
0.345679012345679
40
0.345679012345679
40
0.345679012345679
40
0.358024691358025
40
0.358024691358025
40
0.358024691358025
40
0.358024691358025
40
0.37037037037037
40
0.37037037037037
40
0.37037037037037
40
0.37037037037037
40
0.382716049382716
40
0.382716049382716
40
0.382716049382716
40
0.382716049382716
40
0.395061728395062
40
0.395061728395062
40
0.395061728395062
40
0.395061728395062
40
0.407407407407407
40
0.407407407407407
40
0.407407407407407
40
0.407407407407407
40
0.419753086419753
40
0.419753086419753
40
0.419753086419753
40
0.419753086419753
40
0.432098765432099
40
0.432098765432099
40
0.432098765432099
40
0.432098765432099
40
0.444444444444444
40
0.444444444444444
40
0.444444444444444
40
0.444444444444444
40
0.45679012345679
40
0.45679012345679
40
0.45679012345679
40
0.45679012345679
40
0.469135802469136
40
0.469135802469136
40
0.469135802469136
40
0.469135802469136
40
0.481481481481481
40
0.481481481481481
40
0.481481481481481
40
0.481481481481481
40
0.493827160493827
40
0.493827160493827
40
0.493827160493827
40
0.493827160493827
40
0.506172839506173
40
0.506172839506173
40
0.506172839506173
40
0.506172839506173
40
0.518518518518518
40
0.518518518518518
40
0.518518518518518
40
0.518518518518518
40
0.530864197530864
40
0.530864197530864
40
0.530864197530864
40
0.530864197530864
40
0.54320987654321
40
0.54320987654321
40
0.54320987654321
40
0.54320987654321
40
0.555555555555556
40
0.555555555555556
40
0.555555555555556
40
0.555555555555556
40
0.567901234567901
40
0.567901234567901
40
0.567901234567901
40
0.567901234567901
40
0.580246913580247
40
0.580246913580247
40
0.580246913580247
40
0.580246913580247
40
0.592592592592593
40
0.592592592592593
40
0.592592592592593
40
0.592592592592593
40
0.604938271604938
40
0.604938271604938
40
0.604938271604938
40
0.604938271604938
40
0.617283950617284
40
0.617283950617284
40
0.617283950617284
40
0.617283950617284
40
0.62962962962963
40
0.62962962962963
40
0.62962962962963
40
0.62962962962963
40
0.641975308641975
40
0.641975308641975
40
0.641975308641975
40
0.641975308641975
40
0.654320987654321
40
0.654320987654321
40
0.654320987654321
40
0.654320987654321
40
0.666666666666667
40
0.666666666666667
40
0.666666666666667
40
0.666666666666667
40
0.679012345679012
40
0.679012345679012
40
0.679012345679012
40
0.679012345679012
40
0.691358024691358
40
0.691358024691358
40
0.691358024691358
40
0.691358024691358
40
0.703703703703704
40
0.703703703703704
40
0.703703703703704
40
0.703703703703704
40
0.716049382716049
40
0.716049382716049
40
0.716049382716049
40
0.716049382716049
40
0.728395061728395
40
0.728395061728395
40
0.728395061728395
40
0.728395061728395
40
0.740740740740741
40
0.740740740740741
40
0.740740740740741
40
0.740740740740741
40
0.753086419753086
40
0.753086419753086
40
0.753086419753086
40
0.753086419753086
40
0.765432098765432
40
0.765432098765432
40
0.765432098765432
40
0.765432098765432
40
0.777777777777778
40
0.777777777777778
40
0.777777777777778
40
0.777777777777778
40
0.790123456790123
40
0.790123456790123
40
0.790123456790123
40
0.790123456790123
40
0.802469135802469
40
0.802469135802469
40
0.802469135802469
40
0.802469135802469
40
0.814814814814815
40
0.814814814814815
40
0.814814814814815
40
0.814814814814815
40
0.82716049382716
40
0.82716049382716
40
0.82716049382716
40
0.82716049382716
40
0.839506172839506
40
0.839506172839506
40
0.839506172839506
40
0.839506172839506
40
0.851851851851852
40
0.851851851851852
40
0.851851851851852
40
0.851851851851852
40
0.864197530864197
40
0.864197530864197
40
0.864197530864197
40
0.864197530864197
40
0.876543209876543
40
0.876543209876543
40
0.876543209876543
40
0.876543209876543
40
0.888888888888889
40
0.888888888888889
40
0.888888888888889
40
0.888888888888889
40
0.901234567901235
40
0.901234567901235
40
0.901234567901235
40
0.901234567901235
40
0.91358024691358
40
0.91358024691358
40
0.91358024691358
40
0.91358024691358
40
0.925925925925926
40
0.925925925925926
40
0.925925925925926
40
0.925925925925926
40
0.938271604938272
40
0.938271604938272
40
0.938271604938272
40
0.938271604938272
40
0.950617283950617
40
0.950617283950617
40
0.950617283950617
40
0.950617283950617
40
0.962962962962963
40
0.962962962962963
40
0.962962962962963
40
0.962962962962963
40
0.975308641975309
40
0.975308641975309
40
0.975308641975309
40
0.975308641975309
40
1.0
40
1.0
40
1.0
40
1.0
10
0.0
20
0.0
30
0.0
41
1.0
10
-0.0209631208060155
20
0.157565269243347
30
0.0
41
1.0
10
-0.041926241612031
20
0.315130538486694
30
0.0
41
1.0
10
-0.0402023127410295
20
0.475470486229677
30
0.0
41
1.0
10
-0.0402023127410295
20
0.475470486229677
30
0.0
41
1.0
10
-0.038478383870028
20
0.63581043397266
30
0.0
41
1.0
10
-0.0140674053220095
20
0.798925060215278
30
0.0
41
1.0
10
0.0270250030109611
20
0.963987537753542
30
0.0
41
1.0
10
0.0270250030109611
20
0.963987537753542
30
0.0
41
1.0
10
0.0681174113439318
20
1.12905001529181
30
0.0
41
1.0
10
0.125891249461855
20
1.29606034412571
30
0.0
41
1.0
10
0.20199406770109
20
1.46510505931924
30
0.0
41
1.0
10
0.20199406770109
20
1.46510505931924
30
0.0
41
1.0
10
0.278096885940325
20
1.63414977451277
30
0.0
41
1.0
10
0.372528684300873
20
1.80522887606591
30
0.0
41
1.0
10
0.484850784269716
20
1.97813352018502
30
0.0
41
1.0
10
0.484850784269716
20
1.97813352018502
30
0.0
41
1.0
10
0.597172884238559
20
2.15103816430414
30
0.0
41
1.0
10
0.727385285815697
20
2.32576835098921
30
0.0
41
1.0
10
0.875572087949067
20
2.50214529098159
30
0.0
41
1.0
10
0.875572087949067
20
2.50214529098159
30
0.0
41
1.0
10
1.02375889008244
20
2.67852223097397
30
0.0
41
1.0
10
1.18992009277204
20
2.85654592427366
30
0.0
41
1.0
10
1.37396275242825
20
3.0359825066918
30
0.0
41
1.0
10
1.37396275242825
20
3.0359825066918
30
0.0
41
1.0
10
1.55800541208445
20
3.21541908910994
30
0.0
41
1.0
10
1.75992952870726
20
3.39626856064654
30
0.0
41
1.0
10
1.97965183314721
20
3.57826735434121
30
0.0
41
1.0
10
1.97965183314721
20
3.57826735434121
30
0.0
41
1.0
10
2.19937413758716
20
3.76026614803589
30
0.0
41
1.0
10
2.43689462984426
20
3.94341426388865
30
0.0
41
1.0
10
2.69208884966791
20
4.12741465497353
30
0.0
41
1.0
10
2.69208884966791
20
4.12741465497353
30
0.0
41
1.0
10
2.94728306949156
20
4.31141504605841
30
0.0
41
1.0
10
3.22015101688178
20
4.49626771237542
30
0.0
41
1.0
10
3.51053982735528
20
4.68164658228545
30
0.0
41
1.0
10
3.51053982735528
20
4.68164658228545
30
0.0
41
1.0
10
3.80092863782878
20
4.86702545219548
30
0.0
41
1.0
10
4.10883831138556
20
5.05293052569854
30
0.0
41
1.0
10
4.43408333345824
20
5.23900933526965
30
0.0
41
1.0
10
4.43408333345824
20
5.23900933526965
30
0.0
41
1.0
10
4.75932835553091
20
5.42508814484075
30
0.0
41
1.0
10
5.10190872611948
20
5.61134069047988
30
0.0
41
1.0
10
5.46160665367747
20
5.79739155969737
30
0.0
41
1.0
10
5.46160665367747
20
5.79739155969737
30
0.0
41
1.0
10
5.82130458123546
20
5.98344242891486
30
0.0
41
1.0
10
6.19812006576289
20
6.16929162171071
30
0.0
41
1.0
10
6.59180226211699
20
6.3545442935755
30
0.0
41
1.0
10
6.59180226211699
20
6.3545442935755
30
0.0
41
1.0
10
6.98548445847109
20
6.5397969654403
30
0.0
41
1.0
10
7.39603336665187
20
6.72445311637405
30
0.0
41
1.0
10
7.82316473992361
20
6.90810219512
30
0.0
41
1.0
10
7.82316473992361
20
6.90810219512
30
0.0
41
1.0
10
8.25029611319534
20
7.09175127386595
30
0.0
41
1.0
10
8.69400995155805
20
7.2743932804241
30
0.0
41
1.0
10
9.15398829583133
20
7.45560579855136
30
0.0
41
1.0
10
9.15398829583133
20
7.45560579855136
30
0.0
41
1.0
10
9.61396664010462
20
7.63681831667862
30
0.0
41
1.0
10
10.0902094902885
20
7.81660134637498
30
0.0
41
1.0
10
10.5823650352754
20
7.99452453335237
30
0.0
41
1.0
10
10.5823650352754
20
7.99452453335237
30
0.0
41
1.0
10
11.0745205802624
20
8.17244772032976
30
0.0
41
1.0
10
11.5825888200524
20
8.34851106458818
30
0.0
41
1.0
10
12.1061841138824
20
8.52228023670822
30
0.0
41
1.0
10
12.1061841138824
20
8.52228023670822
30
0.0
41
1.0
10
12.6297794077123
20
8.69604940882826
30
0.0
41
1.0
10
13.1689017555821
20
8.86752440880993
30
0.0
41
1.0
10
13.7231318962565
20
9.03627088680041
30
0.0
41
1.0
10
13.7231318962565
20
9.03627088680041
30
0.0
41
1.0
10
14.2773620369308
20
9.20501736479088
30
0.0
41
1.0
10
14.8466999704096
20
9.37103532079014
30
0.0
41
1.0
10
15.4306932224717
20
9.53389428652181
30
0.0
41
1.0
10
15.4306932224717
20
9.53389428652181
30
0.0
41
1.0
10
16.0146864745338
20
9.69675325225348
30
0.0
41
1.0
10
16.6133350451792
20
9.85645322771754
30
0.0
41
1.0
10
17.2261538630431
20
10.0125714330375
30
0.0
41
1.0
10
17.2261538630431
20
10.0125714330375
30
0.0
41
1.0
10
17.838972680907
20
10.1686896383574
30
0.0
41
1.0
10
18.4659617459893
20
10.3212260735332
30
0.0
41
1.0
10
19.1066042190053
20
10.469769318385
30
0.0
41
1.0
10
19.1066042190053
20
10.469769318385
30
0.0
41
1.0
10
19.7472466920213
20
10.6183125632367
30
0.0
41
1.0
10
20.4015425729709
20
10.7628626177645
30
0.0
41
1.0
10
21.068944297748
20
10.9030229198744
30
0.0
41
1.0
10
21.068944297748
20
10.9030229198744
30
0.0
41
1.0
10
21.7363460225251
20
11.0431832219842
30
0.0
41
1.0
10
22.4168535911296
20
11.1789537716762
30
0.0
41
1.0
10
23.1098899681965
20
11.3099561562215
30
0.0
41
1.0
10
23.1098899681965
20
11.3099561562215
30
0.0
41
1.0
10
23.8029263452634
20
11.4409585407668
30
0.0
41
1.0
10
24.5084915307926
20
11.5671927601655
30
0.0
41
1.0
10
25.2259804715769
20
11.6883016058659
30
0.0
41
1.0
10
25.2259804715769
20
11.6883016058659
30
0.0
41
1.0
10
25.9434694123613
20
11.8094104515663
30
0.0
41
1.0
10
26.6728821084008
20
11.9253939235683
30
0.0
41
1.0
10
27.4135871371635
20
12.0359188074475
30
0.0
41
1.0
10
27.4135871371635
20
12.0359188074475
30
0.0
41
1.0
10
28.1542921659262
20
12.1464436913267
30
0.0
41
1.0
10
28.9062895274119
20
12.251509987083
30
0.0
41
1.0
10
29.6689232268817
20
12.3508109885261
30
0.0
41
1.0
10
29.6689232268817
20
12.3508109885261
30
0.0
41
1.0
10
30.4315569263515
20
12.4501119899692
30
0.0
41
1.0
10
31.2048269638053
20
12.5436476970991
30
0.0
41
1.0
10
31.9880548091877
20
12.6311400968405
30
0.0
41
1.0
10
31.9880548091877
20
12.6311400968405
30
0.0
41
1.0
10
32.7712826545702
20
12.7186324965818
30
0.0
41
1.0
10
33.5644683078813
20
12.8000815889346
30
0.0
41
1.0
10
34.3669125419713
20
12.8752400381638
30
0.0
41
1.0
10
34.3669125419713
20
12.8752400381638
30
0.0
41
1.0
10
35.1693567760613
20
12.950398487393
30
0.0
41
1.0
10
35.9810595909302
20
13.0192662934986
30
0.0
41
1.0
10
36.8013042269489
20
13.0816280555095
30
0.0
41
1.0
10
36.8013042269489
20
13.0816280555095
30
0.0
41
1.0
10
37.6215488629675
20
13.1439898175204
30
0.0
41
1.0
10
38.4503353201358
20
13.1998455354367
30
0.0
41
1.0
10
39.2869279846338
20
13.2490142154209
30
0.0
41
1.0
10
39.2869279846338
20
13.2490142154209
30
0.0
41
1.0
10
40.1235206491318
20
13.2981828954051
30
0.0
41
1.0
10
40.9679195209596
20
13.3406645374572
30
0.0
41
1.0
10
41.8193858898624
20
13.3763089976547
30
0.0
41
1.0
10
41.8193858898624
20
13.3763089976547
30
0.0
41
1.0
10
42.6708522587652
20
13.4119534578523
30
0.0
41
1.0
10
43.529386124743
20
13.4407607361952
30
0.0
41
1.0
10
44.3941979032524
20
13.4626290140493
30
0.0
41
1.0
10
44.3941979032524
20
13.4626290140493
30
0.0
41
1.0
10
45.2590096817618
20
13.4844972919035
30
0.0
41
1.0
10
46.1300993728026
20
13.4994265692689
30
0.0
41
1.0
10
47.0068159339408
20
13.5073009100592
30
0.0
41
1.0
10
47.0068159339408
20
13.5073009100592
30
0.0
41
1.0
10
47.883532495079
20
13.5151752508495
30
0.0
41
1.0
10
48.7658759263146
20
13.5159946550648
30
0.0
41
1.0
10
49.6526378733947
20
13.5098635276975
30
0.0
41
1.0
10
49.6526378733947
20
13.5098635276975
30
0.0
41
1.0
10
50.5393998204748
20
13.5037324003302
30
0.0
41
1.0
10
51.4305802833995
20
13.4906507413804
30
0.0
41
1.0
10
52.3270214487675
20
13.470068430841
30
0.0
41
1.0
10
52.3270214487675
20
13.470068430841
30
0.0
41
1.0
10
53.2234626141355
20
13.4494861203015
30
0.0
41
1.0
10
54.1251644819468
20
13.4214031581724
30
0.0
41
1.0
10
55.0198970557274
20
13.3879981148249
30
0.0
41
1.0
10
55.0198970557274
20
13.3879981148249
30
0.0
41
1.0
10
55.9146296295081
20
13.3545930714773
30
0.0
41
1.0
10
56.8023929092579
20
13.3158659469114
30
0.0
41
1.0
10
57.6955194653733
20
13.2728481006984
30
0.0
41
1.0
10
57.6955194653733
20
13.2728481006984
30
0.0
41
1.0
10
58.5886460214887
20
13.2298302544854
30
0.0
41
1.0
10
59.4871358539695
20
13.1825216866254
30
0.0
41
1.0
10
60.3867659685275
20
13.1308003740691
30
0.0
41
1.0
10
60.3867659685275
20
13.1308003740691
30
0.0
41
1.0
10
61.2863960830854
20
13.0790790615128
30
0.0
41
1.0
10
62.1871664797206
20
13.02294500426
30
0.0
41
1.0
10
63.0892895639379
20
12.9626059375209
30
0.0
41
1.0
10
63.0892895639379
20
12.9626059375209
30
0.0
41
1.0
10
63.9914126481553
20
12.9022668707818
30
0.0
41
1.0
10
64.8948884199548
20
12.8377227945563
30
0.0
41
1.0
10
65.7987418630019
20
12.7691123941154
30
0.0
41
1.0
10
65.7987418630019
20
12.7691123941154
30
0.0
41
1.0
10
66.702595306049
20
12.7005019936744
30
0.0
41
1.0
10
67.6068264203437
20
12.6278252690181
30
0.0
41
1.0
10
68.5107810269582
20
12.5512573242298
30
0.0
41
1.0
10
68.5107810269582
20
12.5512573242298
30
0.0
41
1.0
10
69.4147356335727
20
12.4746893794416
30
0.0
41
1.0
10
70.318413732507
20
12.3942302145215
30
0.0
41
1.0
10
71.2210794123265
20
12.3100617331903
30
0.0
41
1.0
10
71.2210794123265
20
12.3100617331903
30
0.0
41
1.0
10
72.1237450921461
20
12.2258932518592
30
0.0
41
1.0
10
73.0253983528508
20
12.1380154541171
30
0.0
41
1.0
10
73.9253309250908
20
12.0466236721576
30
0.0
41
1.0
10
73.9253309250908
20
12.0466236721576
30
0.0
41
1.0
10
74.8252634973308
20
11.9552318901981
30
0.0
41
1.0
10
75.7234753811061
20
11.8603261240212
30
0.0
41
1.0
10
76.6192580902772
20
11.7621121163042
30
0.0
41
1.0
10
76.6192580902772
20
11.7621121163042
30
0.0
41
1.0
10
77.5150407994483
20
11.6638981085871
30
0.0
41
1.0
10
78.4083943340152
20
11.5623758593299
30
0.0
41
1.0
10
79.2986188485276
20
11.4577611645143
30
0.0
41
1.0
10
79.2986188485276
20
11.4577611645143
30
0.0
41
1.0
10
80.18884336304
20
11.3531464696988
30
0.0
41
1.0
10
81.0759388574979
20
11.245439329325
30
0.0
41
1.0
10
81.9592130949026
20
11.1348646042374
30
0.0
41
1.0
10
81.9592130949026
20
11.1348646042374
30
0.0
41
1.0
10
82.8424873323073
20
11.0242898791498
30
0.0
41
1.0
10
83.7219403126588
20
10.9108475693485
30
0.0
41
1.0
10
84.5968889774105
20
10.7947708643479
30
0.0
41
1.0
10
84.5968889774105
20
10.7947708643479
30
0.0
41
1.0
10
85.4718376421622
20
10.6786941593472
30
0.0
41
1.0
10
86.3422819913141
20
10.5599830591473
30
0.0
41
1.0
10
87.2075489736664
20
10.4388783584999
30
0.0
41
1.0
10
87.2075489736664
20
10.4388783584999
30
0.0
41
1.0
10
88.0728159560186
20
10.3177736578525
30
0.0
41
1.0
10
88.9329055715712
20
10.1942753567577
30
0.0
41
1.0
10
89.7871557636875
20
10.0686312020947
30
0.0
41
1.0
10
89.7871557636875
20
10.0686312020947
30
0.0
41
1.0
10
90.6414059558037
20
9.94298704743175
30
0.0
41
1.0
10
91.4898167244836
20
9.81519703920067
30
0.0
41
1.0
10
92.3317379152625
20
9.68551526813924
30
0.0
41
1.0
10
92.3317379152625
20
9.68551526813924
30
0.0
41
1.0
10
93.1736591060415
20
9.55583349707781
30
0.0
41
1.0
10
94.0090907189195
20
9.42425996318602
30
0.0
41
1.0
10
94.8373953957398
20
9.29105453144907
30
0.0
41
1.0
10
94.8373953957398
20
9.29105453144907
30
0.0
41
1.0
10
95.6657000725601
20
9.15784909971212
30
0.0
41
1.0
10
96.4868778133227
20
9.02301177013001
30
0.0
41
1.0
10
97.3003049206759
20
8.88680763724945
30
0.0
41
1.0
10
97.3003049206759
20
8.88680763724945
30
0.0
41
1.0
10
98.113732028029
20
8.75060350436888
30
0.0
41
1.0
10
98.9194085019727
20
8.61303256818987
30
0.0
41
1.0
10
99.7167251457973
20
8.47436461960101
30
0.0
41
1.0
10
99.7167251457973
20
8.47436461960101
30
0.0
41
1.0
10
100.514041789622
20
8.33569667101216
30
0.0
41
1.0
10
101.302998603327
20
8.19593171001346
30
0.0
41
1.0
10
102.083001704398
20
8.05534368747066
30
0.0
41
1.0
10
102.083001704398
20
8.05534368747066
30
0.0
41
1.0
10
102.863004805469
20
7.91475566492786
30
0.0
41
1.0
10
103.634054193905
20
7.77334458084096
30
0.0
41
1.0
10
104.395572087884
20
7.63138799184959
30
0.0
41
1.0
10
104.395572087884
20
7.63138799184959
30
0.0
41
1.0
10
105.157089981862
20
7.48943140285822
30
0.0
41
1.0
10
105.909076381384
20
7.34692930896238
30
0.0
41
1.0
10
106.650970362926
20
7.20416228615997
30
0.0
41
1.0
10
106.650970362926
20
7.20416228615997
30
0.0
41
1.0
10
107.392864344469
20
7.06139526335757
30
0.0
41
1.0
10
108.124665908032
20
6.91836331164859
30
0.0
41
1.0
10
108.845831714846
20
6.77534939426675
30
0.0
41
1.0
10
108.845831714846
20
6.77534939426675
30
0.0
41
1.0
10
109.56699752166
20
6.63233547688491
30
0.0
41
1.0
10
110.277527571724
20
6.48933959383023
30
0.0
41
1.0
10
110.976896803596
20
6.34664640560791
30
0.0
41
1.0
10
110.976896803596
20
6.34664640560791
30
0.0
41
1.0
10
111.676266035469
20
6.20395321738559
30
0.0
41
1.0
10
112.364474449149
20
6.06156272399564
30
0.0
41
1.0
10
113.041015916269
20
5.9197605250782
30
0.0
41
1.0
10
113.041015916269
20
5.9197605250782
30
0.0
41
1.0
10
113.71755738339
20
5.77795832616076
30
0.0
41
1.0
10
114.38243190395
20
5.63674442171583
30
0.0
41
1.0
10
115.035152898513
20
5.49640451606853
30
0.0
41
1.0
10
115.035152898513
20
5.49640451606853
30
0.0
41
1.0
10
115.687873893077
20
5.35606461042124
30
0.0
41
1.0
10
116.328441361644
20
5.21659870357159
30
0.0
41
1.0
10
116.956388846715
20
5.07829168813209
30
0.0
41
1.0
10
116.956388846715
20
5.07829168813209
30
0.0
41
1.0
10
117.584336331785
20
4.9399846726926
30
0.0
41
1.0
10
118.19966383336
20
4.80283654866328
30
0.0
41
1.0
10
118.801925543325
20
4.66713039571347
30
0.0
41
1.0
10
118.801925543325
20
4.66713039571347
30
0.0
41
1.0
10
119.404187253289
20
4.53142424276366
30
0.0
41
1.0
10
119.993383171644
20
4.39716006089337
30
0.0
41
1.0
10
120.569088619282
20
4.26461803078891
30
0.0
41
1.0
10
120.569088619282
20
4.26461803078891
30
0.0
41
1.0
10
121.14479406692
20
4.13207600068445
30
0.0
41
1.0
10
121.707009043841
20
4.00125612234583
30
0.0
41
1.0
10
122.255330430029
20
3.87243450964166
30
0.0
41
1.0
10
122.255330430029
20
3.87243450964166
30
0.0
41
1.0
10
122.803651816216
20
3.74361289693749
30
0.0
41
1.0
10
123.33807961167
20
3.61678954986778
30
0.0
41
1.0
10
123.858232635055
20
3.49223527183381
30
0.0
41
1.0
10
123.858232635055
20
3.49223527183381
30
0.0
41
1.0
10
124.378385658439
20
3.36768099379985
30
0.0
41
1.0
10
124.884263909754
20
3.24539578480163
30
0.0
41
1.0
10
125.375508475093
20
3.12564382722837
30
0.0
41
1.0
10
125.375508475093
20
3.12564382722837
30
0.0
41
1.0
10
125.866753040433
20
3.00589186965511
30
0.0
41
1.0
10
126.343363919797
20
2.88867316350681
30
0.0
41
1.0
10
126.805004745837
20
2.7742439041614
30
0.0
41
1.0
10
126.805004745837
20
2.7742439041614
30
0.0
41
1.0
10
127.266645571876
20
2.65981464481599
30
0.0
41
1.0
10
127.713316344592
20
2.54817483227346
30
0.0
41
1.0
10
128.144703472164
20
2.43957126808764
30
0.0
41
1.0
10
128.144703472164
20
2.43957126808764
30
0.0
41
1.0
10
128.576090599736
20
2.33096770390182
30
0.0
41
1.0
10
128.992194082165
20
2.22540038807271
30
0.0
41
1.0
10
129.392723292145
20
2.12310529477594
30
0.0
41
1.0
10
129.392723292145
20
2.12310529477594
30
0.0
41
1.0
10
129.793252502126
20
2.02081020147918
30
0.0
41
1.0
10
130.178207439658
20
1.92178733071476
30
0.0
41
1.0
10
130.54732056529
20
1.82626039501295
30
0.0
41
1.0
10
130.54732056529
20
1.82626039501295
30
0.0
41
1.0
10
130.916433690921
20
1.73073345931113
30
0.0
41
1.0
10
131.269705004653
20
1.63870245867193
30
0.0
41
1.0
10
131.606890224404
20
1.55037739843516
30
0.0
41
1.0
10
131.606890224404
20
1.55037739843516
30
0.0
41
1.0
10
131.944075444155
20
1.4620523381984
30
0.0
41
1.0
10
132.265174569926
20
1.37743321836408
30
0.0
41
1.0
10
132.569966394839
20
1.2967150122633
30
0.0
41
1.0
10
132.569966394839
20
1.2967150122633
30
0.0
41
1.0
10
132.874758219752
20
1.21599680616251
30
0.0
41
1.0
10
133.163242743807
20
1.13917951379525
30
0.0
41
1.0
10
133.435222808576
20
1.06644147613821
30
0.0
41
1.0
10
133.435222808576
20
1.06644147613821
30
0.0
41
1.0
10
133.707202873346
20
0.993703438481173
30
0.0
41
1.0
10
133.96267847883
20
0.925044655534353
30
0.0
41
1.0
10
134.201473043477
20
0.860626536806973
30
0.0
41
1.0
10
134.201473043477
20
0.860626536806973
30
0.0
41
1.0
10
134.440267608123
20
0.796208418079593
30
0.0
41
1.0
10
134.662381131933
20
0.736030963571654
30
0.0
41
1.0
10
134.867670619811
20
0.680233866005025
30
0.0
41
1.0
10
134.867670619811
20
0.680233866005025
30
0.0
41
1.0
10
135.07296010769
20
0.624436768438396
30
0.0
41
1.0
10
135.261425559637
20
0.573020027813077
30
0.0
41
1.0
10
135.432908986989
20
0.526114041528305
30
0.0
41
1.0
10
135.432908986989
20
0.526114041528305
30
0.0
41
1.0
10
135.604392414341
20
0.479208055243533
30
0.0
41
1.0
10
135.758893817098
20
0.436812823299307
30
0.0
41
1.0
10
135.896421432991
20
0.398998205261969
30
0.0
41
1.0
10
135.896421432991
20
0.398998205261969
30
0.0
41
1.0
10
136.033949048885
20
0.361183587224631
30
0.0
41
1.0
10
136.154502877914
20
0.327949583094179
30
0.0
41
1.0
10
136.257580947516
20
0.299492502975963
30
0.0
41
1.0
10
136.257580947516
20
0.299492502975963
30
0.0
41
1.0
10
136.360659017117
20
0.271035422857747
30
0.0
41
1.0
10
136.446261327289
20
0.247355266751767
30
0.0
41
1.0
10
136.515900067223
20
0.228073399227329
30
0.0
41
1.0
10
136.515900067223
20
0.228073399227329
30
0.0
41
1.0
10
136.585538807157
20
0.20879153170289
30
0.0
41
1.0
10
136.639213976853
20
0.193907952759994
30
0.0
41
1.0
10
136.671030727855
20
0.185083946997259
30
0.0
41
1.0
10
136.671030727855
20
0.185083946997259
30
0.0
41
1.0
10
136.702847478857
20
0.176259941234523
30
0.0
41
1.0
10
136.712805811167
20
0.173495508651949
30
0.0
41
1.0
10
136.722764143476
20
0.170731076069375
30
0.0
41
1.0
11
0.0
21
0.0
31
0.0
11
-0.0402023127410295
21
0.475470486229677
31
0.0
11
0.0270250030109611
21
0.963987537753542
31
0.0
11
0.20199406770109
21
1.46510505931924
31
0.0
11
0.484850784269716
21
1.97813352018502
31
0.0
11
0.875572087949067
21
2.50214529098159
31
0.0
11
1.37396275242825
21
3.0359825066918
31
0.0
11
1.97965183314721
21
3.57826735434121
31
0.0
11
2.69208884966791
21
4.12741465497353
31
0.0
11
3.51053982735528
21
4.68164658228545
31
0.0
11
4.43408333345824
21
5.23900933526965
31
0.0
11
5.46160665367747
21
5.79739155969737
31
0.0
11
6.59180226211699
21
6.3545442935755
31
0.0
11
7.82316473992361
21
6.90810219512
31
0.0
11
9.15398829583133
21
7.45560579855136
31
0.0
11
10.5823650352754
21
7.99452453335237
31
0.0
11
12.1061841138824
21
8.52228023670822
31
0.0
11
13.7231318962565
21
9.03627088680041
31
0.0
11
15.4306932224717
21
9.53389428652181
31
0.0
11
17.2261538630431
21
10.0125714330375
31
0.0
11
19.1066042190053
21
10.469769318385
31
0.0
11
21.068944297748
21
10.9030229198744
31
0.0
11
23.1098899681965
21
11.3099561562215
31
0.0
11
25.2259804715769
21
11.6883016058659
31
0.0
11
27.4135871371635
21
12.0359188074475
31
0.0
11
29.6689232268817
21
12.3508109885261
31
0.0
11
31.9880548091877
21
12.6311400968405
31
0.0
11
34.3669125419713
21
12.8752400381638
31
0.0
11
36.8013042269489
21
13.0816280555095
31
0.0
11
39.2869279846338
21
13.2490142154209
31
0.0
11
41.8193858898624
21
13.3763089976547
31
0.0
11
44.3941979032524
21
13.4626290140493
31
0.0
11
47.0068159339408
21
13.5073009100592
31
0.0
11
49.6526378733947
21
13.5098635276975
31
0.0
11
52.3270214487675
21
13.470068430841
31
0.0
11
55.0198970557274
21
13.3879981148249
31
0.0
11
57.6955194653733
21
13.2728481006984
31
0.0
11
60.3867659685275
21
13.1308003740691
31
0.0
11
63.0892895639379
21
12.9626059375209
31
0.0
11
65.7987418630019
21
12.7691123941154
31
0.0
11
68.5107810269582
21
12.5512573242298
31
0.0
11
71.2210794123265
21
12.3100617331903
31
0.0
11
73.9253309250908
21
12.0466236721576
31
0.0
11
76.6192580902772
21
11.7621121163042
31
0.0
11
79.2986188485276
21
11.4577611645143
31
0.0
11
81.9592130949026
21
11.1348646042374
31
0.0
11
84.5968889774105
21
10.7947708643479
31
0.0
11
87.2075489736664
21
10.4388783584999
31
0.0
11
89.7871557636875
21
10.0686312020947
31
0.0
11
92.3317379152625
21
9.68551526813924
31
0.0
11
94.8373953957398
21
9.29105453144907
31
0.0
11
97.3003049206759
21
8.88680763724945
31
0.0
11
99.7167251457973
21
8.47436461960101
31
0.0
11
102.083001704398
21
8.05534368747066
31
0.0
11
104.395572087884
21
7.63138799184959
31
0.0
11
106.650970362926
21
7.20416228615997
31
0.0
11
108.845831714846
21
6.77534939426675
31
0.0
11
110.976896803596
21
6.34664640560791
31
0.0
11
113.041015916269
21
5.9197605250782
31
0.0
11
115.035152898513
21
5.49640451606853
31
0.0
11
116.956388846715
21
5.07829168813209
31
0.0
11
118.801925543325
21
4.66713039571347
31
0.0
11
120.569088619282
21
4.26461803078891
31
0.0
11
122.255330430029
21
3.87243450964166
31
0.0
11
123.858232635055
21
3.49223527183381
31
0.0
11
125.375508475093
21
3.12564382722837
31
0.0
11
126.805004745837
21
2.7742439041614
31
0.0
11
128.144703472164
21
2.43957126808764
31
0.0
11
129.392723292145
21
2.12310529477594
31
0.0
11
130.54732056529
21
1.82626039501295
31
0.0
11
131.606890224404
21
1.55037739843516
31
0.0
11
132.569966394839
21
1.2967150122633
31
0.0
11
133.435222808576
21
1.06644147613821
31
0.0
11
134.201473043477
21
0.860626536806973
31
0.0
11
134.867670619811
21
0.680233866005025
31
0.0
11
135.432908986989
21
0.526114041528305
31
0.0
11
135.896421432991
21
0.398998205261969
31
0.0
11
136.257580947516
21
0.299492502975963
31
0.0
11
136.515900067223
21
0.228073399227329
31
0.0
11
136.671030727855
21
0.185083946997259
31
0.0
11
136.722764143476
21
0.170731076069375
31
0.0
0
SPLINE
5
31
330
1C
100
AcDbEntity
67
0
8
BLADE_SURFACE
62
256
6
ByLayer
370
-1
48
1.0
60
0
100
AcDbSpline
70
36
71
3
42
0.0000001
43
0.0000001
44
0.0000000001
40
0.0
40
0.0
40
0.0
40
0.0
40
0.0123456790123457
40
0.0123456790123457
40
0.0123456790123457
40
0.0123456790123457
40
0.0246913580246914
40
0.0246913580246914
40
0.0246913580246914
40
0.0246913580246914
40
0.037037037037037
40
0.037037037037037
40
0.037037037037037
40
0.037037037037037
40
0.0493827160493827
40
0.0493827160493827
40
0.0493827160493827
40
0.0493827160493827
40
0.0617283950617284
40
0.0617283950617284
40
0.0617283950617284
40
0.0617283950617284
40
0.0740740740740741
40
0.0740740740740741
40
0.0740740740740741
40
0.0740740740740741
40
0.0864197530864197
40
0.0864197530864197
40
0.0864197530864197
40
0.0864197530864197
40
0.0987654320987654
40
0.0987654320987654
40
0.0987654320987654
40
0.0987654320987654
40
0.111111111111111
40
0.111111111111111
40
0.111111111111111
40
0.111111111111111
40
0.123456790123457
40
0.123456790123457
40
0.123456790123457
40
0.123456790123457
40
0.135802469135802
40
0.135802469135802
40
0.135802469135802
40
0.135802469135802
40
0.148148148148148
40
0.148148148148148
40
0.148148148148148
40
0.148148148148148
40
0.160493827160494
40
0.160493827160494
40
0.160493827160494
40
0.160493827160494
40
0.172839506172839
40
0.172839506172839
40
0.172839506172839
40
0.172839506172839
40
0.185185185185185
40
0.185185185185185
40
0.185185185185185
40
0.185185185185185
40
0.197530864197531
40
0.197530864197531
40
0.197530864197531
40
0.197530864197531
40
0.209876543209877
40
0.209876543209877
40
0.209876543209877
40
0.209876543209877
40
0.222222222222222
40
0.222222222222222
40
0.222222222222222
40
0.222222222222222
40
0.234567901234568
40
0.234567901234568
40
0.234567901234568
40
0.234567901234568
40
0.246913580246914
40
0.246913580246914
40
0.246913580246914
40
0.246913580246914
40
0.259259259259259
40
0.259259259259259
40
0.259259259259259
40
0.259259259259259
40
0.271604938271605
40
0.271604938271605
40
0.271604938271605
40
0.271604938271605
40
0.283950617283951
40
0.283950617283951
40
0.283950617283951
40
0.283950617283951
40
0.296296296296296
40
0.296296296296296
40
0.296296296296296
40
0.296296296296296
40
0.308641975308642
40
0.308641975308642
40
0.308641975308642
40
0.308641975308642
40
0.320987654320988
40
0.320987654320988
40
0.320987654320988
40
0.320987654320988
40
0.333333333333333
40
0.333333333333333
40
0.333333333333333
40
0.333333333333333
40
0.345679012345679
40
0.345679012345679
40
0.345679012345679
40
0.345679012345679
40
0.358024691358025
40
0.358024691358025
40
0.358024691358025
40
0.358024691358025
40
0.37037037037037
40
0.37037037037037
40
0.37037037037037
40
0.37037037037037
40
0.382716049382716
40
0.382716049382716
40
0.382716049382716
40
0.382716049382716
40
0.395061728395062
40
0.395061728395062
40
0.395061728395062
40
0.395061728395062
40
0.407407407407407
40
0.407407407407407
40
0.407407407407407
40
0.407407407407407
40
0.419753086419753
40
0.419753086419753
40
0.419753086419753
40
0.419753086419753
40
0.432098765432099
40
0.432098765432099
40
0.432098765432099
40
0.432098765432099
40
0.444444444444444
40
0.444444444444444
40
0.444444444444444
40
0.444444444444444
40
0.45679012345679
40
0.45679012345679
40
0.45679012345679
40
0.45679012345679
40
0.469135802469136
40
0.469135802469136
40
0.469135802469136
40
0.469135802469136
40
0.481481481481481
40
0.481481481481481
40
0.481481481481481
40
0.481481481481481
40
0.493827160493827
40
0.493827160493827
40
0.493827160493827
40
0.493827160493827
40
0.506172839506173
40
0.506172839506173
40
0.506172839506173
40
0.506172839506173
40
0.518518518518518
40
0.518518518518518
40
0.518518518518518
40
0.518518518518518
40
0.530864197530864
40
0.530864197530864
40
0.530864197530864
40
0.530864197530864
40
0.54320987654321
40
0.54320987654321
40
0.54320987654321
40
0.54320987654321
40
0.555555555555556
40
0.555555555555556
40
0.555555555555556
40
0.555555555555556
40
0.567901234567901
40
0.567901234567901
40
0.567901234567901
40
0.567901234567901
40
0.580246913580247
40
0.580246913580247
40
0.580246913580247
40
0.580246913580247
40
0.592592592592593
40
0.592592592592593
40
0.592592592592593
40
0.592592592592593
40
0.604938271604938
40
0.604938271604938
40
0.604938271604938
40
0.604938271604938
40
0.617283950617284
40
0.617283950617284
40
0.617283950617284
40
0.617283950617284
40
0.62962962962963
40
0.62962962962963
40
0.62962962962963
40
0.62962962962963
40
0.641975308641975
40
0.641975308641975
40
0.641975308641975
40
0.641975308641975
40
0.654320987654321
40
0.654320987654321
40
0.654320987654321
40
0.654320987654321
40
0.666666666666667
40
0.666666666666667
40
0.666666666666667
40
0.666666666666667
40
0.679012345679012
40
0.679012345679012
40
0.679012345679012
40
0.679012345679012
40
0.691358024691358
40
0.691358024691358
40
0.691358024691358
40
0.691358024691358
40
0.703703703703704
40
0.703703703703704
40
0.703703703703704
40
0.703703703703704
40
0.716049382716049
40
0.716049382716049
40
0.716049382716049
40
0.716049382716049
40
0.728395061728395
40
0.728395061728395
40
0.728395061728395
40
0.728395061728395
40
0.740740740740741
40
0.740740740740741
40
0.740740740740741
40
0.740740740740741
40
0.753086419753086
40
0.753086419753086
40
0.753086419753086
40
0.753086419753086
40
0.765432098765432
40
0.765432098765432
40
0.765432098765432
40
0.765432098765432
40
0.777777777777778
40
0.777777777777778
40
0.777777777777778
40
0.777777777777778
40
0.790123456790123
40
0.790123456790123
40
0.790123456790123
40
0.790123456790123
40
0.802469135802469
40
0.802469135802469
40
0.802469135802469
40
0.802469135802469
40
0.814814814814815
40
0.814814814814815
40
0.814814814814815
40
0.814814814814815
40
0.82716049382716
40
0.82716049382716
40
0.82716049382716
40
0.82716049382716
40
0.839506172839506
40
0.839506172839506
40
0.839506172839506
40
0.839506172839506
40
0.851851851851852
40
0.851851851851852
40
0.851851851851852
40
0.851851851851852
40
0.864197530864197
40
0.864197530864197
40
0.864197530864197
40
0.864197530864197
40
0.876543209876543
40
0.876543209876543
40
0.876543209876543
40
0.876543209876543
40
0.888888888888889
40
0.888888888888889
40
0.888888888888889
40
0.888888888888889
40
0.901234567901235
40
0.901234567901235
40
0.901234567901235
40
0.901234567901235
40
0.91358024691358
40
0.91358024691358
40
0.91358024691358
40
0.91358024691358
40
0.925925925925926
40
0.925925925925926
40
0.925925925925926
40
0.925925925925926
40
0.938271604938272
40
0.938271604938272
40
0.938271604938272
40
0.938271604938272
40
0.950617283950617
40
0.950617283950617
40
0.950617283950617
40
0.950617283950617
40
0.962962962962963
40
0.962962962962963
40
0.962962962962963
40
0.962962962962963
40
0.975308641975309
40
0.975308641975309
40
0.975308641975309
40
0.975308641975309
40
1.0
40
1.0
40
1.0
40
1.0
10
0.0
20
0.0
30
0.0
41
1.0
10
0.0412507929965308
20
-0.153505779170555
30
0.0
41
1.0
10
0.0825015859930615
20
-0.307011558341109
30
0.0
41
1.0
10
0.145593058634209
20
-0.454402493606747
30
0.0
41
1.0
10
0.145593058634209
20
-0.454402493606747
30
0.0
41
1.0
10
0.208684531275356
20
-0.601793428872384
30
0.0
41
1.0
10
0.29361668356112
20
-0.743069520233103
30
0.0
41
1.0
10
0.394375475670446
20
-0.87986982164732
30
0.0
41
1.0
10
0.394375475670446
20
-0.87986982164732
30
0.0
41
1.0
10
0.495134267779772
20
-1.01667012306154
30
0.0
41
1.0
10
0.61171969971266
20
-1.14899463452925
30
0.0
41
1.0
10
0.745547866560486
20
-1.27641766342997
30
0.0
41
1.0
10
0.745547866560486
20
-1.27641766342997
30
0.0
41
1.0
10
0.879376033408312
20
-1.40384069233069
30
0.0
41
1.0
10
1.03044693517108
20
-1.52636223866441
30
0.0
41
1.0
10
1.19815305637495
20
-1.64412282331398
30
0.0
41
1.0
10
1.19815305637495
20
-1.64412282331398
30
0.0
41
1.0
10
1.36585917757883
20
-1.76188340796354
30
0.0
41
1.0
10
1.55020051822381
20
-1.87488303092895
30
0.0
41
1.0
10
1.75108008092933
20
-1.98312365531882
30
0.0
41
1.0
10
1.75108008092933
20
-1.98312365531882
30
0.0
41
1.0
10
1.95195964363485
20
-2.09136427970869
30
0.0
41
1.0
10
2.16937742840091
20
-2.19484590552302
30
0.0
41
1.0
10
2.40306912920937
20
-2.29362109180805
30
0.0
41
1.0
10
2.40306912920937
20
-2.29362109180805
30
0.0
41
1.0
10
2.63676083001783
20
-2.39239627809307
30
0.0
41
1.0
10
2.88672644686868
20
-2.48646502484878
30
0.0
41
1.0
10
3.1527173436392
20
-2.57588021738081
30
0.0
41
1.0
10
3.1527173436392
20
-2.57588021738081
30
0.0
41
1.0
10
3.41870824040972
20
-2.66529540991284
30
0.0
41
1.0
10
3.7007244170999
20
-2.75005704822118
30
0.0
41
1.0
10
3.9984853727846
20
-2.83023231178711
30
0.0
41
1.0
10
3.9984853727846
20
-2.83023231178711
30
0.0
41
1.0
10
4.29624632846931
20
-2.91040757535305
30
0.0
41
1.0
10
4.60975206314853
20
-2.98599646417658
30
0.0
41
1.0
10
4.93870455204114
20
-3.05707726985054
30
0.0
41
1.0
10
4.93870455204114
20
-3.05707726985054
30
0.0
41
1.0
10
5.26765704093375
20
-3.12815807552449
30
0.0
41
1.0
10
5.61205628403973
20
-3.19473079804888
30
0.0
41
1.0
10
5.97158457224887
20
-3.25688629231757
30
0.0
41
1.0
10
5.97158457224887
20
-3.25688629231757
30
0.0
41
1.0
10
6.331112860458
20
-3.31904178658626
30
0.0
41
1.0
10
6.70577019377028
20
-3.37678005259925
30
0.0
41
1.0
10
7.0952214844339
20
-3.43020472952395
30
0.0
41
1.0
10
7.0952214844339
20
-3.43020472952395
30
0.0
41
1.0
10
7.48467277509753
20
-3.48362940644865
30
0.0
41
1.0
10
7.8889180231125
20
-3.53274049428507
30
0.0
41
1.0
10
8.30760588133312
20
-3.57765495002183
30
0.0
41
1.0
10
8.30760588133312
20
-3.57765495002183
30
0.0
41
1.0
10
8.72629373955374
20
-3.62256940575858
30
0.0
41
1.0
10
9.15942420798002
20
-3.66328722939568
30
0.0
41
1.0
10
9.60663109322502
20
-3.69993909906932
30
0.0
41
1.0
10
9.60663109322502
20
-3.69993909906932
30
0.0
41
1.0
10
10.05383797847
20
-3.73659096874295
30
0.0
41
1.0
10
10.5151212805337
20
-3.76917688445313
30
0.0
41
1.0
10
10.9901012369642
20
-3.7978416073409
30
0.0
41
1.0
10
10.9901012369642
20
-3.7978416073409
30
0.0
41
1.0
10
11.4650811933948
20
-3.82650633022866
30
0.0
41
1.0
10
11.953757804192
20
-3.85124986029401
30
0.0
41
1.0
10
12.4557389629666
20
-3.87223130853371
30
0.0
41
1.0
10
12.4557389629666
20
-3.87223130853371
30
0.0
41
1.0
10
12.9577201217412
20
-3.89321275677341
30
0.0
41
1.0
10
13.4730058284931
20
-3.91043212318747
30
0.0
41
1.0
10
14.0011927550623
20
-3.92406302584641
30
0.0
41
1.0
10
14.0011927550623
20
-3.92406302584641
30
0.0
41
1.0
10
14.5293796816316
20
-3.93769392850535
30
0.0
41
1.0
10
15.0704678280182
20
-3.94773636740918
30
0.0
41
1.0
10
15.6240436523457
20
-3.95437849167441
30
0.0
41
1.0
10
15.6240436523457
20
-3.95437849167441
30
0.0
41
1.0
10
16.1776194766731
20
-3.96102061593963
30
0.0
41
1.0
10
16.7436829789414
20
-3.96426242556625
30
0.0
41
1.0
10
17.321811280004
20
-3.96430647233307
30
0.0
41
1.0
10
17.321811280004
20
-3.96430647233307
30
0.0
41
1.0
10
17.8999395810667
20
-3.96435051909989
30
0.0
41
1.0
10
18.4901326809237
20
-3.96119680300692
30
0.0
41
1.0
10
19.0919590970987
20
-3.95506198016934
30
0.0
41
1.0
10
19.0919590970987
20
-3.95506198016934
30
0.0
41
1.0
10
19.6937855132737
20
-3.94892715733176
30
0.0
41
1.0
10
20.3072452457666
20
-3.93981122774958
30
0.0
41
1.0
10
20.9318987927936
20
-3.92794446897492
30
0.0
41
1.0
10
20.9318987927936
20
-3.92794446897492
30
0.0
41
1.0
10
21.5565523398206
20
-3.91607771020025
30
0.0
41
1.0
10
22.1923997013817
20
-3.90146012223309
30
0.0
41
1.0
10
22.8389937878989
20
-3.88433492503195
30
0.0
41
1.0
10
22.8389937878989
20
-3.88433492503195
30
0.0
41
1.0
10
23.485587874416
20
-3.8672097278308
30
0.0
41
1.0
10
24.1429286858893
20
-3.84757692139567
30
0.0
41
1.0
10
24.8105618250674
20
-3.82569178519722
30
0.0
41
1.0
10
24.8105618250674
20
-3.82569178519722
30
0.0
41
1.0
10
25.4781949642454
20
-3.80380664899877
30
0.0
41
1.0
10
26.1561204311283
20
-3.77966918303701
30
0.0
41
1.0
10
26.8438766577688
20
-3.7535456348893
30
0.0
41
1.0
10
26.8438766577688
20
-3.7535456348893
30
0.0
41
1.0
10
27.5316328844092
20
-3.7274220867416
30
0.0
41
1.0
10
28.2292198708073
20
-3.69931245640795
30
0.0
41
1.0
10
28.9361688744554
20
-3.66949266233752
30
0.0
41
1.0
10
28.9361688744554
20
-3.66949266233752
30
0.0
41
1.0
10
29.6431178781035
20
-3.63967286826709
30
0.0
41
1.0
10
30.3594288990017
20
-3.60814291045988
30
0.0
41
1.0
10
31.0846259193387
20
-3.57518687056791
30
0.0
41
1.0
10
31.0846259193387
20
-3.57518687056791
30
0.0
41
1.0
10
31.8098229396756
20
-3.54223083067595
30
0.0
41
1.0
10
32.5439059594515
20
-3.50784870869924
30
0.0
41
1.0
10
33.286391394142
20
-3.47233107485721
30
0.0
41
1.0
10
33.286391394142
20
-3.47233107485721
30
0.0
41
1.0
10
34.0288768288326
20
-3.43681344101518
30
0.0
41
1.0
10
34.7797646784378
20
-3.40016029530784
30
0.0
41
1.0
10
35.538563745395
20
-3.36266674024021
30
0.0
41
1.0
10
35.538563745395
20
-3.36266674024021
30
0.0
41
1.0
10
36.2973628123522
20
-3.32517318517257
30
0.0
41
1.0
10
37.0640730966613
20
-3.28683922074465
30
0.0
41
1.0
10
37.8381944586551
20
-3.24796274051588
30
0.0
41
1.0
10
37.8381944586551
20
-3.24796274051588
30
0.0
41
1.0
10
38.6123158206488
20
-3.20908626028711
30
0.0
41
1.0
10
39.3938482603272
20
-3.1696672642575
30
0.0
41
1.0
10
40.1822858939997
20
-3.13000314643153
30
0.0
41
1.0
10
40.1822858939997
20
-3.13000314643153
30
0.0
41
1.0
10
40.9707235276723
20
-3.09033902860555
30
0.0
41
1.0
10
41.7660663553391
20
-3.05042978898322
30
0.0
41
1.0
10
42.5677889058299
20
-3.01057417567679
30
0.0
41
1.0
10
42.5677889058299
20
-3.01057417567679
30
0.0
41
1.0
10
43.3695114563206
20
-2.97071856237037
30
0.0
41
1.0
10
44.1776137296353
20
-2.93091657537985
30
0.0
41
1.0
10
44.9916003942543
20
-2.89145046032939
30
0.0
41
1.0
10
44.9916003942543
20
-2.89145046032939
30
0.0
41
1.0
10
45.8055870588733
20
-2.85198434527893
30
0.0
41
1.0
10
46.6254581147965
20
-2.81285410216852
30
0.0
41
1.0
10
47.4505609350039
20
-2.77438080781547
30
0.0
41
1.0
10
47.4505609350039
20
-2.77438080781547
30
0.0
41
1.0
10
48.2756637552112
20
-2.73590751346241
30
0.0
41
1.0
10
49.1059983397026
20
-2.69809116786671
30
0.0
41
1.0
10
49.9414526300496
20
-2.66107364866942
30
0.0
41
1.0
10
49.9414526300496
20
-2.66107364866942
30
0.0
41
1.0
10
50.7769069203966
20
-2.62405612947214
30
0.0
41
1.0
10
51.617480916599
20
-2.58783743667328
30
0.0
41
1.0
10
52.4609973121302
20
-2.55318237785149
30
0.0
41
1.0
10
52.4609973121302
20
-2.55318237785149
30
0.0
41
1.0
10
53.3045137076614
20
-2.51852731902969
30
0.0
41
1.0
10
54.1509725025214
20
-2.48543589418496
30
0.0
41
1.0
10
55.0112559246678
20
-2.45218117843663
30
0.0
41
1.0
10
55.0112559246678
20
-2.45218117843663
30
0.0
41
1.0
10
55.8715393468143
20
-2.4189264626883
30
0.0
41
1.0
10
56.7456473962472
20
-2.38550845603637
30
0.0
41
1.0
10
57.6198891636271
20
-2.35126202085542
30
0.0
41
1.0
10
57.6198891636271
20
-2.35126202085542
30
0.0
41
1.0
10
58.494130931007
20
-2.31701558567446
30
0.0
41
1.0
10
59.368506416334
20
-2.28194072196449
30
0.0
41
1.0
10
60.2458717989861
20
-2.24644321005934
30
0.0
41
1.0
10
60.2458717989861
20
-2.24644321005934
30
0.0
41
1.0
10
61.1232371816382
20
-2.21094569815419
30
0.0
41
1.0
10
62.0035924616156
20
-2.17502553805386
30
0.0
41
1.0
10
62.8853520500657
20
-2.13879252451669
30
0.0
41
1.0
10
62.8853520500657
20
-2.13879252451669
30
0.0
41
1.0
10
63.7671116385158
20
-2.10255951097952
30
0.0
41
1.0
10
64.6502755354386
20
-2.06601364400551
30
0.0
41
1.0
10
65.5344413227334
20
-2.02933314487285
30
0.0
41
1.0
10
65.5344413227334
20
-2.02933314487285
30
0.0
41
1.0
10
66.4186071100282
20
-1.99265264574019
30
0.0
41
1.0
10
67.3037747876949
20
-1.95583751444888
30
0.0
41
1.0
10
68.1892189730418
20
-1.9190351020076
30
0.0
41
1.0
10
68.1892189730418
20
-1.9190351020076
30
0.0
41
1.0
10
69.0746631583887
20
-1.88223268956632
30
0.0
41
1.0
10
69.9603838514157
20
-1.84544299597507
30
0.0
41
1.0
10
70.8457374019381
20
-1.80880767569293
30
0.0
41
1.0
10
70.8457374019381
20
-1.80880767569293
30
0.0
41
1.0
10
71.7310909524604
20
-1.77217235541078
30
0.0
41
1.0
10
72.6160773604781
20
-1.73569140843774
30
0.0
41
1.0
10
73.5000274609055
20
-1.6994928540865
30
0.0
41
1.0
10
73.5000274609055
20
-1.6994928540865
30
0.0
41
1.0
10
74.383977561333
20
-1.66329429973525
30
0.0
41
1.0
10
75.2668913541702
20
-1.6273781380058
30
0.0
41
1.0
10
76.1481041422092
20
-1.59185994040493
30
0.0
41
1.0
10
76.1481041422092
20
-1.59185994040493
30
0.0
41
1.0
10
77.0293169302482
20
-1.55634174280405
30
0.0
41
1.0
10
77.908828713489
20
-1.52122150933176
30
0.0
41
1.0
10
78.7859725224719
20
-1.48660136782691
30
0.0
41
1.0
10
78.7859725224719
20
-1.48660136782691
30
0.0
41
1.0
10
79.6631163314548
20
-1.45198122632205
30
0.0
41
1.0
10
80.5378921661797
20
-1.41786117678465
30
0.0
41
1.0
10
81.4096339247021
20
-1.38432975760936
30
0.0
41
1.0
10
81.4096339247021
20
-1.38432975760936
30
0.0
41
1.0
10
82.2813756832245
20
-1.35079833843406
30
0.0
41
1.0
10
83.1500833655442
20
-1.31785554962089
30
0.0
41
1.0
10
84.0150922616917
20
-1.28557622920152
30
0.0
41
1.0
10
84.0150922616917
20
-1.28557622920152
30
0.0
41
1.0
10
84.8801011578392
20
-1.25329690878216
30
0.0
41
1.0
10
85.7414112678144
20
-1.22168105675659
30
0.0
41
1.0
10
86.5983605228893
20
-1.19078994544548
30
0.0
41
1.0
10
86.5983605228893
20
-1.19078994544548
30
0.0
41
1.0
10
87.4553097779641
20
-1.15989883413437
30
0.0
41
1.0
10
88.3078981781385
20
-1.1297324635377
30
0.0
41
1.0
10
89.1554673673678
20
-1.10033885136663
30
0.0
41
1.0
10
89.1554673673678
20
-1.10033885136663
30
0.0
41
1.0
10
90.0030365565971
20
-1.07094523919555
30
0.0
41
1.0
10
90.8455865348813
20
-1.04232438545006
30
0.0
41
1.0
10
91.6824637872307
20
-1.0145115421523
30
0.0
41
1.0
10
91.6824637872307
20
-1.0145115421523
30
0.0
41
1.0
10
92.5193410395801
20
-0.986698698854544
30
0.0
41
1.0
10
93.3505455659947
20
-0.95969386600451
30
0.0
41
1.0
10
94.1754298085679
20
-0.933520175205878
30
0.0
41
1.0
10
94.1754298085679
20
-0.933520175205878
30
0.0
41
1.0
10
95.0003140511412
20
-0.907346484407246
30
0.0
41
1.0
10
95.8188780098731
20
-0.882003935660016
30
0.0
41
1.0
10
96.6304812006905
20
-0.857504323092697
30
0.0
41
1.0
10
96.6304812006905
20
-0.857504323092697
30
0.0
41
1.0
10
97.4420843915079
20
-0.833004710525377
30
0.0
41
1.0
10
98.2467268144109
20
-0.809348034137967
30
0.0
41
1.0
10
99.0437761685987
20
-0.786535649132562
30
0.0
41
1.0
10
99.0437761685987
20
-0.786535649132562
30
0.0
41
1.0
10
99.8408255227865
20
-0.763723264127158
30
0.0
41
1.0
10
100.630281808259
20
-0.741755170503757
30
0.0
41
1.0
10
101.411522008236
20
-0.720623275621685
30
0.0
41
1.0
10
101.411522008236
20
-0.720623275621685
30
0.0
41
1.0
10
102.192762208212
20
-0.699491380739613
30
0.0
41
1.0
10
102.965786322692
20
-0.679195684598869
30
0.0
41
1.0
10
103.729981708787
20
-0.659719706375704
30
0.0
41
1.0
10
103.729981708787
20
-0.659719706375704
30
0.0
41
1.0
10
104.494177094881
20
-0.64024372815254
30
0.0
41
1.0
10
105.249543752589
20
-0.621587467846956
30
0.0
41
1.0
10
105.995480490853
20
-0.60372716056875
30
0.0
41
1.0
10
105.995480490853
20
-0.60372716056875
30
0.0
41
1.0
10
106.741417229118
20
-0.585866853290545
30
0.0
41
1.0
10
107.477924047938
20
-0.568802499039717
30
0.0
41
1.0
10
108.204412273535
20
-0.552504173701456
30
0.0
41
1.0
10
108.204412273535
20
-0.552504173701456
30
0.0
41
1.0
10
108.930900499132
20
-0.536205848363196
30
0.0
41
1.0
10
109.647370131505
20
-0.520673551937501
30
0.0
41
1.0
10
110.353246067058
20
-0.505872323869604
30
0.0
41
1.0
10
110.353246067058
20
-0.505872323869604
30
0.0
41
1.0
10
111.05912200261
20
-0.491071095801707
30
0.0
41
1.0
10
111.754404241342
20
-0.477000936091608
30
0.0
41
1.0
10
112.438532290467
20
-0.463622947144572
30
0.0
41
1.0
10
112.438532290467
20
-0.463622947144572
30
0.0
41
1.0
10
113.122660339591
20
-0.450244958197536
30
0.0
41
1.0
10
113.795634199109
20
-0.437559140013565
30
0.0
41
1.0
10
114.45690901584
20
-0.425523714554258
30
0.0
41
1.0
10
114.45690901584
20
-0.425523714554258
30
0.0
41
1.0
10
115.11818383257
20
-0.41348828909495
30
0.0
41
1.0
10
115.767759606514
20
-0.402103256360308
30
0.0
41
1.0
10
116.405108141486
20
-0.391324954536561
30
0.0
41
1.0
10
116.405108141486
20
-0.391324954536561
30
0.0
41
1.0
10
117.042456676459
20
-0.380546652712815
30
0.0
41
1.0
10
117.667577972459
20
-0.370375081799964
30
0.0
41
1.0
10
118.279961496534
20
-0.36076561843244
30
0.0
41
1.0
10
118.279961496534
20
-0.36076561843244
30
0.0
41
1.0
10
118.892345020608
20
-0.351156155064915
30
0.0
41
1.0
10
119.491990772755
20
-0.342108799242717
30
0.0
41
1.0
10
120.078406878242
20
-0.333578802150551
30
0.0
41
1.0
10
120.078406878242
20
-0.333578802150551
30
0.0
41
1.0
10
120.664822983729
20
-0.325048805058385
30
0.0
41
1.0
10
121.238009442555
20
-0.31703616669625
30
0.0
41
1.0
10
121.797494021369
20
-0.30949675409223
30
0.0
41
1.0
10
121.797494021369
20
-0.30949675409223
30
0.0
41
1.0
10
122.356978600183
20
-0.301957341488209
30
0.0
41
1.0
10
122.902761298986
20
-0.294891154642302
30
0.0
41
1.0
10
123.434390496001
20
-0.288255317275467
30
0.0
41
1.0
10
123.434390496001
20
-0.288255317275467
30
0.0
41
1.0
10
123.966019693016
20
-0.281619479908632
30
0.0
41
1.0
10
124.483495388243
20
-0.275413992020869
30
0.0
41
1.0
10
124.986387526665
20
-0.269597771831536
30
0.0
41
1.0
10
124.986387526665
20
-0.269597771831536
30
0.0
41
1.0
10
125.489279665087
20
-0.263781551642202
30
0.0
41
1.0
10
125.977588246704
20
-0.258354599151298
30
0.0
41
1.0
10
126.450905721368
20
-0.253278062165832
30
0.0
41
1.0
10
126.450905721368
20
-0.253278062165832
30
0.0
41
1.0
10
126.924223196032
20
-0.248201525180366
30
0.0
41
1.0
10
127.382549563743
20
-0.243475403700337
30
0.0
41
1.0
10
127.825500694687
20
-0.239063410591845
30
0.0
41
1.0
10
127.825500694687
20
-0.239063410591845
30
0.0
41
1.0
10
128.268451825632
20
-0.234651417483353
30
0.0
41
1.0
10
128.69602771981
20
-0.230553552746398
30
0.0
41
1.0
10
129.107868564404
20
-0.22673633570986
30
0.0
41
1.0
10
129.107868564404
20
-0.22673633570986
30
0.0
41
1.0
10
129.519709408999
20
-0.222919118673322
30
0.0
41
1.0
10
129.915815204009
20
-0.2193825493372
30
0.0
41
1.0
10
130.295851296599
20
-0.216096108797586
30
0.0
41
1.0
10
130.295851296599
20
-0.216096108797586
30
0.0
41
1.0
10
130.675887389189
20
-0.212809668257973
30
0.0
41
1.0
10
131.039853779358
20
-0.209773356514867
30
0.0
41
1.0
10
131.387441869889
20
-0.206959694647256
30
0.0
41
1.0
10
131.387441869889
20
-0.206959694647256
30
0.0
41
1.0
10
131.735029960419
20
-0.204146032779646
30
0.0
41
1.0
10
132.066239751312
20
-0.201555020787531
30
0.0
41
1.0
10
132.380789225765
20
-0.199162234319049
30
0.0
41
1.0
10
132.380789225765
20
-0.199162234319049
30
0.0
41
1.0
10
132.695338700218
20
-0.196769447850567
30
0.0
41
1.0
10
132.993227858232
20
-0.194574886905719
30
0.0
41
1.0
10
133.274202968971
20
-0.19255713594636
30
0.0
41
1.0
10
133.274202968971
20
-0.19255713594636
30
0.0
41
1.0
10
133.55517807971
20
-0.190539384987001
30
0.0
41
1.0
10
133.819239143173
20
-0.188698444013132
30
0.0
41
1.0
10
134.066157779737
20
-0.187015845856284
30
0.0
41
1.0
10
134.066157779737
20
-0.187015845856284
30
0.0
41
1.0
10
134.313076416301
20
-0.185333247699436
30
0.0
41
1.0
10
134.542852625965
20
-0.183808992359609
30
0.0
41
1.0
10
134.755297498551
20
-0.182427375761685
30
0.0
41
1.0
10
134.755297498551
20
-0.182427375761685
30
0.0
41
1.0
10
134.967742371137
20
-0.18104575916376
30
0.0
41
1.0
10
135.162855906646
20
-0.179806781307739
30
0.0
41
1.0
10
135.340438844132
20
-0.178697662616922
30
0.0
41
1.0
10
135.340438844132
20
-0.178697662616922
30
0.0
41
1.0
10
135.518021781619
20
-0.177588543926105
30
0.0
41
1.0
10
135.678074121084
20
-0.176609284400493
30
0.0
41
1.0
10
135.820574726364
20
-0.175748835957296
30
0.0
41
1.0
10
135.820574726364
20
-0.175748835957296
30
0.0
41
1.0
10
135.963075331643
20
-0.174888387514099
30
0.0
41
1.0
10
136.088024202737
20
-0.174146750153316
30
0.0
41
1.0
10
136.194877118223
20
-0.173518463280219
30
0.0
41
1.0
10
136.194877118223
20
-0.173518463280219
30
0.0
41
1.0
10
136.301730033709
20
-0.172890176407121
30
0.0
41
1.0
10
136.390486993587
20
-0.172375240021709
30
0.0
41
1.0
10
136.462699454096
20
-0.171958837460949
30
0.0
41
1.0
10
136.462699454096
20
-0.171958837460949
30
0.0
41
1.0
10
136.534911914604
20
-0.171542434900189
30
0.0
41
1.0
10
136.590579875742
20
-0.171224566164082
30
0.0
41
1.0
10
136.623578526252
20
-0.171036361569595
30
0.0
41
1.0
10
136.623578526252
20
-0.171036361569595
30
0.0
41
1.0
10
136.656577176762
20
-0.170848156975108
30
0.0
41
1.0
10
136.666906516643
20
-0.170789616522242
30
0.0
41
1.0
10
136.677235856524
20
-0.170731076069375
30
0.0
41
1.0
11
0.0
21
0.0
31
0.0
11
0.145593058634209
21
-0.454402493606747
31
0.0
11
0.394375475670446
21
-0.87986982164732
31
0.0
11
0.745547866560486
21
-1.27641766342997
31
0.0
11
1.19815305637495
21
-1.64412282331398
31
0.0
11
1.75108008092933
21
-1.98312365531882
31
0.0
11
2.40306912920937
21
-2.29362109180805
31
0.0
11
3.1527173436392
21
-2.57588021738081
31
0.0
11
3.9984853727846
21
-2.83023231178711
31
0.0
11
4.93870455204114
21
-3.05707726985054
31
0.0
11
5.97158457224887
21
-3.25688629231757
31
0.0
11
7.0952214844339
21
-3.43020472952395
31
0.0
11
8.30760588133312
21
-3.57765495002183
31
0.0
11
9.60663109322502
21
-3.69993909906932
31
0.0
11
10.9901012369642
21
-3.7978416073409
31
0.0
11
12.4557389629666
21
-3.87223130853371
31
0.0
11
14.0011927550623
21
-3.92406302584641
31
0.0
11
15.6240436523457
21
-3.95437849167441
31
0.0
11
17.321811280004
21
-3.96430647233307
31
0.0
11
19.0919590970987
21
-3.95506198016934
31
0.0
11
20.9318987927936
21
-3.92794446897492
31
0.0
11
22.8389937878989
21
-3.88433492503195
31
0.0
11
24.8105618250674
21
-3.82569178519722
31
0.0
11
26.8438766577688
21
-3.7535456348893
31
0.0
11
28.9361688744554
21
-3.66949266233752
31
0.0
11
31.0846259193387
21
-3.57518687056791
31
0.0
11
33.286391394142
21
-3.47233107485721
31
0.0
11
35.538563745395
21
-3.36266674024021
31
0.0
11
37.8381944586551
21
-3.24796274051588
31
0.0
11
40.1822858939997
21
-3.13000314643153
31
0.0
11
42.5677889058299
21
-3.01057417567679
31
0.0
11
44.9916003942543
21
-2.89145046032939
31
0.0
11
47.4505609350039
21
-2.77438080781547
31
0.0
11
49.9414526300496
21
-2.66107364866942
31
0.0
11
52.4609973121302
21
-2.55318237785149
31
0.0
11
55.0112559246678
21
-2.45218117843663
31
0.0
11
57.6198891636271
21
-2.35126202085542
31
0.0
11
60.2458717989861
21
-2.24644321005934
31
0.0
11
62.8853520500657
21
-2.13879252451669
31
0.0
11
65.5344413227334
21
-2.02933314487285
31
0.0
11
68.1892189730418
21
-1.9190351020076
31
0.0
11
70.8457374019381
21
-1.80880767569293
31
0.0
11
73.5000274609055
21
-1.6994928540865
31
0.0
11
76.1481041422092
21
-1.59185994040493
31
0.0
11
78.7859725224719
21
-1.48660136782691
31
0.0
11
81.4096339247021
21
-1.38432975760936
31
0.0
11
84.0150922616917
21
-1.28557622920152
31
0.0
11
86.5983605228893
21
-1.19078994544548
31
0.0
11
89.1554673673678
21
-1.10033885136663
31
0.0
11
91.6824637872307
21
-1.0145115421523
31
0.0
11
94.1754298085679
21
-0.933520175205878
31
0.0
11
96.6304812006905
21
-0.857504323092697
31
0.0
11
99.0437761685987
21
-0.786535649132562
31
0.0
11
101.411522008236
21
-0.720623275621685
31
0.0
11
103.729981708787
21
-0.659719706375704
31
0.0
11
105.995480490853
21
-0.60372716056875
31
0.0
11
108.204412273535
21
-0.552504173701456
31
0.0
11
110.353246067058
21
-0.505872323869604
31
0.0
11
112.438532290467
21
-0.463622947144572
31
0.0
11
114.45690901584
21
-0.425523714554258
31
0.0
11
116.405108141486
21
-0.391324954536561
31
0.0
11
118.279961496534
21
-0.36076561843244
31
0.0
11
120.078406878242
21
-0.333578802150551
31
0.0
11
121.797494021369
21
-0.30949675409223
31
0.0
11
123.434390496001
21
-0.288255317275467
31
0.0
11
124.986387526665
21
-0.269597771831536
31
0.0
11
126.450905721368
21
-0.253278062165832
31
0.0
11
127.825500694687
21
-0.239063410591845
31
0.0
11
129.107868564404
21
-0.22673633570986
31
0.0
11
130.295851296599
21
-0.216096108797586
31
0.0
11
131.387441869889
21
-0.206959694647256
31
0.0
11
132.380789225765
21
-0.199162234319049
31
0.0
11
133.274202968971
21
-0.19255713594636
31
0.0
11
134.066157779737
21
-0.187015845856284
31
0.0
11
134.755297498551
21
-0.182427375761685
31
0.0
11
135.340438844132
21
-0.178697662616922
31
0.0
11
135.820574726364
21
-0.175748835957296
31
0.0
11
136.194877118223
21
-0.173518463280219
31
0.0
11
136.462699454096
21
-0.171958837460949
31
0.0
11
136.623578526252
21
-0.171036361569595
31
0.0
11
136.677235856524
21
-0.170731076069375
31
0.0
0
LWPOLYLINE
5
32
330
1C
100
AcDbEntity
67
0
8
CAMBER_LINE
62
256
6
DASHED
370
-1
48
1.0
60
0
100
AcDbPolyline
90
81
70
0
38
0.0
39
0.0
10
0.0
20
0.0
40
0.0
41
0.0
42
0.0
10
0.0526953729465897
20
0.010533996311465
40
0.0
41
0.0
42
0.0
10
0.210700239340704
20
0.042058858053111
40
0.0
41
0.0
42
0.0
10
0.473770967130788
20
0.0943436979446359
40
0.0
41
0.0
42
0.0
10
0.841501920322333
20
0.167005348435523
40
0.0
41
0.0
42
0.0
10
1.3133260844392
20
0.259510817831387
40
0.0
41
0.0
42
0.0
10
1.88851594081881
20
0.371180707441876
40
0.0
41
0.0
42
0.0
10
2.56618458839321
20
0.501193568480202
40
0.0
41
0.0
42
0.0
10
3.34528711122626
20
0.648591171593209
40
0.0
41
0.0
42
0.0
10
4.22462218969821
20
0.812284656217457
40
0.0
41
0.0
42
0.0
10
5.20283395285355
20
0.99106152147604
40
0.0
41
0.0
42
0.0
10
6.27841406905569
20
1.18359341508671
40
0.0
41
0.0
42
0.0
10
7.44970407172505
20
1.38844467177684
40
0.0
41
0.0
42
0.0
10
8.71489791657431
20
1.60408154802534
40
0.0
41
0.0
42
0.0
10
10.0720447663978
20
1.82888209560523
40
0.0
41
0.0
42
0.0
10
11.519051999121
20
2.06114661240933
40
0.0
41
0.0
42
0.0
10
13.0536884344723
20
2.2991086054309
40
0.0
41
0.0
42
0.0
10
14.6735877743011
20
2.540946197563
40
0.0
41
0.0
42
0.0
10
16.3762522512379
20
2.78479390709437
40
0.0
41
0.0
42
0.0
10
18.1590564800709
20
3.02875472643407
40
0.0
41
0.0
42
0.0
10
20.0192515058995
20
3.27091242470502
40
0.0
41
0.0
42
0.0
10
21.9539690428234
20
3.50934399742121
40
0.0
41
0.0
42
0.0
10
23.9602258966319
20
3.74213218551214
40
0.0
41
0.0
42
0.0
10
26.0349285646728
20
3.9673779854883
40
0.0
41
0.0
42
0.0
10
28.1748780058095
20
4.183213072555
40
0.0
41
0.0
42
0.0
10
30.3767745731102
20
4.38781205897911
40
0.0
41
0.0
42
0.0
10
32.6372231016649
20
4.57940451099163
40
0.0
41
0.0
42
0.0
10
34.9527381436831
20
4.75628664896179
40
0.0
41
0.0
42
0.0
10
37.319749342802
20
4.91683265749681
40
0.0
41
0.0
42
0.0
10
39.7346069393168
20
5.05950553449466
40
0.0
41
0.0
42
0.0
10
42.1935873978461
20
5.18286741098898
40
0.0
41
0.0
42
0.0
10
44.6928991487534
20
5.28558927685996
40
0.0
41
0.0
42
0.0
10
47.2286884344723
20
5.36646005112186
40
0.0
41
0.0
42
0.0
10
49.7970452517222
20
5.42439493951403
40
0.0
41
0.0
42
0.0
10
52.3940093804488
20
5.45844302649474
40
0.0
41
0.0
42
0.0
10
55.0155764901976
20
5.46790846819412
40
0.0
41
0.0
42
0.0
10
57.6577043145002
20
5.46079303992149
40
0.0
41
0.0
42
0.0
10
60.3163188837568
20
5.44217858200488
40
0.0
41
0.0
42
0.0
10
62.9873208070018
20
5.41190670650212
40
0.0
41
0.0
42
0.0
10
65.6665915928676
20
5.36988962462125
40
0.0
41
0.0
42
0.0
10
68.35
20
5.31611111111111
40
0.0
41
0.0
42
0.0
10
71.0334084071323
20
5.25062702874871
40
0.0
41
0.0
42
0.0
10
73.7126791929982
20
5.17356540903553
40
0.0
41
0.0
42
0.0
10
76.3836811162432
20
5.08512608794963
40
0.0
41
0.0
42
0.0
10
79.0422956854998
20
4.98557989834372
40
0.0
41
0.0
42
0.0
10
81.6844235098024
20
4.87526742331402
40
0.0
41
0.0
42
0.0
10
84.3059906195511
20
4.75459731757317
40
0.0
41
0.0
42
0.0
10
86.9029547482778
20
4.62404420652722
40
0.0
41
0.0
42
0.0
10
89.4713115655277
20
4.48414617536404
40
0.0
41
0.0
42
0.0
10
92.0071008512466
20
4.33550186299347
40
0.0
41
0.0
42
0.0
10
94.5064126021539
20
4.1787671781216
40
0.0
41
0.0
42
0.0
10
96.9653930606832
20
4.01465165707837
40
0.0
41
0.0
42
0.0
10
99.380250657198
20
3.84391448523423
40
0.0
41
0.0
42
0.0
10
101.747261856317
20
3.66736020592449
40
0.0
41
0.0
42
0.0
10
104.062776898335
20
3.48583414273694
40
0.0
41
0.0
42
0.0
10
106.32322542689
20
3.30021756279561
40
0.0
41
0.0
42
0.0
10
108.525121994191
20
3.11142261028265
40
0.0
41
0.0
42
0.0
10
110.665071435327
20
2.92038704086915
40
0.0
41
0.0
42
0.0
10
112.739774103368
20
2.72806878896682
40
0.0
41
0.0
42
0.0
10
114.746030957177
20
2.53544040075714
40
0.0
41
0.0
42
0.0
10
116.680748494101
20
2.34348336679777
40
0.0
41
0.0
42
0.0
10
118.540943519929
20
2.15318238864051
40
0.0
41
0.0
42
0.0
10
120.323747748762
20
1.96551961431918
40
0.0
41
0.0
42
0.0
10
122.026412225699
20
1.78146887777471
40
0.0
41
0.0
42
0.0
10
123.646311565528
20
1.60198997727917
40
0.0
41
0.0
42
0.0
10
125.180948000879
20
1.42802302769842
40
0.0
41
0.0
42
0.0
10
126.627955233602
20
1.26048292099778
40
0.0
41
0.0
42
0.0
10
127.985102083426
20
1.1002539287479
40
0.0
41
0.0
42
0.0
10
129.250295928275
20
0.948184479533043
40
0.0
41
0.0
42
0.0
10
130.421585930944
20
0.80508214310768
40
0.0
41
0.0
42
0.0
10
131.497166047146
20
0.671708851893954
40
0.0
41
0.0
42
0.0
10
132.475377810302
20
0.548776388972123
40
0.0
41
0.0
42
0.0
10
133.354712888774
20
0.436942170095926
40
0.0
41
0.0
42
0.0
10
134.133815411607
20
0.336805345475344
40
0.0
41
0.0
42
0.0
10
134.811484059181
20
0.24890324512167
40
0.0
41
0.0
42
0.0
10
135.386673915561
20
0.173708189455692
40
0.0
41
0.0
42
0.0
10
135.858498079678
20
0.111624684652337
40
0.0
41
0.0
42
0.0
10
136.226229032869
20
0.0629870198478723
40
0.0
41
0.0
42
0.0
10
136.489299760659
20
0.0280572808831899
40
0.0
41
0.0
42
0.0
10
136.647304627053
20
0.0070237927138319
40
0.0
41
0.0
42
0.0
10
136.7
20
0.0
40
0.0
41
0.0
42
0.0
210
0.0
220
0.0
230
1.0
0
LINE
5
33
330
1C
100
AcDbEntity
67
0
8
STATION_TICKS
62
256
6
ByLayer
370
-1
48
1.0
60
0
100
AcDbLine
10
13.67
20
-6.9129554214976
30
0.0
11
13.67
21
12.0193814743759
31
0.0
39
0.0
210
0.0
220
0.0
230
1.0
0
TEXT
5
34
330
1C
100
AcDbEntity
67
0
8
ANNOTATION
62
256
6
ByLayer
370
-1
48
1.0
60
0
100
AcDbText
1
10%
10
13.67
20
-11.9129554214976
30
0.0
40
3.0
41
1.0
50
0.0
51
0.0
7
Standard
11
13.67
21
-11.9129554214976
31
0.0
210
0.0
220
0.0
230
1.0
71
0
72
0
100
AcDbText
73
0
0
LINE
5
35
330
1C
100
AcDbEntity
67
0
8
STATION_TICKS
62
256
6
ByLayer
370
-1
48
1.0
60
0
100
AcDbLine
10
27.34
20
-6.73361503373734
30
0.0
11
27.34
21
15.0242255926016
31
0.0
39
0.0
210
0.0
220
0.0
230
1.0
0
TEXT
5
36
330
1C
100
AcDbEntity
67
0
8
ANNOTATION
62
256
6
ByLayer
370
-1
48
1.0
60
0
100
AcDbText
1
20%
10
27.34
20
-11.7336150337373
30
0.0
40
3.0
41
1.0
50
0.0
51
0.0
7
Standard
11
27.34
21
-11.7336150337373
31
0.0
210
0.0
220
0.0
230
1.0
71
0
72
0
100
AcDbText
73
0
0
LINE
5
37
330
1C
100
AcDbEntity
67
0
8
STATION_TICKS
62
256
6
ByLayer
370
-1
48
1.0
60
0
100
AcDbLine
10
41.01
20
-6.08856406911203
30
0.0
11
41.01
21
16.3356249648057
31
0.0
39
0.0
210
0.0
220
0.0
230
1.0
0
TEXT
5
38
330
1C
100
AcDbEntity
67
0
8
ANNOTATION
62
256
6
ByLayer
370
-1
48
1.0
60
0
100
AcDbText
1
30%
10
41.01
20
-11.088564069112
30
0.0
40
3.0
41
1.0
50
0.0
51
0.0
7
Standard
11
41.01
21
-11.088564069112
31
0.0
210
0.0
220
0.0
230
1.0
71
0
72
0
100
AcDbText
73
0
0
LINE
5
39
330
1C
100
AcDbEntity
67
0
8
STATION_TICKS
62
256
6
ByLayer
370
-1
48
1.0
60
0
100
AcDbLine
10
54.68
20
-5.46530033645153
30
0.0
11
54.68
21
16.3983571001097
31
0.0
39
0.0
210
0.0
220
0.0
230
1.0
0
TEXT
5
3A
330
1C
100
AcDbEntity
67
0
8
ANNOTATION
62
256
6
ByLayer
370
-1
48
1.0
60
0
100
AcDbText
1
40%
10
54.68
20
-10.4653003364515
30
0.0
40
3.0
41
1.0
50
0.0
51
0.0
7
Standard
11
54.68
21
-10.4653003364515
31
0.0
210
0.0
220
0.0
230
1.0
71
0
72
0
100
AcDbText
73
0
0
LINE
5
3B
330
1C
100
AcDbEntity
67
0
8
STATION_TICKS
62
256
6
ByLayer
370
-1
48
1.0
60
0
100
AcDbLine
10
68.35
20
-4.91236378416235
30
0.0
11
68.35
21
15.5641726841397
31
0.0
39
0.0
210
0.0
220
0.0
230
1.0
0
TEXT
5
3C
330
1C
100
AcDbEntity
67
0
8
ANNOTATION
62
256
6
ByLayer
370
-1
48
1.0
60
0
100
AcDbText
1
50%
10
68.35
20
-9.91236378416235
30
0.0
40
3.0
41
1.0
50
0.0
51
0.0
7
Standard
11
68.35
21
-9.91236378416235
31
0.0
210
0.0
220
0.0
230
1.0
71
0
72
0
100
AcDbText
73
0
0
LINE
5
3D
330
1C
100
AcDbEntity
67
0
8
STATION_TICKS
62
256
6
ByLayer
370
-1
48
1.0
60
0
100
AcDbLine
10
82.02
20
-4.3611953237567
30
0.0
11
82.02
21
14.1270269294014
31
0.0
39
0.0
210
0.0
220
0.0
230
1.0
0
TEXT
5
3E
330
1C
100
AcDbEntity
67
0
8
ANNOTATION
62
256
6
ByLayer
370
-1
48
1.0
60
0
100
AcDbText
1
60%
10
82.02
20
-9.3611953237567
30
0.0
40
3.0
41
1.0
50
0.0
51
0.0
7
Standard
11
82.02
21
-9.3611953237567
31
0.0
210
0.0
220
0.0
230
1.0
71
0
72
0
100
AcDbText
73
0
0
LINE
5
3F
330
1C
100
AcDbEntity
67
0
8
STATION_TICKS
62
256
6
ByLayer
370
-1
48
1.0
60
0
100
AcDbLine
10
95.69
20
-3.88662447923392
30
0.0
11
95.69
21
12.1511132304213
31
0.0
39
0.0
210
0.0
220
0.0
230
1.0
0
TEXT
5
40
330
1C
100
AcDbEntity
67
0
8
ANNOTATION
62
256
6
ByLayer
370
-1
48
1.0
60
0
100
AcDbText
1
70%
10
95.69
20
-8.88662447923392
30
0.0
40
3.0
41
1.0
50
0.0
51
0.0
7
Standard
11
95.69
21
-8.88662447923392
31
0.0
210
0.0
220
0.0
230
1.0
71
0
72
0
100
AcDbText
73
0
0
LINE
5
41
330
1C
100
AcDbEntity
67
0
8
STATION_TICKS
62
256
6
ByLayer
370
-1
48
1.0
60
0
100
AcDbLine
10
109.36
20
-3.52742676032167
30
0.0
11
109.36
21
9.67191497470422
31
0.0
39
0.0
210
0.0
220
0.0
230
1.0
0
TEXT
5
42
330
1C
100
AcDbEntity
67
0
8
ANNOTATION
62
256
6
ByLayer
370
-1
48
1.0
60
0
100
AcDbText
1
80%
10
109.36
20
-8.52742676032167
30
0.0
40
3.0
41
1.0
50
0.0
51
0.0
7
Standard
11
109.36
21
-8.52742676032167
31
0.0
210
0.0
220
0.0
230
1.0
71
0
72
0
100
AcDbText
73
0
0
LINE
5
43
330
1C
100
AcDbEntity
67
0
8
STATION_TICKS
62
256
6
ByLayer
370
-1
48
1.0
60
0
100
AcDbLine
10
123.03
20
-3.2935029522392
30
0.0
11
123.03
21
6.68868731713834
31
0.0
39
0.0
210
0.0
220
0.0
230
1.0
0
TEXT
5
44
330
1C
100
AcDbEntity
67
0
8
ANNOTATION
62
256
6
ByLayer
370
-1
48
1.0
60
0
100
AcDbText
1
90%
10
123.03
20
-8.2935029522392
30
0.0
40
3.0
41
1.0
50
0.0
51
0.0
7
Standard
11
123.03
21
-8.2935029522392
31
0.0
210
0.0
220
0.0
230
1.0
71
0
72
0
100
AcDbText
73
0
0
LINE
5
45
330
1C
100
AcDbEntity
67
0
8
DIMENSIONS
62
256
6
ByLayer
370
-1
48
1.0
60
0
100
AcDbLine
10
41.8302
20
13.3766715383604
30
0.0
11
41.8302
21
-3.0475011816113
31
0.0
39
0.0
210
0.0
220
0.0
230
1.0
0
LINE
5
46
330
1C
100
AcDbEntity
67
0
8
DIMENSIONS
62
256
6
ByLayer
370
-1
48
1.0
60
0
100
AcDbLine
10
41.8302
20
5.16458517837456
30
0.0
11
56.8302
21
5.16458517837456
31
0.0
39
0.0
210
0.0
220
0.0
230
1.0
0
TEXT
5
47
330
1C
100
AcDbEntity
67
0
8
DIMENSIONS
62
256
6
ByLayer
370
-1
48
1.0
60
0
100
AcDbText
1
t=16.39mm (12.0%c)
10
59.8302
20
7.16458517837456
30
0.0
40
3.0
41
1.0
50
0.0
51
0.0
7
Standard
11
59.8302
21
7.16458517837456
31
0.0
210
0.0
220
0.0
230
1.0
71
0
72
0
100
AcDbText
73
0
0
LINE
5
48
330
1C
100
AcDbEntity
67
0
8
DIMENSIONS
62
256
6
ByLayer
370
-1
48
1.0
60
0
100
AcDbLine
10
54.9534
20
0.0
30
0.0
11
54.9534
21
5.468
31
0.0
39
0.0
210
0.0
220
0.0
230
1.0
0
LINE
5
49
330
1C
100
AcDbEntity
67
0
8
DIMENSIONS
62
256
6
ByLayer
370
-1
48
1.0
60
0
100
AcDbLine
10
54.9534
20
2.734
30
0.0
11
39.9534
21
2.734
31
0.0
39
0.0
210
0.0
220
0.0
230
1.0
0
TEXT
5
4A
330
1C
100
AcDbEntity
67
0
8
DIMENSIONS
62
256
6
ByLayer
370
-1
48
1.0
60
0
100
AcDbText
1
f=5.47mm (4.0%c)
10
36.9534
20
4.734
30
0.0
40
3.0
41
1.0
50
0.0
51
0.0
7
Standard
11
36.9534
21
4.734
31
0.0
210
0.0
220
0.0
230
1.0
71
0
72
0
100
AcDbText
73
0
0
CIRCLE
5
4B
330
1C
100
AcDbEntity
67
0
8
DIMENSIONS
62
256
6
DASHED
370
-1
48
1.0
60
0
100
AcDbCircle
10
0.0
20
0.0
30
0.0
40
2.575
39
0.0
210
0.0
220
0.0
230
1.0
0
TEXT
5
4C
330
1C
100
AcDbEntity
67
0
8
ANNOTATION
62
256
6
ByLayer
370
-1
48
1.0
60
0
100
AcDbText
1
r_LE=2.575mm
10
5.0
20
21.3766715383604
30
0.0
40
3.5
41
1.0
50
0.0
51
0.0
7
Standard
11
5.0
21
21.3766715383604
31
0.0
210
0.0
220
0.0
230
1.0
71
0
72
0
100
AcDbText
73
0
0
LINE
5
4D
330
1C
100
AcDbEntity
67
0
8
CENTERLINE
62
256
6
ByLayer
370
-1
48
1.0
60
0
100
AcDbLine
10
0.0
20
0.0
30
0.0
11
136.7
21
0.0
31
0.0
39
0.0
210
0.0
220
0.0
230
1.0
0
TEXT
5
4E
330
1C
100
AcDbEntity
67
0
8
ANNOTATION
62
256
6
ByLayer
370
-1
48
1.0
60
0
100
AcDbText
1
LE
10
-4.0
20
7.0
30
0.0
40
5.0
41
1.0
50
0.0
51
0.0
7
Standard
11
-4.0
21
7.0
31
0.0
210
0.0
220
0.0
230
1.0
71
0
72
0
100
AcDbText
73
0
0
TEXT
5
4F
330
1C
100
AcDbEntity
67
0
8
ANNOTATION
62
256
6
ByLayer
370
-1
48
1.0
60
0
100
AcDbText
1
TE
10
139.7
20
7.0
30
0.0
40
5.0
41
1.0
50
0.0
51
0.0
7
Standard
11
139.7
21
7.0
31
0.0
210
0.0
220
0.0
230
1.0
71
0
72
0
100
AcDbText
73
0
0
LINE
5
50
330
1C
100
AcDbEntity
67
0
8
DIMENSIONS
62
256
6
ByLayer
370
-1
48
1.0
60
0
100
AcDbLine
10
0.0
20
-24.606
30
0.0
11
136.7
21
-24.606
31
0.0
39
0.0
210
0.0
220
0.0
230
1.0
0
LINE
5
51
330
1C
100
AcDbEntity
67
0
8
DIMENSIONS
62
256
6
ByLayer
370
-1
48
1.0
60
0
100
AcDbLine
10
0.0
20
-30.606
30
0.0
11
0.0
21
-18.606
31
0.0
39
0.0
210
0.0
220
0.0
230
1.0
0
LINE
5
52
330
1C
100
AcDbEntity
67
0
8
DIMENSIONS
62
256
6
ByLayer
370
-1
48
1.0
60
0
100
AcDbLine
10
136.7
20
-30.606
30
0.0
11
136.7
21
-18.606
31
0.0
39
0.0
210
0.0
220
0.0
230
1.0
0
TEXT
5
53
330
1C
100
AcDbEntity
67
0
8
DIMENSIONS
62
256
6
ByLayer
370
-1
48
1.0
60
0
100
AcDbText
1
Chord=136.7mm
10
50.15
20
-35.606
30
0.0
40
5.0
41
1.0
50
0.0
51
0.0
7
Standard
11
50.15
21
-35.606
31
0.0
210
0.0
220
0.0
230
1.0
71
0
72
0
100
AcDbText
73
0
0
TEXT
5
54
330
1C
100
AcDbEntity
67
0
8
ANNOTATION
62
256
6
ByLayer
370
-1
48
1.0
60
0
100
AcDbText
1
Blade Angle B=22.0deg
10
141.7
20
-8.0
30
0.0
40
5.0
41
1.0
50
0.0
51
0.0
7
Standard
11
141.7
21
-8.0
31
0.0
210
0.0
220
0.0
230
1.0
71
0
72
0
100
AcDbText
73
0
0
TEXT
5
55
330
1C
100
AcDbEntity
67
0
8
ANNOTATION
62
256
6
ByLayer
370
-1
48
1.0
60
0
100
AcDbText
1
Profile: NACA 4412
10
141.7
20
-20.0
30
0.0
40
5.0
41
1.0
50
0.0
51
0.0
7
Standard
11
141.7
21
-20.0
31
0.0
210
0.0
220
0.0
230
1.0
71
0
72
0
100
AcDbText
73
0
0
LINE
5
56
330
1C
100
AcDbEntity
67
0
8
ANNOTATION
62
256
6
ByLayer
370
-1
48
1.0
60
0
100
AcDbLine
10
-40.0
20
-8.0
30
0.0
11
-5.0
21
-8.0
31
0.0
39
0.0
210
0.0
220
0.0
230
1.0
0
TEXT
5
57
330
1C
100
AcDbEntity
67
0
8
ANNOTATION
62
256
6
ByLayer
370
-1
48
1.0
60
0
100
AcDbText
1
V_inf
10
-45.0
20
-4.0
30
0.0
40
4.5
41
1.0
50
0.0
51
0.0
7
Standard
11
-45.0
21
-4.0
31
0.0
210
0.0
220
0.0
230
1.0
71
0
72
0
100
AcDbText
73
0
0
TEXT
5
58
330
1C
100
AcDbEntity
67
0
8
TITLE_BLOCK
62
256
6
ByLayer
370
-1
48
1.0
60
0
100
AcDbText
1
DWG-003  BLADE AEROFOIL SECTION (NACA 4412)
10
0.0
20
-89.68
30
0.0
40
6.0
41
1.0
50
0.0
51
0.0
7
Standard
11
0.0
21
-89.68
31
0.0
210
0.0
220
0.0
230
1.0
71
0
72
0
100
AcDbText
73
0
0
TEXT
5
59
330
1C
100
AcDbEntity
67
0
8
ANNOTATION
62
256
6
ByLayer
370
-1
48
1.0
60
0
100
AcDbText
1
Chord=136.7mm  B=22.0deg  Span=220.0mm
10
0.0
20
-99.68
30
0.0
40
4.5
41
1.0
50
0.0
51
0.0
7
Standard
11
0.0
21
-99.68
31
0.0
210
0.0
220
0.0
230
1.0
71
0
72
0
100
AcDbText
73
0
0
TEXT
5
5A
330
1C
100
AcDbEntity
67
0
8
ANNOTATION
62
256
6
ByLayer
370
-1
48
1.0
60
0
100
AcDbText
1
AxialFlow Designer  |  For Engineering Reference Only
10
0.0
20
-109.68
30
0.0
40
3.5
41
1.0
50
0.0
51
0.0
7
Standard
11
0.0
21
-109.68
31
0.0
210
0.0
220
0.0
230
1.0
71
0
72
0
100
AcDbText
73
0
0
VIEWPORT
5
5F
330
5B
100
AcDbEntity
67
1
8
0
62
256
6
ByLayer
370
-1
48
1.0
60
0
100
AcDbViewport
10
0.0
20
0.0
30
0.0
40
297.0
41
210.0
68
1
69
1
12
50.0
22
100.0
13
0.0
23
0.0
14
10.0
24
10.0
15
10.0
25
10.0
16
0.0
26
0.0
36
1.0
17
0.0
27
0.0
37
0.0
42
50.0
43
0.0
44
0.0
45
250.0
50
0.0
51
0.0
72
1000
90
819232
110
0.0
120
0.0
130
0.0
111
1.0
121
0.0
131
0.0
112
0.0
122
1.0
132
0.0
0
ENDSEC
0
SECTION
2
OBJECTS
0
DICTIONARY
5
65
330
0
100
AcDbDictionary
280
1
281
1
3
ACAD_GROUP
350
12
3
ACAD_LAYOUT
350
5E
3
ACAD_DGNDEFINITIONS
350
F
3
ACAD_DWFDEFINITIONS
350
10
3
ACAD_PDFDEFINITIONS
350
11
3
ACAD_MLINESTYLE
350
B
3
ACAD_IMAGE_DICT
350
E
3
ACAD_IMAGE_VARS
350
21
0
DICTIONARY
5
12
330
65
100
AcDbDictionary
280
1
281
1
0
DICTIONARY
5
5E
330
65
100
AcDbDictionary
280
1
281
1
3
Model
350
20
3
Layout1
350
60
0
DICTIONARY
5
F
330
65
100
AcDbDictionary
280
1
281
1
0
DICTIONARY
5
10
330
65
100
AcDbDictionary
280
1
281
1
0
DICTIONARY
5
11
330
65
100
AcDbDictionary
280
1
281
1
0
DICTIONARY
5
B
330
65
100
AcDbDictionary
280
1
281
1
3
Standard
350
1B
0
DICTIONARY
5
E
330
65
100
AcDbDictionary
280
1
281
1
0
DICTIONARY
5
6
330
5
100
AcDbDictionary
280
1
281
1
3
ACAD_LAYERSTATES
360
66
0
DICTIONARY
5
66
330
6
100
AcDbDictionary
280
1
281
1
0
LAYOUT
5
20
330
5E
100
AcDbPlotSettings
1

2
none_device
4
ISO_A4_(210.00_x_297.00_MM)
6

40
7.5
41
20.0
42
7.5
43
20.0
44
210.0
45
297.0
46
0.0
47
0.0
48
0.0
49
0.0
140
0.0
141
0.0
142
1.0
143
1.0
70
11952
72
1
73
1
74
1
7

75
0
76
0
77
2
78
300
147
1.0
148
0.0
149
0.0
100
AcDbLayout
1
Model
71
0
10
-20.0
20
-7.5
11
277.0
21
202.5
12
0.0
22
0.0
32
0.0
14
25.7
24
19.5
34
0.0
15
231.3
25
175.5
35
0.0
146
0.0
13
0.0
23
0.0
33
0.0
16
1.0
26
0.0
36
0.0
17
0.0
27
1.0
37
0.0
76
0
330
1C
0
LAYOUT
5
60
330
5E
100
AcDbPlotSettings
1

2
none_device
4
ISO_A4_(210.00_x_297.00_MM)
6

40
7.5
41
20.0
42
7.5
43
20.0
44
210.0
45
297.0
46
0.0
47
0.0
48
0.0
49
0.0
140
0.0
141
0.0
142
1.0
143
1.0
70
688
72
1
73
1
74
1
7

75
0
76
0
77
2
78
300
147
1.0
148
0.0
149
0.0
100
AcDbLayout
1
Layout1
71
1
10
-20.0
20
-7.5
11
277.0
21
202.5
12
0.0
22
0.0
32
0.0
14
25.7
24
19.5
34
0.0
15
231.3
25
175.5
35
0.0
146
0.0
13
0.0
23
0.0
33
0.0
16
1.0
26
0.0
36
0.0
17
0.0
27
1.0
37
0.0
76
0
330
5B
0
MLINESTYLE
5
1B
330
B
100
AcDbMlineStyle
2
Standard
70
0
3

62
256
51
90.0
52
90.0
71
2
49
0.5
62
256
6
ByLayer
49
-0.5
62
256
6
ByLayer
0
RASTERVARIABLES
5
21
330
E
100
AcDbRasterVariables
90
0
70
1
71
1
72
0
0
ENDSEC
0
EOF
